/* XPM */
static char * digit_2_xpm[] = {
"25 32 52 1",
" 	c None",
".	c #55AAFF",
"+	c #1C3855",
"@	c #000000",
"#	c #3871AA",
"$	c #388DC6",
"%	c #38558D",
"&	c #001C1C",
"*	c #71AAFF",
"=	c #71C6FF",
"-	c #8DC6FF",
";	c #AAC6FF",
">	c #8DC6E2",
",	c #8DAAE2",
"'	c #55718D",
")	c #385571",
"!	c #383855",
"~	c #71AAC6",
"{	c #AAE2FF",
"]	c #718DAA",
"^	c #385555",
"/	c #1C1C1C",
"(	c #8DAAC6",
"_	c #C6E2FF",
":	c #AAC6E2",
"<	c #383838",
"[	c #8DAAAA",
"}	c #AAC6C6",
"|	c #555555",
"1	c #AAAAC6",
"2	c #555571",
"3	c #E2E2FF",
"4	c #1C1C38",
"5	c #E2FFFF",
"6	c #8D8DAA",
"7	c #8D8D8D",
"8	c #FFFFFF",
"9	c #C6C6E2",
"0	c #E2E2E2",
"a	c #C6C6C6",
"b	c #717171",
"c	c #AAAAAA",
"d	c #557171",
"e	c #C6E2E2",
"f	c #71AAE2",
"g	c #38718D",
"h	c #00001C",
"i	c #558DE2",
"j	c #1C5571",
"k	c #1C3871",
"l	c #55AAE2",
"m	c #388DE2",
".........+@@@@@+.........",
".....#$$%&@@@@@&%$$#.....",
"*****@@@@@@@@@@@@@@@*****",
"=====***************=====",
"-------------------------",
";;;;;;;>,')!!!)'~>;;;;;;;",
"{{{{{]^@@@@//@@@@@^({{{{{",
"___{^@@@@/({_:!@@@@@]____",
"___<@@@@@(____:@@@@@@[___",
"__}@@@@@^______|@@@@@!___",
"__:@@@@@1______2@@@@@@___",
"3331|/&^3333333|@@@@@@333",
"333333333333333/@@@@@4333",
"555555555555556@@@@@@7555",
"88888888888889/@@@@@|8888",
"8888888888880/@@@@@788888",
"88888888888a/@@@@|a888888",
"8888888885b@@@/|088888888",
"55555555c/@@/705555555555",
"5555553d@@@73555555555555",
"333339<@@!e33333333333333",
"____1@@@|____________b/9_",
"___}@@@/}::::::::::1|@4__",
"__:/@@@@@@@@@@@@@@@@@@2__",
"__d@@@@@@@@@@@@@@@@@@@(__",
"{{/@@@@@@@@@@@@@@@@@@@;{{",
";;'!!!!!!!!!!!!!!!!!!';;;",
"-------------------------",
"----------=====----------",
"=====*fg44h@@@h44gf*=====",
"....i+@@@@4j%+@@@@@kl....",
"...mh@@@@+....#@@@@@4...."};
