/* XPM */
static char * digit_0_xpm[] = {
"25 32 49 1",
" 	c None",
".	c #55AAFF",
"+	c #1C558D",
"@	c #000000",
"#	c #3871AA",
"$	c #00001C",
"%	c #388DC6",
"&	c #38558D",
"*	c #1C5571",
"=	c #1C3838",
"-	c #558DC6",
";	c #71AAFF",
">	c #385571",
",	c #1C3855",
"'	c #71C6FF",
")	c #71AAE2",
"!	c #558DAA",
"~	c #8DC6FF",
"{	c #AAC6FF",
"]	c #71AAC6",
"^	c #55718D",
"/	c #557171",
"(	c #383855",
"_	c #8DAAC6",
":	c #AAE2FF",
"<	c #718DAA",
"[	c #1C1C1C",
"}	c #C6E2FF",
"|	c #385555",
"1	c #AAC6E2",
"2	c #555571",
"3	c #718D8D",
"4	c #71718D",
"5	c #8D8DAA",
"6	c #001C1C",
"7	c #E2E2FF",
"8	c #8DAAAA",
"9	c #555555",
"0	c #E2FFFF",
"a	c #383838",
"b	c #FFFFFF",
"c	c #717171",
"d	c #1C1C38",
"e	c #C6E2E2",
"f	c #C6C6E2",
"g	c #8DC6E2",
"h	c #38718D",
"i	c #388DE2",
"j	c #1C3871",
"...+@@@@@#....#@@@@$%....",
"....&@@@@@*%%*@@@@=-.....",
";;;;;->$@@@@@@@@,-;;;;;;;",
"'''''''';)!!!-;;'''''''''",
"~~~~~~~~~~~~~~~~~~~~~~~~~",
"{{{{{{{{]^/(((^^_{{{{{{{{",
"::::::<=@@@@[@@@@=<::::::",
"}}}}:|@@@@|1}1=@@@@2:}}}}",
"}}}}|@@@@[}}}}1[@@@@2}}}}",
"}}}3@@@@@4}}}}}4@@@@@5}}}",
"}}}6@@@@@1}}}}}1@@@@@[}}}",
"778@@@@@[777777}[@@@@@877",
"779@@@@@[7777777[@@@@@977",
"00a@@@@@900000009@@@@@a00",
"bb@@@@@@/bbbbbbb/@@@@@@bb",
"bb@@@@@@cbbbbbbbc@@@@@@bb",
"bb@@@@@@cbbbbbbbc@@@@@@bb",
"bb@@@@@@cbbbbbbbc@@@@@@bb",
"00a@@@@@/0000000/@@@@@a00",
"009@@@@@d0000000d@@@@@900",
"775@@@@@[7777777[@@@@@577",
"}}e$@@@@@f}}}}}f@@@@@$e}}",
"}}}/@@@@@5}}}}}5@@@@@/}}}",
"}}}}a@@@@a}}}}}d@@@@[}}}}",
"}}}}1=@@@@4}}}2@@@@[1}}}}",
":::::1/@@@@d2[@@@@/1:::::",
"{{{{{{{g^((666((^g{{{{{{{",
"~~~~~~~~~~~~~~~~~~~~~~~~~",
"~~~~~~~~~~~~~'''~~~~~~~~~",
"'''''';)!h>>,d@>'''''''''",
".....>@@@@@@@@@,.........",
".....i#+j@@@@@@,........."};
