/* XPM */
static char * digit_5_xpm[] = {
"25 32 56 1",
" 	c None",
".	c #55AAFF",
"+	c #3871AA",
"@	c #000000",
"#	c #1C558D",
"$	c #558DE2",
"%	c #1C5571",
"&	c #38558D",
"*	c #001C1C",
"=	c #38718D",
"-	c #71AAFF",
";	c #55AAE2",
">	c #1C1C38",
",	c #385571",
"'	c #71C6FF",
")	c #8DC6FF",
"!	c #AAC6FF",
"~	c #8DC6E2",
"{	c #55718D",
"]	c #8DAAE2",
"^	c #AAE2FF",
"/	c #71718D",
"(	c #C6E2FF",
"_	c #383838",
":	c #8DAAAA",
"<	c #385555",
"[	c #383855",
"}	c #718D8D",
"|	c #718DAA",
"1	c #AAAAC6",
"2	c #E2E2FF",
"3	c #C6E2E2",
"4	c #1C1C1C",
"5	c #1C3838",
"6	c #E2FFFF",
"7	c #555555",
"8	c #C6C6E2",
"9	c #8D8D8D",
"0	c #E2E2E2",
"a	c #FFFFFF",
"b	c #C6C6C6",
"c	c #717171",
"d	c #AAAAAA",
"e	c #8D8DAA",
"f	c #555571",
"g	c #AAC6E2",
"h	c #AAC6C6",
"i	c #557171",
"j	c #8DAAC6",
"k	c #71AAC6",
"l	c #5571AA",
"m	c #1C3855",
"n	c #00001C",
"o	c #558DC6",
"p	c #388DC6",
"q	c #388DE2",
"............+@@@@@#......",
"........$%&&*@@@@@*%&=...",
"--------;>>>>>>>>>>>>,---",
"'''''''''''''''''''''''''",
")))))))))))))))))))))))))",
"!!!!~{{{{{{{{{{{{{{{{]!!!",
"^^^^/@@@@@@@@@@@@@@@@]^^^",
"((((/@@@@@@@@@@@@@@@_((((",
"((((/@@@@@@@@@@@@@@@:((((",
"((((<@@[}}}}}}}}}}}|(((((",
"(((([@@1(((((((((((((((((",
"2222[@@322222222222222222",
"22224@5222222222222222222",
"6666@@7689<4@@@>7:0666666",
"aaaa@@_7@@@@@@@@@@4}6aaaa",
"aaa8@@@_90aab7@@@@@@<aaaa",
"aaa2c@daaaaaaad@@@@@@9aaa",
"aaaaa0aaaaaaaaa7@@@@@@0aa",
"666666666666666d@@@@@@:66",
"6666666666666663@@@@@@/66",
"2222d}e222222223@@@@@@/22",
"((([@@@f(((((((g@@@@@@1((",
"((/@@@@@h((((((|@@@@@4(((",
"((:@@@@@<(((((([@@@@@:(((",
"((({@@@@@f((((i@@@@@{((((",
"^^^^j5@@@@4<<4@@@@[j^^^^^",
"!!!!!!k{,[****[i{]!!!!!!!",
")))))))))))))))))))))))))",
")))))))))))''''')))))))))",
"'''''''-lm>n@@@*>mo-'''''",
".....;&@@@@>,%>@@@@>$....",
"....p>@@@@=....m@@@@nq..."};
