/* XPM */
static char * digit_1_xpm[] = {
"25 32 36 1",
" 	c None",
".	c #55AAFF",
"+	c #3871AA",
"@	c #00001C",
"#	c #000000",
"$	c #388DC6",
"%	c #001C1C",
"&	c #38558D",
"*	c #71AAFF",
"=	c #55AAE2",
"-	c #38718D",
";	c #1C1C38",
">	c #71C6FF",
",	c #71AAE2",
"'	c #558DAA",
")	c #8DC6FF",
"!	c #AAC6FF",
"~	c #8DC6E2",
"{	c #8DAAE2",
"]	c #718DAA",
"^	c #55718D",
"/	c #383855",
"(	c #AAE2FF",
"_	c #71AAAA",
":	c #385555",
"<	c #1C1C1C",
"[	c #C6E2FF",
"}	c #555555",
"|	c #E2E2FF",
"1	c #E2FFFF",
"2	c #FFFFFF",
"3	c #555571",
"4	c #1C3838",
"5	c #385571",
"6	c #1C3855",
"7	c #1C5571",
"....+@####$...+#####+....",
".....+%###%&$&####%+.....",
"******=-;#######;-=******",
">>>>>>>>>*,''',*>>>>>>>>>",
")))))))))))))))))))))))))",
"!!!!!!!!!~{{]^/'!!!!!!!!!",
"(((((_:/<######:(((((((((",
"[[[[[]:<%######:[[[[[[[[[",
"[[[[[[[[(;#####:[[[[[[[[[",
"[[[[[[[[[:#####:[[[[[[[[[",
"[[[[[[[[[}#####}[[[[[[[[[",
"|||||||||}#####}|||||||||",
"|||||||||}#####}|||||||||",
"111111111}#####}111111111",
"222222222}#####}222222222",
"222222222}#####}222222222",
"222222222}#####}222222222",
"222222222}#####}222222222",
"111111111}#####}111111111",
"111111111}#####}111111111",
"|||||||||}#####}|||||||||",
"[[[[[[[[[}#####}[[[[[[[[[",
"[[[[[[[[[:#####:[[[[[[[[[",
"[[[[[[[[[:#####:[[[[[[[[[",
"[[[[[[[[(/#####/([[[[[[[[",
"(((((:334#######433:(((((",
"!!!!!://///////////:!!!!!",
")))))))))))))))))))))))))",
"))))))))))>>>>>))))))))))",
">>>>>>,-54@###@;5-,>>>>>>",
"....=6@###;7&4####@5.....",
"...$#####6....+#####6...."};
