/* XPM */
static char * digit_8_xpm[] = {
"25 32 47 1",
" 	c None",
".	c #55AAFF",
"+	c #1C3855",
"@	c #000000",
"#	c #001C1C",
"$	c #71AAFF",
"%	c #558DC6",
"&	c #00001C",
"*	c #3871AA",
"=	c #71C6FF",
"-	c #558DAA",
";	c #8DC6FF",
">	c #AAC6FF",
",	c #8DC6E2",
"'	c #55718D",
")	c #385571",
"!	c #383855",
"~	c #AAE2FF",
"{	c #718DAA",
"]	c #1C1C1C",
"^	c #8DAAC6",
"/	c #C6E2FF",
"(	c #385555",
"_	c #AAC6E2",
":	c #555571",
"<	c #557171",
"[	c #383838",
"}	c #8DAAAA",
"|	c #AAC6C6",
"1	c #71718D",
"2	c #1C3838",
"3	c #AAAAC6",
"4	c #C6C6E2",
"5	c #8D8DAA",
"6	c #E2E2FF",
"7	c #8D8D8D",
"8	c #555555",
"9	c #E2FFFF",
"0	c #C6C6C6",
"a	c #FFFFFF",
"b	c #717171",
"c	c #E2E2E2",
"d	c #C6E2E2",
"e	c #1C1C38",
"f	c #38558D",
"g	c #1C3871",
"h	c #388DE2",
".......+@@@@@#...........",
".......+@@@@@#...........",
"$$$$$$$%#@@@&*$$$$$$$$$$$",
"=========%-%=============",
";;;;;;;;;;;;;;;;;;;;;;;;;",
">>>>>>>,'')!!!)'',>>>>>>>",
"~~~~~{!@@@@@]@@@@@!^~~~~~",
"///~(@@@@@{_/_:@@@@@'////",
"///<@@@@@://///[@@@@@}///",
"///&@@@@@|/////1@@@@@2///",
"//3@@@@@@4/////5@@@@@@///",
"66_@@@@@@4666665@@@@@]666",
"6662@@@@@7666668@@@@@<666",
"9994]@@@@]49990@@@@@[6999",
"aaaa68]@@@]737@@@@]baaaaa",
"aaaaa0b@@@@@@@@@@]1caaaaa",
"aaac8@@@@@8da08@@@@@b6aaa",
"aac]@@@@@baaaaab@@@@@[6aa",
"99<@@@@@]c99999c]@@@@@799",
"99]@@@@@899999998@@@@@]99",
"66@@@@@@:6666666:@@@@@@66",
"//&@@@@@:///////:@@@@@&//",
"//!@@@@@e///////]@@@@@!//",
"//|@@@@@@|/////^@@@@@@|//",
"///{@@@@@2_///^]@@@@@{///",
"~~~~,[@@@@@[:[@@@@@[,~~~~",
">>>>>>,'!!e###e!!',>>>>>>",
";;;;;;;;;;;;;;;;;;;;;;;;;",
";;;;;;;;;;=====;;;;;;;;;;",
"======$-+e#@@@#e+%$======",
".....*#@@@@+f+#@@@#%.....",
"....g@@@@#h...h#@@@@*...."};
