/* XPM */
static char * digit_7_xpm[] = {
"25 32 56 1",
" 	c None",
".	c #55AAFF",
"+	c #1C3855",
"@	c #000000",
"#	c #1C558D",
"$	c #00001C",
"%	c #388DC6",
"&	c #1C5571",
"*	c #3871AA",
"=	c #1C3871",
"-	c #1C3838",
";	c #558DC6",
">	c #71AAFF",
",	c #385571",
"'	c #71C6FF",
")	c #71AAE2",
"!	c #558DAA",
"~	c #8DC6FF",
"{	c #AAC6FF",
"]	c #55718D",
"^	c #71AAC6",
"/	c #AAE2FF",
"(	c #718DAA",
"_	c #383855",
":	c #C6E2FF",
"<	c #385555",
"[	c #AAC6E2",
"}	c #1C1C1C",
"|	c #557171",
"1	c #718D8D",
"2	c #555555",
"3	c #AAC6C6",
"4	c #383838",
"5	c #E2E2FF",
"6	c #C6E2E2",
"7	c #AAAAC6",
"8	c #C6C6E2",
"9	c #E2FFFF",
"0	c #717171",
"a	c #AAAAAA",
"b	c #FFFFFF",
"c	c #71718D",
"d	c #8D8D8D",
"e	c #C6C6C6",
"f	c #8D8DAA",
"g	c #555571",
"h	c #8DC6E2",
"i	c #001C1C",
"j	c #8DAAE2",
"k	c #38718D",
"l	c #1C1C38",
"m	c #558DE2",
"n	c #38558D",
"o	c #55AAE2",
"p	c #388DE2",
"q	c #3871C6",
"....+@@@@+.....#@@@@$%...",
".....&@@@@+*%*=@@@@-;....",
">>>>>>;,$@@@@@@@$+;>>>>>>",
"'''''''''>)!!!)>'''''''''",
"~~~~~~~~~~~~~~~~~~~~~~~~~",
"{{{~]]]]]]]]]]]]]]]]]]^{{",
"///(@@@@@@@@@@@@@@@@@@_//",
":::<@@@@@@@@@@@@@@@@@@(::",
"::[@@@@@@@@@@@@@@@@@@@:::",
"::(@}|111111111112@@@1:::",
"::2}3::::::::::::2@@4::::",
"55565555555555557@@}85555",
"5555555555555555}@@755555",
"9999999999999990@@a999999",
"bbbbbbbbbbbbbbc@@dbbbbbbb",
"bbbbbbbbbbbbbd@@0bbbbbbbb",
"bbbbbbbbbbbb1@@4bbbbbbbbb",
"bbbbbbbbbbbc@@@ebbbbbbbbb",
"9999999999d@@@}9999999999",
"999999999a@@@@09999999999",
"555555558}@@@@f5555555555",
"::::::::2@@@@@[::::::::::",
":::::::[@@@@@@[::::::::::",
":::::::|@@@@@}:::::::::::",
":::::::<@@@@@}:::::::::::",
"///////g@@@@@-///////////",
"{{{{{{{h|}i},j{{{{{{{{{{{",
"~~~~~~~~~~~~~~~~~~~~~~~~~",
"~~~~~~~~~~'''''~~~~~~~~~~",
"'''''>)kll$@@@$llk)>'''''",
"....m+@@@@i+n+@@@@@=o....",
"...%$@@@@$p...q@@@@@l...."};
