/* XPM */
static char * digit_3_xpm[] = {
"25 32 45 1",
" 	c None",
".	c #55AAFF",
"+	c #3871AA",
"@	c #000000",
"#	c #1C1C38",
"$	c #558DE2",
"%	c #71AAFF",
"&	c #71C6FF",
"*	c #8DC6FF",
"=	c #AAC6FF",
"-	c #8DC6E2",
";	c #55718D",
">	c #385571",
",	c #383855",
"'	c #AAE2FF",
")	c #718DAA",
"!	c #1C1C1C",
"~	c #8DAAC6",
"{	c #C6E2FF",
"]	c #385555",
"^	c #AAC6E2",
"/	c #71718D",
"(	c #555555",
"_	c #AAC6C6",
":	c #555571",
"<	c #E2E2FF",
"[	c #718D8D",
"}	c #C6E2E2",
"|	c #C6C6E2",
"1	c #E2FFFF",
"2	c #C6C6C6",
"3	c #FFFFFF",
"4	c #383838",
"5	c #717171",
"6	c #AAAAAA",
"7	c #8D8D8D",
"8	c #8D8DAA",
"9	c #71AAC6",
"0	c #001C1C",
"a	c #1C3838",
"b	c #1C3855",
"c	c #5571AA",
"d	c #38718D",
"e	c #1C5571",
"f	c #38558D",
"..+@@@@@@@@@@@@@@@@@@@+..",
"..#@@@@@@@@@@@@@@@@@@@$..",
"%%#@@@@@@@@@@@@@@@@@@#%%%",
"&&&%%%%%%%%%%%%%%%%%%&&&&",
"*************************",
"=======-;;>,,,>;;-=======",
"'''''),@@@@!!@@@@@,~'''''",
"{{{']@@@@!~'{^]@@@@@;{{{{",
"{{{/@@@@@~{{{{^@@@@@@~{{{",
"{{{,@@@@]{{{{{{,@@@@@({{{",
"{{{_!@@@_{{{{{{:@@@@@,{{{",
"<<<<<_[_<<<<<<<]@@@@@(<<<",
"<<<<<<<<<<<<<<}!@@@@@|<<<",
"1111111<<1111<(@@@@!21111",
"333333<!@4(55!@@!]6333333",
"3333332@@@@@@@@@456333333",
"3333333757}332(@@@@!73333",
"333333333333333(@@@@@(333",
"111111111111111|@@@@@@711",
"111111111111111<!@@@@@411",
"<<<<6[8}<<<<<<<<!@@@@@@<<",
"{{|4@@@:{{{{{{{{!@@@@@@{{",
"{{/@@@@@_{{{{{{|@@@@@@,{{",
"{{)@@@@@,{{{{{{[@@@@@@~{{",
"{{',@@@@@]^{{{~!@@@@@){{{",
"'''=)!@@@@!,:4@@@@@,-''''",
"======9>,,0000a,])-======",
"*************************",
"*************************",
"&&&&&&&&&&&&%b####c&&&&&&",
"............b@@@@@d......",
"...........e@@@@@@f......"};
