/* XPM */
static char * digit_9_xpm[] = {
"25 32 53 1",
" 	c None",
".	c #55AAFF",
"+	c #1C3855",
"@	c #000000",
"#	c #1C5571",
"$	c #38558D",
"%	c #3871AA",
"&	c #388DC6",
"*	c #71AAFF",
"=	c #55AAE2",
"-	c #38718D",
";	c #1C1C38",
">	c #71C6FF",
",	c #558DC6",
"'	c #558DAA",
")	c #8DC6FF",
"!	c #AAC6FF",
"~	c #718DAA",
"{	c #55718D",
"]	c #557171",
"^	c #383855",
"/	c #AAE2FF",
"(	c #AAC6E2",
"_	c #555571",
":	c #1C1C1C",
"<	c #C6E2FF",
"[	c #8DAAC6",
"}	c #001C1C",
"|	c #71718D",
"1	c #1C3838",
"2	c #AAC6C6",
"3	c #AAAAC6",
"4	c #E2E2FF",
"5	c #8DAAAA",
"6	c #E2FFFF",
"7	c #8D8D8D",
"8	c #C6C6E2",
"9	c #555555",
"0	c #FFFFFF",
"a	c #E2E2E2",
"b	c #383838",
"c	c #717171",
"d	c #AAAAAA",
"e	c #C6C6C6",
"f	c #718D8D",
"g	c #385555",
"h	c #8DC6E2",
"i	c #8DAAE2",
"j	c #385571",
"k	c #71AAC6",
"l	c #558DE2",
"m	c #00001C",
"n	c #1C558D",
"...+@@@@@#.....+@@@@@+...",
"....$@@@@@+%&%+@@@@@$....",
"*****=-;@@@@@@@@@;-=*****",
">>>>>>>>**,''',**>>>>>>>>",
")))))))))))))))))))))))))",
"!!!!!!!!~{]^^^]{~!!!!!!!!",
"/////(_:@@@@:@@@@:{!/////",
"<<<<[}@@@@|(<(~@@@@;(<<<<",
"<<<[@@@@@]<<<<<]@@@@1(<<<",
"<<<:@@@@@2<<<<<(@@@@@|<<<",
"<<3@@@@@:<<<<<<<;@@@@}<<<",
"44|@@@@@:4444444_@@@@@544",
"44|@@@@@:4444444_@@@@@|44",
"667@@@@@@8666666]@@@@@966",
"00a@@@@@@9600006b@@@@@b00",
"000c@@@@@@9a00ac@@@@@@b00",
"0000c@@@@@@@bb@@:@@@@@b00",
"00000db@@@@@@@^ec@@@@@900",
"6666666edfccde669@@@@@f66",
"6666666666666666:@@@@@d66",
"444444444444444<:@@@@@844",
"<<<<_::_<<<<<<<(@@@@@b<<<",
"<<<_@@@@5<<<<<<f@@@@@[<<<",
"<<<g@@@@1<<<<<<:@@@@_<<<<",
"<<<[@@@@@_<<<<_@@@@g/<<<<",
"////h;@@@@:gg:@@@:~!/////",
"!!!!!!ij^1}}};^gk!!!!!!!!",
")))))))))))))))))))))))))",
"))))))))))>>>>>))))))))))",
">>>>>>*=^;}@@@;;j=*>>>>>>",
".....l1@@@@+$1@@@@+l.....",
"....&m@@@@%...n@@@@}&...."};
