/* XPM */
static char * digit_4_xpm[] = {
"25 32 52 1",
" 	c None",
".	c #55AAFF",
"+	c #388DE2",
"@	c #00001C",
"#	c #000000",
"$	c #3871AA",
"%	c #1C1C38",
"&	c #1C3855",
"*	c #558DC6",
"=	c #1C3838",
"-	c #1C3871",
";	c #388DC6",
">	c #38558D",
",	c #71AAFF",
"'	c #38718D",
")	c #55AAE2",
"!	c #71C6FF",
"~	c #71AAE2",
"{	c #558DAA",
"]	c #8DC6FF",
"^	c #AAC6FF",
"/	c #718DAA",
"(	c #55718D",
"_	c #8DAAC6",
":	c #AAE2FF",
"<	c #71718D",
"[	c #C6E2FF",
"}	c #8DAAAA",
"|	c #001C1C",
"1	c #AAC6E2",
"2	c #1C1C1C",
"3	c #718D8D",
"4	c #E2E2FF",
"5	c #555555",
"6	c #C6C6E2",
"7	c #8D8DAA",
"8	c #555571",
"9	c #E2FFFF",
"0	c #717171",
"a	c #8D8D8D",
"b	c #FFFFFF",
"c	c #C6C6C6",
"d	c #383838",
"e	c #E2E2E2",
"f	c #AAC6C6",
"g	c #AAAAAA",
"h	c #AAAAC6",
"i	c #8DAAE2",
"j	c #385555",
"k	c #8DC6E2",
"l	c #1C558D",
"m	c #1C5571",
"..+@#####$.....%#####&...",
"...*=#####-$;$&####@>....",
",,,,,*&@#########&'),,,,,",
"!!!!!!!!,~{{{{~,,!!!!!!!!",
"]]]]]]]]]]]]]]]]]]]]]]]]]",
"^^^^^^^^^^^^^/((((_^^^^^^",
"::::::::::::<#####<::::::",
"[[[[[[[[[[[}######<[[[[[[",
"[[[[[[[[[[_|######<[[[[[[",
"[[[[[[[[[12#2#####3[[[[[[",
"[[[[[[[[[=#%3#####3[[[[[[",
"444444445#@67#####3444444",
"44444448##}47#####3444444",
"999999}##0997#####a999999",
"bbbbbc##d9bb7#####abbbbbb",
"bbbbc2#2ebbb}#####abbbbbb",
"bbb42##fbbbbg#####abbbbbb",
"bbb5##0bbbbb}#####abbbbbb",
"990###fccccc0#####0ccc699",
"9h####################d99",
"4h%%%%%%%%%%2#####2%%%844",
"[[[[[[[[[[[[7#####3[[[[[[",
"[[[[[[[[[[[[/#####3[[[[[[",
"[[[[[[[[[[[[/#####3[[[[[[",
"[[[[[[[[::[[(#####8:[:[[[",
"::::::::i222#######22j:::",
"^^^^^^^^k((((((((((((/^^^",
"]]]]]]]]]]]]]]]]]]]]]]]]]",
"]]]]]]]]]]]]]]]]]]]]]]]]]",
"!!!!*%%%%%%%%%%%%%%%%*!!!",
"....>################....",
"....l###############m...."};
