/* XPM */
static char * digit_6_xpm[] = {
"25 32 52 1",
" 	c None",
".	c #55AAFF",
"+	c #55AAE2",
"@	c #1C1C38",
"#	c #000000",
"$	c #3871C6",
"%	c #388DC6",
"&	c #1C3855",
"*	c #1C5571",
"=	c #71AAFF",
"-	c #00001C",
";	c #001C1C",
">	c #385571",
",	c #71C6FF",
"'	c #71AAE2",
")	c #558DAA",
"!	c #8DC6FF",
"~	c #AAC6FF",
"{	c #8DC6E2",
"]	c #718DAA",
"^	c #55718D",
"/	c #383855",
"(	c #557171",
"_	c #718DC6",
":	c #AAE2FF",
"<	c #385555",
"[	c #1C1C1C",
"}	c #71718D",
"|	c #C6E2FF",
"1	c #383838",
"2	c #AAC6E2",
"3	c #8DAAC6",
"4	c #555571",
"5	c #8D8DAA",
"6	c #8DAAAA",
"7	c #C6E2E2",
"8	c #E2E2FF",
"9	c #717171",
"0	c #E2FFFF",
"a	c #AAC6C6",
"b	c #555555",
"c	c #AAAAC6",
"d	c #FFFFFF",
"e	c #AAAAAA",
"f	c #C6C6C6",
"g	c #E2E2E2",
"h	c #C6C6E2",
"i	c #718D8D",
"j	c #1C3838",
"k	c #8DAAE2",
"l	c #71AAC6",
"m	c #38718D",
"..+@#####$....%#####@....",
"...+&#####*%%*#####*+....",
"=====+&@-######;@>+======",
",,,,,,,,,'))))',,,,,,,,,,",
"!!!!!!!!!!!!!!!!!!!!!!!!!",
"~~~~~~~~{]^>///(^_~~~~~~~",
"::::::{<;###[[####[}:::::",
"||||:^####12::3[####<:|||",
"||||4####@|||||2-####]|||",
"|||5#####6||||||(####]|||",
"|||;####[|||||||71[[}||||",
"885#####<8888888888888888",
"88<#####98888888888888888",
"00######608a<1111bc000000",
"d7######ef[########[adddd",
"df######<##11[#######eddd",
"df#######9ddddf[#####[fdd",
"df######9ddddddg[#####(dd",
"07######h0000000b#####[00",
"00[#####700000006######00",
"88<#####h88888886#####;88",
"||5#####5|||||||5#####<||",
"|||[####4|||||||4#####6||",
"|||3#####3|||||2[####<|||",
"||||i####[3|||2j####/2|||",
":::::3@####141[###[]~::::",
"~~~~~~~k>/j;;;j/>l~~~~~~~",
"!!!!!!!!!!!!!!!!!!!!!!!!!",
"!!!!!!!!!!!!!!!!!!!!!!!!!",
",,,+@@@@@@@@@@@@@@@@@@>,,",
"...m##################*..",
"...;##################%.."};
