/* XPM */
static char * digit_5_xpm[] = {
"14 19 18 1",
" 	c None",
".	c #FFFFFF",
"+	c #D0D0D0",
"@	c #505050",
"#	c #404040",
"$	c #A0A0A0",
"%	c #F0F0F0",
"&	c #101010",
"*	c #000000",
"=	c #303030",
"-	c #B0B0B0",
";	c #C0C0C0",
">	c #808080",
",	c #606060",
"'	c #202020",
")	c #707070",
"!	c #909090",
"~	c #E0E0E0",
"..............",
"..............",
"..............",
"..............",
"..............",
"..............",
"..............",
"....+@#$......",
"...%&***=%....",
"...@$-#**=%...",
"..;>...$&*$...",
"..,%....+*>...",
"..'%.....)$...",
"..*'$%..+#%...",
"..&******!....",
"..$*****).....",
"...~!>$~......",
"..............",
".............."};
