/* XPM */
static char * digit_8_xpm[] = {
"14 19 17 1",
" 	c None",
".	c #FFFFFF",
"+	c #C0C0C0",
"@	c #707070",
"#	c #A0A0A0",
"$	c #303030",
"%	c #101010",
"&	c #F0F0F0",
"*	c #404040",
"=	c #B0B0B0",
"-	c #606060",
";	c #808080",
">	c #000000",
",	c #505050",
"'	c #D0D0D0",
")	c #E0E0E0",
"!	c #202020",
"..............",
"......+.......",
".....+@.......",
".....#$.......",
".....@%&......",
".....*@=......",
"....&*=-......",
"....#;&>&.....",
"....,+.$;.....",
"...&%..;%&....",
"...;,..'>;....",
"..)%#...!>+...",
"..$%&...;>%=..",
".$>-....&%>%..",
".>>).....;>*..",
".>;.......$*..",
".-........&=..",
"..............",
".............."};
