/* XPM */
static char * digit_3_xpm[] = {
"14 19 18 1",
" 	c None",
".	c #FFFFFF",
"+	c #D0D0D0",
"@	c #F0F0F0",
"#	c #E0E0E0",
"$	c #A0A0A0",
"%	c #C0C0C0",
"&	c #707070",
"*	c #505050",
"=	c #404040",
"-	c #202020",
";	c #000000",
">	c #B0B0B0",
",	c #303030",
"'	c #101010",
")	c #606060",
"!	c #808080",
"~	c #909090",
"..............",
".+@....#$..+%.",
".&*....*=..*%.",
".-;=>>=;;-,;..",
".*;;;;;';;;&..",
".@';;;&@)=!...",
"..$;,.........",
"...-;@........",
"...$;>........",
"....'!........",
"....)*........",
"....$=........",
"....%=........",
"....+=........",
".....!........",
".....!........",
".....~........",
"..............",
".............."};
