/* XPM */
static char * digit_1_xpm[] = {
"14 19 16 1",
" 	c None",
".	c #FFFFFF",
"+	c #909090",
"@	c #F0F0F0",
"#	c #000000",
"$	c #A0A0A0",
"%	c #B0B0B0",
"&	c #202020",
"*	c #D0D0D0",
"=	c #808080",
"-	c #505050",
";	c #101010",
">	c #707070",
",	c #404040",
"'	c #E0E0E0",
")	c #C0C0C0",
"..............",
".....+........",
"....@#$.......",
"....%#&.......",
"....*##%......",
".....=#-......",
".....@;#@.....",
"......+#%.....",
"......@#>.....",
".......-,.....",
".......$#.....",
".......'#@....",
"........&)....",
"........-)....",
"........=)....",
"........=.....",
"........=.....",
"........'.....",
".............."};
