/* XPM */
static char * digit_0_xpm[] = {
"14 19 10 1",
" 	c None",
".	c #FFFFFF",
"+	c #909090",
"@	c #E0E0E0",
"#	c #000000",
"$	c #303030",
"%	c #A0A0A0",
"&	c #202020",
"*	c #505050",
"=	c #808080",
"..............",
"..............",
"..............",
"..............",
"..............",
"..............",
"..............",
"..............",
"..............",
"..............",
"......+.......",
".....@#$@.....",
".....%##&.....",
".....+##*.....",
"......=#=.....",
".......@@.....",
"..............",
"..............",
".............."};
