/* XPM */
static char * 3atari8_xpm[] = {
"16 19 3 1",
" 	c None",
".	c #1873C6",
"+	c #8CDEFF",
"................",
"................",
"................",
"...++++++++++++.",
"...++++++++++++.",
".........++++...",
".........++++...",
".......++++.....",
".......++++.....",
".........++++...",
".........++++...",
"...++++....++++.",
"...++++....++++.",
".....++++++++...",
".....++++++++...",
"................",
"................",
"................",
"................"};
