/* XPM */
static char * digit_3_xpm[] = {
"15 20 33 1",
" 	c None",
".	c #FFFFFF",
"+	c #F7F7F7",
"@	c #EFEFEF",
"#	c #EFE7E7",
"$	c #E7E7E7",
"%	c #DEDEDE",
"&	c #D6D6D6",
"*	c #D6D6CE",
"=	c #C6C6C6",
"-	c #BDBDBD",
";	c #BDBDB5",
">	c #B5B5B5",
",	c #ADADAD",
"'	c #A5A5A5",
")	c #9C9C9C",
"!	c #949494",
"~	c #848484",
"{	c #737373",
"]	c #6B6B6B",
"^	c #636363",
"/	c #5A5A5A",
"(	c #525252",
"_	c #52524A",
":	c #4A4A4A",
"<	c #424242",
"[	c #393939",
"}	c #313131",
"|	c #312929",
"1	c #292929",
"2	c #292121",
"3	c #212121",
"4	c #181818",
"/^]{/:[34444411",
"]}1}1}|}}}1|11[",
"^1}}}}}111}1}1[",
"(}1}1}}}}1}111[",
":}}}}}1}1}1}11[",
":}}^([<<[<]*]1[",
":1[$@$$$#$+.&}[",
"<}1::[[<[[}}[1[",
"}1}}1}}1}1:}11[",
"1}}:-'''',.%<1[",
"}1|:;=====>><1[",
"}}111111111111[",
"[1}1}111111[_1[",
"[1),'''''''$.'[",
"[1!-''''''')!~}",
"[1111111112111}",
"31111111111111}",
"31111111111213}",
"111111111211313",
"3[<<[[[[[[}}134"};
