/* XPM */
static char * digit_4_xpm[] = {
"15 20 38 1",
" 	c None",
".	c #FFFFFF",
"+	c #F7F7F7",
"@	c #F7EFEF",
"#	c #EFEFEF",
"$	c #EFE7E7",
"%	c #E7E7E7",
"&	c #E7E7DE",
"*	c #DEDEDE",
"=	c #D6D6D6",
"-	c #D6D6CE",
";	c #CECECE",
">	c #C6C6C6",
",	c #C6BDBD",
"'	c #BDBDBD",
")	c #B5B5B5",
"!	c #A5A5A5",
"~	c #9C9C9C",
"{	c #949494",
"]	c #8C8C8C",
"^	c #7B7B7B",
"/	c #7B7373",
"(	c #737373",
"_	c #6B6B6B",
":	c #636363",
"<	c #5A5A5A",
"[	c #525252",
"}	c #4A4A4A",
"|	c #424242",
"1	c #424239",
"2	c #423939",
"3	c #393939",
"4	c #313131",
"5	c #312929",
"6	c #292929",
"7	c #292121",
"8	c #212121",
"9	c #181818",
"<:_(<}389999966",
"_46464544465663",
":64444466646463",
"[46464444646663",
"}44}44646464|63",
"}4(.%=>;,>=$#]3",
"}6}.*)+;@#];%(3",
"|4}+(6@<#!6(%33",
"46}@^|#:%~1;*|3",
"64|#({%4%{^**13",
"46}%!%;6***==33",
"46|&*=56_~{'=33",
"362*;446666/;|3",
"36[======-;;;|4",
"36[=^666766^>33",
"366666666666664",
"866666666666664",
"866666666667684",
"666666666766868",
"83||33333344689"};
