/* XPM */
static char * digit_2_xpm[] = {
"15 20 25 1",
" 	c None",
".	c #FFFFFF",
"+	c #E7E7E7",
"@	c #DEDEDE",
"#	c #D6D6D6",
"$	c #CECECE",
"%	c #BDBDBD",
"&	c #B5B5B5",
"*	c #ADADAD",
"=	c #9C9C9C",
"-	c #737373",
";	c #6B6B6B",
">	c #6B6363",
",	c #636363",
"'	c #5A5A5A",
")	c #525252",
"!	c #4A4A4A",
"~	c #424242",
"{	c #393939",
"]	c #313131",
"^	c #312929",
"/	c #292929",
"(	c #292121",
"_	c #212121",
":	c #181818",
"',;-'!{_::::://",
";]/]/]^]]]/^//{",
",/]]]]]///]/]/{",
")]/]/]]]]/]///{",
"!]]]]/]/]/{!//{",
"!]/=@%%%%%..-/{",
"!/]=+%%%%&**>/{",
"~]//^/////////{",
"]/]]]]]]]]/]//{",
"/]/]/]/^//////{",
"]/]/]/]]//]///{",
"]]!~]///]//=#~{",
"{/$..........%{",
"{/{~//////////{",
"{/////////////]",
"]/////////////]",
"_/////////////]",
"_//////////(/_]",
"/////////(//_/_",
"_{~~{{{{{{]]/_:"};
