/* XPM */
static char * digit_8_xpm[] = {
"15 20 36 1",
" 	c None",
".	c #FFFFFF",
"+	c #EFEFEF",
"@	c #EFEFE7",
"#	c #E7E7E7",
"$	c #DEDEDE",
"%	c #DEDED6",
"&	c #D6D6D6",
"*	c #D6CECE",
"=	c #CECECE",
"-	c #C6C6C6",
";	c #C6C6BD",
">	c #BDBDBD",
",	c #B5B5B5",
"'	c #ADADAD",
")	c #A59C9C",
"!	c #9C9C9C",
"~	c #9C9494",
"{	c #949494",
"]	c #8C8C8C",
"^	c #848484",
"/	c #7B7B7B",
"(	c #737373",
"_	c #6B6B6B",
":	c #636363",
"<	c #5A5A5A",
"[	c #525252",
"}	c #4A4A4A",
"|	c #424242",
"1	c #393939",
"2	c #313131",
"3	c #312929",
"4	c #292929",
"5	c #292121",
"6	c #212121",
"7	c #181818",
"<:_(<}167777744",
"_24242322243441",
":42222244424241",
"[24242222424441",
"}22222424242441",
"}2242423|{23441",
"}4222_,++@>4241",
"|3442!@>/#[4441",
"22224]#1[$44441",
"42423,$4}$<2441",
"24242%*44&)4441",
"2424[&{44-=4441",
"1444'=|44/=^441",
"144[=~4444--141",
"142=-44444|-;/2",
"14>;[444444<>>2",
"64_<44444444|42",
"644444444444662",
"444444444546446",
"61||11111122467"};
