/* XPM */
static char * digit_6_xpm[] = {
"15 20 36 1",
" 	c None",
".	c #FFFFFF",
"+	c #EFEFEF",
"@	c #EFE7E7",
"#	c #E7E7E7",
"$	c #DEDEDE",
"%	c #DEDED6",
"&	c #D6D6D6",
"*	c #D6CECE",
"=	c #CECECE",
"-	c #C6C6C6",
";	c #C6C6BD",
">	c #BDBDBD",
",	c #B5B5B5",
"'	c #A5A5A5",
")	c #9C9C9C",
"!	c #949494",
"~	c #94948C",
"{	c #8C8C8C",
"]	c #848484",
"^	c #7B7B7B",
"/	c #737373",
"(	c #6B6B6B",
"_	c #636363",
":	c #5A5A5A",
"<	c #525252",
"[	c #4A4A4A",
"}	c #4A4A42",
"|	c #424242",
"1	c #393939",
"2	c #313131",
"3	c #312929",
"4	c #292929",
"5	c #292121",
"6	c #212121",
"7	c #181818",
":_(/:[167777744",
"(24242322243441",
"_42222244424241",
"<242422(/424441",
"[222224++)42441",
"[224242@#434(41",
"[4=##$-#$;$$$%1",
"|3(,'!>//!]!!{1",
"222342&~|&44441",
"42424&&/4*&4441",
"2424}==442-=441",
"2424==4344/-;41",
"144--<42444>-21",
"14!-^444444^>12",
"142144444444441",
"144444444444442",
"644444444444442",
"644444444445462",
"444444444544646",
"61||11111122467"};
