/* XPM */
static char * digit_7_xpm[] = {
"15 20 33 1",
" 	c None",
".	c #FFFFFF",
"+	c #EFEFEF",
"@	c #E7E7E7",
"#	c #DEDEDE",
"$	c #DEDED6",
"%	c #D6D6D6",
"&	c #CECECE",
"*	c #C6C6C6",
"=	c #C6C6BD",
"-	c #BDBDBD",
";	c #BDB5B5",
">	c #B5B5B5",
",	c #ADADAD",
"'	c #A5A5A5",
")	c #9C9C94",
"!	c #948C8C",
"~	c #848484",
"{	c #7B7B7B",
"]	c #737373",
"^	c #6B6B6B",
"/	c #636363",
"(	c #5A5A5A",
"_	c #525252",
":	c #4A4A4A",
"<	c #424242",
"[	c #393939",
"}	c #313131",
"|	c #312929",
"1	c #292929",
"2	c #292121",
"3	c #212121",
"4	c #181818",
"(/^](:[34444411",
"^}1}1}|}}}1|11[",
"/1}}}}}111}1}1[",
"_}1}1}}}}1}111[",
":}}}}}1}1}1}11[",
":}1}1#&:}1}|11[",
":1}}}+@(1}11}1[",
"<}111#%|}1}]%/[",
"}1}}1&#^)-%%%&[",
"11'$#$%%&,~_[2[",
"}}!>{&*1111111[",
"}111}**1111&'1[",
"[1}11*&1|11*'1[",
"[1111;******=[[",
"[1111[({{{^([1}",
"[1111111111111}",
"31111111111111}",
"31111111111213}",
"111111111211313",
"3[<<[[[[[[}}134"};
