/* XPM */
static char * digit_5_xpm[] = {
"15 20 39 1",
" 	c None",
".	c #FFFFFF",
"+	c #EFEFEF",
"@	c #EFE7E7",
"#	c #E7E7E7",
"$	c #DEDEDE",
"%	c #DEDED6",
"&	c #D6D6D6",
"*	c #D6D6CE",
"=	c #CECECE",
"-	c #CECEC6",
";	c #CEC6C6",
">	c #C6C6C6",
",	c #C6BDBD",
"'	c #BDBDBD",
")	c #B5ADAD",
"!	c #ADADAD",
"~	c #A5A5A5",
"{	c #A59C9C",
"]	c #9C9C9C",
"^	c #9C9494",
"/	c #949494",
"(	c #8C8C8C",
"_	c #848484",
":	c #7B7B7B",
"<	c #737373",
"[	c #6B6B6B",
"}	c #636363",
"|	c #5A5A5A",
"1	c #525252",
"2	c #4A4A4A",
"3	c #424242",
"4	c #393939",
"5	c #313131",
"6	c #312929",
"7	c #292929",
"8	c #292121",
"9	c #212121",
"0	c #181818",
"|}[<|2490000077",
"[57575655576774",
"}75555577757574",
"157575555757774",
"25555575757[774",
"25<+++&>@####54",
"274')]##!{~/!74",
"357577!$7777774",
"575337$&5|,3774",
"757$$$%&&&&/774",
"57577(&77:*7774",
"55757==77_=7774",
"47767=&77<=7774",
"47[3|=!77^>/>14",
"47=-;>>>>>>'>,5",
"577777777877974",
"977777777777775",
"977777777778795",
"777777777877979",
"943344444455790"};
