/* XPM */
static char * digit_0_xpm[] = {
"15 20 37 1",
" 	c None",
".	c #FFFFFF",
"+	c #F7F7F7",
"@	c #EFEFEF",
"#	c #E7DEDE",
"$	c #DEDEDE",
"%	c #D6D6D6",
"&	c #CECECE",
"*	c #CEC6C6",
"=	c #C6C6C6",
"-	c #BDBDBD",
";	c #BDB5B5",
">	c #B5B5B5",
",	c #B5ADAD",
"'	c #ADADAD",
")	c #A5A5A5",
"!	c #9C9C9C",
"~	c #9C9C94",
"{	c #8C8C8C",
"]	c #848484",
"^	c #84847B",
"/	c #7B7B7B",
"(	c #737373",
"_	c #6B6B6B",
":	c #636363",
"<	c #5A5A5A",
"[	c #525252",
"}	c #4A4A4A",
"|	c #424242",
"1	c #393939",
"2	c #393131",
"3	c #313131",
"4	c #312929",
"5	c #292929",
"6	c #292121",
"7	c #212121",
"8	c #181818",
"<:_(<}178888855",
":35353433354551",
":33333355535351",
"[53535333535551",
"[33331[:[153551",
"|353:%+@@&:3551",
"}33:$#{[{%*[351",
"|51)$[545[%~151",
"33[={33335{-}51",
"53<=<35555<;[51",
"34:>}53345}><51",
"33<><55535<'[51",
"15},]53555/'|51",
"151{-[555[>]352",
"155})>^:]'!}551",
"3554[!>>>!}5553",
"755553|}|455553",
"755555555556563",
"755555555655757",
"51||11111133578"};
