/* XPM */
static char * digit_1_xpm[] = {
"15 20 26 1",
" 	c None",
".	c #FFFFFF",
"+	c #EFEFEF",
"@	c #DEDEDE",
"#	c #D6D6D6",
"$	c #CECECE",
"%	c #C6C6C6",
"&	c #B5B5B5",
"*	c #9C9C9C",
"=	c #8C8C8C",
"-	c #848484",
";	c #7B7B7B",
">	c #737373",
",	c #6B6B6B",
"'	c #636363",
")	c #5A5A5A",
"!	c #525252",
"~	c #4A4A4A",
"{	c #424242",
"]	c #393939",
"^	c #313131",
"/	c #312929",
"(	c #292929",
"_	c #292121",
":	c #212121",
"<	c #181818",
")',>)~]:<<<<<((",
",^(^(^/^^^(/((]",
"'(^^^^^(((^(^(]",
"!^(^(^^^^(^(((]",
"~^^^^^(^(^(^((]",
"~^^(^(^/^(^/((]",
"~(^^^^(^(^((^(]",
"{/(((^^(^(^(((]",
"^^^^^((^(^((](]",
"((==;--;-;-%.*]",
"^^$+@#@@@@#@#&]",
"^(^^^^(^(^^(((]",
"](^/((((((((((]",
"]((((^/(((((((^",
"](((((((((((((]",
"](((((((((((((^",
":(((((((((((((^",
":((((((((((_(:^",
"(((((((((_((:(:",
":]{{]]]]]]^^(:<"};
