/* XPM */
static char * digit_9_xpm[] = {
"15 20 40 1",
" 	c None",
".	c #FFFFFF",
"+	c #F7EFEF",
"@	c #EFEFEF",
"#	c #E7E7E7",
"$	c #DEDEDE",
"%	c #D6D6D6",
"&	c #CECECE",
"*	c #CECEC6",
"=	c #CEC6C6",
"-	c #C6C6C6",
";	c #C6C6BD",
">	c #BDBDBD",
",	c #BDBDB5",
"'	c #B5B5B5",
")	c #ADADAD",
"!	c #A5A5A5",
"~	c #A59C9C",
"{	c #9C9C9C",
"]	c #949494",
"^	c #948C8C",
"/	c #8C8C8C",
"(	c #848484",
"_	c #7B7B7B",
":	c #737373",
"<	c #6B6B6B",
"[	c #6B6363",
"}	c #636363",
"|	c #5A5A5A",
"1	c #525252",
"2	c #4A4A4A",
"3	c #424242",
"4	c #424239",
"5	c #393939",
"6	c #313131",
"7	c #312929",
"8	c #292929",
"9	c #292121",
"0	c #212121",
"a	c #181818",
"|}<:|250aaaaa88",
"<68686766687885",
"}86666688868685",
"168686666868885",
"266668{(8686785",
"268686+@6868885",
"286666$'8687685",
"362)~]#%^-$3885",
"68|&-,$$'%$|885",
"868688%/8{%8885",
"686861%<8!&8885",
"67686!&48!*8135",
"58886=&88{-8-)5",
"5885--188{-8>)6",
"58/-;1888{>>>>6",
"58/]388885[_<25",
"088888888888886",
"088888888880896",
"888888888988080",
"05335555556680a"};
