/* XPM */
static char * digit_4_xpm[] = {
"32 48 17 1",
" 	c None",
".	c #000000",
"+	c #080808",
"@	c #141414",
"#	c #212121",
"$	c #343434",
"%	c #4E4E4E",
"&	c #5A5A5A",
"*	c #818181",
"=	c #ADADAD",
"-	c #B5B5B5",
";	c #C6C6C6",
">	c #D2D2D2",
",	c #DEDEDE",
"'	c #E7E7E7",
")	c #EFEFEF",
"!	c #FFFFFF",
"!!!!!!!!!!!!!!!!!!!!!!!!!!!!!!!!",
"!!!!!!!!),,)!!!!!!!!),,)!!!!!!!!",
"!!!!!!!'&##&'!!!!!!'&##&'!!!!!!!",
"!!!!!!)&....&)!!!!)&....&)!!!!!!",
"!!!!!!,#....#,!!!!,#....#,!!!!!!",
"!!!!!!,#....#,!!!!,#....#,!!!!!!",
"!!!!!!)&....&)!!!!)&....&)!!!!!!",
"!!!!!!!'&##&'!!!!!!'&##&'!!!!!!!",
"!!!!!!!!),,)!!!!!!!!),,)!!!!!!!!",
"!!!!!!!!!!!!!!!!!!!!!!!!!!!!!!!!",
"!!!!!!!!!!!!!!!!!!!!!!!!!!!!!!!!",
"!!!!!!!!!!!!!!!!!!!!!!!!!!!!!!!!",
"!!!!!!!!!!!!!!!!!!!!!!!!!!!!!!!!",
"!!!!!!!!!!!!!!!!!!!!),,)!!!!!!!!",
"!!!!!!!!!!!!!!!!!!!'&##&'!!!!!!!",
"!!!!!!!!!!!!!!!!!!)&....&)!!!!!!",
"!!!!!!!!!!!!!!!!!!,#....#,!!!!!!",
"!!!!!!!!!!!!!!!!!!,#....#,!!!!!!",
"!!!!!!!!!!!!!!!!!!)&....&)!!!!!!",
"!!!!!!!!!!!!!!!!!!!'&##&'!!!!!!!",
"!!!!!!!!!!!!!!!!!!!!),,)!!!!!!!!",
"!!!!!!!!!!!!!!!!!!!!!!!!!!!!!!!!",
"!!!!!!!!!!!!!!!!!!!!!!!!!!!!!!!!",
"!!!!!!!!!!!!!!!!!!!!!!!!!!!!!!!!",
"!!!!!!!!!!!!!!!!!!!!!!!!!!!!!!!!",
"!!!!!!!!!!!!!!!!!!!!!!!!!!!!!!!!",
"!!!!!!!!!!!!!!!!!!!!!!!!!!!!!!!!",
"!!!!!!!!!!!!!!!!!!!!!!!!!!!!!!!!",
"!!!!!!!!!!!!!!!!!!!!!!!!!!!!!!!!",
"!!!!!!!!!!!!!!!!!!!!!!!!!!!!!!!!",
"!!!!!!!!!!!!!!!!!!!!!!!!!!!!!!!!",
"!!!!!!!!!!!!!!!!!!!!!!!!!!!!!!!!",
"!!!!!!!!!!!!!!!!!!!!!!!!!!!!!!!!",
"!!!!!!!!!!!!!!!!!!!!!!!!!!!!!!!!",
"!!!!!!!!!!!!!!!!!!!!!!!!!!!!!!!!",
"!!!!!!!!!!!!!!!!!!!!!!!!!!!!!!!!",
"!!!!!!!!!!!!!!)**;!!!!!!!!!!!!!!",
"!!!!!!!!!!!!!!$..*!!!!!!!!!!!!!!",
"!!!!!!!!!!!!!&.@.*!!!!!!!!!!!!!!",
"!!!!!!!!!!!!=.*$.*!!!!!!!!!!!!!!",
"!!!!!!!!!!!-.&!$.*!!!!!!!!!!!!!!",
"!!!!!!!!!!>@$)!$.*!!!!!!!!!!!!!!",
"!!!!!!!!!!*.......$!!!!!!!!!!!!!",
"!!!!!!!!!!=$$$$@.#&!!!!!!!!!!!!!",
"!!!!!!!!!!!!!!!$.*!!!!!!!!!!!!!!",
"!!!!!!!!!!!!!!!$.*!!!!!!!!!!!!!!",
"!!!!!!!!!!!!!!!!!!!!!!!!!!!!!!!!",
"!!!!!!!!!!!!!!!!!!!!!!!!!!!!!!!!"};
