/* XPM */
static char * digit_6_xpm[] = {
"40 40 46 1",
" 	c None",
".	c #051612",
"+	c #08242C",
"@	c #0C3126",
"#	c #10A0AD",
"$	c #0096A2",
"%	c #17ABB9",
"&	c #33C4C7",
"*	c #66778B",
"=	c #6A626A",
"-	c #826148",
";	c #846C4F",
">	c #807771",
",	c #4B7344",
"'	c #809079",
")	c #BF7B63",
"!	c #BC7249",
"~	c #AA6346",
"{	c #D59B71",
"]	c #C78368",
"^	c #AD7561",
"/	c #AD6D55",
"(	c #AC6154",
"_	c #9B624A",
":	c #AB7356",
"<	c #935340",
"[	c #BA8169",
"}	c #98755E",
"|	c #D59163",
"1	c #167E81",
"2	c #009396",
"3	c #AD7C62",
"4	c #976D52",
"5	c #153E21",
"6	c #2E235C",
"7	c #B18466",
"8	c #C18F6D",
"9	c #B78A5D",
"0	c #D4A487",
"a	c #374225",
"b	c #C2966D",
"c	c #B88D6F",
"d	c #A58F72",
"e	c #A58467",
"f	c #66F1C0",
"g	c #C49A7E",
".+..+...++++++++.++.+@+...++++@++++++@@.",
"+####$$$$$$$$$$$$$$$$$$$$$$$##%%%&&&&&&@",
"+#*=-;>=-==>>=>>;=,;=,=';>=->',==>=,;*&@",
"@%;)!~!{{]]~!)^))~~{/)](]___:<<_[/<<_=&+",
"+%})!~)/))|)/!);>===1,>>_/(^^/</::_</-&.",
"+%;{)]|!~)/~:,112222222211=34_^___:[[>&@",
"@&;))/!!)]_;12$$$$$$$$$$$$21;^[4</:(:-&+",
"5&>)~!~~))11$$$$$$$$$$$$$$$$1=}<_:^/:=%6",
"@&>~)]~)_,2$#$$$22211222$$$$$21</[3^_=%+",
"@&;!!/!!,2###$$21'7[/3=*2$$$$$2,__<</=%+",
"+&:|~]!_1####$1=/)^/3)]8*2$$$$$1<:_<<>#+",
"@&>/)|~,2####2>:):90{])]3'2$$$$2=_<<_>#+",
"@&;!]~!1####$1_)|7[03]]:3[1$$$$21__/3=$+",
"+&']!~)1####$1^_/~)]/:^_]]*2$$$2a<<__>$+",
"@&>):/]1####$10]~9]:])8))]}12$21=<<[[,$+",
"@&>~]~/1####$1|_)/{9{{])33/-*==;/__3_>$.",
"@&><]/~1#%#%#1::)]{:{{)]^b)/{[^[[[[[4,$+",
"@&>]<):1#%%%#1:]3>=>'''c38)]9__//])[4-$+",
"+%>)~)!1#%%%#1=>122222211'3[^<3{[cb:<,$.",
"+%=))|)1#%%%#2##%%%%%%%##$1*;<_8b[:_:=$+",
"+%=~]])1%%%%%%%%%%%%%%%%%%##1=/7[3[33=$+",
"+%>)]))*#&&&%%%%%%#2$$#%%%%%#1'73</3);$.",
"+%'||~!1%&&&&&%#2*='d'=1#%%%%%2d3__::'$+",
"+&'])!{1%&&&&&#*[{]8b03712&&%%#14<<c[=$+",
"6&;))/)1%&&&&2*^]]){0{/{7=$&&%%2=4/:c'$.",
"@&'))]!1&&&&&1e!))!80{){3}1%&&%#,_7b/>$+",
"6&>)]<~=&&&&%*{~]/][{)909/1%&&&%1_8c[,$.",
"+&}])/]*&&&&%13/{/7[{[{0[31&&&&#1/[{:=$+",
"@&>~))]=#&&&&2>)0|![b[083=$&&&&2=c3/_;$.",
"@&d!~)]}1&fff&2;0{3[[){g'2&&&&&1;[c3/,$.",
"@&g~_/]]=%ffff&21>_[c'*12&ff&&2=cb{[7>$+",
"6&=/)]){[1%ffff&&%2222#&fff&&#*</bc3/=$+",
"6f=]))]]9:12fffffffffffffff&2=73::c[4'$.",
"@fg{//{])8:-1%&ffffffffff&&1'c3:3378^>$.",
"@f'~)]]])9)<c>,%&&&&&&&%#*'78[/3:3374>$+",
"5f;~<]]/7]!~0)<<==,,,,==d3[{0b3_39b8_;$.",
"6f=)/){))^]]{/<)^~33[/9984/8b33383[3_=$@",
"+f*>'d=';3=g};=''*''''=>'>'*'}==e='==,$+",
"@fffffffffffffffff&&&&&&&&%%%%###$$$$$$+",
".5655@,5@,+@5556@@@6+@@@@.@+.+++.+.++++."};
