/* XPM */
static char * digit_0_xpm[] = {
"40 40 61 1",
" 	c None",
".	c #01011E",
"+	c #1A1339",
"@	c #1411B0",
"#	c #0706A7",
"$	c #0101A2",
"%	c #00009E",
"&	c #2724C2",
"*	c #454BCE",
"=	c #1D1358",
"-	c #2E235C",
";	c #5E5078",
">	c #80626D",
",	c #A97384",
"'	c #78619A",
")	c #9369A5",
"!	c #6A626A",
"~	c #B0847C",
"{	c #977673",
"]	c #A78371",
"^	c #BB866F",
"/	c #DBA390",
"(	c #C29182",
"_	c #BA8169",
":	c #C38C7D",
"<	c #C69E87",
"[	c #C39685",
"}	c #B78C80",
"|	c #CDA38C",
"1	c #B89684",
"2	c #AE8B82",
"3	c #CF9682",
"4	c #040368",
"5	c #997F69",
"6	c #D9B195",
"7	c #976863",
"8	c #98755E",
"9	c #0F041A",
"0	c #D09D85",
"a	c #94808C",
"b	c #4A48C5",
"c	c #C09E87",
"d	c #E79D9D",
"e	c #ECAFAB",
"f	c #B5A0A2",
"g	c #B8927A",
"h	c #AB7D84",
"i	c #343AA6",
"j	c #E6BD9E",
"k	c #D7AB92",
"l	c #DBBD9A",
"m	c #AE8B70",
"n	c #A58F72",
"o	c #C6A488",
"p	c #C7B28D",
"q	c #C49A7E",
"r	c #B09177",
"s	c #D0BC94",
"t	c #5B56EB",
"u	c #6664E2",
"v	c #3F48A7",
"..............................++..+..++.",
".@######$$$$$%$%$%%%%$$$$$$$##@@@&&&***=",
"+@-;>>,>>')>'>,!>>;~';>,!;';>>;>>'';>;*+",
"=@{]^/(_//_(:/:<[~]<]~}((}~}}[|1~{~2];*.",
".&,3:3/33/|_:/^~;;;44-;>}5[]~6|~|]{78>&.",
"9&{3/38/(~^360>4%%%%%%%%=1[}|18[[5]~7a&+",
"+b>_(/0^/^3[(;%%$$$$$$$$%-'1c|[18~12];&.",
"+b):_/d~^(:|;%$$$$$$$$$$$%%>}~]1|}8~8'@4",
"+b;d3^^/3e/;%$$$$$$$$$$$$$%4fg~c[~~12!@.",
"+b,^/:_e6/h%##$$$$%%%%$$$$$%ij||151|8a@.",
"9b|/3e]:3~;####$%%i-;%%%$$$$%;~66211~;#.",
"+b;6d///k{%@##$%-~|/[|;%%$$$$48c2]]c])#.",
"+bhe//k06i@@##%-[<6//|j|%%$$$%)|}1]2};$.",
"9b;3ee//}4@@#%-|/6j::<gkk%%$$$-c|~||]!$.",
"+b)e0///'%@@#%16<[cek||c|;%$$$%>|}2<c>$.",
"+b,ee336;@@@#;/je|k:||l6g8%$$$%)k]2m5>$.",
"9&,e|^e/-@@@%f/jj/j|61666|;%$$%'1c2g1>$.",
"9&,e33ee%@@@%|e|0j|jjke<|j)%$$%-ng2cn!%.",
".&'/(je]%@@@i/jej60kjjjo6]>%##$;g2|21'$.",
".&)0/edh%&&@i[k[jj//pkkjjk>%###4p8]2|;%.",
".&;/|k^[@&&@iejq6jj6k6<llj1%###41c211;$.",
".&ae//0|%&&&4jej6j^jjo||co|%@##;r||8g{$.",
".&)/d6/~%&&&@|k6j6|<6jjs~6;#@@#;gk<2g>$.",
".&'0/ee/i&&&@><6/jjk0olj6|;@&@@;n[gcs>$.",
"4&{^::e6;&&&&;<|<6jj<kkr6l4&&&@;cglr5a$.",
"=&'/3|/ea@**&@|g|mej6/c<j;@&&&%1jl658;$.",
"=&)e30/6j&t**@;kq|ckjjj6a%**&&;mjcspc;$.",
".*f/0::<j;tttt%;ljo/kjj|-&***@>cc55cla$.",
"+*)e60::6;@ttt*#@fjql6a-&tt**4apc:8rof$.",
"+tfee6jk0<4*tttt#%-;'%%&tut*@;lss5mor;$.",
"=tf|6/[100<%ttttt*&&&*tuuutv-51spcro8;$.",
"=t)k6//^[6k>@tttttttuuuuuu*4{npo1oopc!$.",
"=t{/6/g~0(:k-@tttttttuuut*4>1krc]rospa$.",
"+th666||^^/j6'@*ttttttt*@4'msgsg8]opoa$.",
"+ta<k/</^g0/6jf-%&*t**&4->lr1slp8m1c]>$.",
"+t>k||6k:g/k1jj1a;44--'aomkmppcc|]cp0>%.",
"+t)[66|~g:[|6jjlq1:|qjlgjqp15plccc|cm>%.",
"9t'ahaa){7a|7fafa''''af;a{a;'aa>aa';;;$.",
"+ttuuuuuuuuuuttttttt**&&&&&&@@@###$$$%$.",
".+++++=++=+++++=+++=9=+++.=............."};
