/* XPM */
static char * digit_9_xpm[] = {
"40 40 61 1",
" 	c None",
".	c #153E21",
"+	c #58BF54",
"@	c #4CB850",
"#	c #49B64D",
"$	c #59CA61",
"%	c #62E290",
"&	c #89EF9B",
"*	c #374225",
"=	c #81A257",
"-	c #B3A56A",
";	c #C5AF74",
">	c #968239",
",	c #B49C5C",
"'	c #A09156",
")	c #926C3E",
"!	c #DACC94",
"~	c #7F804B",
"{	c #CDBD75",
"]	c #D0BC94",
"^	c #283419",
"/	c #D9A36B",
"(	c #BB853F",
"_	c #AF844D",
":	c #F0D097",
"<	c #D09A5D",
"[	c #C18F4B",
"}	c #B07B4C",
"|	c #D1B175",
"1	c #CFA372",
"2	c #C69A68",
"3	c #B88D57",
"4	c #B6925C",
"5	c #DCBD74",
"6	c #C3A06B",
"7	c #CFA361",
"8	c #B99761",
"9	c #121F08",
"0	c #C29360",
"a	c #DCAE6A",
"b	c #E9BF87",
"c	c #C1A56C",
"d	c #768D3D",
"e	c #DEB07F",
"f	c #D1AA74",
"g	c #051612",
"h	c #F1F4A4",
"i	c #4CA84A",
"j	c #2F8F3E",
"k	c #627F34",
"l	c #8CBD7D",
"m	c #E9BB72",
"n	c #ECAC68",
"o	c #AD8E58",
"p	c #F7BD91",
"q	c #0B2906",
"r	c #C1AA73",
"s	c #F3CA76",
"t	c #E5DD82",
"u	c #9CFFB3",
"v	c #4B7344",
".++++++@@@#################@@+$$$$%%&&&*",
".++++++@@@#################@@+$$$$%%&&&*",
".$=-;>=-;-,'=)'>''=!==~>-){;>-~'-]='>=&^",
"*$-/(_:!</[}|(/(123::!,4:(!5}1647!8|3~&9",
"9$,}[:50}7}ab2<c~=~d==~-{<be);f80!!e3'%g",
"^$)}<h3}<[ahb~diii#i#iiijk=5(b!e_bb;|~%.",
"^l>a:m}anb:-ii#@@#########ijo;b8_!e!,-$9",
"*l;ba}mhphdj@@@@@#@#########j=;1,1|e,-$*",
"^ll0(0:5|=i++@@@#iiiiii####@#id{,41|{,$.",
"^]-}<|:eli+++@@i={5o::==i##@@@id|e|86-$.",
"9](a:m<oi$+++@i-5p5<ehb5li#@@@@j{,|_3-+.",
"^]o::<<di$$++i-[:m:abhb:!'i#@@@i=!|b[~@q",
"^l:b<[b=+$$+@ib[::h0:hm:5oi#@@@#=!fe,=@.",
"9ll4<cbd+$$+#i:n!aca!:<||}i#@@@#=c:!:-@q",
"^l=[:bmi+$$$@i!a52:b::2:c2i#@@@#i:!!5;#q",
"^lrm::m-i$$$+i=mfe{a:he5:~i@@@@#i5{{:]#9",
"^%{:nsa}i+$$$+i=,|5b:he:ii@@@@@#ib!c;-#.",
"^${0[aaari$$$$$@jd=';-=i#@@@@@@#=ff88-#.",
"^$=<:bp:a!i$$$$$$@@#i@@++++@@@@ii32c{d#9",
"^$'bhb:b5:{i@$$$$$$$$$$$$$+@+@@#i5e{6=#.",
"9$l:h<bbb5m:=i@$$$$$$$$$$@i@$++@i{b{{=#q",
".$-::5p:ab5::b==i###@iii==i+$$+#i!5{{-#9",
"^%-n:::::h::::ah:!=-],;:{h=$$$$#i;r5,=#9",
"9%'a<:asp::::m:h::5a5t:::5=$$$$@i{5,|~#9",
"*%>maa!:ad==!:a5:::<::::t:=$$$$+i/,{1-#9",
"*%=:5m:=i$%$i;:::h5s:t:s!:i$%$$$d[{,;l#q",
"*%=bhb5=%&&&$=:5:5:<!hhbb{i$%%$$i5o;!=#9",
"9&{5b{t=%u&&$ib:b:5(th:b5!i%%%$+i!c!,=#9",
"^&-a2|:l@uuu&i;bma5at:tb:=@%&%%#={!c[;#9",
"^&r[|<b;iuuuu&i;s:tbth::;i%&&%$j-t2o,=#9",
"*u{smb::=$uuuu&i=;r5t{=i#%&&&%#=!;a,c=#9",
"*u]mpppc2i$uuuuu&$#ii#$%&&&&%+=;{5t;{~#.",
"vu;mssabaciiuuuuuuuuuuu&&&&%i=!!!t{!;-#9",
"*u;0a5n:5:(,i$uuuuuuu&&&&%%i={:55c{{c;#g",
"^u-525n:a4ma;r=$%&&&&&&$@d=;,,c{{{55;-#q",
"*u-55:s:<|5/5:5c-====dl=!{{r{3::t:,{!-#g",
"*u-5:cbh52mb,55|:::ccbhb:!t{;{cb{{{c!-#.",
"^ul-';-]6'{e',';{{;==!-=]-'=l-~'{-=d==#q",
"^uuuuuuuuuuuuuuuuuu&&&&%%%$$$$$+@@@@###q",
"9****^v**v^^***v^***9*...g*.999.9q9.q.qg"};
