/* XPM */
static char * digit_3_xpm[] = {
"40 40 52 1",
" 	c None",
".	c #051612",
"+	c #0B2906",
"@	c #153E21",
"#	c #0A9F15",
"$	c #019701",
"%	c #009200",
"&	c #24A434",
"*	c #33B539",
"=	c #38C440",
"-	c #59CA61",
";	c #627F34",
">	c #768D3D",
",	c #9A8150",
"'	c #A09156",
")	c #7F804B",
"!	c #81A257",
"~	c #CFA372",
"{	c #C69A68",
"]	c #D1B175",
"^	c #D1AA74",
"/	c #B78A5D",
"(	c #937447",
"_	c #A77B50",
":	c #AE8A5D",
"<	c #B99761",
"[	c #C29360",
"}	c #A48355",
"|	c #BF9A6A",
"1	c #C3A06B",
"2	c #AF9662",
"3	c #C1A56C",
"4	c #B6925C",
"5	c #9B7B5E",
"6	c #187C1A",
"7	c #B39B6B",
"8	c #C1AA73",
"9	c #AE9262",
"0	c #AF844D",
"a	c #A48A55",
"b	c #121F08",
"c	c #58BF54",
"d	c #2F8F3E",
"e	c #B3A56A",
"f	c #AD8E58",
"g	c #C5AF74",
"h	c #A59165",
"i	c #DEB07F",
"j	c #977945",
"k	c #62E290",
"l	c #89EF9B",
"m	c #4B7344",
".+..+...++++++++.++.+++...++++++++++++@.",
"+###$$$$$$$$%$%$$%$$$$$$$$$$$###&&*===-@",
"+#;>,',;;;>,>>>;;;;';;;))!!'!)>!!!!>';=@",
"@#'~{]^~/((((__:<[<}|1|2<3<|||4}(}(55;=+",
"+&)~~[:4{{[/__((;>;666;),782}}55}95((;=.",
"+*;_0[1~1<024;6%%%%%%%%%%6>7<<4((((55)*+",
"+*)_0_4:|[2;6%%$$$$$$$$$$%%6),5}a},((;&b",
"@c)[{[[[/46%$$$$$$$$$$$$$$$$%;'},,977>&@",
"+c>///_:a6%$$$$$%%%%%%%%$$$$$%6,a'9'(;#+",
"+c){~~[/;%#$$$$%d)'a:2;;%$$$$$%;38e2};#+",
"+c2[{^^<%###$$6>|32fa(}a;%$$$$$%(}237)#+",
"+c){{<<d####$%!^1{1383aa,;%$$$$%;a(,,!$+",
"+c7~{{<6####$6}|381838327'6%$$$%;772a;$+",
"+c>^~{[6####%6{8|9<||113<26%$$$%;22a};$+",
"+c>{{<<;%$#$%>|:<1|7e8g1<,6$$$$%d7h79>$+",
"+*){////;>;>'^~^ggiigg332;%$$$$%;g837>$.",
"+*;_0_/[~^]iiiig~1{<7<4'6%$$$$$628837;$+",
"+*'^{<<<^^<4<1^~33));;;6$$$$$$%;8ge'a;$+",
"+&>[[114<///:__<|>6%%$$#####$%>8e7273;$.",
"+&>1[[~131~~^^83'%#########$%>229779:;$+",
"+&;~{{~~^]^]]^^3e%##########%>a22},,9;$+",
"+&){~^^]^^~31131[;%%#########%;2ef829)$.",
"+&!{[/4~11[4:<<118e'!);#######%)a72aa;$+",
"b*;4:4402|~1<<2^3gggg33'6%**###6f2a9:>$+",
"@*;||^<~76dd'88<13ggg]g3e>#**##$;32'h;$.",
"@*;[|1{d%&*&6,<<[<|<|1~37'%#**##d22'9;$+",
"@=>_0::;*-==&;gg8883eee7ee6*=**#6ajj,;$.",
"+='~^^^d=---&62<f7<31<9<ge6*=**#6<12(;$+",
"+=!<<37;#----%;<1<9a:9<,2;#===*#;2722)$.",
"+-'9:,a)%----=%>j}<a2}4,>#====*%)e78e>$.",
"@-,97|1:d&kkk--%6;jj,>;6$=====$;227ea>$+",
"@->4}<|^e6*kkkk-=&####&=--===#623922h>$+",
"@->:9,}a<e6#kkkk---------===%;'273ee7>$.",
"@->,a9f<2<e,6*-kk--------=*6!27887',2>$.",
"@k>}a,,2<<<<f);**=--=-=&&;>)37a,,22,j!$+",
"@k><4<<4999f2aa';;d;;;;;'e<aj',,,''2(;$.",
"@k!a2{18<<f992ee3<8877279j,ff,(,,a(,e>$+",
"+k>>!!!''e!e,>>!!!>>!');>)>;;);;,;;;;;$+",
"@kkkllllllllkkkk----===***&&#####$$$$$$+",
"b@@@@@m@@m+@@@@@+@@@+@+@@.@+b+++.+.++++."};
