/* XPM */
static char * digit_1_xpm[] = {
"40 40 73 1",
" 	c None",
".	c #1D1403",
"+	c #362C08",
"@	c #362107",
"#	c #999702",
"$	c #919C16",
"%	c #ADA62D",
"&	c #B8BE43",
"*	c #D9CE6F",
"=	c #374225",
"-	c #968239",
";	c #926C3E",
">	c #A77B50",
",	c #AF844D",
"'	c #977945",
")	c #817E13",
"!	c #937447",
"~	c #AD7561",
"{	c #9A8150",
"]	c #A48A55",
"^	c #9B825D",
"/	c #B88D6F",
"(	c #976D52",
"_	c #AD8E58",
":	c #846C4F",
"<	c #A78371",
"[	c #BB866F",
"}	c #BA8169",
"|	c #AD7C62",
"1	c #CF9682",
"2	c #C38C7D",
"3	c #B18466",
"4	c #997F69",
"5	c #976863",
"6	c #C29182",
"7	c #98755E",
"8	c #B78C80",
"9	c #977673",
"0	c #AB7356",
"a	c #B0847C",
"b	c #C39685",
"c	c #B89684",
"d	c #D58F20",
"e	c #968F10",
"f	c #AE8B82",
"g	c #AE8B70",
"h	c #C09E87",
"i	c #A58467",
"j	c #D09D85",
"k	c #CDA38C",
"l	c #E5F556",
"m	c #A09156",
"n	c #D7AB92",
"o	c #DBA390",
"p	c #D9B195",
"q	c #B8927A",
"r	c #C69E87",
"s	c #D4A487",
"t	c #B09177",
"u	c #C49A7E",
"v	c #B49773",
"w	c #C6A488",
"x	c #CFA361",
"y	c #B39B6B",
"z	c #A58F72",
"A	c #AF9662",
"B	c #A28A63",
"C	c #E5DD82",
"D	c #F9E385",
"E	c #F1F4A4",
"F	c #9B7B5E",
"G	c #AE8A5D",
"H	c #955F2F",
".+..+...+++++++..+@..+@.....++++@++++++.",
"+#############################$$%&&&&&*=",
"+#-;>>,;')>,,!>;>>-~-{]^']/(!>_>:]](<-&+",
"=%![}[|12||3[456|[11<6<78887<|54597:7!&.",
"+%/0[12~}6362|8a6/;));(ab[<c8<a<94<a<(&.",
"+d,[[0~[1[0[2}363-e##))7cfaa8aa<74998:&+",
"+d>~221}~2613[63)e####)g9hca88<8<c<7<i&.",
"=d,|[~[6j[}216~)e#####);aa<48c9f<f<4<]%=",
"+d>[|11[[j2j2j)e######)]ak88888b99<<5!%+",
"+l,2122111}0<)e#######))<cc8a89cacc<<{$+",
"@l/2~|6[6j33)e########)mbbn<faa<7a<77{#+",
"+l]2120j2oo/e#########)ma<868fcc8h4ff'#+",
"+l:2o~3~1pj,e#########)mqbrb<8<c<7<cf!#+",
"@d][[o11j[ose#########)><cch4h<9c78<<!#+",
"+d,[~~3o|[[<-e##e#####)-~bk4qkhckf<f<]#@",
"+d/[j[1q2j612----e####){tcc7ta7c:8hhc{#.",
"+d/}qu12oj6prjojve####)vphwwphcq84<5f]#+",
"+%'j[~~0u332iqrb,e####)m(qbc8hwchcfa:{#+",
"+%;2j[21s}j36sj[xe####eyc<t48tatw8hff]#.",
"+%>21j12j[sq[q3qme%###evaqhcgicwczf<q-#+",
"+%;31111o2sjqp~tme%%%%eApwhccht<ctcf4-#@",
"+%{1b|b1r}jb3h2|_e%%%%e_wkpkcttq<chccB#.",
"+&A3|[22|132[j26>#%%%%ehnppwkwztz<<tfm#.",
".&'q[o~q31|6r~6|me&&&&eybpkhhhqttcct4!#.",
"=&!b[}21r6s8kb2r]#&&&&eykkkktcctt4cf<{#.",
"=&m26|q}qj8nbwjhye&&&leAkckctttt7t<zt{#@",
"=&{21b6q[q[uqrrry#&lll#-hh<<gg<7tt7:<-#.",
".&ia2}r66[rq6rqq>ellll#{iqztg<i<t<7tq{#.",
"+*^6||2qb[a66wrw/ellll#Bcqgzzck<cczttB#.",
"+*B~[2j3/)-{---]-$lllle--------hthz<4{#.",
"=*v1676q-e&&%%%$%&llll%%##%%%##)<44<t;#.",
"=C{~<[2-$CDDDDDDDlllllllllll&&%#)4t77]#+",
"=Cv877t)DDDDDDDDDDllllllllll&&%%)t4t4!#.",
"=DB<ba<-&EEEDDDDDDlllllllll&&&%#-th7c_#.",
"+Dia6<|!)*DDDCC*l*lllll&&&&&%%#):t7<i!#+",
"=D!iF6qt>))))))))))))))))))))))!4z444!#.",
"=Dvaqi|bqg3ih<<irig<tF<h<gi<itt4tt4<4{#+",
"+DA]__By^iAvG^_y{Amm{A!;mB]-{{!;!!HH;H#@",
"+DDDEEEEEEEEEDDDDCl**&&&&%%%%%#########+",
".====+==+=++====+===.=+==.=+.@@+.+.++++."};
