/* XPM */
static char * digit_5_xpm[] = {
"40 40 75 1",
" 	c None",
".	c #0F041A",
"+	c #210936",
"@	c #8523C6",
"#	c #7718BA",
"$	c #7417B8",
"%	c #7E78DE",
"&	c #2E235C",
"*	c #5E5078",
"=	c #976863",
"-	c #7E5160",
";	c #A97384",
">	c #804265",
",	c #AC6154",
"'	c #80626D",
")	c #9B624A",
"!	c #78619A",
"~	c #935340",
"{	c #AA6346",
"]	c #AD7561",
"^	c #C78368",
"/	c #976D52",
"(	c #AD6D55",
"_	c #B8927A",
":	c #C18F6D",
"<	c #AB7356",
"[	c #AD7C62",
"}	c #A78371",
"|	c #997F69",
"1	c #98755E",
"2	c #A48355",
"3	c #826148",
"4	c #B18466",
"5	c #C09E87",
"6	c #846C4F",
"7	c #D09D85",
"8	c #937447",
"9	c #9B3E77",
"0	c #7123A1",
"a	c #AE8B70",
"b	c #B09177",
"c	c #9B7B5E",
"d	c #C56BB7",
"e	c #B5A0A2",
"f	c #A58467",
"g	c #AE9262",
"h	c #9369A5",
"i	c #352230",
"j	c #A28A63",
"k	c #6E17A8",
"l	c #64275A",
"m	c #BF7B63",
"n	c #AB7D84",
"o	c #D4A487",
"p	c #BA8169",
"q	c #95247C",
"r	c #BFA580",
"s	c #926C3E",
"t	c #B49C76",
"u	c #9B825D",
"v	c #C49A7E",
"w	c #B88D6F",
"x	c #CF9682",
"y	c #5F3F50",
"z	c #B39B6B",
"A	c #B5A278",
"B	c #B49773",
"C	c #A59165",
"D	c #D9B195",
"E	c #977673",
"F	c #B0847C",
"G	c #7625C4",
"H	c #C9B287",
"I	c #9A8150",
"J	c #A44D9C",
".+..+...+++++++..++..++.....+++++++++++.",
"+@@@@@#####$$$$$$$$$$$$$$####@@@@@@@@%%&",
"+@*==-;>=>=;>>;--->,'--,)-''-;-=>->;-!%+",
"&@~{]{^)/((_~):~~~)^<[/)/}|1234/=5678'@+",
"+@~]){^~=9000000000000000000000'}a6bc1@.",
"+d-~~)(~0##$$$$$$$$$$$$$$$$$###0ecfag-@+",
"+d=~<~4>#@@##########$#$######@$h6c|c-@.",
"id;~<~<0@@@#########$$$#$$#####$*8c}j'@&",
"+d=~</(0@@@@###########$##$####klcf|j'@+",
"+d=~(m<l#@@@$$$kkk$kkk$k$$kk$kk0n11o1'@+",
"+d)({{pl@@@@$09!!q999q99!900*>'n}1c56;@+",
"+d-mmm{0@@@@$0f_7p7:/_5r}:s38at}|4u11-#+",
"id;{^{<l@@@@$0ot4ov5b5jawxc6sf5_}a1buy#+",
"+d'~(<^l@@@@k07baxazbacwx:A34b5}}cBac-#+",
"+d'~~4^0@@@@#0oft}wC5|jwx}ccbaDcvCa1C'#+",
"+d=s~4^0@@@@#0;-E;E>E>'xxvj_atv/4/c1u-$.",
"+d>w~:(0@@@@@kkk#kkkkkk0q'F_55w/a/3u8-$+",
"+@~^~<(q@@@@@@@@@@@@@@@@#k0;a_18fc3//-$+",
"+@=x)p{q@@@@@@@@@@@@@@@@@@#k05uCcu33f>$.",
"+@=o(4mF0@@@@@@@@@@@@@@@@@G@k01afc3at>$+",
"+@>om2(w;900l0000009l0kG@@@@Gk0caccja'$+",
"+@>:^xm<:(74)mxxH4a5w~;qk@@@@Gk>r1fjAF$.",
"+@=4<o)[^mDa/m<xw)/:^<Da'0@@@@@0Dj8ac;$.",
".@'/m7~2|90>=m)4a24^mpDj3yG@@@@k'uuBj'$.",
"&@-<]^)/0@@@0-)<w^()m7Az160@@@@G*j1afy$.",
"&@h)]p{0@%%%@*~<4^<~<Hzzf10@@@@@*f668y$+",
"&%'(~p^>@ddd@0<~[o)~wrrH[30@%@@@0ba8u>$.",
"+%=<~xp9@ddd@0/^^<~8jgHDw60%%%@G*888u-$.",
"+dE//wp;0ddddG0^m<2cugHD50@%%%@0'/8/3~$.",
"+dn<^wm50dddddG9/vfcuzv:!G%%%%@06/6/3>$.",
"&dn^:<<r'Gddddd@09F||'!0@%%%%%0y6I6/3y$.",
"ld;]:s<rw0@ddddd%@GG0G@%dd%%%0l3688/6y$+",
"ld=<x<<Bo,00ddddddddddddd%%%0>333j/88y$.",
"id;)xsmfom1'0%ddddddd%dd%%%0lc8a6jI8u-$.",
"+d;(_)</x]vC6>0J%dddd%%%@0>1/C83c3zI8;$+",
"id=~|4pj_wwCII|>*0000000>|zCgCI6I6rIg-$.",
"id;~u:/ua<[4ICgIu83;Ff83fIBua/A3ujuu8'$+",
"+d9=';=E|)=x1|||''';;ny>'1;9'6'y6'>>->$+",
"+dddddddddddddddddddd%%@@@@@@@@@###$$$$+",
".iiiiiliil+iiiil+i+&+&+&+.&+.+++.+.++++."};
