/* XPM */
static char * digit_8_xpm[] = {
"40 40 64 1",
" 	c None",
".	c #0B0C17",
"+	c #1A1339",
"@	c #0F041A",
"#	c #1D1358",
"$	c #5250C9",
"%	c #4A48C5",
"&	c #5B56EB",
"*	c #6664E2",
"=	c #7E78DE",
"-	c #2E235C",
";	c #6A626A",
">	c #98755E",
",	c #807771",
"'	c #80626D",
")	c #977673",
"!	c #846C4F",
"~	c #997F69",
"{	c #AE8B70",
"]	c #826148",
"^	c #7E5160",
"/	c #78619A",
"(	c #6243D3",
"_	c #AF844D",
":	c #A77B50",
"<	c #B88D57",
"[	c #C69A68",
"}	c #CFA361",
"|	c #C29360",
"1	c #AD8E58",
"2	c #977945",
"3	c #B6925C",
"4	c #AE8A5D",
"5	c #C3A06B",
"6	c #B99761",
"7	c #B39B6B",
"8	c #926C3E",
"9	c #A48355",
"0	c #976D52",
"a	c #AE9262",
"b	c #C1AA73",
"c	c #B78A5D",
"d	c #9A8150",
"e	c #5E5078",
"f	c #66778B",
"g	c #D1B175",
"h	c #B07B4C",
"i	c #D1AA74",
"j	c #3F48A7",
"k	c #4641B1",
"l	c #A48A55",
"m	c #A78371",
"n	c #CFA372",
"o	c #C1A56C",
"p	c #B49C5C",
"q	c #C5AF74",
"r	c #BF9A6A",
"s	c #AF9662",
"t	c #94808C",
"u	c #B3A56A",
"v	c #9B825D",
"w	c #4D6BC9",
"x	c #352230",
"y	c #A090BB",
".+..+...+++++++@.++.@#+...@@++#++++++++.",
"+$$$$$$$$%%%%%%%%%%%%%%%%%%%$$$&*****==-",
"+$;;>>>,';)',')'!~;{;))]>!,{^)),^;')~/=+",
"-(>_:<[<:}<|1|_231345362647482490aa7b,=@",
"+*)<_<<2_||2:|cd',,ef;'>4g4_285745gb4!*.",
"+=>h<|_|:_1ic'ejkk%k%kkkje;24666da148]*+",
"+=!<:_<<<_1)ek%%%%%%%%%%%%kj)42418l42!*@",
"-=)ih}_:||ej$%%%%%%%%%%%%%%%k;72_7447)*-",
"+=):||<<3;k$$%%%%kkjjkk%%%%%%kea544a4,&+",
"+=m}}<<|,k$$$$%ke)4444,fk%%%%%keab922,$+",
"+=0_<__4j$$$$%j'c31ii517'j%%%%%j!2a22!$+",
"+='_2|}ek($$$k)615655i[12;k%%%%k,414a,$+",
"+=d___<f$($$%j63135|n65117j%%%%%fbgbl'%#",
"+='[[<<e$(($%jn<<33[5n|1o6j%%%%%e322l'%+",
"+='n|_<j$(($$j{|6p6[3i[1q4j%%%%%e882a,%+",
"+=><<}})k*($$kf5no1__1ir7)k%%%%kea11a)%.",
"+=)<<}_9j$*&&$kem[n631_4jk%%%%%jl267l;%+",
"+*><||<<mj&*&&$%jf,),,;j%%$%%%j;s361o,%+",
"+*'<_i|3|!k&**&&$$$%k%%$$$$$%j)1q6l67t%.",
"+*'h5|}in|,j$****&&&&&*$$$$kj,63l7baa,%+",
"+*,<<<[<h6)j$*************$%jm61o92sr;%+",
"+*,|3|<|i)k*******%k$$$*****$jmu62217v%.",
"+*,2|nn})j*****$k;''!~;j$****$kmo3lsl'%@",
".*)5}5<|j*=***$;a31i5n64ek****$jas1su~%@",
"-*!}iii)k====%;2[5565qg1b,$****k'l2sp,%.",
"-=/3_11j*===*j13ii6gi1oioaj*=**$fq1uu,%+",
"-=)|_3[;*===*e2_33<1pq1p5qj*=**$es1gs;%.",
"+=v55i[e*===*ju1165p6oo122j===*$epppp,%@",
"+=m[ni<;$====k,o6qin11igo'$===*$e2d2sv%.",
"+={nr3i{j=====k~a3531_ob,k====*jvl111)%.",
"-={<2__g;w=====ke,ab1!;jk=====kep_ls1;%@",
"-=,h:82<5jw======wkkkkw======$eaql11p,%+",
"-=~3121|13ek================j;ppoupop~%.",
"x=~r5_13ii5~jw============*jm2_2dp281~%.",
"+=~c3121n61<_!e/w======wjf~7gp22pod2p~%+",
"x=~113182_|21222;'e;;e;;!82soopsppspp~%.",
"-=)c3r___13382_831128l_l6228po3d2ppl2~%#",
"+=/,m{~{v4)b4v!~~),)'>~'mmmf,v!!]~';;;%+",
"+==yyyyyyyyyyy==========******$$$%%%%%%+",
".x---x--x-+x----+xx-+-+-#.-+.+++.+.++++."};
