/* XPM */
static char * digit_7_xpm[] = {
"40 40 68 1",
" 	c None",
".	c #1C040D",
"+	c #310304",
"@	c #341318",
"#	c #A10608",
"$	c #9B0102",
"%	c #970001",
"&	c #BD212B",
"*	c #CF3B59",
"=	c #740E18",
"-	c #AC6154",
";	c #A34644",
">	c #9B624A",
",	c #AA6346",
"'	c #935340",
")	c #C18F6D",
"!	c #AD6D55",
"~	c #BA8169",
"{	c #BF7B63",
"]	c #AD7561",
"^	c #AB7356",
"/	c #D09D85",
"(	c #B88D6F",
"_	c #CF9682",
":	c #C49A7E",
"<	c #AD7C62",
"[	c #AE8B70",
"}	c #D9B195",
"|	c #BFA580",
"1	c #A48355",
"2	c #C2966D",
"3	c #A58467",
"4	c #B5A278",
"5	c #B8927A",
"6	c #C6AA85",
"7	c #A28A63",
"8	c #C09E87",
"9	c #9B7B5E",
"0	c #C6A488",
"a	c #B18466",
"b	c #D59B71",
"c	c #950404",
"d	c #B09177",
"e	c #D4A487",
"f	c #C7B28D",
"g	c #B49C76",
"h	c #D7AB92",
"i	c #E6BD9E",
"j	c #A58F72",
"k	c #937447",
"l	c #DBA390",
"m	c #AE9262",
"n	c #C9B287",
"o	c #BF9A6A",
"p	c #DBBD9A",
"q	c #9B825D",
"r	c #B49773",
"s	c #B39B6B",
"t	c #D0BC94",
"u	c #976D52",
"v	c #C3A06B",
"w	c #A59165",
"x	c #A77B50",
"y	c #926C3E",
"z	c #F0D097",
"A	c #DE5190",
"B	c #352230",
"C	c #E26598",
".+..+...+++++++..++..++.....++++..+.@@@.",
"+#######$$$$$$$$$$$%%%%$%$$$####&&&****@",
"+#=----;>;,,;')!'>'~'{>]'!>']{>'''>'^'*@",
"@&>/((_):<[::}|12[:3|45|65|7338||3399'*.",
"+&{01~ab{====cc==c============='d5838>*.",
"+&-eb(9>c##$$$%%%%%%%%%%%%%cc##=3888f]&+",
"+&><~~e=#####$$$$$$$$$$$$$$$$##c'333g'&.",
"@*-)2/(=#####$$$$$$$$$$$$$$$$##c'9938-&@",
"+*-ehig=c####$$$$$$$$$$$$$$$$$$c=jd53>#+",
"+*{:/((>cc$%%%%%ccc%%cc%%$$$$$c=535k3'#+",
"+*~):~(_/-;;;-;=;;;;;;=cc$$$$%c585|f8>#+",
"+*;:a)blg(:imn~op626i3;%$$$$$c'|qk3f5(#+",
"+*{1__h:a::(pgh}:}g:p-c$$$$$c=|fkjd33'$+",
".*-ib9)hha:2nef}|2pn!c$$$$$%=]|63a999'%+",
"+&>e::a}h::}eea6ig:(c$$$$$%=5a4dg||4d>%+",
"+&{e22(/a:2}::66np5=c##$$$c'844r4r536>%.",
"+&-a~|g6h|}6(oh||f{c####$c=[|nfqm5ga3-%+",
"+&'(_le:e}66lp6|6!c#####c=6s16|td3akru%+",
"+&^}h0:le(::n}:n(cc#####=1pi6gr|f6[99'%.",
"+&{/(aobv||6:e6(=c#####c-446pg1m|sfd|'%+",
"+&'([2}}(::}}6o-c#&&&#c=}twm62s6wj||7=%+",
"+&>xl:iml:im}6(c#&&&&c=a|6tng6f41kdfgy%.",
"+&{2nne((6o6[:c#&&&&&=(||666aw|n7ttg|-%.",
".&,vm2(_(p(6xcc&&&&&c;|6nmtzsgg4tsrxj~%.",
"@&yh/19elnva;c&&&&&c=}q6|:ppt6sm4n61|>%.",
"@*-e(m/6/m0>c&****&=ut|6p}|monw1nptpg'%+",
"@*!oem66hn>c&****&c>nnntmttwnssnsijjf,%.",
".*a:6nih6}c#*****c'}i1gsogttn|wpsg7|6>%.",
"@*^s1/eia;c*****c=2mpn|zntvig7gmtgq|fa%.",
"@*<:m::e'c*****&=||6p|gvnzwg|ggg4|w|s>%.",
"@*]:a2|6;&AAAA*=<si}}s6o|n4o6|44qs|41'%.",
"B*,gi:i;#AAAA*c(6iotmmnn6t|gm|6nwktnk^%+",
"B*!3/}s=ACCCA&=pttg(|mzz64gvm1}fqmw6s'%.",
"@A!:[m7,*CCC*=:|161tttn6tk4wrww6q7tg7>%.",
"@A^a[:5xc*A*c~mnszi}6fo9fv1gggn7os4og'%+",
"@A'q5ews>==='}|pzttf94|m646s4g|gk|66sy%.",
"BA-6646q|q4(mge6ts1ng6tsqmg|y||qk1sg1>%+",
".A->{'<-[k-h>(!{^,'-!a<''x^;'^<kx'''''%+",
"@ACCCCCCCCCCCCCAA******&&&&&&#####$c%%%+",
".@BBB@BB@B@@BBBB@@@B.@+++.++...+.+.++++."};
