/* XPM */
static char * digit_4_xpm[] = {
"40 40 45 1",
" 	c None",
".	c #1D1403",
"+	c #362107",
"@	c #362C08",
"#	c #283419",
"$	c #C07A05",
"%	c #B97601",
"&	c #CC851E",
"*	c #D58F20",
"=	c #D09A5D",
"-	c #E7A267",
";	c #ECAC68",
">	c #374225",
",	c #A76D2A",
"'	c #BB853F",
")	c #C18F4B",
"!	c #CFA361",
"~	c #D59163",
"{	c #DEB07F",
"]	c #C29360",
"^	c #CFA372",
"/	c #B07B4C",
"(	c #C69A68",
"_	c #D9A36B",
":	c #AF844D",
"<	c #D1AA74",
"[	c #B78A5D",
"}	c #ECAE7E",
"|	c #D59B71",
"1	c #D09D85",
"2	c #C2966D",
"3	c #F7BD91",
"4	c #EAB386",
"5	c #AF721A",
"6	c #E9BF87",
"7	c #C07C38",
"8	c #817E13",
"9	c #DCAE6A",
"0	c #B88D57",
"a	c #B8BE43",
"b	c #F0D097",
"c	c #E5F556",
"d	c #D1B175",
"e	c #5F3F50",
"f	c #F3CA76",
".+..+...+++++@@..@+..@+.....++@@++@+#@@.",
"+$$$$$$$$$%%%%%%%%%%%%%%%%$%$$$&***=-;;>",
"@$,'))=))))!~=!,){){)')]^/)('_:))<'[/);@",
">*)~}~~}}~))){^-|^/]]|<({{)1{_]1^12/1]-.",
"+*_}~34~',55'|}4{<~66}])55,'^{1{122^|]=.",
"+*/-3)4_5$$%5=~}-}_{}6{5%%%5)<{21^{^1]*@",
"@*]~}3},$$$$%,36{||{|(7%%%%%/^|^(]{<{(*.",
"@*)3~~}7$$$$%,|'64{-3}'%%%%%8{^{{^(2]'*>",
"+*/-}-_5$$$$%74{346}}47%%%%%826^6{^^]]&+",
"+;'~}}45$$$$%5}(_-__}(7%%%%%8^{{11{^{=5+",
".;~3~~35$&$$%5|<366}<<5%%%%%5{<6]]({6)$+",
"+;7~4345$&$$%536_}_66_'%%%%%8<<{({^6(=$+",
"@;4-~~-5&&$$%,~~_}}]{{)%$%%%8{<42{{{^'%@",
".*7--{~5&&&$%5643666_}7%$$$%8{{{4{{{{)%+",
"@*'~-4}5&&&$$53436}_6_7%$$$%86{{_<]{{)%+",
"@*~3})-5$&&&$,{}}_}_}4'%$$$%56{4^^6{</%.",
"+*=-}365$&&&$5)_'=~)_{7%$$$%8]({4<46{,%+",
"+*_34}}5&*&&$%%%%%%%%%%%$$$%%%5/{<66<)%+",
"+*)}33~5&**&&&&&&&&&&$$$$$$$$$%8:^{{6)%.",
"+*)-3-35&******&&&&&&&&&&&$$$$$%8{([<:%@",
"+*/}3}35&***********&&&&&&&&$$$%5{(<<7%+",
"+*/~~}4!%******************&&&$%)6<{(]%.",
"+*;}}}-~=55%5%%%%%%%%%%****&%%%)^<{6{=%.",
".*]}64334~{)!~'9]'9!)!7$****8){6]{<({]%.",
">*034<-}}}}}}63}}4}6<}7*aa**8^{b(6{]]=%.",
">*'}-}{}}}|}}--}{}66<{=&ccc*8{66(6{20:%+",
">;)~}~43}~}4364~^6b}46)$ccc*8<6{<66{('%.",
".;0433336{_}}364_}6_6b7*ccc*5^({{{66()%.",
"@;~3}-334--}__}<63b_{4'*ccca5{<6{:<(^]%.",
"@;_}_}}}-_3}-}!}4b6_<47*ccca8d{<<[]d<'%.",
">;}~-3}-~}}{{;}}b{^{66,acccc8<{d6(4{(/%.",
"e;|463}_}}}}}^4_b6_{46,*cccc8<^{b<^{d,%+",
"ef]--4-}~~_{}}{<b6_{6_7$ccca86(]<(<{])%.",
">f0<}}4{~_}___4}{}}6{{'5ccc*8{d](<{^{)%.",
"#f:44--_|<{_~_{34{_b{4_5$a*5,{{<<<(]{)%+",
">f:}}____}-{_|}6{{^6{<<)588)0<<(<]][[)%.",
">f]}__~_~({_}{}{}<3{({{{{<]6(((<^<](0:%@",
"+f)]_)/((|)!0_]_!!)))!]))]''':):!]/,/,%+",
"#ffbbbbbbbbbbbffff;;;;;;****&&&$$$%%%%%+",
".>>>>#e>#e##>>>e#>>e.@@@@.@+.+++.+.++++."};
