/* XPM */
static char * digit_2_xpm[] = {
"40 40 63 1",
" 	c None",
".	c #341318",
"+	c #C45056",
"@	c #C04A4F",
"#	c #BB484D",
"$	c #E26598",
"%	c #E47890",
"&	c #352230",
"*	c #AC6154",
"=	c #9B624A",
"-	c #BA8169",
";	c #AD6D55",
">	c #AD7561",
",	c #BB866F",
"'	c #976863",
")	c #98755E",
"!	c #AD7C62",
"~	c #976D52",
"{	c #846C4F",
"]	c #935340",
"^	c #B18466",
"/	c #A58467",
"(	c #9B7B5E",
"_	c #997F69",
":	c #D09D85",
"<	c #D7AB92",
"[	c #C49A7E",
"}	c #C2966D",
"|	c #B49773",
"1	c #C6A488",
"2	c #B49C76",
"3	c #A58F72",
"4	c #C7B28D",
"5	c #B89684",
"6	c #B3A281",
"7	c #C18F6D",
"8	c #B88D6F",
"9	c #AE8B70",
"0	c #BFA580",
"a	c #A34644",
"b	c #9B825D",
"c	c #826148",
"d	c #1C040D",
"e	c #D4A487",
"f	c #B4494C",
"g	c #B09177",
"h	c #CF9682",
"i	c #A28A63",
"j	c #B5A278",
"k	c #C6AA85",
"l	c #DBBD9A",
"m	c #D0BC94",
"n	c #A59165",
"o	c #BF7B63",
"p	c #C78368",
"q	c #5F3F50",
"r	c #ECAE7E",
"s	c #DBA390",
"t	c #F294A0",
"u	c #E79D9D",
"v	c #F7BD91",
"w	c #F7A4A9",
"x	c #ECAFAB",
".+++++@@@@@#################+++++$%%%%%&",
".+++++@@@@@#################+++++$%%%%%&",
".+*=-;--->--,'-;>,)!>>~~{]^//!!('!''_!%&",
"&+)/:<[^^}[[:<|}[12/||)|{23445433633_~%.",
".+>!!!7[[^|890[8*]=aaa=)~2/3)b_{c53){~%d",
".%>e)![~^[^!<!*aaffffffaa]/g(/_3_65335%&",
".%)!h})7^9[9=af#@########fa'535361153)$.",
"&%>e[[8/9:!aa#@@@@#########a=/5363{i3(+&",
".%>^^[<}^|aa@@@@@@#@########a]{{c_b3)]+.",
".%~ee:88}*a++@@@@#ffff#######a'636){_~+.",
".%e}[e:<:a++++@#faa>>fff######a34163{~+.",
".%>ehe<e*f++++@a=~4j_9>af#####a'561439@.",
"&%hhe:[ea++++@a*91:3|6k0ff####fa56664~#.",
".%;8|<7>#++++f*4ll[m4lj29ff####a_6666g#.",
".%)^7el*+++++a}3lmkkl4441-a####f]5644!#.",
".%,<[[e*@+++@f9|42kkm02m1mf####f]60in3#d",
".%-^[[[a+++++*||m/km4jmll4*#@@#f]6660!#.",
".%c}::[a@+++#*0!0||kmkjmmmf#@@@f]6666~#.",
".+>|eh<^f++@a!|9jjk24414m4f#@@@a]6663>#d",
".+^00[0:>aaa-|0|04jkmlll4^f++@@f'6364/#.",
".+)8[^}0[8^}|/kk|mmmm4llkf++++@a946k6'#.",
".+(<^|}[|/0[0k|lmmmmlm|/af++++@]k4l6b(#d",
".$h:e<}k[4em4mm4lm446k>a+ooo++a_46n36)#.",
".$~[[^e<kke0kkl4|46j^ffoppppo+]63b6n3{#.",
"q$~k0<[00m|2|0j|34^afo%r%%%p;a)6n3433)#d",
"&%-}[[[0:k44mklm[>f+%rrrsrrpa)464k436~#.",
"q%([9k[k|0k0|4[*f+%tuuuvvuoa2466443ii'#d",
".t/9k[|2kkk0[*f+%tttwwvvs;a|k463in632(#.",
"&t,0[0|4jk|;f@tttttwwvuoa]6)3636i666_/#d",
".t(|:[0[9;f@%twtwwwwu*aaa*;;>*>62663n]#d",
"&t|90|49;f%wwwwwwwwwoppo++oo++fa/6ni)~#.",
"qw,j299=+wwwwwwwwwwwwvvvvvvur%of=66_k3#.",
"qw(g2kj]wwwwwwwwwwwwwvvvvvus%%p+=36)3~#d",
"&w)/_30=%wwwwwwwwwwwwwwwwusr%pof]6_n_)#d",
"&w3/j3j/a%wwwww%tttttttr%%pppo+a3b666/#.",
"&w33[39_)=aaaaaaaaaaaaaaaaaaaa]{3i{_)_fd",
"qw|k0122299kk6i3jj3n3ki332362i663i66_c#.",
".w,,/|~!_2(639/9/,,-_3)(|{/=(c~()))]~~f.",
"&wwwxxxxxxxxwwwwwwtttt%%%poo+++++@####f.",
"d&q&&&q&&q.&&&&q&&&q.&&&&d&.d...d.d....d"};
