/* XPM */
static char * digit_6_xpm[] = {
"16 24 17 1",
" 	c None",
".	c #000000",
"+	c #101010",
"@	c #181818",
"#	c #292929",
"$	c #313131",
"%	c #393939",
"&	c #424242",
"*	c #4E4E4E",
"=	c #6C6C6C",
"-	c #959595",
";	c #C0C0C0",
">	c #D6D6D6",
",	c #DEDEDE",
"'	c #EBEBEB",
")	c #F7F7F7",
"!	c #FFFFFF",
".&!)#...........",
"..=!;...........",
"...>)...........",
"...-!%..........",
"@..*!=#=--*.....",
"...#!)!!!!!'&...",
"...@!!>*+#-!)@..",
"....)>&&...-!-..",
"....+>!!>+.@!;..",
"....*!;;!*.+!;..",
"....=!;;!=.-!-..",
"....%!!!'@-!)@..",
".....;!!''!'&...",
"......=;;;-+....",
"................",
"................",
"................",
"......+-!!%.....",
"......-,@++.....",
"......',!'#.....",
"......!=+,;.....",
"......>;+,;.....",
"......#,!;@.....",
"................"};
