/* XPM */
static char * about_xpm[] = {
"94 94 94 2",
"  	c None",
". 	c #000000",
"+ 	c #001700",
"@ 	c #008B00",
"# 	c #00B900",
"$ 	c #00D000",
"% 	c #17D017",
"& 	c #00A200",
"* 	c #007300",
"= 	c #002E00",
"- 	c #004500",
"; 	c #00E700",
"> 	c #00FF17",
", 	c #73FF73",
"' 	c #8BFF8B",
") 	c #5CFF73",
"! 	c #8BFFA2",
"~ 	c #A2FFB9",
"{ 	c #8BE7A2",
"] 	c #73E78B",
"^ 	c #73E773",
"/ 	c #B9E7B9",
"( 	c #A2E7A2",
"_ 	c #B9FFB9",
": 	c #D0FFD0",
"< 	c #A2FFA2",
"[ 	c #2EFF2E",
"} 	c #8BE78B",
"| 	c #5CE75C",
"1 	c #2ED02E",
"2 	c #45D045",
"3 	c #17D02E",
"4 	c #2ED045",
"5 	c #E7FFE7",
"6 	c #E7FFFF",
"7 	c #5CFF5C",
"8 	c #5CE773",
"9 	c #45E745",
"0 	c #45E75C",
"a 	c #A2E7B9",
"b 	c #B9FFD0",
"c 	c #00FF00",
"d 	c #00D017",
"e 	c #FFFFFF",
"f 	c #B9E7A2",
"g 	c #45FF5C",
"h 	c #73FF8B",
"i 	c #2EFF45",
"j 	c #005C00",
"k 	c #00E717",
"l 	c #17FF17",
"m 	c #45FF45",
"n 	c #D0FFE7",
"o 	c #17E717",
"p 	c #FFFFE7",
"q 	c #001717",
"r 	c #002E17",
"s 	c #17A217",
"t 	c #175C17",
"u 	c #D0E7D0",
"v 	c #17E72E",
"w 	c #17B92E",
"x 	c #17FF2E",
"y 	c #174517",
"z 	c #00B917",
"A 	c #177317",
"B 	c #D0E7B9",
"C 	c #17B917",
"D 	c #007317",
"E 	c #FFE7FF",
"F 	c #2EE72E",
"G 	c #17A22E",
"H 	c #172E17",
"I 	c #178B17",
"J 	c #D0FFB9",
"K 	c #E7E7D0",
"L 	c #E7E7E7",
"M 	c #2EE745",
"N 	c #008B17",
"O 	c #A2E78B",
"P 	c #004517",
"Q 	c #E7FFD0",
"R 	c #45D05C",
"S 	c #5CD05C",
"T 	c #73E75C",
"U 	c #2EB92E",
"V 	c #178B2E",
"W 	c #2EA22E",
"X 	c #B9E7D0",
"Y 	c #17732E",
"Z 	c #172E00",
"` 	c #00A217",
" .	c #171700",
"..	c #171717",
"                                                                                                                                                                                            ",
"                                                                                                                                                                                            ",
"                                                                                                                                                                                            ",
"                                                                                                                                                                                            ",
"                                                                                                                                                                                            ",
"                                                                                                                                                                                            ",
"                                                                                                                                                                                            ",
"                                                                                                                                                                                            ",
"                                                                . . . + + @ # # # $ % # $ $ $ $ $ # # # & * = . . . .                                                                       ",
"                                                    . . = - # ; > , ' ) , ! ~ { ] ] ] ^ / ( ^ { / ( { _ _ _ : _ ! < , ; @ . . .                                                             ",
"                                              # # $ > [ ' ' < / ^ ^ } } } } } } ( } | | ^ | 1 1 2 1 1 3 4 1 | ^ | ( / : : 5 6 7 # . . .                                                     ",
"                                          # $ % | ( _ ( ( ( 8 } ( ] : ( } ^ ^ ] } } ( } ( } } ^ 4 $ % ^ } | | 9 % 0 8 ^ 1 | a b : : : c - .                                                 ",
"                                    { d $ % ^ 8 } / ( ( ( / } ( _ | } ( } } _ : ^ 7 ' ! < < : 5 _ _ e ^ } ^ | 1 $ $ % 1 & # % % 9 } / e 6 < ' ^ |                                           ",
"                                | $ $ 3 9 { : : / f / ^ ^ { ^ } } | } : < 7 g h i * + - j j * & # k l m , : : _ _ ( ~ ( | | $ @ $ | ^ | } / : / ^ 0 1                                       ",
"                              1 & @ 9 : b ( } ( ] | ( | } } ( / _ : n , > . . j o * . . . . . . . . . . * o j . . > , n : _ / ( } } | ( | ] ( } ( b : 9 @ & 1                               ",
"                          ^ # # } e : f / / } ( ( ^ } ( ( / _ < > * . . . + . . ' ! . . + . + . . + . . ! ' . . + . . . * > < _ / ( ( } ^ ( ( } / / f : e } # # ^                           ",
"                        1 # # ^ p 6 ( a ( } ( _ ( } ( } : 5 g @ . . q r r + . . [ : s . . = + t + . . s : [ . . + r r q . . @ g 5 : } ( } ( _ ( } ( a ( 6 p ^ # # 1                         ",
"                    { # $ | : 5 f } ( ( } } : u } a / b ' ; . . . + . . . . . . . l l * = g v w j = * l l . . . . . . . + . . . ; ' b / a } u : } } ( ( } f 5 : | $ # {                     ",
"                  % % 3 } n n ( { ( / ( ( ( : ( | ( < x j . . r + . . = * l h x # ' : ' , < ' v l , ' : ' # x h l * = . . + r . . j x < ( | ( : ( ( ( / ( { ( n n } 3 % %                   ",
"                % j v e 6 / ] } _ / } ( ( } ( { } _ 7 . . . y . . = s l , ' } _ ^ : : / e # h } _ e / : : ^ _ } ' , l s = . . y . . . 7 _ } { ( } ( ( } / _ } ] / 6 e v j %                 ",
"              9 $ d 5 / ( / u / ( } ( ( ( ( a u _ i z . . + . . @ i , h | 2 ^ : | _ e 5 b t x < ~ b 5 e _ | : ^ 2 | h , i @ . . + . . z i _ u a ( ( ( ( } ( / u / ( / 5 d $ 9               ",
"            | * $ b n b { } ( / ( ( _ : / u / u 7 j . y . . A o , _ } } } B e n @ & j & j = C * = j & j & @ n e B } } } _ , o A . . y . j 7 u / u / : _ ( ( / ( } { b n b $ * |             ",
"          } $ # < e } ( / / / a ( ( } ( } / ( } c . . . . j c m | 9 $ ^ e 6 , ; D m . . . + m r . . . . m D ; , 6 e ^ $ 9 | m c j . . . . c } ( / } ( } ( ( a / / / ( } e < # $ }           ",
"        _ 3 @ < ( ( } a ( ( ( a / f ( ( 5 a } , % g , 1 [ _ e _ a ( } E b j * C = . . + + F ' . . + + . . = C * j b E } ( a _ e _ [ 1 , g % , } a 5 ( ( f / a ( ( ( a } ( ( < @ 3 _         ",
"      ^ 8 # | : b b / / ( ( ( a a ( ( } } } ^ c . y G 1 1 l < e e / a } 9 v x . . H + . + I [ . . + . + H . . x v 9 } a / e e < l 1 1 G y . c ^ } } } ( ( a a ( ( ( / / b b : | # 8 ^       ",
"      , # j 5 5 / a a / a ( ( ( ( ( a / / b ~ k . . + . . . j 7 : < _ # ^ 5 o . y + . + y . . r y y + . + y . o 5 ^ # _ < : 7 j . . . + . . k ~ b / / a ( ( ( ( ( a / a a / 5 5 j # ,       ",
"    ^ < j # e / ( ( ( / f ( ( ( ( ( ( | } ( ' ; . H . . . . . . . & ( 4 _ _ - . y . t [ i . . [ i i [ t . y . - _ _ 4 ( & . . . . . . . H . ; ' ( } | ( ( ( ( ( ( f / ( ( ( / e # j < ^     ",
"    a ' * ! 5 ( / _ / / f ( ( ( ( ( ( ( / / < ; . . + . = * & = + m e ] ] e c . . . A 7 w r t g F w 7 A . . . c e ] ] e m + = & * = . + . . ; < / / ( ( ( ( ( ( ( f / / _ / ( 5 ! * ' a     ",
"  ^ _ $ $ e / ( B b ( / a ( ( ( ( ( ( / a ( n [ . + [ < g ' 5 _ _ J a n $ ' ' - . . 3 g s s m g w s g 3 . . - ' ' $ n a J _ _ 5 ' g < [ + . [ n ( a / ( ( ( ( ( ( a / ( b B ( / e $ $ _ ^   ",
"  ^ _ = g 5 ( ( f ( } / ( ( ( a a ( ( / ( | : < . . ) 6 ( ( } ^ ^ ( e B & * : 7 * - c ' 7 3 _ % w 7 ' c - * 7 : * & B e ( ^ ^ } ( ( 6 ) . . < : | ( / ( ( a a ( ( ( / } ( f ( ( 5 g = _ ^   ",
"  ^ < . : a : / / / / / ( ( ( a / f ( a / 1 / e = . m b ( / } ( ( | a e _ $ $ ^ e e h z w j i . . w z h e e ^ $ $ _ e a | ( ( } / ( b m . = e / 1 / a ( f / a ( ( ( / / / / / : a : . < ^   ",
"  ( 7 + _ u { / ( ( ( ( ( ( ( ( a ( ( } ( 8 / e > . & : } ] 1 2 ( { ^ ( B a | # d e < & t . A . . t & < e d # | a B ( ^ { ( 2 1 ] } : & . > e / 8 ( } ( ( a ( ( ( ( ( ( ( ( / { u _ + 7 (   ",
"  } m - _ K ( / ( { { a ( ( ( a a ( ( _ ( ^ ^ ( e ; & _ ] ( ( } ^ ^ ( 6 ( e e k @ & = o , 1 i [ h , o = & @ k e e ( 6 ( ^ ^ } ( ( ] _ & ; e ( ^ ^ ( _ ( ( a a ( ( ( a { { ( / ( K _ - m }   ",
"  ^ 9 @ : L ( / ( ( ( ( ( ( ( / / ( ( { : } ^ ] e } $ | } / ( } } / / e < 5 ) + , ' : o % t . . * % o : ' , + ) 5 < e / / } } ( / } | $ } e ] ^ } : { ( ( / / ( ( ( ( ( ( ( / ( L : @ 9 ^   ",
"  } | $ 5 L ( ( ( b B ( ( f a / / a ( ( ( 6 ] * ' e 1 $ ] ( a / / < g m + * . . . = % < _ i M m h _ < % = . . . * + m g < / / a ( ] $ 1 e ' * ] 6 ( ( ( a / / a f ( ( B b ( ( ( L 5 $ | }   ",
"  ( } $ _ u ( ( ( B / ( ( a / / / / / / } / n & - , e 2 2 | ( : < c N s . . . . + . . . . I A I + . . . . + . . . . s N c < : ( | 2 2 e , - & n / } / / / / / / a ( ( / B ( ( ( u _ $ } (   ",
"  ( < @ ^ _ _ ( ( a } ( ( / / / a a / { n ^ p 5 - . m ' 9 1 d F [ I y . . H . x 7 < z I . . . . . . I z < 7 x . H . . y I [ F d 1 9 ' m . - 5 p ^ n { / a a / / / ( ( } a ( ( _ _ ^ @ < (   ",
"  { : * | / u ( ( f } ( ( / / ( ( ( / ( n O } 5 : c . x l , d * I . . H . . I g _ < 7 ' x I 1 i m x ' 7 < _ g I . . H . . I * d , l x . c : 5 } O n ( / ( ( ( / / ( ( } f ( ( u / | * : {   ",
"  } n & , : : ( ( b _ ( ( / / ( ( f / / { _ / ( : 5 c . . ~ _ F t . . + . = % M ^ % & s 8 P [ 9 / 8 s & % ^ M % = . + . . t F _ ~ . . c 5 : ( / _ { / / f ( ( / / ( ( _ b ( ( : : , & n }   ",
"  9 e ; - ' e ( ( } / / a a ( ( ( ( ( a / / ( ( ( : e c . . * [ g F - . . N x | 8 9 o & | 3 , | ^ | & o 9 8 | x N . . - F g [ * . . c e : ( ( ( / / a ( ( ( ( ( a a / / } ( ( e ' - ; e 9   ",
"  1 : ' = $ : / } u ( a a a ( ( ( ( ( ( ( ( ( ( ( / / e : $ . . = F h 7 ' , 9 | | | ^ 8 { F | 1 | { 8 ^ | | | 9 , ' 7 h F = . . $ : e / / ( ( ( ( ( ( ( ( ( ( ( a a a ( u } / : $ = ' : 1   ",
"  1 ( e $ & < e ] n ( ( ( ( a a a / / ( ( ( ( ( a a ( n < e ' . . . . s i 7 , _ _ | 2 | ^ 1 | 3 4 ^ | 2 | _ _ , 7 i s . . . . ' e < n ( a a ( ( ( ( ( / / a a a ( ( ( ( n ] e < & $ e ( 1   ",
"  2 ( Q _ $ k e B { / ( ( ( a a / / / a ( ( ( ( ( a ( ^ a / e n c . . . . . . j o [ , ! b ! _ b : b ! , [ o j . . . . . . c n e / a ^ ( a ( ( ( ( ( a / / / a a ( ( ( / { B e k $ _ Q ( 2   ",
"  9 ^ f e 9 - | e ( / ( ( ( ( a / / / _ ( ( ( a ( ( } 6 } | ( f e ~ c + . . . . . . . . . & * j - . . . . . . . . . + c ~ e f ( | } 6 } ( ( a ( ( ( _ / / / a ( ( ( ( / ( e | - 9 e f ^ 9   ",
"  3 % ( 6 : & & < : n ( ( ( ( ( ( ( ( / ( ( ( ( ( ( } ^ ( / / } a _ _ } , < _ 7 o j . . . . . . . . . . j o 7 _ < , 6 _ _ a } / / ( ^ } ( ( ( ( ( ( / ( ( ( ( ( ( ( ( n : < & & : 6 ( % 3   ",
"  $ # F _ e ^ $ $ } u ( ( ( ( ( ( ( ( ( ( f ( ( ( ( ( _ / } ( } | R : | ] } } } ! ' , h l . + * % l h , ' ! } } } ] } : R | } ( } / _ ( ( ( ( ( f ( ( ( ( ( ( ( ( ( ( u } $ $ ^ e _ F # $   ",
"  $ s j h < e } * i _ : a ( ( ( ( ( ( } ( / f ( ( ( f } { { a { ( ^ 8 } ^ } ] S | ^ | ] < < 7 g ~ < ] | ^ | S ] } ^ | 8 ^ ( { a { { } f ( ( ( f / ( } ( ( ( ( ( ( a : _ i * } e < h j s $   ",
"  # 1 j * , e 6 o . & _ : f / B ( / ^ _ ( { ( a / / a } 8 } } ( _ } ( ^ T ] ^ 0 | ^ R ^ ^ 1 % 1 ^ ^ ^ R ^ | 0 ^ ] T } ( } _ ( } } 8 } a / / a ( { ( _ ^ / ( B / f : _ & . o 6 e , * j 1 #   ",
"  # F A . & : 5 5 ' . # _ e } ^ a u / / _ / / / a ( { / } ( ( ( ( | ^ ( { } ^ 8 ] ^ 2 | ^ % 3 9 | ^ | 2 ^ ] 8 ^ } { ^ ^ | ( ( ( ( } / { ( a / / / _ / / u a ^ } e _ # . ' 5 5 : & . A F #   ",
"  # 1 t . . # : e : 7 = ; : e / f a a ^ ( / / ( } } ( ( ^ { } ( ( ^ } ( { } ^ 8 ] ^ 2 | ^ % 3 9 | ^ | 2 ^ ] 8 ^ } { ( } ^ ( ( } { ^ ( ( } } ( / / ( ^ a a f / e : ; = 7 : e : # . . t 1 #   ",
"  & U 1 A . . $ h e e < + - ' e Q } ( { / b b / ( ( a ] | } } ( / } a } ( } ^ ] } } | | ^ 1 | ] | ^ | | } } ] ^ } ( } a } / ( } } | ] a ( ( / b b / { ( } Q e ' - + < e e h $ . . A 1 U &   ",
"  # G F U y + . - ) : e b $ . # 5 n / ( ( ( ( ( ( ( } ( ] ( } } } 8 } 4 ^ ^ | | } } ^ ( } 1 ] ( ^ } ( ^ } } | | ^ ^ 4 } 8 } } } ( ] ( } ( ( ( ( ( ( ( / n 5 # . $ b e : ) - . + y U F G #   ",
"  # V t U t + + . + m e _ e , . & e / 6 / ( } } } ] ^ _ } ( } } } 8 { 4 } } | | ^ ^ ^ ( } ^ ^ ] 8 } ( ^ ^ ^ | | } } 4 { 8 } } } ( } _ ^ ] } } } ( / 6 / e & . , e _ e m + . + + t U t V #   ",
"  $ W t A W H y t . . @ _ e J ! 9 3 ^ 5 : : _ ( { { } ( ^ ( } } ( ] / ^ / ( | 8 ^ 8 | ^ | ( 8 9 | | ^ | 8 ^ 8 | ( / ^ / ] ( } } ( ^ ( } { { ( _ : : 5 ^ 3 9 ! J e _ @ . . t y H W A t W $   ",
"  # U t W t y y + = + . & ' e p X / $ & l < 5 Q / ( ( ( ] ( { } ( } / 9 } 8 2 ^ ( ] S 0 | | 2 4 ] | 0 S ] ( ^ 2 8 } 9 / } ( } { ( ] ( ( ( / Q 5 < l & $ / X p e ' & . + = + y y t W t U #   ",
"  # U t y y A t + + y . . . - , e e 5 , = . - [ _ 6 5 / } } ] ^ 8 ^ } } ^ | 4 2 ^ ^ | ( ^ } 4 ] / ^ ( | ^ ^ 2 4 | ^ } } ^ 8 ^ ] } } / 5 6 _ [ - . = , 5 e e , - . . . y + + t A y y t U #   ",
"  # U A I y t F W + + = t . . + $ g e e : < c + . @ 7 _ 5 : ^ 9 8 } ] } ^ ^ } { } } ( 3 % } 9 ] ] % 3 ( } } { } ^ ^ } ] } 8 9 ^ : 5 _ 7 @ . + c < : e e g $ + . . t = + + W F t y I A U #   ",
"  $ 1 A A r t i 1 H + + + . + . . = c 5 5 e e b l - . . & , : e e : } ^ ^ } ( } 2 1 4 | 2 | 2 ^ ^ 2 | 4 1 2 } ( } ^ ^ } : e e : , & . . - l b e e 5 5 c = . . + . + + + H 1 i t r A A 1 $   ",
"  $ G A y y t A V I t + H H H y . . . . - c < e e e 6 g & . . . @ x _ < _ : < } ^ ^ | ^ | 4 4 | ^ | ^ | ^ ^ } < : _ < _ x @ . . . & g 6 e e e < c - . . . . y H H H + t I V A t y y A G $   ",
"  $ s I A Y A H t s A H t H + = H = = . . . . & [ _ e e e 5 , & . . . . - # > ) < _ < ) ' | < : _ ' ) < _ < ) > # - . . . . & , 5 e e e _ [ & . . . . = = H = + H t H A s t H A Y A I s $   ",
"  F C G I A t y y y y H y y y H + + y Z y H . . . + @ ) < n e e e _ ) $ j . . . . . . = * % o l # * = . . . . . . j $ ) _ e e e n < ) @ + . . . H y Z y + + H y y y H y y y y t A I G C F   ",
"  [ j I W t y A y . Z + A t + . y y . + r + + r . . . . . = & c 7 < _ 5 : : _ 7 [ C C * ` . + - * ` * C C [ 7 _ : : 5 _ < 7 c & = . . . . . r + + r + . y y . + t A + Z . y A y t W I j [   ",
"  l + G U V A U A H A H Z H y y H r = + H r . r H + + y . . . . . . = j # o x [ 7 < : , : h h ' < : , : < 7 [ x o # j = . . . . . . y + + H r . r H + = r H y y H Z H A H A U A V U G + l   ",
"  9 # I U G t V A + y y y H H H r r r = = r r = = = = + + Z + + + . . . . . . . + - - j j N * * j j j - - + . . . . . . . + + + Z + + = = = = r r = = r r r H H H y y y + A V t G U I # 9   ",
"    7 + F A y A y + y H H H H H H H r = = q r + = = Z  . . . . . . .+ + . . . . . . . . . . . . . . . . . . . . . . + +  . . . . . . .Z = = + r q = = r H H H H H H H y + y A y A F + 7     ",
"    < - U U A I I y t y H = r H H H r = = q r + = = = = + +  . . . . .H H = + + + + + + + + + + + + + + + + + + = H H  . . . . .+ + = = = = + r q = = r H H H r = H y t y I I A U U - <     ",
"      & . F V r V H A y y = q H H H r = = q r + = = = Z = = =  . . . . . .= H H H H r Z Z Z Z Z r Z Z r H H H H =  . . . . . .= = = Z = = = + r q = = r H H H q = y y A H V r V F . &       ",
"        * 3 W = H . A t y r q r H r + = = q r + = = = = = = = Z  . . . .+ + + + + + . + +  . . .+ + + . + + + + + +  . . . .Z = = = = = = = + r q = = + r H r q r y t A . H = W 3 *         ",
"        7 j t I H y y t y H H H r r + = = q r + = = = = = Z = Z  . . . .r Z Z Z = ..+ + + + + + + + + + ..= Z Z Z r  . . . .Z = Z = = = = = + r q = = + r r H H H y t y y H I t j 7         ",
"          @ . A A y + y y H H H H r r = = q r + = = = Z = = +  . . .+ . . + + + +  . .H r H Z H H r H  . .+ + + + . . +  . . .+ = = Z = = = + r q = = r r H H H H y y + y A A . @           ",
"            = . I + + H H H H H H H H = = q r + + + + + = + + + + + + H H Z r H  . . . .+ + + + + +  . . . .H r Z H H + + + + + + = + + + + + r q = = H H H H H H H H + + I . =             ",
"              . y y H r t H  .y y = r r r r = = r r H + + Z = = Z + + + + + +  . . . . . .Z Z  . . . . . . . .+ + + + + + Z = = Z + + H r r = = r r r r = y y  .H t r H y y .               ",
"                . . y + y y H H H = y r r r = = q q r + + = = = = +  . . . . . . . . . . . . . . . . . . . . . . . . . .+ = = = = + + r q q = = r r r y = H H H y y + y . .                 ",
"                  . . + y y r y y H + r r r = = q q r + + = = = = +  . . . . . . . . . . . . . . . . . . . . . . . . . .+ = = = = + + r q q = = r r r + H y y r y y + . .                   ",
"                    . . y t = + r Z + r r r = = q q r + + = = = = +  . . . . . . . . . . . . . . . . . . . . . . . . . .+ = = = = + + r q q = = r r r + Z r + = t y . .                     ",
"                      . . + y y H = r r r r = = q q r + + = = = = +  . . . . . . . . . . . . . . . . . . . . . . . . . .+ = = = = + + r q q = = r r r r = H y y + . .                       ",
"                          . . H y y H r r r = = q q r + + = = = = +  . . . . . . . . . . . . . . . . . . . . . . . . . .+ = = = = + + r q q = = r r r H y y H . .                           ",
"                            . . + y r r r r = = q q r + + = = = = +  . . . . . . . . . . . . . . . . . . . . . . . . . .+ = = = = + + r q q = = r r r r y + . .                             ",
"                                . + . H H r = = r r r + + = = = + + +  . . . . . . . . . . . . . . . . . . . . . . . .+ + + = = = + + r r r = = r H H . +                                   ",
"                                    . + + + r y + . y . H + . r r H +  . . . . . .+ +  . . . . . . . .+ +  . . . . . .+ H r r . + H . y . + y r + + + .                                     ",
"                                          H y . + y + = y r + H + + + = Z  . . . . . . . . . . . . . . . . . . . .Z = + + + H + r y = + y + . y H                                           ",
"                                              Z H H +  .y + = H + + Z + Z Z  . . . . . . . . . . . . . . . . . .Z Z + Z + + H = + y  .+ H                                                   ",
"                                                      . r . + H . + H + Z Z Z Z Z  . . . . . . . . . . . .Z Z Z Z Z + H + . H + . r . r                                                     ",
"                                                              y + r + +  .Z Z Z Z Z Z  . . . . . . . .Z Z Z Z Z Z  .+ + r + y H +                                                           ",
"                                                                      Z  . . . .Z Z Z  . . . . . . . .Z Z Z  . . . .Z . H +                                                                 ",
"                                                                             . . .Z Z  . . . . . . . .Z Z  . . . . .                                                                        ",
"                                                                                                                                                                                            ",
"                                                                                                                                                                                            ",
"                                                                                                                                                                                            ",
"                                                                                                                                                                                            ",
"                                                                                                                                                                                            ",
"                                                                                                                                                                                            ",
"                                                                                                                                                                                            ",
"                                                                                                                                                                                            "};
