/* XPM */
static char * guess_xpm[] = {
"32 32 37 1",
" 	c None",
".	c #48B6FF",
"+	c #6DB6FF",
"@	c #91B6DA",
"#	c #91B6FF",
"$	c #91DAFF",
"%	c #6D91B6",
"&	c #6D6D91",
"*	c #486D6D",
"=	c #244848",
"-	c #242424",
";	c #000024",
">	c #48486D",
",	c #B6DAFF",
"'	c #6D9191",
")	c #484848",
"!	c #002424",
"~	c #000000",
"{	c #242400",
"]	c #6D6D00",
"^	c #484800",
"/	c #919100",
"(	c #DADA00",
"_	c #B6B600",
":	c #FFFF00",
"<	c #9191B6",
"[	c #DADAFF",
"}	c #B6B6DA",
"|	c #B6DADA",
"1	c #DAFFFF",
"2	c #919191",
"3	c #DADADA",
"4	c #FFFFFF",
"5	c #B6B6B6",
"6	c #91B6B6",
"7	c #486D91",
"8	c #6DB6DA",
"................................",
"................................",
"++++++++++++++++++++++++++++++++",
"++++++++++++++++++++++++++++++++",
"@###############################",
"$$$$$$$$$$$#@%&*=-;>@$$$$$$$$$$$",
",,,,,@'&))!~~~~{{]^~;&,,,,,,,,,,",
",,,,@~~~{^]//(///_:_{~-<,,,,,,,,",
",,,,@~~~^(:::/~~~~/::/{~)@,,,,,,",
"[[,[}~_]~~]::/~~~~/::::]~~*|[[[[",
"[[[[}~(:_^~{/:_//_(__]]{~~~'[[[[",
"[[[[|~(:::_{~{]^{~~~~~{^]/{<[[[[",
"1111|~(:::^{^~~{^]/((:(_(:{21111",
"11113~(::/~~]~/:(]/::_~~{({<1111",
"4444|~(::]~~^~/:{~~/:]~~~/{24444",
"44443~(::]~~^~/_~~~{:^~~~/{54444",
"44443~(:((~~_~/_~~~{:_~~~({24444",
"44443~(^~]((:~/:{~~/::/]_:{24444",
"11113~_~~~(::~/:(]/:::]^/:{61111",
"1111|~/~~~(::~/:({{_:/~~~_{21111",
"11[1}~_~~{:::~/:^~~{:^~~~/{'1111",
"[[[[}~^^{/:::~/:~~~~:]~~~_{'[[[[",
"[[[[,)~~/::::~/:{~~{:(~~{:{'[[[[",
",,,,,,6-~{_::~/:/~~]::(_::{',,,,",
",,,,,,,,'-~^_~/::((((//]^{~&,,,,",
",,,,,,,,,,*~~~^]]{{~~~~!=)7@,,,,",
",,,,,,,,,,,@=~~;;=>&%@@,,,,,,,,,",
"$$$$$$$$$$$$$88$$$$$$$$$$$$$$$$$",
"+++###+++++++++++++++###########",
"++++++++++++++++++++++++++++++++",
"++.+++...............+++++++++++",
"................................"};
