/* XPM */
static char * ms_boom_xpm[] = {
"15 15 70 1",
" 	c None",
".	c #FF0000",
"+	c #EE1100",
"@	c #CC5511",
"#	c #999933",
"$	c #99BB33",
"%	c #99BB22",
"&	c #889922",
"*	c #AA6622",
"=	c #DD2211",
"-	c #AACC44",
";	c #AAFFAA",
">	c #88EE88",
",	c #227722",
"'	c #118811",
")	c #005511",
"!	c #229922",
"~	c #116611",
"{	c #66EE77",
"]	c #BBFFAA",
"^	c #BBAA44",
"/	c #99EE77",
"(	c #BBFFCC",
"_	c #99FFAA",
":	c #117711",
"<	c #66EE66",
"[	c #33BB33",
"}	c #228822",
"|	c #AAAA33",
"1	c #CCFFCC",
"2	c #BBFFBB",
"3	c #77EE77",
"4	c #119922",
"5	c #11AA11",
"6	c #AADD66",
"7	c #44EE55",
"8	c #55CC55",
"9	c #22AA22",
"0	c #88DD44",
"a	c #77EE88",
"b	c #115511",
"c	c #22CC22",
"d	c #44EE44",
"e	c #44AA11",
"f	c #88FF99",
"g	c #55EE55",
"h	c #99FF99",
"i	c #226600",
"j	c #99EEAA",
"k	c #88FF88",
"l	c #66FF66",
"m	c #55FF66",
"n	c #227700",
"o	c #004400",
"p	c #001100",
"q	c #226622",
"r	c #44AA44",
"s	c #44DD44",
"t	c #33EE33",
"u	c #774400",
"v	c #003300",
"w	c #000000",
"x	c #220000",
"y	c #880000",
"z	c #111100",
"A	c #990000",
"B	c #EE0000",
"C	c #330000",
"D	c #660000",
"E	c #DD0000",
"...............",
"...+@#$%&*=....",
".+-;>,')!~{]^+.",
"+/(_:<[}[<:_(/+",
"|123,>454>,321|",
"621;789'987;126",
"0111abcdcba1110",
"ea12;fgcgh;21ae",
"ib>j;klmlk;j>bi",
"nopqr8sts8rqpon",
"uvpppwpppwpppvu",
".xpppwwwwwpppx.",
"..yzppwwwppzA..",
"....BACCCDE....",
"..............."};
