/* XPM */
static char * ms_mined_xpm[] = {
"15 13 93 2",
"  	c None",
". 	c #52DC55",
"+ 	c #72D274",
"@ 	c #6FCD72",
"# 	c #62DA66",
"$ 	c #56D559",
"% 	c #62D666",
"& 	c #58C65B",
"* 	c #5CBA5F",
"= 	c #8AE48C",
"- 	c #9EEDA0",
"; 	c #66B469",
"> 	c #205B22",
", 	c #3E8E40",
"' 	c #307132",
") 	c #99EA9E",
"! 	c #A9EEAB",
"~ 	c #7FD883",
"{ 	c #28752A",
"] 	c #83E787",
"^ 	c #377F38",
"/ 	c #226024",
"( 	c #81D684",
"_ 	c #ABEEAD",
": 	c #A6EEA9",
"< 	c #70BE73",
"[ 	c #52A056",
"} 	c #86D987",
"| 	c #3EA241",
"1 	c #249E29",
"2 	c #89E28B",
"3 	c #A7EEAA",
"4 	c #ACEDAE",
"5 	c #95E098",
"6 	c #60DD64",
"7 	c #549F58",
"8 	c #39943D",
"9 	c #2C9731",
"0 	c #75DC77",
"a 	c #AEF0B0",
"b 	c #ABEEAE",
"c 	c #7EC681",
"d 	c #266E29",
"e 	c #3AB03E",
"f 	c #58CA5C",
"g 	c #49BB4B",
"h 	c #81D983",
"i 	c #ABEFAD",
"j 	c #99EC9D",
"k 	c #89EB8D",
"l 	c #64D869",
"m 	c #3EB143",
"n 	c #8BEB8F",
"o 	c #157E17",
"p 	c #467947",
"q 	c #8DD68E",
"r 	c #93EB98",
"s 	c #84E988",
"t 	c #6EE372",
"u 	c #6DE371",
"v 	c #16891A",
"w 	c #135115",
"x 	c #153A16",
"y 	c #487D49",
"z 	c #6AAD6C",
"A 	c #70C574",
"B 	c #57C15C",
"C 	c #44C749",
"D 	c #1F9823",
"E 	c #114C13",
"F 	c #0B2B0D",
"G 	c #08240A",
"H 	c #0A1E08",
"I 	c #082306",
"J 	c #164117",
"K 	c #204C22",
"L 	c #0D360E",
"M 	c #0C2F0D",
"N 	c #08260A",
"O 	c #0A2208",
"P 	c #0B1F07",
"Q 	c #0C1F08",
"R 	c #0B1E08",
"S 	c #09230A",
"T 	c #08270B",
"U 	c #092209",
"V 	c #0B2007",
"W 	c #0C1E07",
"X 	c #09240A",
"Y 	c #0B2109",
"Z 	c #0C2008",
"` 	c #0B2009",
" .	c #0A260B",
"      . + @ # $ % & *         ",
"    = - ; > , ' , > ; - =     ",
"  ) ! ~ { ] ^ / ^ ] { ~ ! )   ",
"( _ : < [ } | 1 | } [ < : _ ( ",
"2 3 4 5 6 7 8 9 8 7 6 5 4 3 2 ",
"0 a _ b c d e f e d c b _ a 0 ",
"g h i : j k l m l n j : i h g ",
"o p q 5 r s t u t s r 5 q p o ",
"v w x y z A B C B A z y x w v ",
"D E F G H I J K J I H G F E D ",
"  L M N O P Q R Q P O N M L   ",
"    S T U V W W W V U T X     ",
"          Y Z W Z `  .        "};
