/* XPM */
static char * ms_wrong_xpm[] = {
"13 13 80 1",
" 	c None",
".	c #FF0000",
"+	c #BF4622",
"@	c #72D275",
"#	c #62D665",
"$	c #53CD56",
"%	c #5DCC61",
"&	c #7BA251",
"*	c #FE0101",
"=	c #725325",
"-	c #459748",
";	c #3F8341",
">	c #696F36",
",	c #F00F09",
"'	c #F01508",
")	c #66D568",
"!	c #E3543E",
"~	c #FD0604",
"{	c #515E26",
"]	c #434512",
"^	c #F70602",
"/	c #F9120D",
"(	c #B2D499",
"_	c #65D668",
":	c #89DC8C",
"<	c #A9E9A6",
"[	c #E8412F",
"}	c #E80C04",
"|	c #EA1406",
"1	c #F1271C",
"2	c #B3C287",
"3	c #A7EEAA",
"4	c #8BE38D",
"5	c #ABEEAD",
"6	c #AFE1A3",
"7	c #F51A13",
"8	c #E31209",
"9	c #85B66D",
"0	c #ADEEAF",
"a	c #6BDB6D",
"b	c #A2EBA4",
"c	c #A8EEAB",
"d	c #BDAC7A",
"e	c #B8714C",
"f	c #A3EEA7",
"g	c #268A29",
"h	c #7BC07C",
"i	c #A4E7A4",
"j	c #EB3A2B",
"k	c #FC0604",
"l	c #D76547",
"m	c #A5E2A0",
"n	c #16831A",
"o	c #174217",
"p	c #B85230",
"q	c #F60A06",
"r	c #E2260F",
"s	c #D63622",
"t	c #1F4117",
"u	c #1E9022",
"v	c #622E0B",
"w	c #683010",
"x	c #2F4D1C",
"y	c #A60C03",
"z	c #FE0000",
"A	c #7D270A",
"B	c #F60201",
"C	c #9A0D03",
"D	c #0B1E08",
"E	c #721204",
"F	c #ED0401",
"G	c #D40602",
"H	c #0F2007",
"I	c #0C1E07",
"J	c #0A2107",
"K	c #B80A03",
"L	c #0B2309",
"M	c #0C2108",
"N	c #0C2008",
"O	c #0B2209",
" ..       .. ",
"...+@#$%&....",
" ..*=-;>,..' ",
")!..~{]^../(_",
":<[..}|..123:",
"4567....89054",
"abcd....efcba",
"ghij....klmhg",
"nop..qr...stn",
"uv...wxyz..Au",
" B..CDDDE..F ",
" ..GHIIIJK.. ",
" .. LMINO .. "};
