/* XPM */
static char * noanalysis_xpm[] = {
"32 32 18 1",
" 	c None",
".	c #44AAFF",
"+	c #55AAFF",
"@	c #66BBFF",
"#	c #77BBFF",
"$	c #88BBEE",
"%	c #88CCFF",
"&	c #99CCFF",
"*	c #AADDFF",
"=	c #BBDDFF",
"-	c #CCDDFF",
";	c #CCEEFF",
">	c #DDEEFF",
",	c #EEEEFF",
"'	c #EEFFFF",
")	c #FFFFFF",
"!	c #AACCFF",
"~	c #88BBFF",
"................................",
"++++++++++++++++++++++++++++++++",
"@@@@@@@@@@@@@@@@@@@@@@@@@@@@@@@@",
"################################",
"$%%%%%%%%%%%%%%%%%%%%%%%%%%%%%%%",
"&&&&&&&&&&&&&&&&&&&&&&&&&&&&&&&&",
"********************************",
"================================",
"================================",
"--------------------------------",
";;;;;;;;;;;;;;;;;;;;;;;;;;;;;;;;",
">>>>>>>>>>>>>>>>>>>>>>>>>>>>>>>>",
">>>>>>>>>>>>>>>>>>>>>>>>>>>>>>>>",
",,,,,,,,,,,,,,,,,,,,,,,,,,,,,,,,",
"',,''',,,,,,,,,,,,,,,'''''''''''",
"))))))))))))))))))))))))))))))))",
"))))))))))))))))))))))))))))))))",
"''''''''''''''''''''''''''''''''",
",,,,,,,,,,,,,,,,,,,,,,,,,,,,,,,,",
">>>>>>>>>>>>>>>>>>>>>>>>>>>>>>>>",
">>>>>>>>>>>>>>>>>>>>>>>>>>>>>>>>",
";;;;;;;;;;;;;;;;;;;;;;;;;;;;;;;;",
"--------------------------------",
"================================",
"================================",
"=**==****************===========",
"!!!!!!!!!!!!!!!!!!!!!!!!!!!!!!!!",
"&&&&&&&&&&&&&&&&&&&&&&&&&&&&&&&&",
"###~~~###############~~~~~~~~~~~",
"@@@@@@@@@@@@@@@@@@@@@@@@@@@@@@@@",
"++++++++++++++++++++++++++++++++",
"++++++++++++++++++++++++++++++++"};
