/* XPM */
static char * stopped_xpm[] = {
"32 32 36 1",
" 	c None",
".	c #44AAFF",
"+	c #55AAFF",
"@	c #66BBFF",
"#	c #77BBFF",
"$	c #88BBEE",
"%	c #88CCFF",
"&	c #99CCFF",
"*	c #99CCEE",
"=	c #88AADD",
"-	c #AADDFF",
";	c #AACCEE",
">	c #DD4444",
",	c #FF0000",
"'	c #BBDDFF",
")	c #BBCCEE",
"!	c #DD4455",
"~	c #EE5555",
"{	c #BBDDEE",
"]	c #CCDDFF",
"^	c #EE4455",
"/	c #CCEEFF",
"(	c #CCDDEE",
"_	c #DDEEFF",
":	c #CCCCDD",
"<	c #EEEEFF",
"[	c #EEFFFF",
"}	c #FFFFFF",
"|	c #DDCCDD",
"1	c #DDDDDD",
"2	c #EEDDEE",
"3	c #CCDDDD",
"4	c #EE4444",
"5	c #AACCFF",
"6	c #99AADD",
"7	c #88BBFF",
"................................",
"++++++++++++++++++++++++++++++++",
"@@@@@@@@@@@@@@@@@@@@@@@@@@@@@@@@",
"################################",
"$%%%%%%%%%%%%%%%%%%%%%%%%%%%%%%%",
"&&&&&&&&&&&*========*&&&&&&&&&&&",
"----------;>,,,,,,,,>;----------",
"''''''''';>,,,,,,,,,,>;'''''''''",
"'''''''')!,,,,,,,,,,,,~{''''''''",
"]]]]]]]{^,,,,,,,,,,,,,,^{]]]]]]]",
"//////(^,,,,,,,,,,,,,,,,~(//////",
"_____(~,,,,,,,,,,,,,,,,,,~/_____",
"_____:,,,,,,,,,,,,,,,,,,,,:_____",
"<<<<<:,,,,,,,,,,,,,,,,,,,,:<<<<<",
"[<<[[:,,,,,,,,,,,,,,,,,,,,:[[[[[",
"}}}}}|,,,,,,,,,,,,,,,,,,,,1}}}}}",
"}}}}}1,,,,,,,,,,,,,,,,,,,,2}}}}}",
"[[[[[:,,,,,,,,,,,,,,,,,,,,|[[[[[",
"<<<<<1,,,,,,,,,,,,,,,,,,,,1<<<<<",
"_____3,,,,,,,,,,,,,,,,,,,,3_____",
"_____(>,,,,,,,,,,,,,,,,,,4(_____",
"//////{>,,,,,,,,,,,,,,,,>(//////",
"]]]]]]])>,,,,,,,,,,,,,,>)]]]]]]]",
"'''''''')>,,,,,,,,,,,,>)''''''''",
"''''''''';>,,,,,,,,,,>;'''''''''",
"'--''-----;>,,,,,,,,>;''''''''''",
"55555555555*66666666*55555555555",
"&&&&&&&&&&&&&&&&&&&&&&&&&&&&&&&&",
"###777###############77777777777",
"@@@@@@@@@@@@@@@@@@@@@@@@@@@@@@@@",
"++++++++++++++++++++++++++++++++",
"++++++++++++++++++++++++++++++++"};
