/* XPM */
static char * ms_flagged_xpm[] = {
"13 13 61 1",
" 	c None",
".	c #FF0000",
"+	c #FF1414",
"@	c #FF1D1D",
"#	c #FFF4F4",
"$	c #FF0202",
"%	c #FF8A8A",
"&	c #FFE6E6",
"*	c #FFC6C6",
"=	c #FF1111",
"-	c #FF6F6F",
";	c #FF0101",
">	c #FF0303",
",	c #FF8080",
"'	c #FFCECE",
")	c #FF1313",
"!	c #FFA2A2",
"~	c #FFF6F6",
"{	c #FFF8F8",
"]	c #FFF7F7",
"^	c #FFEAEA",
"/	c #FF0808",
"(	c #FFD5D5",
"_	c #FF2222",
":	c #FF0C0C",
"<	c #FFD1D1",
"[	c #FFF1F1",
"}	c #FF7A7A",
"|	c #FF2525",
"1	c #FFEEEE",
"2	c #FFE1E1",
"3	c #FFB6B6",
"4	c #FF1717",
"5	c #FFB9B9",
"6	c #FF1C1C",
"7	c #FFEDED",
"8	c #FF5F5F",
"9	c #FF6C6C",
"0	c #FF9292",
"a	c #FF8282",
"b	c #FF2B2B",
"c	c #FF3434",
"d	c #FFC5C5",
"e	c #FFE4E4",
"f	c #FFC3C3",
"g	c #FF4848",
"h	c #FFDFDF",
"i	c #FFE3E3",
"j	c #FFDEDE",
"k	c #FF0E0E",
"l	c #FF2727",
"m	c #FFC0C0",
"n	c #FF8C8C",
"o	c #FF7272",
"p	c #FF9B9B",
"q	c #FF1818",
"r	c #FFD4D4",
"s	c #FF5757",
"t	c #FFCCCC",
"u	c #FF2828",
"v	c #FF0404",
".+...........",
"@#@.$%&*=..-;",
">,')!~{]^/!(_",
"..:<[]~{{&}$.",
"...|1!#<23...",
"...4567890...",
"...;(*a27b...",
"....c2def....",
"....ghi2jk...",
"...lmn17oj=..",
".>gp;;c=.qr-.",
".st.......u#;",
".$=........v."};
