/* XPM */
static char * noguess_xpm[] = {
"32 32 87 1",
" 	c None",
".	c #44AAFF",
"+	c #55AAFF",
"@	c #66BBFF",
"#	c #77BBFF",
"$	c #77AAEE",
"%	c #6699CC",
"&	c #88BBEE",
"*	c #88CCFF",
"=	c #88BBFF",
"-	c #335566",
";	c #000011",
">	c #001100",
",	c #001111",
"'	c #6699BB",
")	c #99CCFF",
"!	c #446677",
"~	c #000000",
"{	c #008800",
"]	c #00EE00",
"^	c #009900",
"/	c #003300",
"(	c #7799BB",
"_	c #AADDFF",
":	c #88AACC",
"<	c #007700",
"[	c #00FF00",
"}	c #557788",
"|	c #BBDDFF",
"1	c #222233",
"2	c #667788",
"3	c #668899",
"4	c #00CC00",
"5	c #00BB00",
"6	c #002200",
"7	c #CCDDFF",
"8	c #99AACC",
"9	c #111111",
"0	c #006600",
"a	c #00DD00",
"b	c #333344",
"c	c #AACCDD",
"d	c #CCEEFF",
"e	c #BBCCEE",
"f	c #222222",
"g	c #AABBCC",
"h	c #DDEEFF",
"i	c #00AA00",
"j	c #BBCCDD",
"k	c #AAAABB",
"l	c #666677",
"m	c #99AABB",
"n	c #555555",
"o	c #444455",
"p	c #EEEEFF",
"q	c #9999AA",
"r	c #004400",
"s	c #CCDDDD",
"t	c #777788",
"u	c #EEFFFF",
"v	c #444444",
"w	c #005500",
"x	c #777777",
"y	c #CCCCDD",
"z	c #778888",
"A	c #FFFFFF",
"B	c #DDDDDD",
"C	c #CCCCCC",
"D	c #888888",
"E	c #333333",
"F	c #EEEEEE",
"G	c #AAAAAA",
"H	c #999999",
"I	c #666666",
"J	c #667777",
"K	c #CCDDEE",
"L	c #556666",
"M	c #BBDDEE",
"N	c #555566",
"O	c #556677",
"P	c #AACCEE",
"Q	c #445566",
"R	c #778899",
"S	c #AACCFF",
"T	c #88BBDD",
"U	c #88AADD",
"V	c #99BBEE",
"................................",
"++++++++++++++++++++++++++++++++",
"@@@@@@@@@@@@@@@@@@@@@@@@@@@@@@@@",
"########################$%%$####",
"&*********************=-;>>,-'**",
"))))))))))))))))))))))!~{]]^/~()",
"_____________________:~<[[[[]/}_",
"|||||||||||||||||||||1/][[[[[<2|",
"||||||||||||||||||||3~4[[[[[562|",
"7777777777777777777890[[[[a/~bc7",
"ddddddddddddddddddef/][[[46fgddd",
"hhhhhhhhhhhhhhhhhhb>a[[[i~fjhhhh",
"hhhklllmhhhhhhhhhn~5[[[<~ohhhhhh",
"ppq~r{r~spppppppk~^[[[<~thpppppp",
"uuvw[[]>xuuuuuuyfr[[[<~zuuuuuuuu",
"AAvi[[[<9BAAAAC96a[[<~DAAAAAAAAA",
"AAvi[[[]6EFAAG9/][[{~DAAAAAAAAAA",
"uuv{[[[[4~EHn~w][[i~Iuuuuuuuuuuu",
"ppJ>a[[[[40>>^[[[i~ohppppppppppp",
"hhKf>^[[[[[[][[[a>ohhhhhhhhhhhhh",
"hhhKL~/4[[[[[[[]6fshhhhhhhhhhhhh",
"dddddg1~^[[[[[[{;gdddddddddddddd",
"777777MN~{[[[[]>O777777777777777",
"||||||||N~{[[[{~P|||||||||||||||",
"|||||||||Q~w[4~O||||||||||||||||",
"||||||||||R~6>1P||||||||||||||||",
"SSSSSSSSSSSTUUVSSSSSSSSSSSSSSSSS",
"))))))))))))))))))))))))))))))))",
"###===###############===========",
"@@@@@@@@@@@@@@@@@@@@@@@@@@@@@@@@",
"++++++++++++++++++++++++++++++++",
"++++++++++++++++++++++++++++++++"};
