/* XPM */
static char * searching_xpm[] = {
"32 32 68 1",
" 	c None",
".	c #44AAFF",
"+	c #55AAFF",
"@	c #66BBFF",
"#	c #77BBFF",
"$	c #88BBEE",
"%	c #88CCFF",
"&	c #99CCFF",
"*	c #99CCEE",
"=	c #7799BB",
"-	c #556688",
";	c #334455",
">	c #557799",
",	c #7799CC",
"'	c #AADDFF",
")	c #667788",
"!	c #111111",
"~	c #000000",
"{	c #333344",
"]	c #000011",
"^	c #223333",
"/	c #88AACC",
"(	c #BBDDFF",
"_	c #556677",
":	c #444455",
"<	c #7788AA",
"[	c #99BBDD",
"}	c #99BBCC",
"|	c #99AACC",
"1	c #555566",
"2	c #CCDDFF",
"3	c #99AABB",
"4	c #222222",
"5	c #CCEEFF",
"6	c #666677",
"7	c #AABBCC",
"8	c #DDEEFF",
"9	c #BBCCDD",
"0	c #BBCCCC",
"a	c #333333",
"b	c #445555",
"c	c #889999",
"d	c #EEEEFF",
"e	c #556666",
"f	c #DDDDEE",
"g	c #EEFFFF",
"h	c #BBBBBB",
"i	c #999999",
"j	c #FFFFFF",
"k	c #DDDDDD",
"l	c #555555",
"m	c #AAAAAA",
"n	c #CCDDDD",
"o	c #778888",
"p	c #888899",
"q	c #BBBBCC",
"r	c #888888",
"s	c #777788",
"t	c #AABBBB",
"u	c #CCDDEE",
"v	c #AACCDD",
"w	c #BBDDEE",
"x	c #8899BB",
"y	c #AADDEE",
"z	c #AACCFF",
"A	c #667799",
"B	c #6688AA",
"C	c #88BBFF",
"................................",
"++++++++++++++++++++++++++++++++",
"@@@@@@@@@@@@@@@@@@@@@@@@@@@@@@@@",
"################################",
"$%%%%%%%%%%%%%%%%%%%%%%%%%%%%%%%",
"&&&&&&&&&&&&*=-;;>,&&&&&&&&&&&&&",
"''''''''''')!~~{]~~^/'''''''''''",
"((((((((((_~~~:(<~~~![((((((((((",
"(((((((((}~~~~|((~~~~1((((((((((",
"2222222223~~~!222~~~~42222222222",
"55555555526~~1557~~~~{5555555555",
"8888888888890885a~~~~38888888888",
"888888888888888b~~~!c88888888888",
"ddddddddddddd0a~~~efdddddddddddd",
"gddgggddddddh!~~~idddggggggggggg",
"jjjjjjjjjjjk!~~~ljjjjjjjjjjjjjjj",
"jjjjjjjjjjjm~~~~ljjjjjjjjjjjjjjj",
"gggggggggggn~~~~~eopdggggggggggg",
"ddddddddddddo~~~~~!cdddddddddddd",
"8888888888888qr6st88888888888888",
"88888888888888888888888888888888",
"5555555555555u14:v55555555555555",
"2222222222222:~~~!w2222222222222",
"((((((((((((w~~~~~x(((((((((((((",
"((((((((((((y~~~~~}(((((((((((((",
"(''((''''''''_~~~;'''(((((((((((",
"zzzzzzzzzzzzzz=AB*zzzzzzzzzzzzzz",
"&&&&&&&&&&&&&&&&&&&&&&&&&&&&&&&&",
"###CCC###############CCCCCCCCCCC",
"@@@@@@@@@@@@@@@@@@@@@@@@@@@@@@@@",
"++++++++++++++++++++++++++++++++",
"++++++++++++++++++++++++++++++++"};
