/* XPM */
static char * digit_0_xpm[] = {
"23 23 3 1",
" 	c None",
".	c #040404",
"+	c #FCFCFC",
"+++++++++++++++++++++++",
"+++++++++++++++++++++++",
"++++++++++.....++++++++",
"+++++++.....+++++++++++",
"++++++++++..+++...+++++",
"+++++.++.......+....+++",
"++++....++..++++...++++",
"++++..+..+.....++++++++",
"++++.+++++.++++++++++++",
"++++++.....+...++++++++",
"+++++++++...+++++++++++",
"++++++++..++.++++++++++",
"+++++++..++++..++++++++",
"++++++..++..++...++++++",
"+++++..++++..++....++++",
"++++...........+.....++",
"++..+++++++...+++++++++",
"+++++++++...+++++++++++",
"+++++++++...+++++++++++",
"++++++++++...++++++++++",
"+++++++++++..++++++++++",
"+++++++++++++++++++++++",
"+++++++++++++++++++++++"};
