/* XPM */
static char * digit_4_xpm[] = {
"23 23 3 1",
" 	c None",
".	c #040404",
"+	c #FCFCFC",
"+++++++++++++++++++++++",
"+++++++++++++++++++++++",
"+++++++++++++++++++++++",
"+++++++++++++++++++++++",
"+++++++++++++++++++++++",
"++++++++++++++......+++",
"++++..........+++....++",
"++++...++..+..++++..+++",
"+++++..++..+..++++..+++",
"+++++..++..+..++++..+++",
"+++++..+..++........+++",
"+++++..+..+++++++..++++",
"+++++....++++++++..++++",
"+++++..++++++++++..++++",
"+++++..............++++",
"++++++.+++++++++..+++++",
"++++++++++++++++..+++++",
"+++++++++++++++++++++++",
"+++++++++++++++++++++++",
"+++++++++++++++++++++++",
"+++++++++++++++++++++++",
"+++++++++++++++++++++++",
"+++++++++++++++++++++++"};
