/* XPM */
static char * digit_6_xpm[] = {
"39 40 192 2",
"  	c None",
". 	c #000000",
"+ 	c #020000",
"@ 	c #040000",
"# 	c #080002",
"$ 	c #0A0002",
"% 	c #0C0002",
"& 	c #0E0002",
"* 	c #150004",
"= 	c #1B0006",
"- 	c #1E0006",
"; 	c #210006",
"> 	c #110004",
", 	c #1D0006",
"' 	c #2B0009",
") 	c #35000B",
"! 	c #3B000B",
"~ 	c #3E000C",
"{ 	c #300009",
"] 	c #47000E",
"^ 	c #540010",
"/ 	c #5B0011",
"( 	c #5C0012",
"_ 	c #5B0012",
": 	c #280008",
"< 	c #35000A",
"[ 	c #B80024",
"} 	c #BF0025",
"| 	c #A40020",
"1 	c #650014",
"2 	c #6A0014",
"3 	c #C40026",
"4 	c #C10025",
"5 	c #7C0019",
"6 	c #730017",
"7 	c #680014",
"8 	c #620013",
"9 	c #600013",
"0 	c #630014",
"a 	c #A50020",
"b 	c #87001A",
"c 	c #720016",
"d 	c #620014",
"e 	c #4D000F",
"f 	c #8B001B",
"g 	c #40000D",
"h 	c #46000E",
"i 	c #520010",
"j 	c #800019",
"k 	c #C10026",
"l 	c #C20026",
"m 	c #89001B",
"n 	c #230006",
"o 	c #98001E",
"p 	c #4E000F",
"q 	c #240007",
"r 	c #790018",
"s 	c #C00026",
"t 	c #94001C",
"u 	c #42000D",
"v 	c #5D0013",
"w 	c #8C001A",
"x 	c #840019",
"y 	c #110003",
"z 	c #6D0016",
"A 	c #100003",
"B 	c #190005",
"C 	c #BE0025",
"D 	c #2E0009",
"E 	c #080001",
"F 	c #BC0024",
"G 	c #070001",
"H 	c #39000B",
"I 	c #3D000B",
"J 	c #2D0008",
"K 	c #770018",
"L 	c #C00025",
"M 	c #8C001B",
"N 	c #2D0009",
"O 	c #AC0021",
"P 	c #AB0021",
"Q 	c #8D001B",
"R 	c #530010",
"S 	c #7A0017",
"T 	c #090003",
"U 	c #630013",
"V 	c #170004",
"W 	c #8E001C",
"X 	c #730016",
"Y 	c #5F0012",
"Z 	c #640013",
"` 	c #4A000E",
" .	c #2A0008",
"..	c #BB0024",
"+.	c #0B0002",
"@.	c #250007",
"#.	c #9A001E",
"$.	c #040001",
"%.	c #710016",
"&.	c #B10022",
"*.	c #91001C",
"=.	c #1B0005",
"-.	c #050001",
";.	c #92001C",
">.	c #C30026",
",.	c #0A0001",
"'.	c #120003",
").	c #260007",
"!.	c #590011",
"~.	c #A30020",
"{.	c #BD0025",
"].	c #31000A",
"^.	c #060001",
"/.	c #760017",
"(.	c #6A0015",
"_.	c #700016",
":.	c #B20022",
"<.	c #AE0022",
"[.	c #B30022",
"}.	c #660014",
"|.	c #4C000E",
"1.	c #830019",
"2.	c #A1001F",
"3.	c #85001A",
"4.	c #9C001E",
"5.	c #7B0018",
"6.	c #93001C",
"7.	c #95001C",
"8.	c #4F000F",
"9.	c #230007",
"0.	c #010000",
"a.	c #7F0019",
"b.	c #B90024",
"c.	c #4D000E",
"d.	c #220007",
"e.	c #32000A",
"f.	c #3A000B",
"g.	c #2B0008",
"h.	c #290008",
"i.	c #030001",
"j.	c #45000D",
"k.	c #3F000C",
"l.	c #2F0009",
"m.	c #0E0003",
"n.	c #A80021",
"o.	c #160004",
"p.	c #820019",
"q.	c #40000C",
"r.	c #38000B",
"s.	c #49000E",
"t.	c #90001C",
"u.	c #41000C",
"v.	c #740017",
"w.	c #2C0008",
"x.	c #37000B",
"y.	c #3C000B",
"z.	c #A70020",
"A.	c #200006",
"B.	c #8F001C",
"C.	c #6F0015",
"D.	c #96001D",
"E.	c #9B001E",
"F.	c #95001D",
"G.	c #4B000F",
"H.	c #790017",
"I.	c #810019",
"J.	c #86001A",
"K.	c #A80020",
"L.	c #6B0015",
"M.	c #41000D",
"N.	c #48000E",
"O.	c #33000A",
"P.	c #750017",
"Q.	c #7E0018",
"R.	c #710015",
"S.	c #060002",
"T.	c #190004",
"U.	c #780018",
"V.	c #34000A",
"W.	c #6B0016",
"X.	c #BC0025",
"Y.	c #710017",
"Z.	c #6C0015",
"`.	c #84001A",
" +	c #2E0008",
".+	c #280007",
"++	c #AD0021",
"@+	c #BB0025",
"#+	c #BA0025",
"$+	c #83001A",
"%+	c #45000E",
"&+	c #46000D",
". . . + + + + + + + + + + + + + + + + + + + + + + + + + + + + + + + + + . . . ",
". + + @ # $ % % % % % % % % % % % % % % % % % % % % % % % % % % % $ # @ + + . ",
"+ @ # & * = - ; ; ; ; ; ; ; ; ; ; ; ; ; ; ; ; ; ; ; ; ; ; ; ; ; - = * & # @ + ",
"+ # > , ' ) ! ~ ~ ~ ~ ~ ~ ~ ~ ~ ~ ~ ~ ~ ~ ~ ~ ~ ~ ~ ~ ~ ~ ~ ~ ~ ! ) ' , > # + ",
"@ & , { ] ^ / ( ( _ / / / / / / / / / / / / / / / / / / / _ ( ( / ^ ] { , & @ ",
"# * ' ] : < [ [ } | 1 2 1 | [ [ [ [ [ [ [ [ [ [ [ [ [ [ [ [ [ [ [ < : ] ' * # ",
"$ = ) ^ < [ [ [ 3 } 4 3 [ [ [ [ [ [ [ [ [ [ [ [ [ [ [ [ [ [ [ [ [ [ < ^ ) = $ ",
"% - ! / [ [ 5 6 7 8 _ / / / / / / / / / / / ( 9 / / / / _ 9 7 6 5 [ [ / ! - % ",
"% ; ~ ( [ [ 6 0 7 a b c d e ~ ~ ~ ~ ~ ~ ~ ~ f [ ^ ~ ~ ~ g h i 0 6 [ [ ( ~ ; % ",
"% ; ~ ( [ [ 7 i j k l l l k m n ; ; ; ; ; ; o l p ; ; ; q ' ! i 7 3 } ( ~ ; % ",
"% ; ~ _ [ [ 9 h r s t u v w 3 x y % % % % % z 3 * % % % A B ' h 9 3 } _ ~ ; % ",
"% ; ~ / [ [ _ g 1 C D + + E F 3 y & G G y H | 3 7 ! ! ! I J q g _ } | / ~ ; % ",
"% ; ~ / [ [ / ~ h K # . . $ L M N L O P 3 3 3 3 3 3 3 3 3 Q ; ~ / 4 1 / ~ ; % ",
"% ; ~ / [ [ / ~ R S T . . U 3 N V W X Y 1 Z P l ` H H H !  .; ~ / 3 2 / ~ ; % ",
"% ; ~ / [ [ / ~ R ..+.. @.3 #.$.. . . . . . M 4 . . . . + % ; ~ / [ 1 / ~ ; % ",
"% ; ~ / [ [ / ~ %.3 - ; &.*.=.. . . . . . -.;.>.] % % % ,.'.).~ / [ | / ~ ; % ",
"% ; ~ / | [ / ~ !.3 ~.{.3 ].. ^./.b (._.M ~.3 3 3 [ } >.:.<.[.}./ [ [ / ~ ; % ",
"% ; ~ / 1 [ / ~ |.3 3 F 3 1.G +.} 3 2.j 3 3 3.8 [ 3 4.5.6.7.j ^ / [ [ / ~ ; % ",
"% ; ~ / 2 3 / ~ 8.3 e % h 3 j . 9.D 0.. a.#.0.. ! b.).. + % ; ~ / [ [ / ~ ; % ",
"% ; ~ / 1 4 / ~ c.l < . . X >.d.. . . . 1.Y . . -.3 _ . + % ; ~ / [ [ / ~ ; % ",
"% ; ~ / | } / ~ U } y . . e.3 f.y g.g./.3 ; h.N i.O O j.! g u k./ [ [ / ~ ; % ",
"% ; ~ / } 3 / ~ /.3 l.. . m.n.o.p.3 3 <.q.. ;.4 r.s.L 3 3 3 t.u./ [ [ / ~ ; % ",
"% ; ~ / [ [ / ~ v.3 w.. . q 2.-.Y Q Z , . . r 3 d.. o.x.y.1 { ~ / [ [ / ~ ; % ",
"% ; ~ / [ [ / ~ v.3 - . E f C # . . . . . . }.3 l.. . . + % ; ~ / [ [ / ~ ; % ",
"% ; ~ / [ [ / ~ %.3 6.1 z.3 u . A.B.a.C.D.#.L 3 3 #.E.#.F.u ; ~ / [ [ / ~ ; % ",
"% ; ~ / [ [ / ~ %.3 3 3 P G.. . D } a H.I.J.K.3 W 1.L.C.b M.; ~ / [ [ / ~ ; % ",
"% ; ~ / [ [ / ~ %.3 {./.+.. . . 0.% i.. . . R 3 e.. . . + % ; ~ / [ [ / ~ ; % ",
"% ; ~ / [ [ / ~ X 3 N.. . . . . . . . . . . ` 3 O.. . . + % ; ~ / [ [ / ~ ; % ",
"% ; ~ / [ [ _ g P.>.> + + + + + + + + + + + Q.3 R.y + + S.T.J g _ [ [ / ~ ; % ",
"% ; ~ _ [ [ 9 h U.l T.% % % % V.M.u u 9 W.6.3 3 3 X.6.W.Y.[ [ Z.9 [ [ _ ~ ; % ",
"% ; ~ ( [ [ 7 i `.k  +; ; ; .+++l {.b.s l } b.[ b.F } l l @+#+$+7 [ [ ( ~ ; % ",
"% ; ~ ( [ [ 6 0 /.4.%+~ ~ ~ k.( 0 ^ ] &+&+&+&+&+&+&+&+&+N.e !.0 6 [ [ ( ~ ; % ",
"% - ! / [ [ 5 6 7 9 _ / / / / / / / / / / / / / / / / / _ 9 7 6 5 [ [ / ! - % ",
"$ = ) ^ < [ [ [ [ [ [ [ [ [ [ [ 3 4 } 3 [ [ [ [ [ [ [ [ [ [ [ [ [ [ < ^ ) = $ ",
"# * ' ] : < [ [ [ [ [ [ [ [ | 1 2 1 | } [ [ [ [ [ [ [ [ [ [ [ [ [ < : ] ' * # ",
"@ & , { ] ^ / ( ( _ / / / / / / / / / / / / / / / / / / / _ ( ( / ^ ] { , & @ ",
"+ # > , ' ) ! ~ ~ ~ ~ ~ ~ ~ ~ ~ ~ ~ ~ ~ ~ ~ ~ ~ ~ ~ ~ ~ ~ ~ ~ ~ ! ) ' , > # + ",
"+ @ # & * = - ; ; ; ; ; ; ; ; ; ; ; ; ; ; ; ; ; ; ; ; ; ; ; ; ; - = * & # @ + ",
". + + @ # $ % % % % % % % % % % % % % % % % % % % % % % % % % % % $ # @ + + . ",
". . . + + + + + + + + + + + + + + + + + + + + + + + + + + + + + + + + + . . . "};
