/* XPM */
static char * digit_5_xpm[] = {
"39 40 132 2",
"  	c None",
". 	c #000000",
"+ 	c #020000",
"@ 	c #040000",
"# 	c #080002",
"$ 	c #0A0002",
"% 	c #0C0002",
"& 	c #0E0002",
"* 	c #150004",
"= 	c #1B0006",
"- 	c #1E0006",
"; 	c #210006",
"> 	c #110004",
", 	c #1D0006",
"' 	c #2B0009",
") 	c #35000B",
"! 	c #3B000B",
"~ 	c #3E000C",
"{ 	c #300009",
"] 	c #47000E",
"^ 	c #540010",
"/ 	c #5B0011",
"( 	c #5C0012",
"_ 	c #5B0012",
": 	c #280008",
"< 	c #35000A",
"[ 	c #B80024",
"} 	c #BF0025",
"| 	c #A40020",
"1 	c #650014",
"2 	c #6A0014",
"3 	c #C40026",
"4 	c #C10025",
"5 	c #7C0019",
"6 	c #730017",
"7 	c #680014",
"8 	c #600013",
"9 	c #630014",
"0 	c #520010",
"a 	c #46000E",
"b 	c #40000D",
"c 	c #40000C",
"d 	c #C00026",
"e 	c #240007",
"f 	c #7B0017",
"g 	c #C20026",
"h 	c #9F001F",
"i 	c #2C0009",
"j 	c #700016",
"k 	c #220006",
"l 	c #790017",
"m 	c #740017",
"n 	c #770017",
"o 	c #7D0018",
"p 	c #AB0021",
"q 	c #B60023",
"r 	c #C30026",
"s 	c #BD0025",
"t 	c #BB0024",
"u 	c #7A0018",
"v 	c #7B0018",
"w 	c #2F0009",
"x 	c #AF0022",
"y 	c #610012",
"z 	c #49000E",
"A 	c #260007",
"B 	c #810019",
"C 	c #4F000F",
"D 	c #100003",
"E 	c #3C000C",
"F 	c #060002",
"G 	c #A80021",
"H 	c #6B0014",
"I 	c #580011",
"J 	c #8A001B",
"K 	c #6C0015",
"L 	c #570011",
"M 	c #8E001C",
"N 	c #9C001E",
"O 	c #98001D",
"P 	c #6A0015",
"Q 	c #270007",
"R 	c #9B001E",
"S 	c #550011",
"T 	c #130004",
"U 	c #590011",
"V 	c #670014",
"W 	c #45000D",
"X 	c #38000B",
"Y 	c #AA0021",
"Z 	c #790018",
"` 	c #010000",
" .	c #42000D",
"..	c #39000B",
"+.	c #1C0005",
"@.	c #B50023",
"#.	c #7A0017",
"$.	c #720016",
"%.	c #1C0006",
"&.	c #6D0016",
"*.	c #690014",
"=.	c #190005",
"-.	c #740016",
";.	c #230007",
">.	c #5F0013",
",.	c #33000A",
"'.	c #220007",
").	c #2A0008",
"!.	c #110003",
"~.	c #87001A",
"{.	c #620013",
"].	c #5C0011",
"^.	c #7E0018",
"/.	c #840019",
"(.	c #070001",
"_.	c #32000A",
":.	c #A4001F",
"<.	c #2B0008",
"[.	c #270008",
"}.	c #3B000C",
"|.	c #C10026",
"1.	c #750017",
"2.	c #97001D",
"3.	c #41000C",
"4.	c #610013",
"5.	c #530010",
"6.	c #500010",
"7.	c #6B0015",
"8.	c #84001A",
"9.	c #800019",
"0.	c #7F0019",
"a.	c #8B001B",
". . . + + + + + + + + + + + + + + + + + + + + + + + + + + + + + + + + + . . . ",
". + + @ # $ % % % % % % % % % % % % % % % % % % % % % % % % % % % $ # @ + + . ",
"+ @ # & * = - ; ; ; ; ; ; ; ; ; ; ; ; ; ; ; ; ; ; ; ; ; ; ; ; ; - = * & # @ + ",
"+ # > , ' ) ! ~ ~ ~ ~ ~ ~ ~ ~ ~ ~ ~ ~ ~ ~ ~ ~ ~ ~ ~ ~ ~ ~ ~ ~ ~ ! ) ' , > # + ",
"@ & , { ] ^ / ( ( _ / / / / / / / / / / / / / / / / / / / _ ( ( / ^ ] { , & @ ",
"# * ' ] : < [ [ } | 1 2 1 | [ [ [ [ [ [ [ [ [ [ [ [ [ [ [ [ [ [ [ < : ] ' * # ",
"$ = ) ^ < [ [ [ 3 } 4 3 [ [ [ [ [ [ [ [ [ [ [ [ [ [ [ [ [ [ [ [ [ [ < ^ ) = $ ",
"% - ! / [ [ 5 6 7 8 _ / / / / / / / / / / / / / / / / / _ 8 7 6 5 [ [ / ! - % ",
"% ; ~ ( [ [ 6 9 0 a b ~ c d 8 ~ ~ ~ ~ ~ ~ ~ ~ ~ ~ ~ ~ ~ b a 0 9 6 [ [ ( ~ ; % ",
"% ; ~ ( [ [ 7 0 ! ' e ; f g h i j ; ; ; ; k ; ; l m n n o a ! 0 7 3 } ( ~ ; % ",
"% ; ~ _ [ [ 8 a ' ) { % p 3 % 3 3 3 q 3 3 3 3 3 3 3 3 3 r g s a 8 3 } _ ~ ; % ",
"% ; ~ / [ [ _ b e = * + t u + v | + w x 3 3 3 t y z + + A B C b _ } | / ~ ; % ",
"% ; ~ / [ [ / ~ ; D # E 3 . . . . . . . . 3 3 . . . . . + % ; ~ / 4 1 / ~ ; % ",
"% ; ~ / [ [ / ~ ; % F 3 3 . . . . . . . . 3 G . . . . . + % ; ~ / 3 2 / ~ ; % ",
"% ; ~ / [ [ / ~ ; % H 3 I . . . . . . . . 3 J . . . . . + % ; ~ / [ 1 / ~ ; % ",
"% ; ~ / [ [ / ~ ; l 3 3 ; . . . . . . . K 3 L . . . . . + % ; ~ / [ | / ~ ; % ",
"% ; ~ / | [ / M g 3 3 3 . . . . . . . . 1 3 8 . . . . . + % ; ~ / [ [ / ~ ; % ",
"% ; ~ / 1 [ N d g O 3 3 . . . . . . . . 0 3 0 . . . . . + % ; ~ / [ [ / ~ ; % ",
"% ; ~ / 2 3 / P Q % R r . . I S . . . T 3 3 3 U V n . . + % ; ~ / [ [ / ~ ; % ",
"% ; ~ / 1 4 / ~ ; % W X . $ 3 3 Y g 3 3 3 3 3 3 3 3 3 3 3 % ; ~ / [ [ / ~ ; % ",
"% ; ~ / | } / ~ ; % U Z . . I S . `  .3 3 3 ... . . +.@.3 #.; ~ / [ [ / ~ ; % ",
"% ; ~ / } 3 / ~ ; % $.3 . . . . . . . %.3 l . . . . . . 3 &.; ~ / [ [ / ~ ; % ",
"% ; ~ / [ [ / ~ ; % *.3 . . . . . . . =.3 8 . . . . . . 3 -.; ~ / [ [ / ~ ; % ",
"% ; ~ / [ [ / ~ ; % *.3 . . . . . . . ;.3 I . . . . . . 3 >.; ~ / [ [ / ~ ; % ",
"% ; ~ / [ [ / ~ ; % *.3 . . . . . . . - 3 , . . . . . * 3 ,.; ~ / [ [ / ~ ; % ",
"% ; ~ / [ [ / ~ ; % *.3 . . . . . . . z 3 '.. . . . . ).3 !.; ~ / [ [ / ~ ; % ",
"% ; ~ / [ [ / ~ ; % H 3 . . . . . . . ~.3 ;.. . . . . {.3 % ; ~ / [ [ / ~ ; % ",
"% ; ~ / [ [ / ~ ; % ].3 . . . . . . . 3 3 '.. . . . . ^.3 % ; ~ / [ [ / ~ ; % ",
"% ; ~ / [ [ _ b e D /.3 + + + + + + D 3 3 (.+ + + + + 3 3 D e b _ [ [ / ~ ; % ",
"% ; ~ _ [ [ 8 a ' =.r 3 % ,._.% % % O 3 3 :.- <.[.}.3 3 r H ' a 8 [ [ _ ~ ; % ",
"% ; ~ ( [ [ 7 0 ! ' g |.#.g g g |.g g g g g g g g g g g g |.d } 7 [ [ ( ~ ; % ",
"% ; ~ ( [ [ 6 9 0 a 1.V ~ 2.J 3.~ 8 4.5.^ 6.7.8.B 9.0.0.9.8.M a.6 [ [ ( ~ ; % ",
"% - ! / [ [ 5 6 7 8 _ / / / / / / / / / / / / / / / / / _ 8 7 6 5 [ [ / ! - % ",
"$ = ) ^ < [ [ [ [ [ [ [ [ [ [ [ 3 4 } 3 [ [ [ [ [ [ [ [ [ [ [ [ [ [ < ^ ) = $ ",
"# * ' ] : < [ [ [ [ [ [ [ [ | 1 2 1 | } [ [ [ [ [ [ [ [ [ [ [ [ [ < : ] ' * # ",
"@ & , { ] ^ / ( ( _ / / / / / / / / / / / / / / / / / / / _ ( ( / ^ ] { , & @ ",
"+ # > , ' ) ! ~ ~ ~ ~ ~ ~ ~ ~ ~ ~ ~ ~ ~ ~ ~ ~ ~ ~ ~ ~ ~ ~ ~ ~ ~ ! ) ' , > # + ",
"+ @ # & * = - ; ; ; ; ; ; ; ; ; ; ; ; ; ; ; ; ; ; ; ; ; ; ; ; ; - = * & # @ + ",
". + + @ # $ % % % % % % % % % % % % % % % % % % % % % % % % % % % $ # @ + + . ",
". . . + + + + + + + + + + + + + + + + + + + + + + + + + + + + + + + + + . . . "};
