/* XPM */
static char * digit_4_xpm[] = {
"39 40 161 2",
"  	c None",
". 	c #000000",
"+ 	c #020000",
"@ 	c #040000",
"# 	c #080002",
"$ 	c #0A0002",
"% 	c #0C0002",
"& 	c #0E0002",
"* 	c #150004",
"= 	c #1B0006",
"- 	c #1E0006",
"; 	c #210006",
"> 	c #110004",
", 	c #1D0006",
"' 	c #2B0009",
") 	c #35000B",
"! 	c #3B000B",
"~ 	c #3E000C",
"{ 	c #300009",
"] 	c #47000E",
"^ 	c #540010",
"/ 	c #5B0011",
"( 	c #5C0012",
"_ 	c #5B0012",
": 	c #280008",
"< 	c #35000A",
"[ 	c #B80024",
"} 	c #BF0025",
"| 	c #A40020",
"1 	c #650014",
"2 	c #6A0014",
"3 	c #C40026",
"4 	c #C10025",
"5 	c #7C0019",
"6 	c #730017",
"7 	c #680014",
"8 	c #600013",
"9 	c #750016",
"0 	c #630014",
"a 	c #520010",
"b 	c #46000E",
"c 	c #40000D",
"d 	c #BD0025",
"e 	c #C00026",
"f 	c #5D0012",
"g 	c #2C0009",
"h 	c #250007",
"i 	c #220006",
"j 	c #790017",
"k 	c #730016",
"l 	c #7A0017",
"m 	c #40000C",
"n 	c #A6001F",
"o 	c #C20026",
"p 	c #240007",
"q 	c #C10026",
"r 	c #AB0021",
"s 	c #A3001F",
"t 	c #2A0008",
"u 	c #100003",
"v 	c #190005",
"w 	c #49000E",
"x 	c #8E001C",
"y 	c #030000",
"z 	c #2B0008",
"A 	c #6F0015",
"B 	c #640013",
"C 	c #6B0014",
"D 	c #4C000E",
"E 	c #A1001F",
"F 	c #3C000C",
"G 	c #C30026",
"H 	c #48000F",
"I 	c #50000F",
"J 	c #6B0015",
"K 	c #290008",
"L 	c #A50020",
"M 	c #120003",
"N 	c #160004",
"O 	c #120004",
"P 	c #B00022",
"Q 	c #3D000C",
"R 	c #93001C",
"S 	c #4B000F",
"T 	c #6D0015",
"U 	c #670014",
"V 	c #760017",
"W 	c #220007",
"X 	c #B70023",
"Y 	c #AC0021",
"Z 	c #550011",
"` 	c #700016",
" .	c #89001B",
"..	c #630013",
"+.	c #7C0018",
"@.	c #780017",
"#.	c #610013",
"$.	c #580011",
"%.	c #5F0013",
"&.	c #820019",
"*.	c #8A001B",
"=.	c #1F0006",
"-.	c #230007",
";.	c #42000D",
">.	c #BE0025",
",.	c #B10022",
"'.	c #2C0008",
").	c #43000D",
"!.	c #96001D",
"~.	c #A60020",
"{.	c #560011",
"].	c #810019",
"^.	c #A30020",
"/.	c #8D001B",
"(.	c #200006",
"_.	c #34000A",
":.	c #710016",
"<.	c #5A0011",
"[.	c #88001A",
"}.	c #3A000C",
"|.	c #3F000C",
"1.	c #2F0009",
"2.	c #180005",
"3.	c #90001C",
"4.	c #31000A",
"5.	c #060001",
"6.	c #7D0018",
"7.	c #9B001E",
"8.	c #A70020",
"9.	c #6A0015",
"0.	c #AC0022",
"a.	c #530010",
"b.	c #5F0012",
"c.	c #570011",
"d.	c #B20023",
"e.	c #9E001F",
"f.	c #AA0021",
"g.	c #790018",
"h.	c #260007",
"i.	c #8B001B",
"j.	c #99001E",
"k.	c #010000",
"l.	c #B40023",
"m.	c #2D0009",
"n.	c #800018",
"o.	c #44000D",
"p.	c #7B0018",
"q.	c #830019",
"r.	c #8C001B",
"s.	c #AD0022",
"t.	c #760016",
"u.	c #640014",
"v.	c #41000D",
"w.	c #BC0024",
"x.	c #130003",
"y.	c #42000C",
"z.	c #740016",
"A.	c #060002",
"B.	c #7A0018",
"C.	c #5D0013",
"D.	c #7F0018",
". . . + + + + + + + + + + + + + + + + + + + + + + + + + + + + + + + + + . . . ",
". + + @ # $ % % % % % % % % % % % % % % % % % % % % % % % % % % % $ # @ + + . ",
"+ @ # & * = - ; ; ; ; ; ; ; ; ; ; ; ; ; ; ; ; ; ; ; ; ; ; ; ; ; - = * & # @ + ",
"+ # > , ' ) ! ~ ~ ~ ~ ~ ~ ~ ~ ~ ~ ~ ~ ~ ~ ~ ~ ~ ~ ~ ~ ~ ~ ~ ~ ~ ! ) ' , > # + ",
"@ & , { ] ^ / ( ( _ / / / / / / / / / / / / / / / / / / / _ ( ( / ^ ] { , & @ ",
"# * ' ] : < [ [ } | 1 2 1 | [ [ [ [ [ [ [ [ [ [ [ [ [ [ [ [ [ [ [ < : ] ' * # ",
"$ = ) ^ < [ [ [ 3 } 4 3 [ [ [ [ [ [ [ [ [ [ [ [ [ [ [ [ [ [ [ [ [ [ < ^ ) = $ ",
"% - ! / [ [ 5 6 7 8 _ / / / / / / / / / / / 8 9 / / / / _ 8 7 6 5 [ [ / ! - % ",
"% ; ~ ( [ [ 6 0 a b c ~ ~ ~ ~ ~ ~ ~ ~ ~ ~ ~ d e f ~ ~ ~ c b a 0 6 [ [ ( ~ ; % ",
"% ; ~ ( [ [ 7 a ! g h i ; j k l m ; ; ; ; ; n o ; ; ; ; p ' ! a 7 3 } ( ~ ; % ",
"% ; ~ _ [ [ 8 b { e q r 3 3 3 3 3 j % % % % s 3 g t < % u v ' b 8 3 } _ ~ ; % ",
"% ; ~ / [ [ _ c w o x y z A B C D + 3 3 r E 3 3 3 3 3 3 / u p c _ } | / ~ ; % ",
"% ; ~ / [ [ / ~ F G H . . . . . . . I J K . L 3 M N O 3 P % ; ~ / 4 1 / ~ ; % ",
"% ; ~ / [ [ / ~ Q 3 R + S T U V W . . . . . k 3 . . . X 3 % ; ~ / 3 2 / ~ ; % ",
"% ; ~ / [ [ / ~ Q 3 3 Y 3 3 3 3 E Z ` ^  ._ 3 3 3 3 3 3 3 3 o 0 / [ 1 / ~ ; % ",
"% ; ~ / [ [ / ~ Q 3 / . . . . . . 3 3 ..+.3 3 3 @.#.$.3 3 %.&.8 / [ | / ~ ; % ",
"% ; ~ / | [ / ~ Q 3 *.. . M =.-.. . . . . . ;.3 . . . >.3 % ; ~ / [ [ / ~ ; % ",
"% ; ~ / 1 [ / ~ Q 3 3 ,.3 3 3 3 | . S '.N ).!.3 ~.{.].3 ^.% ; ~ 8 [ [ / ~ ; % ",
"% ; ~ / 2 3 / ~ ~ 3 /.N (._.T :.+ ; 3 3 <.3 3 3 3 3 3 [.+ % ; ~ / [ [ / ~ ; % ",
"% ; ~ / 1 4 / ~ }.3 |.. . . . . . . 1.2.. . ~.3 . . . . + % ; ~ / [ [ / ~ ; % ",
"% ; ~ / | } / ~ : 3 3.. . . . 4.5.. . . . . 6.3 . . . . + % ; ~ / [ [ / ~ ; % ",
"% ; ~ / } 3 @.d o 3 3 3 3 3 3 3 3 7.8.[ ` 3 3 3 3 3 3 3 3 %.; ~ / [ [ / ~ ; % ",
"% ; ~ / [ [ 9.0.>.a.E 3 7.b.c.b.7 p d.e.Q ^ f.3 3 _ U 7 g.h.; ~ / [ [ / ~ ; % ",
"% ; ~ / [ [ / ~ ; % i.3 . . + . . . . . . . F 3 . . . . + % ; ~ / [ [ / ~ ; % ",
"% ; ~ / [ [ / ~ ; % 3 j.. k.3 } . . . . . . l.3 m.. . . + n.; ~ / [ [ / ~ ; % ",
"% ; ~ / [ [ / ~ ; R 3 k.. . o.3 f 3 3 p.L 3 3 3 3 3 3 3 3 3 o |./ [ [ / ~ ; % ",
"% ; ~ / [ [ / ~ ; 3 q.. . . . 3 Y ] k . + . r.3 s.. . @.7 t.g ~ / [ [ / ~ ; % ",
"% ; ~ / [ [ / ~ u.3 + . . . . 3 3 . . . . . <.3 + . . . + % ; ~ / [ [ / ~ ; % ",
"% ; ~ / [ [ _ v.w.G C x.y.z.3 3 3 e.+ + + + U 3 p + + + A.u p c _ [ [ / ~ ; % ",
"% ; ~ _ [ [ 8 b B.o G 3 3 3 3 C.3 3 % % % % 9.3 g % % % u v ' b 8 [ [ _ ~ ; % ",
"% ; ~ ( [ [ 7 a ! ~ v.m ;.-.; ; : o.; ; ; ; D.o |.; ; ; p ' ! a 7 [ [ ( ~ ; % ",
"% ; ~ ( [ [ 6 0 a b c ~ ~ ~ ~ ~ ~ ~ ~ ~ ~ ~ :.e / ~ ~ ~ c b a 0 6 [ [ ( ~ ; % ",
"% - ! / [ [ 5 6 7 8 _ / / / / / / / / / / / / j./ / / / _ 8 7 6 5 [ [ / ! - % ",
"$ = ) ^ < [ [ [ [ [ [ [ [ [ [ [ 3 4 } 3 [ [ [ [ [ [ [ [ [ [ [ [ [ [ < ^ ) = $ ",
"# * ' ] : < [ [ [ [ [ [ [ [ | 1 2 1 | } [ [ [ [ [ [ [ [ [ [ [ [ [ < : ] ' * # ",
"@ & , { ] ^ / ( ( _ / / / / / / / / / / / / / / / / / / / _ ( ( / ^ ] { , & @ ",
"+ # > , ' ) ! ~ ~ ~ ~ ~ ~ ~ ~ ~ ~ ~ ~ ~ ~ ~ ~ ~ ~ ~ ~ ~ ~ ~ ~ ~ ! ) ' , > # + ",
"+ @ # & * = - ; ; ; ; ; ; ; ; ; ; ; ; ; ; ; ; ; ; ; ; ; ; ; ; ; - = * & # @ + ",
". + + @ # $ % % % % % % % % % % % % % % % % % % % % % % % % % % % $ # @ + + . ",
". . . + + + + + + + + + + + + + + + + + + + + + + + + + + + + + + + + + . . . "};
