/* XPM */
static char * digit_1_xpm[] = {
"39 40 148 2",
"  	c None",
". 	c #000000",
"+ 	c #020000",
"@ 	c #040000",
"# 	c #080002",
"$ 	c #0A0002",
"% 	c #0C0002",
"& 	c #0E0002",
"* 	c #150004",
"= 	c #1B0006",
"- 	c #1E0006",
"; 	c #210006",
"> 	c #110004",
", 	c #1D0006",
"' 	c #2B0009",
") 	c #35000B",
"! 	c #3B000B",
"~ 	c #3E000C",
"{ 	c #300009",
"] 	c #47000E",
"^ 	c #540010",
"/ 	c #5B0011",
"( 	c #5C0012",
"_ 	c #5B0012",
": 	c #280008",
"< 	c #35000A",
"[ 	c #B80024",
"} 	c #BF0025",
"| 	c #A40020",
"1 	c #650014",
"2 	c #6A0014",
"3 	c #C40026",
"4 	c #C10025",
"5 	c #7C0019",
"6 	c #730017",
"7 	c #680014",
"8 	c #600013",
"9 	c #BE0025",
"0 	c #AA0021",
"a 	c #630014",
"b 	c #520010",
"c 	c #46000E",
"d 	c #40000D",
"e 	c #C00026",
"f 	c #B20022",
"g 	c #3A000C",
"h 	c #40000C",
"i 	c #49000E",
"j 	c #8B001B",
"k 	c #C20026",
"l 	c #7F0018",
"m 	c #36000B",
"n 	c #680015",
"o 	c #770017",
"p 	c #740017",
"q 	c #7A0018",
"r 	c #660014",
"s 	c #C10026",
"t 	c #C30026",
"u 	c #50000F",
"v 	c #240007",
"w 	c #2D0009",
"x 	c #710015",
"y 	c #140003",
"z 	c #050001",
"A 	c #0A0001",
"B 	c #B20023",
"C 	c #0D0002",
"D 	c #0F0003",
"E 	c #180004",
"F 	c #250006",
"G 	c #36000A",
"H 	c #100003",
"I 	c #040001",
"J 	c #080001",
"K 	c #060002",
"L 	c #88001A",
"M 	c #5D0012",
"N 	c #630013",
"O 	c #6D0015",
"P 	c #290008",
"Q 	c #200006",
"R 	c #3A000B",
"S 	c #37000B",
"T 	c #38000B",
"U 	c #41000D",
"V 	c #610013",
"W 	c #640013",
"X 	c #1B0005",
"Y 	c #4E000F",
"Z 	c #3C000C",
"` 	c #3D000C",
" .	c #42000D",
"..	c #270008",
"+.	c #4F000F",
"@.	c #190005",
"#.	c #44000D",
"$.	c #6F0015",
"%.	c #33000A",
"&.	c #5F0012",
"*.	c #6F0016",
"=.	c #750017",
"-.	c #6B0015",
";.	c #620013",
">.	c #690014",
",.	c #8F001B",
"'.	c #46000D",
").	c #730016",
"!.	c #8E001C",
"~.	c #9B001E",
"{.	c #49000F",
"].	c #B40023",
"^.	c #9E001F",
"/.	c #820019",
"(.	c #48000E",
"_.	c #8D001B",
":.	c #B90024",
"<.	c #700016",
"[.	c #6C0015",
"}.	c #45000D",
"|.	c #99001E",
"1.	c #770018",
"2.	c #9A001E",
"3.	c #160004",
"4.	c #790018",
"5.	c #1F0006",
"6.	c #580011",
"7.	c #170004",
"8.	c #86001A",
"9.	c #570011",
"0.	c #BC0025",
"a.	c #4B000E",
"b.	c #6B0014",
"c.	c #AD0021",
"d.	c #2A0008",
"e.	c #2F0009",
"f.	c #720017",
"g.	c #87001A",
"h.	c #560011",
"i.	c #B30022",
"j.	c #A6001F",
"k.	c #AC0021",
"l.	c #830019",
"m.	c #800019",
"n.	c #AB0021",
"o.	c #A80020",
"p.	c #AA0020",
"q.	c #89001A",
". . . + + + + + + + + + + + + + + + + + + + + + + + + + + + + + + + + + . . . ",
". + + @ # $ % % % % % % % % % % % % % % % % % % % % % % % % % % % $ # @ + + . ",
"+ @ # & * = - ; ; ; ; ; ; ; ; ; ; ; ; ; ; ; ; ; ; ; ; ; ; ; ; ; - = * & # @ + ",
"+ # > , ' ) ! ~ ~ ~ ~ ~ ~ ~ ~ ~ ~ ~ ~ ~ ~ ~ ~ ~ ~ ~ ~ ~ ~ ~ ~ ~ ! ) ' , > # + ",
"@ & , { ] ^ / ( ( _ / / / / / / / / / / / / / / / / / / / _ ( ( / ^ ] { , & @ ",
"# * ' ] : < [ [ } | 1 2 1 | [ [ [ [ [ [ [ [ [ [ [ [ [ [ [ [ [ [ [ < : ] ' * # ",
"$ = ) ^ < [ [ [ 3 } 4 3 [ [ [ [ [ [ [ [ [ [ [ [ [ [ [ [ [ [ [ [ [ [ < ^ ) = $ ",
"% - ! / [ [ 5 6 7 8 _ / / / / / / / / 9 0 / / / / / / / _ 8 7 6 5 [ [ / ! - % ",
"% ; ~ ( [ [ 6 a b c d ~ ~ ~ ~ ~ ~ ~ ~ e f ~ ~ ~ ~ ~ ~ ~ d c b a 6 [ [ ( ~ ; % ",
"% ; ~ ( [ [ 7 b ! ' g h ] ; ; i g ^ j k k l c m n o p p q r ! b 7 3 } ( ~ ; % ",
"% ; ~ _ [ [ 8 c ' ) s 3 3 3 3 3 3 3 3 3 3 3 3 3 3 3 3 3 t k u c 8 3 } _ ~ ; % ",
"% ; ~ / [ [ _ d v = w x v + + + y z A 3 B + C D % $ A E F G v d _ } | / ~ ; % ",
"% ; ~ / [ [ / ~ ; H # . . . . . % I G 3 B . J # # # H . + % ; ~ / 4 1 / ~ ; % ",
"% ; ~ / [ [ / ~ ; % K L 3 3 M 3 3 3 3 3 3 3 3 3 3 3 3 3 N % ; ~ / 3 2 / ~ ; % ",
"% ; ~ / [ [ / ~ ; % + J O P . Q h R S T S R R R U V W 8 X % ; ~ / [ 1 / ~ ; % ",
"% ; ~ / [ [ / ~ ; % + ; . . G Y Z ` ` ` ` ` `  .... . . + % ; ~ / [ | / ~ ; % ",
"% ; ~ / | [ / ~ ; % 3 3 3 3 3 3 3 3 3 3 3 3 3 3 3 +.| 3 3 3 ; ~ / [ [ / ~ ; % ",
"% ; ~ / 1 [ / ~ ; 3 3 ^ . . . . . . . . . . . . . . . @.W 3 k ~ / [ [ / ~ ; % ",
"% ; ~ / 2 3 / ~ h 3 #.. H $.O %.&.p V *.=.p =.-.;.>._ . + ,.k './ [ [ / ~ ; % ",
"% ; ~ / 1 4 / ~ ).3 + . 3 3 3 !.~.3 3 3 3 3 3 3 3 3 3 Q + {.k r / [ [ / ~ ; % ",
"% ; ~ / | } / ~ k 3 + . . . . . . . . . . . . . . . . . + % k ]./ [ [ / ~ ; % ",
"% ; ~ / } 3 / ~ ^. .+ . . - o /.(._.:.3 3 3 3 <.p [.}.. + % |.1./ [ [ / ~ ; % ",
"% ; ~ / [ [ / ~ ; % + . ~.3 3 ~.w 3 3 L o =.2.3 3 3 3 ;.+ % ; ~ / [ [ / ~ ; % ",
"% ; ~ / [ [ / ~ ; % + 3.3 4.. . . . . . . . . . . . 3 3 5.% ; ~ / [ [ / ~ ; % ",
"% ; ~ / [ [ / ~ ; % + G 3 _ . . . . . . . . . . . . 3 3 ; % ; ~ / [ [ / ~ ; % ",
"% ; ~ / [ [ / ~ ; % + I 3 3 3 3 3 3 k (.^.3 3 3 3 3 3 2.+ % ; ~ / [ [ / ~ ; % ",
"% ; ~ / [ [ / ~ ; % + . H [.6.3 3 3 3 7.R S 3 3 8.9.D . + % ; ~ / [ [ / ~ ; % ",
"% ; ~ / [ [ / ~ ; % + . . . . . 0.9 . . . . a.3 . . . . + % ; ~ / [ [ / ~ ; % ",
"% ; ~ / [ [ _ d v H K + + + + + 0.0.+ + + + b.3 + + + + K H v d _ [ [ / ~ ; % ",
"% ; ~ _ [ [ 8 c < c.c.k d.e.3 3 3 3 3 3 3 3 3 3 3 3 3 3 t k s f.8 [ [ _ ~ ; % ",
"% ; ~ ( [ [ 7 b g.s k k h.p k i.j.k.l.m.i.n.o.j.p.n.n.n.n.k.e q.7 [ [ ( ~ ; % ",
"% ; ~ ( [ [ 6 a b c d ~ ~ ~ ~ ~ ~ ~ ~ ~ ~ ~ ~ ~ ~ ~ ~ ~ d c b a 6 [ [ ( ~ ; % ",
"% - ! / [ [ 5 6 7 8 _ / / / / / / / / / / / / / / / / / _ 8 7 6 5 [ [ / ! - % ",
"$ = ) ^ < [ [ [ [ [ [ [ [ [ [ [ 3 4 } 3 [ [ [ [ [ [ [ [ [ [ [ [ [ [ < ^ ) = $ ",
"# * ' ] : < [ [ [ [ [ [ [ [ | 1 2 1 | } [ [ [ [ [ [ [ [ [ [ [ [ [ < : ] ' * # ",
"@ & , { ] ^ / ( ( _ / / / / / / / / / / / / / / / / / / / _ ( ( / ^ ] { , & @ ",
"+ # > , ' ) ! ~ ~ ~ ~ ~ ~ ~ ~ ~ ~ ~ ~ ~ ~ ~ ~ ~ ~ ~ ~ ~ ~ ~ ~ ~ ! ) ' , > # + ",
"+ @ # & * = - ; ; ; ; ; ; ; ; ; ; ; ; ; ; ; ; ; ; ; ; ; ; ; ; ; - = * & # @ + ",
". + + @ # $ % % % % % % % % % % % % % % % % % % % % % % % % % % % $ # @ + + . ",
". . . + + + + + + + + + + + + + + + + + + + + + + + + + + + + + + + + + . . . "};
