/* XPM */
static char * digit_0_xpm[] = {
"39 40 178 2",
"  	c None",
". 	c #000000",
"+ 	c #020000",
"@ 	c #040000",
"# 	c #080002",
"$ 	c #0A0002",
"% 	c #0C0002",
"& 	c #0E0002",
"* 	c #150004",
"= 	c #1B0006",
"- 	c #1E0006",
"; 	c #210006",
"> 	c #110004",
", 	c #1D0006",
"' 	c #2B0009",
") 	c #35000B",
"! 	c #3B000B",
"~ 	c #3E000C",
"{ 	c #300009",
"] 	c #47000E",
"^ 	c #540010",
"/ 	c #5B0011",
"( 	c #5C0012",
"_ 	c #5B0012",
": 	c #280008",
"< 	c #35000A",
"[ 	c #B80024",
"} 	c #BF0025",
"| 	c #A40020",
"1 	c #650014",
"2 	c #6A0014",
"3 	c #C40026",
"4 	c #C10025",
"5 	c #7C0019",
"6 	c #730017",
"7 	c #680014",
"8 	c #600013",
"9 	c #5D0011",
"0 	c #610012",
"a 	c #600012",
"b 	c #630014",
"c 	c #780017",
"d 	c #86001A",
"e 	c #740017",
"f 	c #580011",
"g 	c #740016",
"h 	c #830019",
"i 	c #AD0022",
"j 	c #BC0024",
"k 	c #BD0025",
"l 	c #BE0025",
"m 	c #BB0024",
"n 	c #87001A",
"o 	c #84001A",
"p 	c #720016",
"q 	c #810019",
"r 	c #A80020",
"s 	c #C30026",
"t 	c #7B0018",
"u 	c #520010",
"v 	c #46000E",
"w 	c #4D000F",
"x 	c #5D0013",
"y 	c #560011",
"z 	c #140004",
"A 	c #100003",
"B 	c #0F0003",
"C 	c #33000A",
"D 	c #C00025",
"E 	c #B10022",
"F 	c #1A0005",
"G 	c #190005",
"H 	c #40000D",
"I 	c #240007",
"J 	c #0D0002",
"K 	c #34000A",
"L 	c #36000A",
"M 	c #7D0018",
"N 	c #A90021",
"O 	c #2A0008",
"P 	c #0B0002",
"Q 	c #060002",
"R 	c #4A000E",
"S 	c #A60020",
"T 	c #9F001F",
"U 	c #AC0021",
"V 	c #B90024",
"W 	c #AA0021",
"X 	c #AB0021",
"Y 	c #730016",
"Z 	c #4C000F",
"` 	c #B70023",
" .	c #7A0018",
"..	c #42000D",
"+.	c #31000A",
"@.	c #95001D",
"#.	c #B30023",
"$.	c #37000B",
"%.	c #230007",
"&.	c #39000B",
"*.	c #91001C",
"=.	c #220006",
"-.	c #40000C",
";.	c #A50020",
">.	c #670014",
",.	c #070001",
"'.	c #040001",
").	c #8E001C",
"!.	c #200006",
"~.	c #270007",
"{.	c #590011",
"].	c #C20026",
"^.	c #BC0025",
"/.	c #32000A",
"(.	c #690014",
"_.	c #A80021",
":.	c #120003",
"<.	c #3D000C",
"[.	c #660014",
"}.	c #2D0009",
"|.	c #44000D",
"1.	c #45000D",
"2.	c #A30020",
"3.	c #530010",
"4.	c #5D0012",
"5.	c #B20022",
"6.	c #800019",
"7.	c #6C0015",
"8.	c #7F0019",
"9.	c #B60023",
"0.	c #250007",
"a.	c #620013",
"b.	c #90001C",
"c.	c #6F0015",
"d.	c #B50023",
"e.	c #94001D",
"f.	c #B40023",
"g.	c #710016",
"h.	c #260007",
"i.	c #0D0003",
"j.	c #7C0018",
"k.	c #99001E",
"l.	c #38000B",
"m.	c #A1001F",
"n.	c #98001E",
"o.	c #170004",
"p.	c #050001",
"q.	c #510010",
"r.	c #93001C",
"s.	c #41000D",
"t.	c #030001",
"u.	c #090002",
"v.	c #110003",
"w.	c #2C0008",
"x.	c #AE0022",
"y.	c #8A001B",
"z.	c #5E0012",
"A.	c #8E001B",
"B.	c #A2001F",
"C.	c #790017",
"D.	c #92001C",
"E.	c #640013",
"F.	c #4E000F",
"G.	c #2B0008",
"H.	c #180004",
"I.	c #280007",
"J.	c #700016",
"K.	c #5F0012",
"L.	c #9B001E",
"M.	c #B00022",
"N.	c #610013",
"O.	c #270008",
"P.	c #9A001E",
"Q.	c #220007",
"R.	c #750017",
"S.	c #6B0015",
"T.	c #9C001E",
"U.	c #9E001F",
". . . + + + + + + + + + + + + + + + + + + + + + + + + + + + + + + + + + . . . ",
". + + @ # $ % % % % % % % % % % % % % % % % % % % % % % % % % % % $ # @ + + . ",
"+ @ # & * = - ; ; ; ; ; ; ; ; ; ; ; ; ; ; ; ; ; ; ; ; ; ; ; ; ; - = * & # @ + ",
"+ # > , ' ) ! ~ ~ ~ ~ ~ ~ ~ ~ ~ ~ ~ ~ ~ ~ ~ ~ ~ ~ ~ ~ ~ ~ ~ ~ ~ ! ) ' , > # + ",
"@ & , { ] ^ / ( ( _ / / / / / / / / / / / / / / / / / / / _ ( ( / ^ ] { , & @ ",
"# * ' ] : < [ [ } | 1 2 1 | [ [ [ [ [ [ [ [ [ [ [ [ [ [ [ [ [ [ [ < : ] ' * # ",
"$ = ) ^ < [ [ [ 3 } 4 3 [ [ [ [ [ [ [ [ [ [ [ [ [ [ [ [ [ [ [ [ [ [ < ^ ) = $ ",
"% - ! / [ [ 5 6 7 8 _ / / / / / / 9 0 0 0 0 0 0 0 a / / _ 8 7 6 5 [ [ / ! - % ",
"% ; ~ ( [ [ 6 b c d e f g h h h h i j j k l l l l m n h o p ^ b 6 [ [ ( ~ ; % ",
"% ; ~ ( [ [ 7 f l 3 3 q r 3 3 3 3 s 3 3 3 k k k k l 3 3 3 t ~ u 7 3 } ( ~ ; % ",
"% ; ~ _ [ [ 8 v w x y % & z A B B C D E { B A z z z z * F G ' v 8 3 } _ ~ ; % ",
"% ; ~ / [ [ _ H I = * J @ B K L L M s N ~ < O % $ P $ @ Q A I H _ } | / ~ ; % ",
"% ; ~ / [ [ / ~ ; R S s T U 3 3 3 3 3 3 3 3 3 V W [ 3 X Y A ; ~ / 4 1 / ~ ; % ",
"% ; ~ / [ [ / ~ Z ` 3  ...G +.{ K @.3 #.1 ( ] $.%.&.8 *.3 f =.~ / 3 2 / ~ ; % ",
"% ; ~ / [ [ / -.;.3 >.,.'.,.%.{ %.B D ).. !.%.,., { * G D V ~.~ / [ 1 / ~ ; % ",
"% ; ~ / [ [ / {.s @.C ` [ r k ].^./.4 (.w 4 ].U [ ]._.:.m ].<.~ / [ | / ~ ; % ",
"% ; ~ / | [ / e 3 [.,.}.O :.~ |.}.B i 1.+ < }.+ , |.}.+ 2.3 3.~ / [ [ / ~ ; % ",
"% ; ~ / 1 [ / n 3 <.C 4._ 7 T 5.f %.>.!.F 6.(.7.8.9.j 0.( 3 1.~ / [ [ / ~ ; % ",
"% ; ~ / 2 3 / a.b.F g 3 o c.r d.8 e.3 i 4.f.j g.n | [.: A ~ I ~ / [ [ / ~ ; % ",
"% ; ~ / 1 4 / ~ ; % ,.% . . + h.7.} W r } 8.: . . '.. . + % ; ~ / [ [ / ~ ; % ",
"% ; ~ / | } / ~ ; % + . . . i.j.k.l.'.+ Z m.n.1.o.. . . + % ; ~ / [ [ / ~ ; % ",
"% ; ~ / } 3 / ~ ; % p.% q.r.f.s.,.t.u.u.+ v.w.x.].y.$.p.+ % ; ~ / [ [ / ~ ; % ",
"% ; ~ / [ [ z.A.k.e.B.3 d.E 3 B.1 4 3 3 3 s 4 4 7.U 3 r C.^ { ~ / [ [ / ~ ; % ",
"% ; ~ / [ [ 0 j 4 } D.E.B % 4.}.. _ _ f f f f F.. p.Y 9.3 3 j.~ / [ [ / ~ ; % ",
"% ; ~ / [ [ / v G.H.I._ 8 8 J.K.a.%.|.4.4.4.4.z.a.i.. z 1.(.1.~ / [ [ / ~ ; % ",
"% ; ~ / [ [ / ~ ; % [.3 3 3 3 3 3 [.t L.L.L.L.L.M.` N.. + % ; ~ / [ [ / ~ ; % ",
"% ; ~ / [ [ / ~ ; % @ % % O.f.l L . . . . . . . % } 4 % + % ; ~ / [ [ / ~ ; % ",
"% ; ~ / [ [ / ~ ; % + . . . e.P.. . . . . . . . Q.s 4 % + % ; ~ / [ [ / ~ ; % ",
"% ; ~ / [ [ _ H I A Q + + + A.D S R.7.S.l.E.k.T.M.9.{.p.Q A I H _ [ [ / ~ ; % ",
"% ; ~ _ [ [ 8 v ' G A % % % *.3 3 E U.n K 7 J.J.y o.% % A G ' v 8 [ [ _ ~ ; % ",
"% ; ~ ( [ [ 7 u ! ' I ; ; ; T.s |.0.; ; ; ; ; ; ; ; ; ; I ' ! u 7 [ [ ( ~ ; % ",
"% ; ~ ( [ [ 6 b u v H ~ ~ ~ n.P.~ ~ ~ ~ ~ ~ ~ ~ ~ ~ ~ ~ H v u b 6 [ [ ( ~ ; % ",
"% - ! / [ [ 5 6 7 8 _ / / / K.z./ / / / / / / / / / / / _ 8 7 6 5 [ [ / ! - % ",
"$ = ) ^ < [ [ [ [ [ [ [ [ [ [ [ 3 4 } 3 [ [ [ [ [ [ [ [ [ [ [ [ [ [ < ^ ) = $ ",
"# * ' ] : < [ [ [ [ [ [ [ [ | 1 2 1 | } [ [ [ [ [ [ [ [ [ [ [ [ [ < : ] ' * # ",
"@ & , { ] ^ / ( ( _ / / / / / / / / / / / / / / / / / / / _ ( ( / ^ ] { , & @ ",
"+ # > , ' ) ! ~ ~ ~ ~ ~ ~ ~ ~ ~ ~ ~ ~ ~ ~ ~ ~ ~ ~ ~ ~ ~ ~ ~ ~ ~ ! ) ' , > # + ",
"+ @ # & * = - ; ; ; ; ; ; ; ; ; ; ; ; ; ; ; ; ; ; ; ; ; ; ; ; ; - = * & # @ + ",
". + + @ # $ % % % % % % % % % % % % % % % % % % % % % % % % % % % $ # @ + + . ",
". . . + + + + + + + + + + + + + + + + + + + + + + + + + + + + + + + + + . . . "};
