/* XPM */
static char * digit_8_xpm[] = {
"39 40 194 2",
"  	c None",
". 	c #000000",
"+ 	c #020000",
"@ 	c #040000",
"# 	c #080002",
"$ 	c #0A0002",
"% 	c #0C0002",
"& 	c #0E0002",
"* 	c #150004",
"= 	c #1B0006",
"- 	c #1E0006",
"; 	c #210006",
"> 	c #110004",
", 	c #1D0006",
"' 	c #2B0009",
") 	c #35000B",
"! 	c #3B000B",
"~ 	c #3E000C",
"{ 	c #300009",
"] 	c #47000E",
"^ 	c #540010",
"/ 	c #5B0011",
"( 	c #5C0012",
"_ 	c #5B0012",
": 	c #280008",
"< 	c #35000A",
"[ 	c #B80024",
"} 	c #BF0025",
"| 	c #A40020",
"1 	c #650014",
"2 	c #6A0014",
"3 	c #C40026",
"4 	c #C10025",
"5 	c #7C0019",
"6 	c #730017",
"7 	c #680014",
"8 	c #600013",
"9 	c #720016",
"0 	c #690015",
"a 	c #620013",
"b 	c #630014",
"c 	c #520010",
"d 	c #46000E",
"e 	c #BB0025",
"f 	c #AC0022",
"g 	c #42000C",
"h 	c #41000C",
"i 	c #46000D",
"j 	c #43000C",
"k 	c #4D000F",
"l 	c #A50020",
"m 	c #7C0018",
"n 	c #640014",
"o 	c #2E0008",
"p 	c #A2001F",
"q 	c #240007",
"r 	c #250007",
"s 	c #770017",
"t 	c #99001E",
"u 	c #95001D",
"v 	c #AF0022",
"w 	c #C10026",
"x 	c #BD0025",
"y 	c #AC0021",
"z 	c #3C000C",
"A 	c #4E000F",
"B 	c #A70021",
"C 	c #530011",
"D 	c #33000A",
"E 	c #AA0021",
"F 	c #7A0017",
"G 	c #37000B",
"H 	c #B10022",
"I 	c #7C0017",
"J 	c #6B0016",
"K 	c #7F0018",
"L 	c #AB0021",
"M 	c #6A0015",
"N 	c #580011",
"O 	c #C20026",
"P 	c #40000D",
"Q 	c #1C0006",
"R 	c #BC0025",
"S 	c #91001C",
"T 	c #39000B",
"U 	c #C30026",
"V 	c #320009",
"W 	c #310009",
"X 	c #670014",
"Y 	c #8D001B",
"Z 	c #100003",
"` 	c #160005",
" .	c #B00022",
"..	c #120003",
"+.	c #040001",
"@.	c #810019",
"#.	c #290008",
"$.	c #050001",
"%.	c #780017",
"&.	c #42000D",
"*.	c #730016",
"=.	c #660014",
"-.	c #9D001E",
";.	c #88001A",
">.	c #740016",
",.	c #A1001F",
"'.	c #B20023",
").	c #97001D",
"!.	c #4F000F",
"~.	c #A30020",
"{.	c #2F0009",
"].	c #89001B",
"^.	c #6E0015",
"/.	c #710016",
"(.	c #790017",
"_.	c #7B0018",
":.	c #50000F",
"<.	c #0F0003",
"[.	c #A70020",
"}.	c #0D0003",
"|.	c #080001",
"1.	c #41000D",
"2.	c #98001E",
"3.	c #93001C",
"4.	c #A80020",
"5.	c #030000",
"6.	c #36000A",
"7.	c #7A0018",
"8.	c #630013",
"9.	c #4C000F",
"0.	c #9A001E",
"a.	c #760017",
"b.	c #BE0025",
"c.	c #AE0022",
"d.	c #45000D",
"e.	c #B50023",
"f.	c #570011",
"g.	c #550011",
"h.	c #3A000B",
"i.	c #0D0002",
"j.	c #BB0024",
"k.	c #160004",
"l.	c #8F001C",
"m.	c #7D0018",
"n.	c #010000",
"o.	c #48000E",
"p.	c #A90021",
"q.	c #260007",
"r.	c #180005",
"s.	c #BC0024",
"t.	c #030001",
"u.	c #5F0013",
"v.	c #A60020",
"w.	c #A0001F",
"x.	c #1C0005",
"y.	c #070001",
"z.	c #5D0012",
"A.	c #A5001F",
"B.	c #8B001B",
"C.	c #230007",
"D.	c #640013",
"E.	c #C00025",
"F.	c #38000A",
"G.	c #C00026",
"H.	c #95001C",
"I.	c #690014",
"J.	c #5F0012",
"K.	c #1A0005",
"L.	c #610013",
"M.	c #6B0015",
"N.	c #44000D",
"O.	c #0A0001",
"P.	c #8E001C",
"Q.	c #31000A",
"R.	c #1D0005",
"S.	c #560011",
"T.	c #1F0006",
"U.	c #830019",
"V.	c #800019",
"W.	c #6E0016",
"X.	c #2A0008",
"Y.	c #2D0009",
"Z.	c #510010",
"`.	c #170004",
" +	c #8A001B",
".+	c #750017",
"++	c #86001A",
"@+	c #4A000F",
"#+	c #40000C",
"$+	c #5A0011",
"%+	c #9B001E",
"&+	c #AB0022",
"*+	c #82001A",
"=+	c #8C001B",
". . . + + + + + + + + + + + + + + + + + + + + + + + + + + + + + + + + + . . . ",
". + + @ # $ % % % % % % % % % % % % % % % % % % % % % % % % % % % $ # @ + + . ",
"+ @ # & * = - ; ; ; ; ; ; ; ; ; ; ; ; ; ; ; ; ; ; ; ; ; ; ; ; ; - = * & # @ + ",
"+ # > , ' ) ! ~ ~ ~ ~ ~ ~ ~ ~ ~ ~ ~ ~ ~ ~ ~ ~ ~ ~ ~ ~ ~ ~ ~ ~ ~ ! ) ' , > # + ",
"@ & , { ] ^ / ( ( _ / / / / / / / / / / / / / / / / / / / _ ( ( / ^ ] { , & @ ",
"# * ' ] : < [ [ } | 1 2 1 | [ [ [ [ [ [ [ [ [ [ [ [ [ [ [ [ [ [ [ < : ] ' * # ",
"$ = ) ^ < [ [ [ 3 } 4 3 [ [ [ [ [ [ [ [ [ [ [ [ [ [ [ [ [ [ [ [ [ [ < ^ ) = $ ",
"% - ! / [ [ 5 6 7 8 ( 9 0 / / / / / / / / / / / / / / / _ a 7 6 5 [ [ / ! - % ",
"% ; ~ ( [ [ 6 b c d ] e f g ~ ~ ~ ~ ~ h i i j ~ ~ ~ ~ ~ k l m n 6 [ [ ( ~ ; % ",
"% ; ~ ( [ [ 7 c ! ' o } p q ; r s t u v w x y z ; ; ; ; A w B C 7 3 } ( ~ ; % ",
"% ; ~ _ [ [ 8 d ' ) D E F % % G 3 H I J K L 3 M % % % % N O t d 8 3 } _ ~ ; % ",
"% ; ~ / [ [ _ P q = Q R S + + T U V + + + W 3 X + + + + / U Y P _ } | / ~ ; % ",
"% ; ~ / [ [ / ~ ; Z ` }  .Z . ..u + . . . +.@.#.$.%.&.. T 3 *.~ / 4 1 / ~ ; % ",
"% ; ~ / [ [ =.-.;.>.,.U 3 '.).!.~.{.. . . $.].&.+.3 ^.. T 3 *.~ / 3 2 / ~ ; % ",
"% ; ~ / [ [ /.R u (.,.3 3 '._.N 3 c . . . % 3 X . [ :.. T 3 *.~ / [ 1 / ~ ; % ",
"% ; ~ / [ [ / i ; % <.R [.}.. 8 3 { . . . |.3 1 . X 1.. T 3 *.~ / [ | / ~ ; % ",
"% ; ~ / | [ / ~ ; % + 2.3.. . A 3 ^ . . . - 3 =.. 4.( . T 3 *.~ / [ [ / ~ ; % ",
"% ; ~ / 1 [ / ~ ; % 5.2.u . |.6.3 3 7.8.9.0.3 d + 3 X . T 3 a.~ / [ [ / ~ ; % ",
"% ; ~ / 2 3 / ~ ; % % b.Y T c.N d.e.3 3 f._ g.+ $ 3 a . h.3 8 ~ / [ [ / ~ ; % ",
"% ; ~ / 1 4 / ~ ; % i.j.} 3 } q . k.O l.. . . . % O m.n.T 3 f.~ / [ [ / ~ ; % ",
"% ; ~ / | } / ~ ; % o.U 3 p.q.. . # x 4.h.r.$.. % s.R t.< 3 *.~ / [ [ / ~ ; % ",
"% ; ~ / } 3 / ~ r u.U 3 v., . . . |.[ 3 3 U w.x.y.j.O t.< 3 *.~ / [ [ / ~ ; % ",
"% ; ~ / [ [ z./.A.3 ,.} B.. . . . C.b.2.D.).3 f.. E.S + F.3 *.~ / [ [ / ~ ; % ",
"% ; ~ / [ [ 8 G.O H...b.S . . . . I.3 }.. , 3 8 * 3 J.. T 3 *.~ / [ [ / ~ ; % ",
"% ; ~ / [ [ z.9 a K.|.4 S . . . . S v.+ . # 3 L.{.3 =.. T 3 *.~ / [ [ / ~ ; % ",
"% ; ~ / [ [ / ~ ; % & 4 S . . . . M.1 . . +.Y N.r.4 N . T 3 *.~ / [ [ / ~ ; % ",
"% ; ~ / [ [ / ~ ; % O.4 P.. . . <.~.T . . $.J.... Q.<.. T 3 *.~ / [ [ / ~ ; % ",
"% ; ~ / [ [ / ~ ; % R.3 I.. . + P.3 < . . S.O % . . . . F.3 *.~ / [ [ / ~ ; % ",
"% ; ~ / [ [ _ P q ; B.3 T + T.U.3 V.O.+ T.L L y.+ + + + h U a.P _ [ [ / ~ ; % ",
"% ; ~ _ [ [ a W.a.4.U U.<.X.E 3 H.& % Y.4.3 Z.% Z % % `.3.O 7 d 8 [ [ _ ~ ; % ",
"% ; ~ ( [ [ W.} G.w  +; ; /.O  +r ; d O O M ; A 4.2.u 4.O G.:.c 7 [ [ ( ~ ; % ",
"% ; ~ ( [ [ .+++;.7 P ~ ~ @+L.#+~ ~ $+%+M.~ ~ N &+G.G.G.[ *+c b 6 [ [ ( ~ ; % ",
"% - ! / [ [ 5 6 7 8 _ / / / / / / / / / / / / / z.a.=+ +n 8 7 6 5 [ [ / ! - % ",
"$ = ) ^ < [ [ [ [ [ [ [ [ [ [ [ 3 4 } 3 [ [ [ [ [ [ [ [ [ [ [ [ [ [ < ^ ) = $ ",
"# * ' ] : < [ [ [ [ [ [ [ [ | 1 2 1 | } [ [ [ [ [ [ [ [ [ [ [ [ [ < : ] ' * # ",
"@ & , { ] ^ / ( ( _ / / / / / / / / / / / / / / / / / / / _ ( ( / ^ ] { , & @ ",
"+ # > , ' ) ! ~ ~ ~ ~ ~ ~ ~ ~ ~ ~ ~ ~ ~ ~ ~ ~ ~ ~ ~ ~ ~ ~ ~ ~ ~ ! ) ' , > # + ",
"+ @ # & * = - ; ; ; ; ; ; ; ; ; ; ; ; ; ; ; ; ; ; ; ; ; ; ; ; ; - = * & # @ + ",
". + + @ # $ % % % % % % % % % % % % % % % % % % % % % % % % % % % $ # @ + + . ",
". . . + + + + + + + + + + + + + + + + + + + + + + + + + + + + + + + + + . . . "};
