/* XPM */
static char * digit_7_xpm[] = {
"39 40 168 2",
"  	c None",
". 	c #000000",
"+ 	c #020000",
"@ 	c #040000",
"# 	c #080002",
"$ 	c #0A0002",
"% 	c #0C0002",
"& 	c #0E0002",
"* 	c #150004",
"= 	c #1B0006",
"- 	c #1E0006",
"; 	c #210006",
"> 	c #110004",
", 	c #1D0006",
"' 	c #2B0009",
") 	c #35000B",
"! 	c #3B000B",
"~ 	c #3E000C",
"{ 	c #300009",
"] 	c #47000E",
"^ 	c #540010",
"/ 	c #5B0011",
"( 	c #5C0012",
"_ 	c #5B0012",
": 	c #280008",
"< 	c #35000A",
"[ 	c #B80024",
"} 	c #BF0025",
"| 	c #A40020",
"1 	c #650014",
"2 	c #6A0014",
"3 	c #C40026",
"4 	c #C10025",
"5 	c #7C0019",
"6 	c #730017",
"7 	c #680014",
"8 	c #600013",
"9 	c #5F0013",
"0 	c #5E0012",
"a 	c #630014",
"b 	c #520010",
"c 	c #46000E",
"d 	c #620013",
"e 	c #800019",
"f 	c #6F0016",
"g 	c #43000D",
"h 	c #9A001E",
"i 	c #3F000C",
"j 	c #40000D",
"k 	c #760017",
"l 	c #C20026",
"m 	c #AD0021",
"n 	c #84001A",
"o 	c #39000C",
"p 	c #220006",
"q 	c #99001E",
"r 	c #2B0008",
"s 	c #240007",
"t 	c #3D000D",
"u 	c #42000D",
"v 	c #93001C",
"w 	c #91001C",
"x 	c #BE0025",
"y 	c #100003",
"z 	c #190005",
"A 	c #3A000B",
"B 	c #690014",
"C 	c #A1001F",
"D 	c #2D0008",
"E 	c #39000B",
"F 	c #290008",
"G 	c #190004",
"H 	c #040001",
"I 	c #110003",
"J 	c #5F0012",
"K 	c #740017",
"L 	c #810019",
"M 	c #530010",
"N 	c #630013",
"O 	c #BC0024",
"P 	c #8F001B",
"Q 	c #38000B",
"R 	c #85001A",
"S 	c #B60023",
"T 	c #6D0015",
"U 	c #570011",
"V 	c #37000B",
"W 	c #640013",
"X 	c #5A0011",
"Y 	c #2D0009",
"Z 	c #560011",
"` 	c #97001D",
" .	c #AE0022",
"..	c #B20022",
"+.	c #4B000E",
"@.	c #270008",
"#.	c #7B0018",
"$.	c #4C000F",
"%.	c #730016",
"&.	c #4D000F",
"*.	c #2A0008",
"=.	c #090002",
"-.	c #060001",
";.	c #A70020",
">.	c #230007",
",.	c #7C0018",
"'.	c #33000A",
").	c #0B0002",
"!.	c #660014",
"~.	c #170004",
"{.	c #31000A",
"].	c #780017",
"^.	c #510010",
"/.	c #070001",
"(.	c #C00025",
"_.	c #A80021",
":.	c #830019",
"<.	c #6A0015",
"[.	c #7A0018",
"}.	c #7E0018",
"|.	c #8D001B",
"1.	c #A80020",
"2.	c #7B0017",
"3.	c #8A001B",
"4.	c #0F0003",
"5.	c #8C001B",
"6.	c #790018",
"7.	c #1B0005",
"8.	c #050001",
"9.	c #90001C",
"0.	c #C30026",
"a.	c #A90021",
"b.	c #660013",
"c.	c #4A000F",
"d.	c #AD0022",
"e.	c #120003",
"f.	c #36000A",
"g.	c #580011",
"h.	c #BA0024",
"i.	c #4F000F",
"j.	c #50000F",
"k.	c #9D001E",
"l.	c #94001D",
"m.	c #95001D",
"n.	c #2E0009",
"o.	c #8E001C",
"p.	c #6C0015",
"q.	c #87001A",
"r.	c #32000A",
"s.	c #B50023",
"t.	c #B70023",
"u.	c #250007",
"v.	c #A0001F",
"w.	c #650013",
"x.	c #94001C",
"y.	c #180004",
"z.	c #AA0021",
"A.	c #4E000F",
"B.	c #3C000C",
"C.	c #820019",
"D.	c #280007",
"E.	c #5D0012",
"F.	c #C10026",
"G.	c #7D0018",
"H.	c #AF0022",
"I.	c #700016",
"J.	c #45000E",
"K.	c #640014",
". . . + + + + + + + + + + + + + + + + + + + + + + + + + + + + + + + + + . . . ",
". + + @ # $ % % % % % % % % % % % % % % % % % % % % % % % % % % % $ # @ + + . ",
"+ @ # & * = - ; ; ; ; ; ; ; ; ; ; ; ; ; ; ; ; ; ; ; ; ; ; ; ; ; - = * & # @ + ",
"+ # > , ' ) ! ~ ~ ~ ~ ~ ~ ~ ~ ~ ~ ~ ~ ~ ~ ~ ~ ~ ~ ~ ~ ~ ~ ~ ~ ~ ! ) ' , > # + ",
"@ & , { ] ^ / ( ( _ / / / / / / / / / / / / / / / / / / / _ ( ( / ^ ] { , & @ ",
"# * ' ] : < [ [ } | 1 2 1 | [ [ [ [ [ [ [ [ [ [ [ [ [ [ [ [ [ [ [ < : ] ' * # ",
"$ = ) ^ < [ [ [ 3 } 4 3 [ [ [ [ [ [ [ [ [ [ [ [ [ [ [ [ [ [ [ [ [ [ < ^ ) = $ ",
"% - ! / [ [ 5 6 7 8 _ / / / / / / / / / / 9 0 / / / / / _ 8 7 6 5 [ [ / ! - % ",
"% ; ~ ( [ [ 6 a b c d e f g ~ ~ ~ ~ ~ ~ ~ h | i ~ ~ ~ ~ j c b a 6 [ [ ( ~ ; % ",
"% ; ~ ( [ [ 7 b ! ' k l l m n o p ; ; ; ; q l r ; ; ; ; s ' ! b 7 3 } ( ~ ; % ",
"% ; ~ _ [ [ 8 c ' ) t j u v 3 [ { % % % % w x * % % % % y z ' c 8 3 } _ ~ ; % ",
"% ; ~ / [ [ _ j s = * + + + A B $ + + + + C h + + + & D ! E F j _ } | / ~ ; % ",
"% ; ~ / [ [ / ~ p G # . . . . . H I J 1 K l 4 h B L 3 3 3 l M ~ / 4 1 / ~ ; % ",
"% ; ~ / [ [ / ~ N O P ( Q I . . R 3 3 3 3 3 S T U V N W X u Y ~ / 3 2 / ~ ; % ",
"% ; ~ / [ [ / ~ Z v `  .3 ..Q . +.1 V % @.[ #.. . . . . + % ; ~ / [ 1 / ~ ; % ",
"% ; ~ / [ [ / ~ ; % + # $.7 V . . . . . . %.&.. . . . . + % ; ~ / [ | / ~ ; % ",
"% ; ~ / | [ / ~ ; % + . . . . *.=.. . . -.;.X . . . . . + % ; ~ / [ [ / ~ ; % ",
"% ; ~ / 1 [ / ~ ; % + . . >.,.3 '.. . . ).3 !.. . . . . ~.j {.~ / [ [ / ~ ; % ",
"% ; ~ / 2 3 / ~ ; % + ).].3 3 ^./.. . . # (._.V % % V :.S 3 f ~ / [ [ / ~ ; % ",
"% ; ~ / 1 4 / ~ u <.[. .3 #.Y . . . -.}.e |.3 3 4 4 3 3 1.2.'.~ / [ [ / ~ ; % ",
"% ; ~ / | } / ~ %.3 3 3.>.. . . . . % 3 (.4.+.5.w w 6.V /.% ; ~ / [ [ / ~ ; % ",
"% ; ~ / } 3 / ~ Y Q 7.. . . . . . . 8.4 9.. . . . . . . + % ; ~ / [ [ / ~ ; % ",
"% ; ~ / [ [ / ~ Y Q '.r 4.{ _ ^.W W #.0.a.d 1 W W W 1 1 b.<.X c./ [ [ / ~ ; % ",
"% ; ~ / [ [ / ~ %.3 3 l d.} 3 3 3 3 3 3 3 3 3 3 3 3 3 3 3 3 l ,./ [ [ / ~ ; % ",
"% ; ~ / [ [ / ~ u <.W E e.Y V f.{ g.3 3 3 h.I % % % % % D j i.c./ [ [ / ~ ; % ",
"% ; ~ / [ [ / ~ ; % + . . . . . j.| k.(.[ 4 &.. . . . . + % ; ~ / [ [ / ~ ; % ",
"% ; ~ / [ [ / ~ ; % + . . . * l.3 W ).x |.e 3 ^.. . . . + % ; ~ / [ [ / ~ ; % ",
"% ; ~ / [ [ / ~ ; % + . # ^._.m.n.. # 4 o./.p.3 q.I . . + % ; ~ / [ [ / ~ ; % ",
"% ; ~ / [ [ _ j r.u / [.s.t.+.+ + + & 4 w + + u.X v.w w.! 7.s j _ [ [ / ~ ; % ",
"% ; ~ _ [ [ 8 c ].l 0.3 x.Y % % % % y.4 v % % % % u z.3 0.S A.c 8 [ [ _ ~ ; % ",
"% ; ~ ( [ [ 7 b g.]./ B.; ; ; ; ; ; r l C.; ; ; ; ; D.E.;.F.G.b 7 [ [ ( ~ ; % ",
"% ; ~ ( [ [ 6 a b c j ~ ~ ~ ~ ~ ~ ~ g H.I.~ ~ ~ ~ ~ ~ ~ J.K.U a 6 [ [ ( ~ ; % ",
"% - ! / [ [ 5 6 7 8 _ / / / / / / / / 0 / / / / / / / / _ 8 7 6 5 [ [ / ! - % ",
"$ = ) ^ < [ [ [ [ [ [ [ [ [ [ [ 3 4 } 3 [ [ [ [ [ [ [ [ [ [ [ [ [ [ < ^ ) = $ ",
"# * ' ] : < [ [ [ [ [ [ [ [ | 1 2 1 | } [ [ [ [ [ [ [ [ [ [ [ [ [ < : ] ' * # ",
"@ & , { ] ^ / ( ( _ / / / / / / / / / / / / / / / / / / / _ ( ( / ^ ] { , & @ ",
"+ # > , ' ) ! ~ ~ ~ ~ ~ ~ ~ ~ ~ ~ ~ ~ ~ ~ ~ ~ ~ ~ ~ ~ ~ ~ ~ ~ ~ ! ) ' , > # + ",
"+ @ # & * = - ; ; ; ; ; ; ; ; ; ; ; ; ; ; ; ; ; ; ; ; ; ; ; ; ; - = * & # @ + ",
". + + @ # $ % % % % % % % % % % % % % % % % % % % % % % % % % % % $ # @ + + . ",
". . . + + + + + + + + + + + + + + + + + + + + + + + + + + + + + + + + + . . . "};
