/* XPM */
static char * digit_9_xpm[] = {
"39 40 167 2",
"  	c None",
". 	c #000000",
"+ 	c #020000",
"@ 	c #040000",
"# 	c #080002",
"$ 	c #0A0002",
"% 	c #0C0002",
"& 	c #0E0002",
"* 	c #150004",
"= 	c #1B0006",
"- 	c #1E0006",
"; 	c #210006",
"> 	c #110004",
", 	c #1D0006",
"' 	c #2B0009",
") 	c #35000B",
"! 	c #3B000B",
"~ 	c #3E000C",
"{ 	c #300009",
"] 	c #47000E",
"^ 	c #540010",
"/ 	c #5B0011",
"( 	c #5C0012",
"_ 	c #5B0012",
": 	c #280008",
"< 	c #35000A",
"[ 	c #B80024",
"} 	c #BF0025",
"| 	c #A40020",
"1 	c #650014",
"2 	c #6A0014",
"3 	c #C40026",
"4 	c #C10025",
"5 	c #7C0019",
"6 	c #730017",
"7 	c #680014",
"8 	c #600013",
"9 	c #630014",
"0 	c #520010",
"a 	c #46000E",
"b 	c #40000D",
"c 	c #6D0015",
"d 	c #40000C",
"e 	c #240007",
"f 	c #9A001F",
"g 	c #C20026",
"h 	c #4C000E",
"i 	c #170004",
"j 	c #180004",
"k 	c #110003",
"l 	c #B20023",
"m 	c #A70020",
"n 	c #1B0005",
"o 	c #100003",
"p 	c #190005",
"q 	c #48000E",
"r 	c #85001A",
"s 	c #820019",
"t 	c #5D0012",
"u 	c #BA0024",
"v 	c #BC0024",
"w 	c #39000B",
"x 	c #6B0014",
"y 	c #0D0002",
"z 	c #060002",
"A 	c #C30026",
"B 	c #740016",
"C 	c #91001C",
"D 	c #BC0025",
"E 	c #B90024",
"F 	c #3D000C",
"G 	c #050001",
"H 	c #AE0022",
"I 	c #4E000F",
"J 	c #2F0009",
"K 	c #1C0006",
"L 	c #9C001E",
"M 	c #0F0003",
"N 	c #830019",
"O 	c #5A0011",
"P 	c #87001A",
"Q 	c #080001",
"R 	c #8E001C",
"S 	c #0B0002",
"T 	c #200006",
"U 	c #B60023",
"V 	c #060001",
"W 	c #AF0022",
"X 	c #8C001B",
"Y 	c #130004",
"Z 	c #550011",
"` 	c #070001",
" .	c #6C0015",
"..	c #92001C",
"+.	c #230007",
"@.	c #250007",
"#.	c #36000A",
"$.	c #43000C",
"%.	c #800019",
"&.	c #6F0016",
"*.	c #45000D",
"=.	c #8D001B",
"-.	c #740017",
";.	c #090002",
">.	c #8A001B",
",.	c #A80020",
"'.	c #BE0025",
").	c #180005",
"!.	c #710016",
"~.	c #3F000C",
"{.	c #0A0001",
"].	c #620013",
"^.	c #37000B",
"/.	c #2D0009",
"(.	c #94001D",
"_.	c #93001C",
":.	c #4A000E",
"<.	c #42000D",
"[.	c #160004",
"}.	c #3C000C",
"|.	c #BD0025",
"1.	c #2B0008",
"2.	c #AB0021",
"3.	c #660014",
"4.	c #88001A",
"5.	c #570011",
"6.	c #730016",
"7.	c #700016",
"8.	c #6A0015",
"9.	c #86001A",
"0.	c #7D0018",
"a.	c #96001D",
"b.	c #97001D",
"c.	c #BB0024",
"d.	c #5F0012",
"e.	c #A1001F",
"f.	c #290008",
"g.	c #32000A",
"h.	c #010000",
"i.	c #2A0008",
"j.	c #B20022",
"k.	c #220007",
"l.	c #230006",
"m.	c #260007",
"n.	c #650013",
"o.	c #AC0021",
"p.	c #A80021",
"q.	c #95001C",
"r.	c #750017",
"s.	c #95001D",
"t.	c #A50020",
"u.	c #7C0017",
"v.	c #8F001B",
"w.	c #C10026",
"x.	c #610013",
"y.	c #590011",
"z.	c #BB0025",
"A.	c #9C001F",
"B.	c #760017",
"C.	c #C00026",
"D.	c #640014",
"E.	c #670014",
"F.	c #7F0019",
"G.	c #550010",
"H.	c #90001C",
"I.	c #97001E",
"J.	c #780017",
". . . + + + + + + + + + + + + + + + + + + + + + + + + + + + + + + + + + . . . ",
". + + @ # $ % % % % % % % % % % % % % % % % % % % % % % % % % % % $ # @ + + . ",
"+ @ # & * = - ; ; ; ; ; ; ; ; ; ; ; ; ; ; ; ; ; ; ; ; ; ; ; ; ; - = * & # @ + ",
"+ # > , ' ) ! ~ ~ ~ ~ ~ ~ ~ ~ ~ ~ ~ ~ ~ ~ ~ ~ ~ ~ ~ ~ ~ ~ ~ ~ ~ ! ) ' , > # + ",
"@ & , { ] ^ / ( ( _ / / / / / / / / / / / / / / / / / / / _ ( ( / ^ ] { , & @ ",
"# * ' ] : < [ [ } | 1 2 1 | [ [ [ [ [ [ [ [ [ [ [ [ [ [ [ [ [ [ [ < : ] ' * # ",
"$ = ) ^ < [ [ [ 3 } 4 3 [ [ [ [ [ [ [ [ [ [ [ [ [ [ [ [ [ [ [ [ [ [ < ^ ) = $ ",
"% - ! / [ [ 5 6 7 8 _ / / / / / / / / / / / / / / / / / _ 8 7 6 5 [ [ / ! - % ",
"% ; ~ ( [ [ 6 9 0 a b ~ ~ ~ ~ ~ ~ ~ ~ ~ ~ ~ 9 c d ~ ~ ~ b a 0 9 6 [ [ ( ~ ; % ",
"% ; ~ ( [ [ 7 0 ! ' e ; ; ; ; ; ; ; ; ; ; ; f g h ; ; ; e ' ! 0 7 3 } ( ~ ; % ",
"% ; ~ _ [ [ 8 a ' ) { i j j j j k % % % % j l m n % % % o p ' a 8 3 } _ ~ ; % ",
"% ; ~ / [ [ _ q r s t u [ [ v v | w + + + x 3 x y k w e z o e b _ } | / ~ ; % ",
"% ; ~ / [ [ / 0 g A B C 3 3 D v E F . . G H 3 3 u 4 3 } I % ; ~ / 4 1 / ~ ; % ",
"% ; ~ / [ [ / ~ ~ J z K g L M % $ . . M N 3 m O F P 3 3 O % ; ~ / 3 2 / ~ ; % ",
"% ; ~ / [ [ / ~ ; % + Q 4 R . . . . S N 3 | T . . { 3 U M % ; ~ / [ 1 / ~ ; % ",
"% ; ~ / [ [ / ~ ; % + % 4 C . . V c W 3 X Y . . . Z 3 a + % ; ~ / [ | / ~ ; % ",
"% ; ~ / | [ / ~ ; % + ` 4 R . . # H 3  .+ . . . . ..4 S + % ; ~ / [ [ / ~ ; % ",
"% ; ~ / 1 [ / ~ ; % + +.g L # . . K @.. . . . . #.g u S + % ; ~ / [ [ / ~ ; % ",
"% ; ~ / 2 3 / $.%.&.*.m 3 A | =.-.;.. . . . . . >.3 [ ;.+ % ; ~ / [ [ / ~ ; % ",
"% ; ~ / 1 4 / ^ g 3 ,.3 3 3 3 3 3 *.. . . . . p '.A v ).+ % ; ~ / [ [ / ~ ; % ",
"% ; ~ / | } / $.!.~.{.%.3 l 1 ].^.+ . . . . . /.(.t 3 ^.+ % ; ~ / [ [ / ~ ; % ",
"% ; ~ / } 3 / ~ ; % + Q 4 _.. . . . . . . . . :.<.[.A }.+ % ; ~ / [ [ / ~ ; % ",
"% ; ~ / [ [ / ~ ; % + + m %.. . . . . . . . +.|.1.. 2.3.+ % ; ~ / [ [ / ~ ; % ",
"% ; ~ / [ [ / ~ ; % + . 4.5.. . . . . . . . 6.D # . 7.8.+ % ; ~ / [ [ / ~ ; % ",
"% ; ~ / [ [ / ~ ; % + . >.9.. . . . . . . # u 0.. . /.>.` % ; ~ / [ [ / ~ ; % ",
"% ; ~ / [ [ / ~ ; % + . a.b.. . . . . . . N c., . . Q } d.% ; ~ / [ [ / ~ ; % ",
"% ; ~ / [ [ / ~ ; % + . e.b.. # f.M . . g.3 N . . . h.b.3 i.; ~ / [ [ / ~ ; % ",
"% ; ~ / [ [ / ~ ; % + +.} } C j.3 8 . k.'.3 +.. . . . w A L l.~ / [ [ / ~ ; % ",
"% ; ~ / [ [ _ b m.~.n.o.3 3 3 ,.t y I p.3 / + + + + + + q.A r.b _ [ [ / ~ ; % ",
"% ; ~ _ [ [ 8 :.s.g A A t.u.0 k /.v.3 3 _.% % % % % % % q g w.0.x.[ [ _ ~ ; % ",
"% ; ~ ( [ [ 7 y.z.c.1 F @.; ; ; A.g '.8.l.; ; ; ; ; ; ; e B.C.} 9.[ [ ( ~ ; % ",
"% ; ~ ( [ [ 6 D.1 Z b ~ ~ ~ ~ ~ E.F.G.~ ~ ~ ~ ~ ~ ~ ~ ~ b a H.I.J.[ [ ( ~ ; % ",
"% - ! / [ [ 5 6 7 8 _ / / / / / / / / / / / / / / / / / _ 8 7 6 5 [ [ / ! - % ",
"$ = ) ^ < [ [ [ [ [ [ [ [ [ [ [ 3 4 } 3 [ [ [ [ [ [ [ [ [ [ [ [ [ [ < ^ ) = $ ",
"# * ' ] : < [ [ [ [ [ [ [ [ | 1 2 1 | } [ [ [ [ [ [ [ [ [ [ [ [ [ < : ] ' * # ",
"@ & , { ] ^ / ( ( _ / / / / / / / / / / / / / / / / / / / _ ( ( / ^ ] { , & @ ",
"+ # > , ' ) ! ~ ~ ~ ~ ~ ~ ~ ~ ~ ~ ~ ~ ~ ~ ~ ~ ~ ~ ~ ~ ~ ~ ~ ~ ~ ! ) ' , > # + ",
"+ @ # & * = - ; ; ; ; ; ; ; ; ; ; ; ; ; ; ; ; ; ; ; ; ; ; ; ; ; - = * & # @ + ",
". + + @ # $ % % % % % % % % % % % % % % % % % % % % % % % % % % % $ # @ + + . ",
". . . + + + + + + + + + + + + + + + + + + + + + + + + + + + + + + + + + . . . "};
