/* XPM */
static char * digit_3_xpm[] = {
"39 40 146 2",
"  	c None",
". 	c #000000",
"+ 	c #020000",
"@ 	c #040000",
"# 	c #080002",
"$ 	c #0A0002",
"% 	c #0C0002",
"& 	c #0E0002",
"* 	c #150004",
"= 	c #1B0006",
"- 	c #1E0006",
"; 	c #210006",
"> 	c #110004",
", 	c #1D0006",
"' 	c #2B0009",
") 	c #35000B",
"! 	c #3B000B",
"~ 	c #3E000C",
"{ 	c #300009",
"] 	c #47000E",
"^ 	c #540010",
"/ 	c #5B0011",
"( 	c #5C0012",
"_ 	c #5B0012",
": 	c #280008",
"< 	c #35000A",
"[ 	c #B80024",
"} 	c #BF0025",
"| 	c #A40020",
"1 	c #650014",
"2 	c #6A0014",
"3 	c #C40026",
"4 	c #C10025",
"5 	c #7C0019",
"6 	c #730017",
"7 	c #680014",
"8 	c #600013",
"9 	c #630014",
"0 	c #520010",
"a 	c #46000E",
"b 	c #40000D",
"c 	c #C00026",
"d 	c #240007",
"e 	c #B00022",
"f 	c #C20026",
"g 	c #4A000E",
"h 	c #2D0009",
"i 	c #8E001B",
"j 	c #C30026",
"k 	c #0D0002",
"l 	c #B60023",
"m 	c #200006",
"n 	c #100003",
"o 	c #190005",
"p 	c #43000D",
"q 	c #B50023",
"r 	c #89001B",
"s 	c #030000",
"t 	c #AC0021",
"u 	c #41000C",
"v 	c #060002",
"w 	c #160004",
"x 	c #0F0003",
"y 	c #220007",
"z 	c #40000C",
"A 	c #9F001F",
"B 	c #110003",
"C 	c #2C0008",
"D 	c #010000",
"E 	c #BB0024",
"F 	c #42000D",
"G 	c #580011",
"H 	c #530010",
"I 	c #5E0012",
"J 	c #A80021",
"K 	c #97001D",
"L 	c #8C001B",
"M 	c #820019",
"N 	c #50000F",
"O 	c #AE0022",
"P 	c #700016",
"Q 	c #A80020",
"R 	c #2F0009",
"S 	c #070001",
"T 	c #31000A",
"U 	c #6C0015",
"V 	c #620013",
"W 	c #5D0012",
"X 	c #790018",
"Y 	c #5F0012",
"Z 	c #660014",
"` 	c #6B0014",
" .	c #750016",
"..	c #93001D",
"+.	c #8A001B",
"@.	c #AB0021",
"#.	c #1D0005",
"$.	c #92001C",
"%.	c #6F0015",
"&.	c #710016",
"*.	c #A70020",
"=.	c #3A000B",
"-.	c #230007",
";.	c #790017",
">.	c #33000A",
",.	c #B70023",
"'.	c #9A001E",
").	c #0B0002",
"!.	c #BD0025",
"~.	c #740017",
"{.	c #260007",
"].	c #4C000F",
"^.	c #B30023",
"/.	c #4F000F",
"(.	c #1C0006",
"_.	c #A2001F",
":.	c #8D001B",
"<.	c #230006",
"[.	c #99001E",
"}.	c #87001A",
"|.	c #3D000C",
"1.	c #6A0015",
"2.	c #670014",
"3.	c #6D0015",
"4.	c #730016",
"5.	c #690015",
"6.	c #220006",
"7.	c #4B000E",
"8.	c #560011",
"9.	c #280007",
"0.	c #2D0008",
"a.	c #2B0008",
"b.	c #270008",
"c.	c #BF0026",
"d.	c #C10026",
"e.	c #B20022",
"f.	c #3C000B",
"g.	c #780017",
"h.	c #9C001E",
"i.	c #9E001F",
"j.	c #810019",
"k.	c #7C0018",
"l.	c #840019",
"m.	c #830019",
"n.	c #8B001B",
"o.	c #510010",
". . . + + + + + + + + + + + + + + + + + + + + + + + + + + + + + + + + + . . . ",
". + + @ # $ % % % % % % % % % % % % % % % % % % % % % % % % % % % $ # @ + + . ",
"+ @ # & * = - ; ; ; ; ; ; ; ; ; ; ; ; ; ; ; ; ; ; ; ; ; ; ; ; ; - = * & # @ + ",
"+ # > , ' ) ! ~ ~ ~ ~ ~ ~ ~ ~ ~ ~ ~ ~ ~ ~ ~ ~ ~ ~ ~ ~ ~ ~ ~ ~ ~ ! ) ' , > # + ",
"@ & , { ] ^ / ( ( _ / / / / / / / / / / / / / / / / / / / _ ( ( / ^ ] { , & @ ",
"# * ' ] : < [ [ } | 1 2 1 | [ [ [ [ [ [ [ [ [ [ [ [ [ [ [ [ [ [ [ < : ] ' * # ",
"$ = ) ^ < [ [ [ 3 } 4 3 [ [ [ [ [ [ [ [ [ [ [ [ [ [ [ [ [ [ [ [ [ [ < ^ ) = $ ",
"% - ! / [ [ 5 6 7 8 _ / / / / / / / / / / / / / / / / / _ 8 7 6 5 [ [ / ! - % ",
"% ; ~ ( [ [ 6 9 0 a b ~ ~ ~ ~ ~ ~ | c ~ ~ ~ ~ ~ ~ ~ ~ ~ b a 0 9 6 [ [ ( ~ ; % ",
"% ; ~ ( [ [ 7 0 ! ' d ; ; ; ; ; ; e f g ; ; ; ; ; ; ; ; d ' ! 0 7 3 } ( ~ ; % ",
"% ; ~ _ [ [ 8 a ' ) { % % % % h i 3 j % k l _ : m % % % n o ' a 8 3 } _ ~ ; % ",
"% ; ~ / [ [ _ b d = * + + p q 3 3 r + + s 3 3 3 3 3 t u v n d b _ } | / ~ ; % ",
"% ; ~ / [ [ / ~ ; n # 3 3 3 w x + . . . . + y z _ A 3 3 } % ; ~ / 4 1 / ~ ; % ",
"% ; ~ / [ [ / ~ ; B 3 3 C . . . . D D . . . . . . . . E 3 % ; ~ / 3 2 / ~ ; % ",
"% ; ~ / [ [ / ~ ; F 3 3 G H I J 3 3 3 3 3 _ K 3 3 j 3 3 3 % ; ~ / [ 1 / ~ ; % ",
"% ; ~ / [ [ / ~ ; % L 3 3 3 3 3 3 3 3 3 M N p 1 3 3 3 O + % ; ~ / [ | / ~ ; % ",
"% ; ~ / | [ / ~ ; % + . . . . . . P 3 Q . . . . . . . . + % ; ~ / [ [ / ~ ; % ",
"% ; ~ / 1 [ / ~ ] R C S T U V W X 3 3 3 3 Y Z 7 V V V 1 `  .F ~ / [ [ / ~ ; % ",
"% ; ~ / 2 3 / ..f 3 3 +.3 3 3 3 3 3 3 3 j 3 3 3 3 3 3 3 3 3 @.~ / [ [ / ~ ; % ",
"% ; ~ / 1 4 / ~ ] T #.. . . . . . 3 3 3 $.. . . . . . . + % ; ~ / [ [ / ~ ; % ",
"% ; ~ / | } / ~ ; % + . . . . %.3 3 &.*.3 3 =.. . . . . + % ; ~ / [ [ / ~ ; % ",
"% ; ~ / } 3 / ~ ; % + . -.;.3 3 3 . . . >.3 3 ,.U -.. . + % ; ~ / [ [ / ~ ; % ",
"% ; ~ / [ [ / ~ ; % p '.3 4 ).+ . . . . . . % : 3 3 !.~.{.% ; ~ / [ [ / ~ ; % ",
"% ; ~ / [ [ / ].^.3 3 3 /.(.j _.I 3 3 3 3 3 3 ;.. :.3 3 3 3 <.~ / [ [ / ~ ; % ",
"% ; ~ / [ [ / [.f 3 N . . }.3 4 |.G 1.2.2.7 3.4.. . . >. .5.6.~ / [ [ / ~ ; % ",
"% ; ~ / [ [ / ~ 7.% + . . . . . . . . . . . . . . . . . + % ; ~ / [ [ / ~ ; % ",
"% ; ~ / [ [ / ~ ; % + . 8.H . _ U 2.2.2.2.2.2.2.3._ D . + % ; ~ / [ [ / ~ ; % ",
"% ; ~ / [ [ / ~ ; % + :.3 3 | l 3 3 3 3 3 3 3 3 3 3 D . + % ; ~ / [ [ / ~ ; % ",
"% ; ~ / [ [ _ b d n v + 9.0.+ + + + + + + + + + + + + + v n d b _ [ [ / ~ ; % ",
"% ; ~ _ [ [ 8 a ' o n % % % % % % % % % % % % % a.b.h { n o ' a 8 [ [ _ ~ ; % ",
"% ; ~ ( [ [ 7 0 c.d.f f f e.f f f f f f f f f f f f f f f d.f.0 7 [ [ ( ~ ; % ",
"% ; ~ ( [ [ 6 9 g.h.i.j.k.0 l.l.M M M M M M m.j.j.j.j.j.n.o.0 9 6 [ [ ( ~ ; % ",
"% - ! / [ [ 5 6 7 8 _ / / / / / / / / / / / / / / / / / _ 8 7 6 5 [ [ / ! - % ",
"$ = ) ^ < [ [ [ [ [ [ [ [ [ [ [ 3 4 } 3 [ [ [ [ [ [ [ [ [ [ [ [ [ [ < ^ ) = $ ",
"# * ' ] : < [ [ [ [ [ [ [ [ | 1 2 1 | } [ [ [ [ [ [ [ [ [ [ [ [ [ < : ] ' * # ",
"@ & , { ] ^ / ( ( _ / / / / / / / / / / / / / / / / / / / _ ( ( / ^ ] { , & @ ",
"+ # > , ' ) ! ~ ~ ~ ~ ~ ~ ~ ~ ~ ~ ~ ~ ~ ~ ~ ~ ~ ~ ~ ~ ~ ~ ~ ~ ~ ! ) ' , > # + ",
"+ @ # & * = - ; ; ; ; ; ; ; ; ; ; ; ; ; ; ; ; ; ; ; ; ; ; ; ; ; - = * & # @ + ",
". + + @ # $ % % % % % % % % % % % % % % % % % % % % % % % % % % % $ # @ + + . ",
". . . + + + + + + + + + + + + + + + + + + + + + + + + + + + + + + + + + . . . "};
