/* XPM */
static char * digit_2_xpm[] = {
"39 40 172 2",
"  	c None",
". 	c #000000",
"+ 	c #020000",
"@ 	c #040000",
"# 	c #080002",
"$ 	c #0A0002",
"% 	c #0C0002",
"& 	c #0E0002",
"* 	c #150004",
"= 	c #1B0006",
"- 	c #1E0006",
"; 	c #210006",
"> 	c #110004",
", 	c #1D0006",
"' 	c #2B0009",
") 	c #35000B",
"! 	c #3B000B",
"~ 	c #3E000C",
"{ 	c #300009",
"] 	c #47000E",
"^ 	c #540010",
"/ 	c #5B0011",
"( 	c #5C0012",
"_ 	c #5B0012",
": 	c #280008",
"< 	c #35000A",
"[ 	c #B80024",
"} 	c #BF0025",
"| 	c #A40020",
"1 	c #650014",
"2 	c #6A0014",
"3 	c #C40026",
"4 	c #C10025",
"5 	c #7C0019",
"6 	c #730017",
"7 	c #680014",
"8 	c #600013",
"9 	c #710016",
"0 	c #700016",
"a 	c #630014",
"b 	c #520010",
"c 	c #46000E",
"d 	c #40000D",
"e 	c #C00026",
"f 	c #620013",
"g 	c #88001A",
"h 	c #760017",
"i 	c #240007",
"j 	c #770017",
"k 	c #C20026",
"l 	c #6F0016",
"m 	c #C10026",
"n 	c #4D000F",
"o 	c #4F0010",
"p 	c #570011",
"q 	c #5E0013",
"r 	c #34000A",
"s 	c #2B0008",
"t 	c #3C000C",
"u 	c #720016",
"v 	c #6B0016",
"w 	c #6E0016",
"x 	c #610014",
"y 	c #7C0017",
"z 	c #530011",
"A 	c #AE0022",
"B 	c #580011",
"C 	c #C30026",
"D 	c #520011",
"E 	c #590011",
"F 	c #130004",
"G 	c #0D0003",
"H 	c #050001",
"I 	c #200006",
"J 	c #2A0008",
"K 	c #33000A",
"L 	c #250007",
"M 	c #060002",
"N 	c #160004",
"O 	c #1C0006",
"P 	c #41000D",
"Q 	c #510010",
"R 	c #4E000F",
"S 	c #560011",
"T 	c #0D0002",
"U 	c #010000",
"V 	c #B20022",
"W 	c #180004",
"X 	c #1A0005",
"Y 	c #AC0021",
"Z 	c #49000E",
"` 	c #780017",
" .	c #080001",
"..	c #6F0015",
"+.	c #630013",
"@.	c #5F0012",
"#.	c #4F000F",
"$.	c #50000F",
"%.	c #550010",
"&.	c #7B0018",
"*.	c #8F001C",
"=.	c #7A0018",
"-.	c #5D0012",
";.	c #44000D",
">.	c #6D0015",
",.	c #640013",
"'.	c #7C0018",
").	c #7F0019",
"!.	c #BA0024",
"~.	c #A80020",
"{.	c #690014",
"].	c #87001A",
"^.	c #6B0015",
"/.	c #6E0015",
"(.	c #830019",
"_.	c #790018",
":.	c #750017",
"<.	c #A80021",
"[.	c #A1001F",
"}.	c #9D001E",
"|.	c #BE0025",
"1.	c #C00025",
"2.	c #8C001B",
"3.	c #AF0022",
"4.	c #BB0024",
"5.	c #B90024",
"6.	c #4B000E",
"7.	c #070001",
"8.	c #770016",
"9.	c #9E001F",
"0.	c #43000D",
"a.	c #790017",
"b.	c #3F000C",
"c.	c #8B001B",
"d.	c #220007",
"e.	c #A90021",
"f.	c #100003",
"g.	c #680015",
"h.	c #1C0005",
"i.	c #5A0011",
"j.	c #52000F",
"k.	c #820018",
"l.	c #6C0015",
"m.	c #8D001B",
"n.	c #110003",
"o.	c #BD0025",
"p.	c #2C0009",
"q.	c #A0001F",
"r.	c #B40023",
"s.	c #BC0025",
"t.	c #BC0024",
"u.	c #A50020",
"v.	c #640014",
"w.	c #290007",
"x.	c #90001C",
"y.	c #B10022",
"z.	c #39000B",
"A.	c #530010",
"B.	c #190005",
"C.	c #220006",
"D.	c #45000E",
"E.	c #3C000B",
"F.	c #95001D",
"G.	c #230007",
"H.	c #A90020",
"I.	c #230006",
"J.	c #BF0026",
"K.	c #690015",
"L.	c #91001C",
"M.	c #96001D",
"N.	c #810019",
"O.	c #610013",
". . . + + + + + + + + + + + + + + + + + + + + + + + + + + + + + + + + + . . . ",
". + + @ # $ % % % % % % % % % % % % % % % % % % % % % % % % % % % $ # @ + + . ",
"+ @ # & * = - ; ; ; ; ; ; ; ; ; ; ; ; ; ; ; ; ; ; ; ; ; ; ; ; ; - = * & # @ + ",
"+ # > , ' ) ! ~ ~ ~ ~ ~ ~ ~ ~ ~ ~ ~ ~ ~ ~ ~ ~ ~ ~ ~ ~ ~ ~ ~ ~ ~ ! ) ' , > # + ",
"@ & , { ] ^ / ( ( _ / / / / / / / / / / / / / / / / / / / _ ( ( / ^ ] { , & @ ",
"# * ' ] : < [ [ } | 1 2 1 | [ [ [ [ [ [ [ [ [ [ [ [ [ [ [ [ [ [ [ < : ] ' * # ",
"$ = ) ^ < [ [ [ 3 } 4 3 [ [ [ [ [ [ [ [ [ [ [ [ [ [ [ [ [ [ [ [ [ [ < ^ ) = $ ",
"% - ! / [ [ 5 6 7 8 _ / / / / / / / / / / / / 9 0 / / / _ 8 7 6 5 [ [ / ! - % ",
"% ; ~ ( [ [ 6 a b c d ~ ~ ~ ~ ~ ~ ~ ~ ~ ~ ~ ~ e e f ~ ~ g h b a 6 [ [ ( ~ ; % ",
"% ; ~ ( [ [ 7 b ! ' i ; ; ; ; ; ; ; ; ; ; ; ; j k ; ; l k m ! b 7 3 } ( ~ ; % ",
"% ; ~ _ [ [ 8 c n o ] p q % r { s t u v w w x y 3 u z 3 A B 7 c 8 3 } _ ~ ; % ",
"% ; ~ / [ [ _ d k k k 3 3 B 3 3 3 3 3 3 3 3 3 3 3 3 3 3 3 C k D _ } | / ~ ; % ",
"% ; ~ / [ [ / ~ E p F G . . . H . . . . . . . f 3 3 I . J K L ~ / 4 1 / ~ ; % ",
"% ; ~ / [ [ / ~ ; % M N . $ O P Q R R ^ S L . . 3 3 . . + % ; ~ / 3 2 / ~ ; % ",
"% ; ~ / [ [ / ~ ; T 3 3 3 k 3 3 3 3 3 3 3 3 U . V A . . + % ; ~ / [ 1 / ~ ; % ",
"% ; ~ / [ [ / ~ ; % W X . U . . . . . . . . . . } Y . . + % ; ~ / [ | / ~ ; % ",
"% ; ~ / | [ / ~ Z ` T  ..._ 8 +.@.#.$.$.%.f &.{ *.3 . . + % ; ~ / [ [ / ~ ; % ",
"% ; ~ / 1 [ / ~ k 3 3 =.3 3 3 3 3 3 3 3 3 3 3 -.;.3 . . + % ; ~ / [ [ / ~ ; % ",
"% ; ~ / 2 3 / ~ ; % + . . . . . . . . . . . . . >.3 ,.. + % ; ~ / [ [ / ~ ; % ",
"% ; ~ / 1 4 / ~ ; % + ..'.Q B ).A !.!.~.7 {.I . . 3 ].. + % ; ~ / [ [ / ~ ; % ",
"% ; ~ / | } / ~ ; % 3 3 3 ^./.(._.:.>.<.3 3 3 . . [.}.. + % ; ~ / [ [ / ~ ; % ",
"% ; ~ / } 3 / ~ ; % 3 ].. . . . . . . . . =.3 ].. J 3 . + % ; ~ / [ [ / ~ ; % ",
"% ; ~ / [ [ / ~ ; % 3 3 3 |.1.|.2.3.4.5.Z . k . . . 3 6.+ % ; ~ / [ [ / ~ ; % ",
"% ; ~ / [ [ / ~ ; % 3 (.! Q b + + 7.7 P U . 3 . . . 3 A + % ; ~ / [ [ / ~ ; % ",
"% ; ~ / [ [ / ~ ; 8.3 9.0.Q b a.b.B j c.d.^ 3 :.. . e.3 f.% ; ~ / [ [ / ~ ; % ",
"% ; ~ / [ [ / ~ ; g.3 3 } 4.4.!.f [ 5.[ h.0.3 i.. . ;.3 j.% ; ~ / [ [ / ~ ; % ",
"% ; ~ / [ [ / ~ ; k.3 . . . . . . . . . . l.3 m.. . n.3 o.% ; ~ / [ [ / ~ ; % ",
"% ; ~ / [ [ / ~ ; p.3 3 q.q.[.r.s.t.u.9.Y 3 3 h . . . 3 3 v.; ~ / [ [ / ~ ; % ",
"% ; ~ / [ [ _ d i f.w.,.3 3 3 3 x.e.3 3 y.z.A.+ + + + R 3 C i d _ [ [ / ~ ; % ",
"% ; ~ _ [ [ 8 c ' B.f.C.3 3 D.% % % h.3 3 % % % % % % % C k m n 8 [ [ _ ~ ; % ",
"% ; ~ ( [ [ 7 b E.e.k k F.; ; ; ; ; ; G.o.k k H.I.; ; ; i m e } 7 [ [ ( ~ ; % ",
"% ; ~ ( [ [ 6 a A.J.e K.~ ~ ~ ~ ~ ~ ~ ~ ~ L.e J.b.~ ~ ~ d c M.N.6 [ [ ( ~ ; % ",
"% - ! / [ [ 5 6 7 O.( / / / / / / / / / / / / / / / / / _ 8 7 6 5 [ [ / ! - % ",
"$ = ) ^ < [ [ [ [ [ [ [ [ [ [ [ 3 4 } 3 [ [ [ [ [ [ [ [ [ [ [ [ [ [ < ^ ) = $ ",
"# * ' ] : < [ [ [ [ [ [ [ [ | 1 2 1 | } [ [ [ [ [ [ [ [ [ [ [ [ [ < : ] ' * # ",
"@ & , { ] ^ / ( ( _ / / / / / / / / / / / / / / / / / / / _ ( ( / ^ ] { , & @ ",
"+ # > , ' ) ! ~ ~ ~ ~ ~ ~ ~ ~ ~ ~ ~ ~ ~ ~ ~ ~ ~ ~ ~ ~ ~ ~ ~ ~ ~ ! ) ' , > # + ",
"+ @ # & * = - ; ; ; ; ; ; ; ; ; ; ; ; ; ; ; ; ; ; ; ; ; ; ; ; ; - = * & # @ + ",
". + + @ # $ % % % % % % % % % % % % % % % % % % % % % % % % % % % $ # @ + + . ",
". . . + + + + + + + + + + + + + + + + + + + + + + + + + + + + + + + + + . . . "};
