/* XPM */
static char * digit_3_xpm[] = {
"40 40 222 2",
"  	c None",
". 	c #943900",
"+ 	c #944200",
"@ 	c #9C4A00",
"# 	c #A55200",
"$ 	c #AD5A00",
"% 	c #B55A00",
"& 	c #B56300",
"* 	c #BD6B00",
"= 	c #C66B00",
"- 	c #C67300",
"; 	c #CE7300",
"> 	c #CE7B00",
", 	c #D67B00",
"' 	c #D68400",
") 	c #DE8400",
"! 	c #DE8C00",
"~ 	c #E78C00",
"{ 	c #E79400",
"] 	c #EF9400",
"^ 	c #EF9C00",
"/ 	c #9C4200",
"( 	c #948439",
"_ 	c #946B39",
": 	c #A57B52",
"< 	c #AD844A",
"[ 	c #947B42",
"} 	c #847B10",
"| 	c #947342",
"1 	c #AD7363",
"2 	c #9C7352",
"3 	c #A58C52",
"4 	c #9C845A",
"5 	c #B58C73",
"6 	c #946B52",
"7 	c #AD8C5A",
"8 	c #846B4A",
"9 	c #A58473",
"0 	c #B58473",
"a 	c #BD846B",
"b 	c #AD7B63",
"c 	c #CE9484",
"d 	c #C68C7B",
"e 	c #B58C6B",
"f 	c #A57B31",
"g 	c #C68C29",
"h 	c #D69431",
"i 	c #B58439",
"j 	c #B58C84",
"k 	c #9C735A",
"l 	c #946B63",
"m 	c #9C7B6B",
"n 	c #947373",
"o 	c #AD7352",
"p 	c #C69484",
"q 	c #B58463",
"r 	c #BD9484",
"s 	c #C68C4A",
"t 	c #C68418",
"u 	c #D69421",
"v 	c #9C7B63",
"w 	c #B5847B",
"x 	c #AD8C73",
"y 	c #AD847B",
"z 	c #BD8C6B",
"A 	c #A57352",
"B 	c #C68C73",
"C 	c #C68431",
"D 	c #C67308",
"E 	c #DE8C10",
"F 	c #B58452",
"G 	c #B58C7B",
"H 	c #94736B",
"I 	c #9C7373",
"J 	c #C6844A",
"K 	c #BD7310",
"L 	c #C67B21",
"M 	c #BD8442",
"N 	c #BD844A",
"O 	c #AD8473",
"P 	c #9C7B5A",
"Q 	c #CE9442",
"R 	c #E79410",
"S 	c #C6945A",
"T 	c #BD9C84",
"U 	c #A5846B",
"V 	c #CE9C84",
"W 	c #B56B21",
"X 	c #BD6300",
"Y 	c #BD7B31",
"Z 	c #BD9473",
"` 	c #B58C5A",
" .	c #E79408",
"..	c #C69463",
"+.	c #AD8C84",
"@.	c #A58C73",
"#.	c #9C6331",
"$.	c #B58C63",
"%.	c #D6AD94",
"&.	c #C68C5A",
"*.	c #AD846B",
"=.	c #A56B42",
"-.	c #9C6B39",
";.	c #B59484",
">.	c #9C6B5A",
",.	c #C6946B",
"'.	c #DE9421",
").	c #9C8452",
"!.	c #AD735A",
"~.	c #944A10",
"{.	c #9C5210",
"].	c #C69C84",
"^.	c #BD947B",
"/.	c #B58442",
"(.	c #C68C39",
"_.	c #CE8421",
":.	c #D68408",
"<.	c #A5734A",
"[.	c #944A08",
"}.	c #A56B39",
"|.	c #B57B4A",
"1.	c #AD734A",
"2.	c #A57339",
"3.	c #BD7321",
"4.	c #BD6B08",
"5.	c #BD7308",
"6.	c #DE8C08",
"7.	c #D68C31",
"8.	c #D69442",
"9.	c #D6A58C",
"0.	c #945221",
"a.	c #AD5200",
"b.	c #AD6300",
"c.	c #C67B10",
"d.	c #BD8452",
"e.	c #D68C18",
"f.	c #D69C84",
"g.	c #9C6B42",
"h.	c #944A18",
"i.	c #9C4A08",
"j.	c #A55208",
"k.	c #AD5A08",
"l.	c #AD6B29",
"m.	c #B57342",
"n.	c #AD7342",
"o.	c #B5845A",
"p.	c #946B4A",
"q.	c #CEA58C",
"r.	c #B5947B",
"s.	c #C6A58C",
"t.	c #9C5A29",
"u.	c #9C736B",
"v.	c #AD8C7B",
"w.	c #AD7B52",
"x.	c #AD7339",
"y.	c #B57339",
"z.	c #B57B42",
"A.	c #BD7B42",
"B.	c #B57B31",
"C.	c #CE8C42",
"D.	c #CE947B",
"E.	c #B5735A",
"F.	c #A55A31",
"G.	c #AD6B42",
"H.	c #AD6B4A",
"I.	c #AD6331",
"J.	c #944208",
"K.	c #9C5221",
"L.	c #A55A08",
"M.	c #B56310",
"N.	c #B56308",
"O.	c #CE7B08",
"P.	c #B57352",
"Q.	c #9C6342",
"R.	c #9C6B4A",
"S.	c #AD8463",
"T.	c #A57B63",
"U.	c #B57331",
"V.	c #C68C63",
"W.	c #A56B4A",
"X.	c #DEA594",
"Y.	c #9C634A",
"Z.	c #B56B31",
"`.	c #945A42",
" +	c #C6947B",
".+	c #B56B29",
"++	c #AD6B31",
"@+	c #9C5A31",
"#+	c #9C6339",
"$+	c #A56331",
"%+	c #B56B08",
"&+	c #A58C63",
"*+	c #AD9463",
"=+	c #AD6308",
"-+	c #A59452",
";+	c #AD7B4A",
">+	c #AD6B52",
",+	c #946339",
"'+	c #945A29",
")+	c #A56339",
"!+	c #9C5A39",
"~+	c #945A39",
"{+	c #945A31",
"]+	c #B59473",
"^+	c #BD8463",
"/+	c #C69C7B",
"(+	c #A58463",
"_+	c #DEB594",
":+	c #9C4A10",
"<+	c #9C5218",
"[+	c #BD8C7B",
"}+	c #AD9473",
"|+	c #A5735A",
"1+	c #A57B5A",
"2+	c #D6A584",
"3+	c #AD7B5A",
"4+	c #A55A29",
"5+	c #B5734A",
"6+	c #B57B52",
"7+	c #9C5A21",
"8+	c #B59C6B",
"9+	c #946331",
". + . + + + @ @ @ @ # # # $ $ $ % & & & * * * = - - ; > > , ' ' ) ! ! ~ { { ] ^ ",
"+ . + . + + + / @ @ @ # # # $ $ $ $ & & & * * * = - - ; > > > ' ' ) ! ! ! { { ] ",
". + ( _ : : < _ [ } : < < | : _ : : ( 1 ( 2 3 4 [ 3 5 6 | : 7 : 8 3 3 6 9 ( ~ { ",
"+ + | 0 a a b c d b b e 0 [ 3 5 2 f g h i 8 3 3 6 9 j k 9 b l m l n l 8 k | ! { ",
". . 5 o a c d 1 a p q p d r a s t ! ~ { u l n v 8 k 9 r j 9 w 9 n m x y 9 6 ! ~ ",
"+ + < 0 z o 1 a c a A 0 B C D > , ' ! E F n m 9 w 9 a 0 G w y 9 k H n I j 8 ! ! ",
"+ . : 1 p d c a 1 d p J K * - D L M N O 9 P m n n Q { R S j O G 9 T 9 k O U ) ! ",
". + < b a 1 a p V q W % & X Y Z y r G O j 9 T 9 k `  .^ ] ..n +.9 +.@.H 9 3 ) ! ",
"+ . : a b V c y G #.# $ W $.9 9 %.9 +.w y O k 9 m 9 &.R ^  ...p n I 9 *.l | ' ' ",
"+ + < p c d d +.=.@ # -.y 9 k k j d j +.r ;.j U 9 >.,.'.^ ]  ...y r ;.9 9 ).' ' ",
". . 5 d !.b p G ~./ {.j ].m +.+.].p U G U ^./.(._.:.! { { { ^ ^ <.w 9 k k ).> ' ",
"+ + 3 d c d o U ~.+ [.=.#.}.|.1.|.N 2.3.4.5.; > > ' 6.:.7.h ^ { 8.T m +.+.[ > , ",
". + 8 p 9.1 *.m e 0.. + + @ @ # a.$ b.& * * c.K M d.,.].9 j e.] (.v 9 r +.| > > ",
"+ . 4 a 0 9.f.G 9 w g.h.[.{.i.@ # j.k.l.m.n.k U r +.;.].H ].o.i Z k j U 9 p.> > ",
". + < a 1 1 q j w y 9 k m 6 h.+ @ o G j 9 j U j 9 9 q.m r.q.s.r q.+.*.+.9 3 - > ",
"+ . e Z f.o 1 G j 9 j 9 ;.h.+ + t.v G r.u.v.w.x.m.y.z.z.M A.M M B.C...T r ).- - ",
". + 5 a G d D.E.F.G.H.I.~.+ + . J.[.i.i.j.j.# $ & & * * - - ; > ' ' ! 1.+.3 = - ",
"+ . [ f.e K.J.[.. + . + + . + + + + + + @ i.L.k.L.M.N.& * - 5.c.O.O.7.0 8 ).* - ",
"+ . | d P.. + . [.h.+ . + J.Q.R.6 1 S.6 T.T.v.9 m 9 5 U.& X K V.n G T +.+.3 * = ",
". + : d D.H.Q.W.H S.J.+ J.2 9 X.9 +.y w 9 k I U T.Y.G G Z.& * 4.q @.+.9 G ( * * ",
"+ . _ *.c b +.w y ~.. + `.k k j  +j +.r r.W.W.{.i.@ .+9 +.++% & 4.` r +.m ( X * ",
"+ + ).c p d j y @++ + #.m +.+.].^.A o #+~.. + + + i.$+p j v.++N.& %+z T ;.&+& X ",
". . *+S.b 1 9 A + . ~.6 9 r.W.@+~.+ . . + + J.~.R.y ].p 9 r 9 q =+& %+e +.-+& & ",
"+ + [ ^.a X.p.[.. J.S.k o ~.. + . . [.h.#.1.p.U r +.;.T m ].9 n ;+M.M.` H p.& & ",
". + 8 ].0 >+[.. + ,+n H [.. + J.'+W.O y O l k j 9 9 q.m r.q.T r q.v r.+.9 ).b.& ",
"+ . -+d p )++ + !+U P m >.~+W.r.w j j 9 G U v.A T.g.=.{+<.y k ;.8 v.9 @.]+).$ % ",
"+ . ).d ^++ . 0.O j 9 ;.9 l 9 9 m G r.`.W.~.~.+ . . + . + T r r.r v.k 8 9 ( $ $ ",
". + U y >+J.h.=./+S.q d (+_+Z w.n.:+[.. + . . . + J.<+t.W.T s.r T 9 k r.r.2 $ $ ",
"+ . 4 r b a [+c 9.a V q p 6 =.. + . + + ~.[.#.g.T.8 v.m j ]+y }+s.r @.v.]+&+# $ ",
"+ . &+1 a V f.d V a 9.r.a ;.|+-.,+W.1+T.x ].j ].+.+.].;.x (+r s.;.T @.9 H ).# $ ",
". + ]+c p c c c X.d 2+f.r.w r.s.;.x (+r s.;.@.+.9 r.].;.r T x U T m m O }+_ # # ",
"+ . ).1 U b p c ].e V p S._+s.T r r.T x U r.3+=.W.,+n.4+t.[.J.J.g.H }+P k 7 # # ",
". + }+G k Z d d b c 3+H.)+1.5+6+5+K.J.[.~.~.+ + . + . + + . + . g.]+m v.H [ @ @ ",
"+ . &+9 p %.1 r.q D.~.. + + + + + + . + . . + J.~.J.7+<.<.1.3+1+}+}+T P ;.7 @ # ",
"+ + U w r ^+d c ].r I.[.~.~.~.~.~.~.~.#+=.g.W.S.x v q.q.v.;.;.}+G }+v 9 &+p.@ @ ",
"+ . | (+P b G a r.f.j 9.r q.V q.V x r.r r.}+m ;.+.9 q.;.]+v.]+r.k @.m H m | @ @ ",
". + }+y ^.p p r.a r.a /+G q.;.q.;.]+v.}+}+k v.9 @.]+9 9 x *.9 k v.}+m U m ).+ @ ",
"+ + *+3 7 7 &+8+4 U *+]+7 4 7 8+).*+-+-+).*+| _ -+&+: ( ).).| | | p.'+9+_ 9++ + ",
". + . + . + . . . . + . + . + . + . + . . + + + . + + . + . + . + + + + + . + + ",
"+ . + . + . + + + + + + . + . + . + . + + . + . + + . + + . + + . + + . + . + + "};
