/* XPM */
static char * digit_1_xpm[] = {
"40 40 234 2",
"  	c None",
". 	c #94B5D6",
"+ 	c #94ADD6",
"@ 	c #94A5CE",
"# 	c #8C9CCE",
"$ 	c #8494C6",
"% 	c #7B94BD",
"& 	c #7B8CBD",
"* 	c #737BB5",
"= 	c #6B7BAD",
"- 	c #6B73AD",
"; 	c #6B73A5",
"> 	c #636BA5",
", 	c #5A639C",
"' 	c #525A94",
") 	c #525294",
"! 	c #424A8C",
"~ 	c #4A4284",
"{ 	c #423984",
"] 	c #39397B",
"^ 	c #392973",
"/ 	c #312973",
"( 	c #29216B",
"_ 	c #84A5CE",
": 	c #7B84B5",
"< 	c #738CB5",
"[ 	c #52528C",
"} 	c #42397B",
"| 	c #39296B",
"1 	c #311863",
"2 	c #948439",
"3 	c #946B39",
"4 	c #A57B52",
"5 	c #AD844A",
"6 	c #947B42",
"7 	c #847B10",
"8 	c #AD7352",
"9 	c #AD846B",
"0 	c #9C8452",
"a 	c #A58C52",
"b 	c #9C7B5A",
"c 	c #BD8C6B",
"d 	c #946B52",
"e 	c #846B4A",
"f 	c #A58473",
"g 	c #211063",
"h 	c #947342",
"i 	c #BD846B",
"j 	c #AD7B63",
"k 	c #CE9484",
"l 	c #C68C7B",
"m 	c #B5846B",
"n 	c #B59473",
"o 	c #94BDD6",
"p 	c #8CBDD6",
"q 	c #847B73",
"r 	c #B58C84",
"s 	c #94735A",
"t 	c #AD8C73",
"u 	c #946B63",
"v 	c #9C7B6B",
"w 	c #947373",
"x 	c #947363",
"y 	c #B59C6B",
"z 	c #AD7B6B",
"A 	c #C69484",
"B 	c #BD9484",
"C 	c #9C735A",
"D 	c #8CBDDE",
"E 	c #84BDE7",
"F 	c #9494A5",
"G 	c #B5847B",
"H 	c #29185A",
"I 	c #8C9CC6",
"J 	c #94949C",
"K 	c #94C6E7",
"L 	c #A5ADB5",
"M 	c #A5A5AD",
"N 	c #949CAD",
"O 	c #84ADD6",
"P 	c #7BB5DE",
"Q 	c #8C9494",
"R 	c #A57B7B",
"S 	c #AD8C84",
"T 	c #AD847B",
"U 	c #AD8484",
"V 	c #947B6B",
"W 	c #BD8C84",
"X 	c #18085A",
"Y 	c #AD7363",
"Z 	c #A5BDD6",
"` 	c #8CC6EF",
" .	c #7BADD6",
"..	c #739CCE",
"+.	c #7B9CC6",
"@.	c #6B94C6",
"#.	c #7394BD",
"$.	c #8C8C9C",
"%.	c #848494",
"&.	c #8C8494",
"*.	c #948C94",
"=.	c #9C847B",
"-.	c #A58C63",
";.	c #21085A",
">.	c #ADADB5",
",.	c #B5B5B5",
"'.	c #A5A5A5",
").	c #6B9CC6",
"!.	c #638CBD",
"~.	c #6384BD",
"{.	c #6384B5",
"].	c #637BB5",
"^.	c #5A7BB5",
"/.	c #5A73AD",
"(.	c #5A73A5",
"_.	c #B59C8C",
":.	c #B59484",
"<.	c #D6AD94",
"[.	c #A58C73",
"}.	c #847B8C",
"|.	c #8C8C94",
"1.	c #7B8494",
"2.	c #7B84A5",
"3.	c #737B9C",
"4.	c #636B94",
"5.	c #7B738C",
"6.	c #C69C84",
"7.	c #948C9C",
"8.	c #6B8CB5",
"9.	c #7B84BD",
"0.	c #AD9494",
"a.	c #949CA5",
"b.	c #9CA5AD",
"c.	c #9C9CA5",
"d.	c #848CAD",
"e.	c #6373A5",
"f.	c #526394",
"g.	c #6B638C",
"h.	c #9C8484",
"i.	c #DEA594",
"j.	c #B58463",
"k.	c #94A5BD",
"l.	c #526BA5",
"m.	c #52639C",
"n.	c #4A639C",
"o.	c #4A5294",
"p.	c #7B6B7B",
"q.	c #9C8C84",
"r.	c #6B84AD",
"s.	c #5A6394",
"t.	c #736B8C",
"u.	c #736B7B",
"v.	c #8C738C",
"w.	c #73637B",
"x.	c #CEA58C",
"y.	c #B5947B",
"z.	c #7B7384",
"A.	c #7B6384",
"B.	c #847384",
"C.	c #7B637B",
"D.	c #C6A58C",
"E.	c #8C94AD",
"F.	c #73739C",
"G.	c #737394",
"H.	c #394284",
"I.	c #31317B",
"J.	c #313173",
"K.	c #292973",
"L.	c #5A426B",
"M.	c #738CBD",
"N.	c #947B8C",
"O.	c #5263A5",
"P.	c #4A5A9C",
"Q.	c #425294",
"R.	c #4A4273",
"S.	c #42427B",
"T.	c #524A73",
"U.	c #634A7B",
"V.	c #393173",
"W.	c #52396B",
"X.	c #846B7B",
"Y.	c #8C7B84",
"Z.	c #423163",
"`.	c #18105A",
" +	c #8C6B7B",
".+	c #8484A5",
"++	c #7B7B94",
"@+	c #847B94",
"#+	c #8C7B7B",
"$+	c #CEA594",
"%+	c #73526B",
"&+	c #84636B",
"*+	c #84736B",
"=+	c #5A5A8C",
"-+	c #393973",
";+	c #312163",
">+	c #8C6B73",
",+	c #6B4A5A",
"'+	c #947B94",
")+	c #4A3163",
"!+	c #94737B",
"~+	c #AD9463",
"{+	c #6B5273",
"]+	c #42316B",
"^+	c #31215A",
"/+	c #7B6373",
"(+	c #A59452",
"_+	c #8C737B",
":+	c #9C7B7B",
"<+	c #735263",
"[+	c #8C6B63",
"}+	c #392963",
"|+	c #735A7B",
"1+	c #635263",
"2+	c #C68C84",
"3+	c #84635A",
"4+	c #C69C7B",
"5+	c #6B526B",
"6+	c #735A73",
"7+	c #63426B",
"8+	c #31185A",
"9+	c #A58463",
"0+	c #CEAD94",
"a+	c #DEB594",
"b+	c #523963",
"c+	c #634A63",
"d+	c #392163",
"e+	c #634A73",
"f+	c #4A396B",
"g+	c #73525A",
"h+	c #AD8C5A",
"i+	c #5A425A",
"j+	c #A57B73",
"k+	c #945A29",
". + + @ # # $ $ $ % & & * * * = = - ; > > , , , ' ) ) ! ! ~ { { ] ] ] ^ / / ( ( ",
"+ + @ # # _ $ % $ & & : < * = = - ; > > , , , ) ) [ [ [ ~ { ! } } ] ^ / | ( ( 1 ",
"+ @ 2 3 4 5 5 3 6 7 4 5 5 6 8 3 5 4 2 9 6 0 a b 6 a c d 6 8 a 4 e a a d f 2 1 g ",
"# # h i i i j k l j j m i 6 a n d h 4 o p q a a d f r s t j u v u w x e x h g g ",
"# # y 8 i k l z m A 9 A B r r r C f 9 D E F w x e x t B r f G f w v t G f d g H ",
"# I 5 i i 8 J K K K D K K K K o L M N O P _ Q R S t T U r G T t C V w w W e g X ",
"# $ 4 Y W A Z ` ` ` ` ` ` ` ` E E P P P  . ...+.% @.#.< < $.%.&.%.*.=.C f -.;.X ",
"$ $ 5 j i Y c >.,.'.'.>.o D p p O _  . .......).@.#.!.~.{.].^././.(., V f a X X ",
"$ % 8 c j k k T l w B T _.:.f f <.[.F +...#.}.|.1.2.2.2.2.3.3.3.4.4.5.f u h X ;.",
"% & 5 l k l l S T G f C T f C x r A G % @.#.:.t f u B G G W w B G B :.9 t 0 X X ",
"& & n l Y j A r S :.B r 6.v S S 6.A f 7.!.8.v :.f f <.f S T T f s T t x s 0 X X ",
"& 9.a l k l 4 9 0.a.b.$.|.$.c.F J c.}.d.{.= 7.}.e.(., , , f.' g.h.B v S r 6 ;.X ",
"9.* e l i.Y j.V k. .....).).@.!.!.~.{.^.^././.l.l.m.m.n.o.o.! ! p.C f B S h X X ",
"* * a i i i.k r q.+.% #.#.< < < r.= = e.e.(., s., s.' t.u.v.p.w.:.s r f f h X ;.",
"* * 5 c Y Y j.G G T f b V w w r :.T G r t G 9 r 9 f x.v y.x.B :.x.S 9 S f a X X ",
"* = n i k 8 j r r f r f B f C f f v :.:.w h.z.p.A.p.B.p.A.C.C.w s r D.B B 0 X X ",
"= - c i y.E.@.h.Y l A k =.|.%.F.G.G.s.f.' o.! ! ! H.H.I.I.J.K./ | L.9 u S a X ;.",
"- - 6 k n M.!.d.0.N.3.= (.l.l.O.n.P.o.Q.! ! [ ! R.S.} T.U.V.| ( g g W.T e 0 X X ",
"; > h l k < {.^.^././.l.l., s.s.u.B.N.X.Y.w T 9 V 9 r G r G G R Z.`.X  +S a ;.X ",
"; > 4 l k .+/./.e.3.G.++@+#+f $+f S G T t b w f f u :.G T :.w B %+;.X &+y.2 X X ",
"> 4.h j k #+/.e.T f *+s.=+[ [ [ ~ ~ ! S.} -+-+V.| | | ;+;+>+G f ,+X X  +v 2 ;.X ",
"> , 0 k 6.'+m., :.B v.Q.! ! H.H.H.] J.J./ K.( ( g g `.X X )+:.:.L.X ;.!+B -.X X ",
", , ~+j.j X.n.P.z.:.f &+u.B.A.B.X.{+X.R.| ]+| ;+;+1 ^+1 H /+f :.H ;.;.[.S (+;.X ",
", , 6 y.i 0.o.o.p.w B s l f f x.v y._.!+_+:+<+[+S R :.6.V 6.9 w W.}+{+t v h X X ",
", ) h A i Y g.[ !+f w v q |+R.| J.| ;+g ;.`.X 1 H H L.1+G x._.B x.V B S f 0 X X ",
") ) (+2+B i r T G f [+T./ ( ( ( g g ;.`.X ;.`.X X X X X H L.3+B e t f [.n 0 X ;.",
"' ) 0 l k 4+G r f l T.K.( ;+W.5+1+%+6+7+6+5+%+/+/+W.8+;.X X 1 f r y.b e f 2 X X ",
") ! 9+T l Y j 8 4+9+| ( )+0+6.6.D.a+B B y.G v t u S B !+7+;.X /+6.f s y.y.0 ;.X ",
"! [ b A j c l k x.i ]+g }+d y.6.:.r 6.D.B B B S T e y.V T H X 5+D.:.[.t n -.X X ",
"[ ~ -.Y i x.k l k i 6+X ;.H Z.)+)+5+5+5+5+/+%+6+{+L.)+)+H X `.>+:.6.[.f v 0 X X ",
"~ { n k A k k k i.l x.7+X ;.X X X `.X X `.X X X ;.X `.;.`.;.b+w B V v f y.3 ;.X ",
"! { 0 Y 9 j 6.k 6.i k W H X H W.H 8+;+8+H 8+;+8+;+;.X H {+f n y.[.v t C s a X X ",
"} } n G s i l l j k j.l Z.X ;+<.x.B y.t y.f :.B _+;.;.L.x.D.[.n [.n V y.v h X X ",
"{ ] -.[.A i.Y T <+%+c+/+d+X ;.e+/+/+/+5+%+)+)+)+^+`.X }+f+)+)+Z.)+)+f+g+:.h+X ;.",
"} ] 9+T A m l &+X ;.;.X X ;.X X X X X X X `.X X X ;.X X ;.X `.X X X `.7+-.h `.X ",
"] ^ h 9 b j G u ^+1 H 1 8+;+1 ;+1 8+8+;+8+8+H 1 H )+/+6+5+5+5+%+i+1+c+[+v h X X ",
"V./ n T y.A A y.j+G m 4+T D.:.6.:.t T t t x t f [.n f t 9 t 9 s y.n V f v 0 X ;.",
"/ / y a h+h+-.y 9+9+~+n h+b h+y 0 ~+(+(+0 ~+h 3 (+9+a 2 0 0 h h h h k+k+h k+X `.",
"/ ( ( ( g g ;.X X X X X X X X X X X X X X X X X X X X X X X X X X X `.X X X ;.X ",
"( ( ( 1 g g ;.`.;.`.;.X `.;.X X ;.X X X X X ;.X X X X X X ;.X X ;.X ;.X `.;.X X "};
