/* XPM */
static char * digit_8_xpm[] = {
"40 40 188 2",
"  	c None",
". 	c #005A63",
"+ 	c #006363",
"@ 	c #086363",
"# 	c #106B63",
"$ 	c #106B6B",
"% 	c #186B6B",
"& 	c #18736B",
"* 	c #21736B",
"= 	c #297B73",
"- 	c #317B73",
"; 	c #318473",
"> 	c #398473",
", 	c #398C7B",
"' 	c #428C7B",
") 	c #4A947B",
"! 	c #529C84",
"~ 	c #5A9C84",
"{ 	c #63A584",
"] 	c #6BA58C",
"^ 	c #6BAD8C",
"/ 	c #73AD8C",
"( 	c #73B58C",
"_ 	c #7BB594",
": 	c #005A5A",
"< 	c #106363",
"[ 	c #52947B",
"} 	c #5AA584",
"| 	c #63A58C",
"1 	c #948439",
"2 	c #946B39",
"3 	c #A57B52",
"4 	c #AD7352",
"5 	c #AD844A",
"6 	c #947B42",
"7 	c #847B10",
"8 	c #947342",
"9 	c #AD7363",
"0 	c #9C8452",
"a 	c #A58C52",
"b 	c #9C7B63",
"c 	c #BD8C6B",
"d 	c #946B52",
"e 	c #AD8C5A",
"f 	c #846B4A",
"g 	c #BD846B",
"h 	c #AD7B63",
"i 	c #CE9484",
"j 	c #C68C7B",
"k 	c #B59473",
"l 	c #A59452",
"m 	c #A58473",
"n 	c #B58C84",
"o 	c #946B63",
"p 	c #9C7B6B",
"q 	c #947373",
"r 	c #C69484",
"s 	c #BD9484",
"t 	c #BD947B",
"u 	c #94735A",
"v 	c #8C9C84",
"w 	c #8C9C7B",
"x 	c #B5847B",
"y 	c #7BB58C",
"z 	c #84B58C",
"A 	c #AD8C7B",
"B 	c #94CE9C",
"C 	c #94C694",
"D 	c #6B8C73",
"E 	c #B58463",
"F 	c #B59484",
"G 	c #AD8C84",
"H 	c #849484",
"I 	c #A5AD8C",
"J 	c #9CCE9C",
"K 	c #9CAD8C",
"L 	c #9C735A",
"M 	c #A58463",
"N 	c #8C8473",
"O 	c #39847B",
"P 	c #C69C84",
"Q 	c #639C84",
"R 	c #848C7B",
"S 	c #949C84",
"T 	c #9CA58C",
"U 	c #8CBD94",
"V 	c #94C69C",
"W 	c #9CA584",
"X 	c #738C7B",
"Y 	c #BD9C84",
"Z 	c #529484",
"` 	c #7B947B",
" .	c #9C9C84",
"..	c #84BD94",
"+.	c #738473",
"@.	c #528C73",
"#.	c #73A58C",
"$.	c #AD8C73",
"%.	c #5A947B",
"&.	c #8C947B",
"*.	c #29736B",
"=.	c #217B6B",
"-.	c #7B846B",
";.	c #DEA594",
">.	c #B59C8C",
",.	c #CEA58C",
"'.	c #6B847B",
").	c #5A7B73",
"!.	c #39736B",
"~.	c #317B6B",
"{.	c #9C847B",
"].	c #84947B",
"^.	c #7B9C84",
"/.	c #529C7B",
"(.	c #947B6B",
"_.	c #A59484",
":.	c #42947B",
"<.	c #ADA58C",
"[.	c #396B63",
"}.	c #31736B",
"|.	c #737B73",
"1.	c #5A736B",
"2.	c #6B7B73",
"3.	c #848473",
"4.	c #6B7B6B",
"5.	c #428C73",
"6.	c #4A8C7B",
"7.	c #7B8C7B",
"8.	c #52736B",
"9.	c #63736B",
"0.	c #398C73",
"a.	c #A58C7B",
"b.	c #D69C84",
"c.	c #4A736B",
"d.	c #637B73",
"e.	c #427B73",
"f.	c #297B6B",
"g.	c #4A8473",
"h.	c #9C9484",
"i.	c #7B8C84",
"j.	c #D6A584",
"k.	c #216B63",
"l.	c #D6AD94",
"m.	c #396B6B",
"n.	c #186B63",
"o.	c #7B7B6B",
"p.	c #397B73",
"q.	c #316B63",
"r.	c #296B6B",
"s.	c #426B63",
"t.	c #8C847B",
"u.	c #186363",
"v.	c #A58C63",
"w.	c #AD9463",
"x.	c #085A63",
"y.	c #84847B",
"z.	c #AD9473",
"A.	c #5A7363",
"B.	c #216B6B",
"C.	c #847B6B",
"D.	c #638473",
"E.	c #4A7B73",
"F.	c #4A6B63",
"G.	c #73735A",
"H.	c #6B8473",
"I.	c #7B7B73",
"J.	c #637B6B",
"K.	c #A58C73",
"L.	c #42736B",
"M.	c #526B63",
"N.	c #526B5A",
"O.	c #DEB594",
"P.	c #426B6B",
"Q.	c #C6A58C",
"R.	c #9C845A",
"S.	c #426352",
"T.	c #5A7B6B",
"U.	c #94847B",
"V.	c #217B73",
"W.	c #AD9484",
"X.	c #948C73",
"Y.	c #5A8473",
"Z.	c #948C7B",
"`.	c #B5A58C",
" +	c #9C7B5A",
".+	c #C69C7B",
"++	c #B59C6B",
"@+	c #945A29",
". . . . . . + @ @ @ # $ % & * * * = = - ; ; > , ' ' ) ) ) ! ! ~ ~ { { ] ^ / ( _ ",
": + : + : . : + @ @ < # $ % & & * * = = - - ; > > ' ' ' ) ) [ ! ~ ~ } { | ] / / ",
". . 1 2 3 4 5 2 6 7 4 5 5 8 4 2 4 4 1 9 1 0 a b 6 a c d 8 4 e 4 f a a d g 1 ^ / ",
": + 8 g g c h i j h h g g 6 a k d 6 4 l 4 f a a d m n b m h o p o q b f o 8 ] / ",
". . c 4 g i j 9 g r h s j n n t u m h o v w q b f b m s x m x m q p m x m d | ^ ",
". + 5 g c 4 9 g i c 4 c j r g m ] ^ ^ / ( _ y z x m x A n x A m B C q q s f { ] ",
": . 3 9 t r i D b j r i E F G H { { ] ^ ^ / / _ y n F x x n m I J J K L m M { { ",
"+ . 5 h g 9 N O ' x g j i q P [ ~ ~ Q R t m S ^ / ( m p n s q T U V W p m a ~ { ",
". : 4 c h i X ; > q F A F Y X ) Z ` G x A m L m ^ /  .x F x s I ..U W m o 8 ~ | ",
". + 5 j i j +.- ; x m L A m @.) ) n x G s F n m { ] #.t x n q T _ ..T $.m 0 ~ ~ ",
": . k j 9 h G = = F s n P p ' ' %.P m n m s m s ~ { { m G A x &.( _ S L b 6 ~ ~ ",
"+ . a j i j u *.=.$.F m L m ; > H Y p P m q s m -.~ ~ r x G F T / / w G G 6 Z ~ ",
". : f r ;.4 g & * m q s u n ; ; >.p t ,.Y Y ,.p H [ ! r m t m v | ^ &.s G 8 Z ! ",
". + a g g '.).# % !.!.- ~.m = - {.A x A x m u m ].) Z ^.[ >.g X { { S m m 8 ) /.",
": . 5 (.+ @ @ # $ % & % & * * =._.A s n m x $.n ' ' :.) ) <.Y v ~ ~ R G $.a Z [ ",
"+ . c [.. . @ @ @ }.|.1.2.3.& * 4.p x s q G m $.> > 5.' 6.{.A 7.Z ! v P F 0 :.) ",
". : k g 8.9.|.+ @ 3.r i E F % & & n x A m L p |.; > O 0.' a.m R ) [ 7.o G 3 6.) ",
". + 8 b.g 9 g . : 1.E j i q c.$ % & 2.m s d.e.f.= g.N ; O h.q X ' 6.i.x f 0 ' ) ",
": . 2 r j.i i . . 2.j i j x x k.# # $ % & & * = * m {.- ; x s R , ' ].G G a ' ' ",
"+ . 3 j i j x + : ).A Y F m m l.m.@ < # n.% *.o.$.o p.= = s q X > > X m t 1 , ' ",
". : 2 g i h G : . 9.L A m L u n q.@ @ d.h.s s F m $.& * * x A 2.; ; 7.G p 1 > ' ",
". + 0 i P j n : + r.n ).s.t.G i + . u.$.F M A $.u L % & * G s '.= = 7.s F v.> , ",
". : w.h h 9 m . . : x.: . @ G F . : y.m q s Y p G G # % % n m '.* =.2.z.G a > 0.",
": . 6 t A.B.: + : . . + . C.m D.: + _.P F ,.L m F n @ $ # P $.1.* * '.k p 8 ; O ",
". + 8 E.. : . . . + @ F.m x m . . . x A m G.o n M m + @ @ ,.Y d.$ & H.G m 0 ; > ",
". . l 8.. + : + : . L p q q 1.. : I.y.. . . : q.G $.: . k.x o D.# % J.K.k 0 = ; ",
": . 0 j A c.n I.. : m Y m L s.. + . : . : + . . L.s . . H Y Y J.@ @ M.f m 1 = ; ",
"+ . M A j 9 9 N.+ . E j M O.n.. . : + . 4.2.+ : . {.+ : P.P Q.).+ @ M.A t 0 f.- ",
". : R.r h g j 2.: . j.g s d . . : n.).P Y >.2.. + S.T.. U.A x 1.. : 8.k z.M V.= ",
". . v.9 g i i c.. : Y t g W.: + C.s k A k P 2.: . E.P F $.M F D.. + 8.m p 0 * = ",
": . k i r i i A . + Y i t @ . : s $.M F Q.Y . . . X.>.s Y Y t M.. : F.$.A 2 * f.",
". + 0 9 M h P i : . b.Y g : . + F s >.k m y.. : < p O.,.F t z.1.+ . T.u L a * V.",
". : k n b g j j h i E j 1.. . Y.,.F k x A : + . Y F O.Q.,.Q.K.8.. : F.t (.8 & * ",
"+ . v.M r l.9 t h i h r Z.: + `.Q.,.Q.v.+ . : q.z.G ,.Y Y Y t c.. + E.u Y e & * ",
": . M x s g j i P r j.n ,.Z.l.,.Y P >.t : + y.F k p ,.,.A s F z.: . u m M 8 % & ",
". + 8 M  +h t g t j.x l.r ,.,.,.,.A s Y A 4.(.s G m ,.F k z.A k b K.p p p 8 % & ",
". : k G t r s t g t x .+t ,.F ,.s z.z.A z.L A m K.k m m $.$.m L A k (.K.p 0 $ % ",
". + w.3 e e v.++R.M w.k e  +e ++0 w.l l 0 w.8 2 l v.3 1 0 0 8 2 8 8 @+@+8 @+# % ",
". : + + : . : . . . : . . . . : . . . . . + . . . . + . : . . . + . + + @ @ # $ ",
": + . : . . + . + : . + : + : + . : + : . : . : + : . : . . + : . . . x.+ < @ # "};
