/* XPM */
static char * digit_2_xpm[] = {
"40 40 167 2",
"  	c None",
". 	c #BD4A4A",
"+ 	c #B54A4A",
"@ 	c #948439",
"# 	c #947342",
"$ 	c #A57B52",
"% 	c #AD844A",
"& 	c #847B10",
"* 	c #AD7363",
"= 	c #9C8452",
"- 	c #A58C52",
"; 	c #9C7B63",
"> 	c #B58473",
", 	c #946B52",
"' 	c #AD8C5A",
") 	c #846B4A",
"! 	c #9C845A",
"~ 	c #A58473",
"{ 	c #BD4A52",
"] 	c #BD846B",
"^ 	c #BD7B6B",
"/ 	c #AD7B63",
"( 	c #CE9484",
"_ 	c #C68C7B",
": 	c #B57B6B",
"< 	c #BD7B73",
"[ 	c #947B42",
"} 	c #BD8C6B",
"| 	c #AD7B6B",
"1 	c #B56B63",
"2 	c #A5635A",
"3 	c #946B63",
"4 	c #9C7363",
"5 	c #A55A5A",
"6 	c #9C6B6B",
"7 	c #AD6B5A",
"8 	c #BD9484",
"9 	c #B58463",
"0 	c #C6947B",
"a 	c #B58C84",
"b 	c #9C735A",
"c 	c #9C7B6B",
"d 	c #947373",
"e 	c #B54A52",
"f 	c #BD8C7B",
"g 	c #B5847B",
"h 	c #AD6B63",
"i 	c #AD846B",
"j 	c #AD847B",
"k 	c #AD6B52",
"l 	c #BD7363",
"m 	c #C68473",
"n 	c #C69484",
"o 	c #B58C7B",
"p 	c #9C7373",
"q 	c #9C846B",
"r 	c #B55252",
"s 	c #AD635A",
"t 	c #BD635A",
"u 	c #BD5252",
"v 	c #B56363",
"w 	c #A56352",
"x 	c #A56363",
"y 	c #AD8473",
"z 	c #AD6363",
"A 	c #A5846B",
"B 	c #BD5A5A",
"C 	c #B56B6B",
"D 	c #CE947B",
"E 	c #C6736B",
"F 	c #B5525A",
"G 	c #AD8C84",
"H 	c #BD736B",
"I 	c #B5736B",
"J 	c #B55A5A",
"K 	c #AD736B",
"L 	c #C69C84",
"M 	c #AD5A52",
"N 	c #B55A52",
"O 	c #B5635A",
"P 	c #BD9C84",
"Q 	c #DEA58C",
"R 	c #B5524A",
"S 	c #CEA58C",
"T 	c #DEA594",
"U 	c #CE8C7B",
"V 	c #B57373",
"W 	c #C6A58C",
"X 	c #BD8C84",
"Y 	c #CE9C8C",
"Z 	c #B59473",
"` 	c #CE9C84",
" .	c #AD7352",
"..	c #AD5A5A",
"+.	c #BD8C73",
"@.	c #BD947B",
"#.	c #BD6B6B",
"$.	c #D69C84",
"%.	c #B5947B",
"&.	c #C66363",
"*.	c #C65252",
"=.	c #946B39",
"-.	c #C65A5A",
";.	c #B57B73",
">.	c #A58C63",
",.	c #AD9463",
"'.	c #A56B5A",
").	c #A58C73",
"!.	c #AD9473",
"~.	c #A59452",
"{.	c #C6635A",
"].	c #CE7B73",
"^.	c #BD6B63",
"/.	c #CE6363",
"(.	c #CE6B63",
"_.	c #C67B6B",
":.	c #CE736B",
"<.	c #D67B73",
"[.	c #A56B6B",
"}.	c #CE7B6B",
"|.	c #DE847B",
"1.	c #DE8C7B",
"2.	c #DE947B",
"3.	c #CEA584",
"4.	c #E79C84",
"5.	c #CE7363",
"6.	c #CE6B6B",
"7.	c #D6736B",
"8.	c #A58463",
"9.	c #C66B63",
"0.	c #D67B6B",
"a.	c #DE8473",
"b.	c #DEAD94",
"c.	c #EFA58C",
"d.	c #E79C8C",
"e.	c #F7AD94",
"f.	c #EFAD94",
"g.	c #C6846B",
"h.	c #D68473",
"i.	c #D68C7B",
"j.	c #CE8473",
"k.	c #D6947B",
"l.	c #DE9484",
"m.	c #E7AD8C",
"n.	c #F7B59C",
"o.	c #D6A58C",
"p.	c #E79484",
"q.	c #F7B594",
"r.	c #D69484",
"s.	c #DEAD8C",
"t.	c #C69C7B",
"u.	c #E7AD94",
"v.	c #EFB594",
"w.	c #D6AD94",
"x.	c #E7A58C",
"y.	c #DEB594",
"z.	c #BD9C7B",
"A.	c #E78C7B",
"B.	c #E7B594",
"C.	c #D6A584",
"D.	c #9C7B5A",
"E.	c #EF9C8C",
"F.	c #C68C73",
"G.	c #AD8C73",
"H.	c #EF9C84",
"I.	c #B59C6B",
"J.	c #945A29",
". + . + . + . + . + . + . + . + . + . + . + . + . + . + . + . + . + . + . + . + ",
"+ . + . + . + . + . + . + . + . + . + . + . + . + . + . + . + . + . + . + . + . ",
". + @ # $ $ % # # & $ % % # $ # $ $ @ * @ = - ; # - > , # $ ' $ ) - ! , ~ @ . + ",
"+ { # ] ^ ] / ( _ / / : < [ $ } , # $ ' $ ) - - , | 1 2 ~ / 3 4 5 6 4 ) 4 # + . ",
". + > 7 } ( _ * ] 8 9 8 0 a a a b ~ / 3 c 3 d 4 ) 2 . e f ~ g h . e i j ~ , { + ",
"+ . % } < k 7 l m l k ^ _ n ] ~ 8 o | j ~ p q ~ g r + r o g j s . + 6 p a ) + . ",
". + $ * t + . + . + + { + u r e e r r v h w 2 x x e . { g g y g e . z b ~ A . + ",
"+ . % / B e + . e + . + . + + . . . . + . . + . + . + e r u 5 C + + r ; ~ $ + . ",
". + $ ] / D E C C x C F r u e e u + + . + + . + + . + . . + . + . + . h 3 # . + ",
"+ . % _ ( _ _ G g j y b j ~ b b a H C C I H C F J e + e J J e e e { J K ~ = + . ",
". + > _ * / n o j 8 a o L c G G L n ~ a ~ 8 ~ a ~ h . + g g j y b j ~ b b = . + ",
"+ { - _ ( _ M + { + r + e N t J O t M t * d P ~ b w + + C G P a a L ; G G # + . ",
". + ) n Q * R . + + . . + + + e . + . e { a S c G C . . z o ~ 8 ~ b ~ 8 G # { + ",
"+ . ! ] < T U V z C z x 2 v v z r { r e v ~ b ~ 8 K + + s W A d P b a ~ ~ # + . ",
"+ . % ] / * / o g g ~ b q d d X a g o g i o ~ o ~ v + . 1 Y W a S G A G ~ ' . + ",
"+ . Z < `  .O H C ..J J v N M N J M J u e e J * g A { + I j j ~ b o W P P , + . ",
". + +.9 @.#.+ + . . + . + . + + . + . + + . + ..d f e . v X ~ o ~ c ~ 3 G - . + ",
"+ . # $.] s { r u e { r E x H H v C C h #.s < | b ~ e + B a d a ~ a G g ) = + . ",
"{ { # _ ` ` ( ] ] ` _ ` _ g j ~ q a 8 d G ~ G ~ c ~ u + B %.a L d a L G G - e { ",
"u u $ _ ( _ g a x I J O B ..N &.N J J v * b d A ~ 3 #.+ F a d a o A G ~ f @ u u ",
"*.u =.i ( / j J . + . e + . + + + . + . + B > 8 ~ y m . e g g ~ b %.P G c @ *.u ",
"-.-.= ( L _ v + { F r B 2 C C ^ H z v e + . + J b b ;.+ . y a P a a P a P >.B -.",
"-.-.,.9 / 7 + . + l h '.| a G 8 P c L i 6 J . + v G _ u u H ).a A ).y !.G ~.-.-.",
"&.{.[ %.< ].. + { + + + + + + ^.c %.S P 8 S J B -.G a &./.E y d P 8 a %.c # &.{.",
"/./.# n } r + r J r e e . { u u V o g j ~ b b (.(.: S _.:.<.P 8 S c P G ~ = /./.",
"(.(.! 0 X e . C j y b q d [.< f g a a ~ a ~ G }.<.].8 : |.1./ a ) %.~ ).!.= (.(.",
":.:.= _ D B -.H | < I < ^ * : : | f a p G i a ( 1.2.W 3.4.4.` @.a !.b ) ~ @ 5.6.",
"7.:.8.j _ 9.(.(.:.:.7.0.<.<.a.|.a.b.P P +.a c D c.d.L a Q e.f.P P ~ b %.f = :.7.",
"0.0.! n / g.<.<.a.h.i.j.k.j.k.l.` a P W a P P f.e.m.%.q Y n.n.o.W 8 ).!.!.>.7.0.",
"<.<.>.* < $.1.l.p.i.o.@.] a ~ !.c o %.j Z W Y q.n.Y P a Z q.n.q.P P ).~ c = <.<.",
"a.h.Z ` 8 ( r.4.c.f.c.f.s.Y o.s.o.` t.o.b.b.q.n.u.@.W P a o.q.n.b.q c ~ !.=.h.a.",
"|.a.= * A / n ` u.n.n.q.n.n.q.n.n.n.n.n.n.q.n.v.8 q w.S 8 !.u.n.n.$.!.b b - |.a.",
"1.1.Z o b < 0 n x.q.f.Q f.q.n.q.n.q.n.q.n.x.S W 8 a y.W S W z.q.n.n.o.z.c ) A.1.",
"A.1.>.~ L T 7 3.n.n.D n L w.b.B.b.b.s.q.n.u.~ ~ Z G S P P P @.z.q.n.q.f.P ' 1.A.",
"p.p.A j n 9 n f.q.u.C.a S n w.S P W P s.n.q.o.8 !.c S S %.a P > L v.n.u.i # p.p.",
"p.4.# 8.D./ @.f.q.Q o w.n S S S S !.a o.n.n.3.a G ~ S a !.!.%.%.b !.@.q c # 4.4.",
"E.4.Z g %.n n @.F.%.] t.%.S a S a %.!.%.L +.%.y ).Z ~ ~ G.G.~ b %.j q ~ c = d.H.",
"c.c.,.- ' ' >.I.! A ,.Z ' ! ' I.= ,.~.= = ,.# =.~.>.- @ = [ # # # # J.J.=.J.c.c.",
"c.f.c.f.c.c.c.f.c.c.f.c.f.c.f.c.c.c.f.c.c.f.c.f.f.c.f.c.e.f.c.f.c.f.f.f.f.c.f.c.",
"f.e.f.e.f.e.f.e.f.e.e.e.f.e.f.e.e.f.e.f.e.e.f.e.f.f.e.e.f.f.e.f.f.e.c.e.f.e.f.e."};
