/* XPM */
static char * digit_7_xpm[] = {
"40 40 215 2",
"  	c None",
". 	c #E7846B",
"+ 	c #DE8463",
"@ 	c #D67363",
"# 	c #D6735A",
"$ 	c #CE6B5A",
"% 	c #C66352",
"& 	c #C65A52",
"* 	c #BD524A",
"= 	c #BD4A4A",
"- 	c #B54A42",
"; 	c #AD4242",
"> 	c #AD3939",
", 	c #A53139",
"' 	c #A52931",
") 	c #9C2931",
"! 	c #9C2129",
"~ 	c #941829",
"{ 	c #8C1021",
"] 	c #840818",
"^ 	c #840018",
"/ 	c #DE7B63",
"( 	c #CE6352",
"_ 	c #8C1829",
": 	c #840821",
"< 	c #D67B63",
"[ 	c #948439",
"} 	c #946B39",
"| 	c #A57B52",
"1 	c #AD844A",
"2 	c #947342",
"3 	c #947B42",
"4 	c #847B10",
"5 	c #AD7352",
"6 	c #AD8452",
"7 	c #AD7363",
"8 	c #9C8452",
"9 	c #A58C52",
"0 	c #947363",
"a 	c #B58C73",
"b 	c #946B52",
"c 	c #846B4A",
"d 	c #AD8C5A",
"e 	c #A58473",
"f 	c #BD8473",
"g 	c #BD846B",
"h 	c #BD8C6B",
"i 	c #B57B63",
"j 	c #CE9484",
"k 	c #C68C7B",
"l 	c #AD7B63",
"m 	c #B5846B",
"n 	c #BD8C73",
"o 	c #B5845A",
"p 	c #9C6B52",
"q 	c #B58C84",
"r 	c #9C7B5A",
"s 	c #AD8473",
"t 	c #946B63",
"u 	c #94736B",
"v 	c #947373",
"w 	c #9C7B63",
"x 	c #E7947B",
"y 	c #EF9C73",
"z 	c #DE9473",
"A 	c #D68C6B",
"B 	c #C69484",
"C 	c #B58C7B",
"D 	c #9C7B6B",
"E 	c #CE7363",
"F 	c #B56B52",
"G 	c #946B5A",
"H 	c #B59484",
"I 	c #A5846B",
"J 	c #B5847B",
"K 	c #9C7B73",
"L 	c #EF9473",
"M 	c #DE8C6B",
"N 	c #CE8C73",
"O 	c #CE947B",
"P 	c #BD9484",
"Q 	c #AD736B",
"R 	c #BD6B63",
"S 	c #AD847B",
"T 	c #D6947B",
"U 	c #F79C73",
"V 	c #E79C7B",
"W 	c #BD8C7B",
"X 	c #A56363",
"Y 	c #AD8C73",
"Z 	c #9C735A",
"` 	c #BD7B63",
" .	c #D68C73",
"..	c #E78C6B",
"+.	c #DE846B",
"@.	c #C6947B",
"#.	c #BD847B",
"$.	c #B56352",
"%.	c #AD8C84",
"&.	c #CE9C84",
"*.	c #9C7373",
"=.	c #CE8473",
"-.	c #D6A58C",
";.	c #B56B63",
">.	c #B5524A",
",.	c #946B6B",
"'.	c #A57B6B",
").	c #A57B63",
"!.	c #CE846B",
"~.	c #BD6B5A",
"{.	c #BD635A",
"].	c #B54A4A",
"^.	c #AD846B",
"/.	c #B5736B",
"(.	c #AD6B63",
"_.	c #AD5A5A",
":.	c #944A4A",
"<.	c #A55252",
"[.	c #9C635A",
"}.	c #C67363",
"|.	c #C6736B",
"1.	c #B56B5A",
"2.	c #A54242",
"3.	c #A53131",
"4.	c #9C2131",
"5.	c #8C0821",
"6.	c #8C3939",
"7.	c #B54242",
"8.	c #D6846B",
"9.	c #AD735A",
"0.	c #AD7B6B",
"a.	c #942129",
"b.	c #943139",
"c.	c #9C4A52",
"d.	c #945A52",
"e.	c #DEA58C",
"f.	c #A5736B",
"g.	c #B5635A",
"h.	c #942931",
"i.	c #AD5252",
"j.	c #BD9C84",
"k.	c #B58473",
"l.	c #BD7363",
"m.	c #BD7B73",
"n.	c #946352",
"o.	c #C6A58C",
"p.	c #C69C84",
"q.	c #BD5A52",
"r.	c #A55A5A",
"s.	c #A54A4A",
"t.	c #CEA58C",
"u.	c #B5947B",
"v.	c #B57352",
"w.	c #942131",
"x.	c #B59473",
"y.	c #9C3942",
"z.	c #BD736B",
"A.	c #C67B6B",
"B.	c #B57B73",
"C.	c #841021",
"D.	c #8C394A",
"E.	c #8C2939",
"F.	c #9C4A4A",
"G.	c #9C5252",
"H.	c #D6AD94",
"I.	c #8C2131",
"J.	c #8C4242",
"K.	c #AD7B73",
"L.	c #8C3942",
"M.	c #942939",
"N.	c #943942",
"O.	c #BD947B",
"P.	c #AD6363",
"Q.	c #A55A52",
"R.	c #9C4A42",
"S.	c #A57373",
"T.	c #9C5A5A",
"U.	c #842129",
"V.	c #9C6363",
"W.	c #A5524A",
"X.	c #A56B6B",
"Y.	c #A58C63",
"Z.	c #AD9463",
"`.	c #B58463",
" +	c #8C2931",
".+	c #842131",
"++	c #94424A",
"@+	c #A59452",
"#+	c #DEA594",
"$+	c #9C845A",
"%+	c #9C424A",
"&+	c #944242",
"*+	c #A58C73",
"=+	c #B57363",
"-+	c #A56352",
";+	c #9C4242",
">+	c #A54A52",
",+	c #945A4A",
"'+	c #84634A",
")+	c #D69C84",
"!+	c #D6A584",
"~+	c #944A42",
"{+	c #9C5A52",
"]+	c #94524A",
"^+	c #DEB594",
"/+	c #AD6B6B",
"(+	c #BD7B6B",
"_+	c #A5424A",
":+	c #A58C6B",
"<+	c #A58463",
"[+	c #9C6B63",
"}+	c #B57B6B",
"|+	c #C69C7B",
"1+	c #B59C6B",
"2+	c #945A29",
". + @ # $ % & * = - ; > , ' ) ! ~ { { ] ^ ^ ^ ^ ^ ^ ^ ^ ^ ^ ^ ^ ^ ^ ^ ^ ^ ^ ^ ^ ",
"+ / # $ ( & * * - ; > , , ) ! ~ _ { : ^ ^ ^ ^ ^ ^ ^ ^ ^ ^ ^ ^ ^ ^ ^ ^ ^ ^ ^ ^ ^ ",
"< @ [ } | | 1 2 3 4 5 1 6 2 | } | 5 [ 7 [ 8 9 0 3 9 a b c | d | c 9 8 b e [ ^ ^ ",
"@ $ 2 f g h i j k l l m g 3 d n b 2 | d | c 6 o p e q r s l t u t v w c r c ^ ^ ",
"# $ a 5 n x y z A B l B k q q C r e l t D t E $ F G s H q I J e K D e J e p ^ ^ ",
"$ ( 1 f z y y L y y M N O B g e H P e J e Q $ % R e J S P S J e G D v v q c ^ ^ ",
"% & | 7 T x U V U V y U y z W S J C J S e % & & X q H J C q e C Y H e Z e I ^ ^ ",
"% & 1 l g `  .x V y y L ....+.@.S q q e #.& * $.r I e D q P v %.e %.e D e 9 ^ ^ ",
"& * | h l j &.S q *.B =.M +.< @ -.e S J ;.* >.7 u e P C C q W B u ,.'.e t 2 ^ ^ ",
"* * 1 B j k k %.J S e ).!.# # ~.q B q %.{.- ].I ^.t /.Q (._.:.<.~ _ { [.s 8 ^ ^ ",
"* ].a k 7 l B C q N / / @ $ }.J n |.1.;.- ; > 2., 3.) 4.~ ~ _ { 5.] ^ 6.G 8 ^ ^ ",
"* 7.9 k j k }.8.+ / @ }.9.0.H R * = - 7.; > , , ) 4.a.~ ~ _ { b.c.<.d.S %.3 ^ ^ ",
"- ; c k e.8.+ + @ }.f.H G q e g.- - ; > , 3., ) ) h._.i.:.J '.j.e G e j.%.2 ^ ^ ",
"7.> d k.!./ < @ l.m.e K D ^.S e /.Q /.2., ) n.'.q S P o.u p.e v P r q e e 2 ^ ^ ",
"; , 1 g l E $ $ ( % q.* >.r.r.C H J q s.4.) I P e e t.0 u.t.p.H t.%.I %.e d ^ ^ ",
"> , n f &.v.~.% & * * - - ; > _.e D q 2.a.w.'.e S s S S P S S e Z q o.p.H 8 ^ ^ ",
", 3.x.` u.k j g g.q.].7.; > , Q S C J y.~ { D v *.C P J q C s q e w e t %.9 ^ ^ ",
"3.) 3 -.g 7 g P &.n i z.A.t B.H J q C b.5.C.Q e G e e u W H v %.e P %.J c 8 ^ ^ ",
"' 4.2 k &.&.j g g &.k &.k J J s 0 q j.D.] ^ E.s D I P u.q P q B ,.F.G.S %.8 ^ ^ ",
") a.| k j k J q v H J q H '.'.H.e %.S Q : ^ ^ I.J.c.C J K.F.L.M.C.^ ^ N.O.[ ^ ^ ",
"! ~ 2 l &.9.P._._.Q.R.) a.~ _ r.B C S.Q T.^ ^ ^ ^ ^ : ] ^ ^ ^ ^ ^ ^ U.V.D [ ^ ^ ",
"a.~ 8 j B g., ) ) 4.a.~ _ { 5.W.B '.: ^ G.[.I.^ ^ ^ ^ ^ ^ ^ ^ ^ E.X.j.P H Y.^ ^ ",
"~ { Z.`.l Q., ) ) w.~  +b.b.:.K.o.0 ] ^ .+j.j.J.++E.E.M..+N.D.X e e e u.%.@+^ ^ ",
"_ { 3 u.g #+w j.'.u H Z q e s t.u a : ^ E.t.G e H %.j.j.D j.Y v j.P P Y D c ^ ^ ",
"{ 5.2 B f 9.q e J e *.u I K.'.K.K.k.: ^ C.G Z J '.'.p.0 7 /.Q (./.G H %.e 8 ^ ^ ",
"5.] $+@.P g <.F.%+&+6. +^ : : : : : ^ ^ ^ ] : ] : ] : ] ^ ^ ^ ^ ^ : '.*+x.8 ^ ^ ",
": ^ 8 k j =+: : ^ ^ ^ ^ ^ ^ ^ ^ ^ ^ ^ ^ ^ ^ ^ ^ ^ ^ ^ ^ ^ ^ ^ ^ ^ : n.c e [ ^ ^ ",
"^ ^ I S k -+: ^ ^ ^ ^ ^ ^ ^ : C.: ^ ^ ^ ^ ^ : : ^ : : :.F.c.G.c.G.'.G u.u.8 ^ ^ ",
"^ ^ $+B l f k ;.<.;+>+&+c.,+s <.I.^ ^ ^ ^ :.C S S '+Y D q x.S Y o.P *+Y x.w ^ ^ ",
"^ ^ Y.7 g &.j k )+g !+u.h X.: ^ ^ ^ : ^ ^ : C j.%.%.(.b.~+).H t.H j.*+e D 8 ^ ^ ",
"^ ^ x.j B j &.j #+W !+z. +^ ^ ^ E.{+w E.^ : I %.I u.N.^ ^ : b.{+j.D D e u.} ^ ^ ",
"^ ^ 8 7 I l B j p.` >+^ ^ ^ ^ &+H H o. +^ ] s P %.D z.^ ^ ^ ^ ^ ]+0 x.G r 8 ^ ^ ",
"^ ^ Y C Z n k k ,+w.^ ^ ^ &+#.^+t.P Y N.^ ^ G.j.H P H.a >+^ ^ ^ ^ U.L.Y D 2 ^ ^ ",
"^ ^ Y.e B H.7 Q.^ ^ ^ : /+H.^+H.o.t.o.~+^ ^ N.e x.%.t.o.j.Q U.^ ^ ^ ^ 6.H d ^ ^ ",
"^ ^ I J P (+k _+^ ^ W.K.t.p.#+t.j.j.p.'.^ ^ E.j.Y u t.t.Y P H [. +^ ^ &+:+c ^ ^ ",
"^ ^ 2 <+r l u.W.: ;.q H.B t.t.t.t.u.H H  +^ J.H %.s t.H u.Y u.Y [+G J.0 D 2 ^ ^ ",
"^ ^ Y S O.B B u.}+O.f |+u.t.H t.H Y x.u.s ]+Y e *+Y e e ^.Y e Z u.Y D e D 8 ^ ^ ",
"^ ^ Z.9 d d Y.1+$+<+Z.x.d $+d 1+8 Z.@+@+8 Z.2 } @+Y.9 [ 8 8 2 } 2 2 2+2+2 2+^ ^ ",
"^ ^ ^ ^ ^ ^ ^ ^ ^ ^ ^ ^ ^ ^ ^ ^ ^ ^ ^ ^ ^ ^ ^ ^ ^ ^ ^ ^ ^ ^ ^ ^ ^ ^ ^ ^ ^ ^ ^ ^ ",
"^ ^ ^ ^ ^ ^ ^ ^ ^ ^ ^ ^ ^ ^ ^ ^ ^ ^ ^ ^ ^ ^ ^ ^ ^ ^ ^ ^ ^ ^ ^ ^ ^ ^ ^ ^ ^ ^ ^ ^ "};
