/* XPM */
static char * digit_6_xpm[] = {
"40 40 216 2",
"  	c None",
". 	c #7B7300",
"+ 	c #947B39",
"@ 	c #946B39",
"# 	c #A57B52",
"$ 	c #AD844A",
"% 	c #947342",
"& 	c #847B10",
"* 	c #AD7363",
"= 	c #948439",
"- 	c #9C7B52",
"; 	c #A58452",
"> 	c #9C845A",
", 	c #B58C73",
"' 	c #946B52",
") 	c #AD8C5A",
"! 	c #846B4A",
"~ 	c #A58C52",
"{ 	c #A58473",
"] 	c #BD846B",
"^ 	c #AD7B63",
"/ 	c #CE9484",
"( 	c #C68C7B",
"_ 	c #AD846B",
": 	c #9C7B4A",
"< 	c #B58C84",
"[ 	c #9C735A",
"} 	c #946B63",
"| 	c #9C7B6B",
"1 	c #947373",
"2 	c #94735A",
"3 	c #AD735A",
"4 	c #C69484",
"5 	c #B58463",
"6 	c #BD9484",
"7 	c #7B6B10",
"8 	c #847318",
"9 	c #A5846B",
"0 	c #B59484",
"a 	c #AD8473",
"b 	c #AD8C7B",
"c 	c #9C846B",
"d 	c #B5847B",
"e 	c #AD7352",
"f 	c #D69C84",
"g 	c #B58C7B",
"h 	c #9C7B73",
"i 	c #947B42",
"j 	c #BD8C7B",
"k 	c #AD8C84",
"l 	c #A57B5A",
"m 	c #8C7321",
"n 	c #7B7308",
"o 	c #8C7331",
"p 	c #8C7B21",
"q 	c #BD9C84",
"r 	c #C6A58C",
"s 	c #8C7B29",
"t 	c #847321",
"u 	c #A58463",
"v 	c #B5947B",
"w 	c #AD8C73",
"x 	c #C69C84",
"y 	c #947B29",
"z 	c #947B31",
"A 	c #9C7B63",
"B 	c #DEA58C",
"C 	c #A57352",
"D 	c #948421",
"E 	c #847B08",
"F 	c #8C7B08",
"G 	c #948431",
"H 	c #CEA58C",
"I 	c #9C844A",
"J 	c #948429",
"K 	c #C6947B",
"L 	c #9C8442",
"M 	c #8C7B10",
"N 	c #A58431",
"O 	c #948418",
"P 	c #8C8410",
"Q 	c #A58C4A",
"R 	c #9C8431",
"S 	c #948410",
"T 	c #A5845A",
"U 	c #B5845A",
"V 	c #948C10",
"W 	c #9C9421",
"X 	c #9C8C18",
"Y 	c #BD8463",
"Z 	c #B59C52",
"` 	c #A57B42",
" .	c #A59421",
"..	c #9C9418",
"+.	c #A58C42",
"@.	c #AD944A",
"#.	c #9C8452",
"$.	c #B5946B",
"%.	c #CE9C7B",
"&.	c #A59C29",
"*.	c #A59C21",
"=.	c #AD8C4A",
"-.	c #AD8C52",
";.	c #AD9452",
">.	c #A59431",
",.	c #CE9C84",
"'.	c #C69C63",
").	c #AD9C29",
"!.	c #B59C63",
"~.	c #B59C73",
"{.	c #C6946B",
"].	c #B5A531",
"^.	c #B5A529",
"/.	c #A58C63",
"(.	c #B5A542",
"_.	c #BDAD39",
":.	c #BDAD31",
"<.	c #AD8C63",
"[.	c #D6AD94",
"}.	c #BDA542",
"|.	c #AD945A",
"1.	c #BD9C5A",
"2.	c #A58C73",
"3.	c #BD947B",
"4.	c #B58C52",
"5.	c #C6B539",
"6.	c #BDAD42",
"7.	c #BDA573",
"8.	c #BDA552",
"9.	c #B5945A",
"0.	c #C6A573",
"a.	c #CEBD42",
"b.	c #BDA563",
"c.	c #CEBD39",
"d.	c #BDAD4A",
"e.	c #C6BD39",
"f.	c #C6B552",
"g.	c #AD9463",
"h.	c #D6C64A",
"i.	c #D6C642",
"j.	c #CEAD63",
"k.	c #C6AD5A",
"l.	c #CEBD4A",
"m.	c #CEBD52",
"n.	c #B59463",
"o.	c #D6BD4A",
"p.	c #C6A584",
"q.	c #AD8C6B",
"r.	c #CEB552",
"s.	c #9C8C52",
"t.	c #BD8C6B",
"u.	c #DECE52",
"v.	c #DECE4A",
"w.	c #D6BD5A",
"x.	c #B59452",
"y.	c #CEA584",
"z.	c #D6B56B",
"A.	c #9C7B5A",
"B.	c #E7D652",
"C.	c #CEB55A",
"D.	c #E7CE52",
"E.	c #CEB563",
"F.	c #CEAD6B",
"G.	c #D6B57B",
"H.	c #D6B563",
"I.	c #EFDE5A",
"J.	c #E7CE63",
"K.	c #D6BD63",
"L.	c #EFD65A",
"M.	c #CEB56B",
"N.	c #DEC663",
"O.	c #B59473",
"P.	c #DEBD6B",
"Q.	c #F7E763",
"R.	c #F7DE63",
"S.	c #D6AD63",
"T.	c #FFEF63",
"U.	c #FFE763",
"V.	c #C69C7B",
"W.	c #F7E76B",
"X.	c #FFEF6B",
"Y.	c #EFD67B",
"Z.	c #FFE76B",
"`.	c #E7CE73",
" +	c #CEA56B",
".+	c #EFD673",
"++	c #DEB57B",
"@+	c #EFD66B",
"#+	c #DEC67B",
"$+	c #E7C673",
"%+	c #DEC66B",
"&+	c #BD9C73",
"*+	c #D6A57B",
"=+	c #CEAD73",
"-+	c #E7BD73",
";+	c #DEA594",
">+	c #F7DE73",
",+	c #9C6B63",
"'+	c #DEB594",
")+	c #DEC673",
"!+	c #E7C67B",
"~+	c #E7D66B",
"{+	c #E7CE6B",
"]+	c #AD946B",
"^+	c #AD9C21",
"/+	c #DEAD7B",
"(+	c #CEB57B",
"_+	c #ADA529",
":+	c #DEBD73",
"<+	c #D6A584",
"[+	c #D6BD73",
"}+	c #DEB584",
"|+	c #D6BD6B",
"1+	c #B59C6B",
"2+	c #A59452",
"3+	c #945A29",
". . . . . . . . . . . . . . . . . . . . . . . . . . . . . . . . . . . . . . . . ",
". . . . . . . . . . . . . . . . . . . . . . . . . . . . . . . . . . . . . . . . ",
". . + @ # # $ @ % & # $ $ % # @ # # + * = - ; > % ; , ' % # ) # ! ~ ; ' { + . . ",
". . % ] ] ] ^ / ( ^ ^ _ ] % ~ , ' % : ) # ! ~ ~ ' { < [ { ^ } | } 1 } ! 2 % . . ",
". . , 3 , / ( * _ 4 5 4 ( < < 6 [ { 5 } | } 1 2 7 8 9 0 < a b { 1 c { d { ' . . ",
". . $ ] ] e * ] f ] e , ( 4 ] { 0 g 9 a 9 h | i . . i d g b d { [ | 1 1 6 ! . . ",
". . # * 4 ( f _ * j 4 / 5 0 k l m n n . n 8 o 8 . . p + # d 9 g 9 q { [ { 9 . . ",
". . $ ^ ] * _ 4 f ] _ ( / 1 r s . . . . . . . . . . . . . . n . n t u c { ; . . ",
". . # ] ^ / f b < 1 6 d 0 q { : 7 . n n . . . . . . . . . . . . . . o { } % . . ",
". . $ ( / ( ( k d b { [ b { [ } v j g a i i i o . . n t t m t m t s w { a - . . ",
". . , ( * ^ 4 g k 6 6 < x | k k x 4 { < { q a 0 . . y a k b b { } d { [ 2 - . . ",
". . ~ ( / ( e - z p s p o 9 6 k q q | x a 1 0 { t . s 4 < k 6 6 v q A k k i . . ",
". . ! 4 B C D E F E E E F G 9 { H | v H q q H | I F J K 9 , i L = M & G b % . . ",
". . ; _ N O P P O G L D P P D L L L Q L R J D J D P S O P O P S P P S P T % . . ",
". . $ U O V W Q a d { 2 R V O V O O V O V O O V O O O O O V O O X X D Q 9 T . . ",
". . , Y Z ` 3 g < { 6 { 0  ...W W .. . .W ....W  .+.Q @.W  .W ~ - g q r 0 #.. . ",
". . $.] v ( / ] * ( 6 %.5 &.*.=.-.;.b +.*.*.>.h 1 < q b &.*.+.< { c { } k ~ . . ",
". . % f ] * ] 4 ,.] ] ( '.).).!.d < g ).).).~.{ [ { { #.).).> < { 0 k d ! - . . ",
". . @ 4 ,.,./ ] ] ,.( {.].^.]./.| < (.].].) k { | _ < Z ^.^.$.4 h g x k k ; . . ",
". . # ( / ( d < 1 0 $._.:.:.<.[.{ !.:.:.}.2 1 _ |.} 0 1.:.:.u 0 b 2.k 9 3.= . . ",
". . @ _ / 4.$.b d Z 5.5.6.~ } g 4 6.5.5.7.< q 8.5.8.[.9.5.5.8.9.@.1.5.5.A = . . ",
". . - / 0.a.a.b.0 a.a.c.d.v k x 0.a.a.9.q { , a.a.e.j 6 f.a.a.a.a.c.a.a.7./.. . ",
". . g.^ U h.i.j.{ k.l.h.h.m.~.6 m.h.i.n.1 6 q l.i.o.p.4 q.r.l.h.l.m.f.k.g s.. . ",
". . i 3.t.u.v.w.{ 1 q x.v.v.v.y.f.u.z.r 0 H A.m.v.u.6 q | q { | 0 q 0 b | % . . ",
". . % 4 t.u.B.C.d { 1 c $.D.B.E.d g b b { 2 } F.B.u.G.c 3.H p.q H | 0 k { #.. . ",
". . > ( 6 H.I.J.b a 2 | 1 K.I.L.g < j j.z.E.M.N.I.I.I.L.I.L.L.L.s.O.{ 2.w #.. . ",
"E E #.( / P.Q.Q._ < { q { j.Q.R.c P.R.Q.Q.Q.Q.Q.Q.Q.Q.Q.Q.Q.Q.Q.Q.O.[ ! { = E E ",
"P F 9 b ( S.T.U.V.^ 5 ( u W.T.X.p.Y.X.T.U.T.T.Z.U.T.U.W.U.W.U.Z.`.{ A b 3.#.F F ",
"P P > 4 ^  +X.X..+{.++F.@+X.X..+0 j #+$+#+#+G.v W.X.%+c j O.g O.r 6 2.w w /.P P ",
"V O /.* ] ++T.U.T.X.T.T.X.T.W.&+| < w b w r < p.Z.T..+6 w u 0 r 0 q 2.2.c #.V O ",
"X X O./ 4 *+Z.X.Z.T.X.Z.@+=+3.q 0 q.9 6 r 6 2.g Z.T..+0 0 q O.9 6 c | { w % X ..",
"W ..#.3 { ^ Z.T.T.P.-+x ^ ;+r q q 0 x w { 0 w 0 W.X.>+H q b v v { | O.2 ,+; ....",
"*. .~.< [ t.X.T.Z./ ^ ( , r H '+H q O.v &+z.)+!+@+T.W.!+!+.+~+@+~+~+{+~+]+% *. .",
"^+^+/.{ 4 B J.X.U./+^ 4 x [.'+Y.Z.X.X.Z.Z.T.X.T.X.X.U.T.T.T.T.T.T.T.T.X.(+) ).^+",
"_+_+u d 6 ] :+T.T.$+<+< H 4 [.>+T.U.T.T.T.X.T.Z.T.T.X.Z.W.Z.Z.W.@+[+j.F.q.% _+^.",
"^.].% 9 A.^ =+Z.X.$+< [.4 H H }+!+[+#+:+[+|+M.:+[+z.!+q O.O.O.O.2 2.| | | % ].^.",
":.:.O.b g 4 6 =+ +3.] V.v H 0 H 0 O.w b O.2 v { 2.b { 9 w w { [ b O.c 9 c #.:.:.",
"5._.g.~ ) ) /.$.> 9 g.O.) > ) 1+#.g.2+s.#.g.% @ 2+/.~ = I - % % % ! 3+3+@ 3+_._.",
"5.e.c.e.5.e.5.e.5.5.5.e.5.5.e.5.e.5.e.e.5.e.e.5.e.5.e.5.5.e.e.5.e.c.a.e.a.e.e.c.",
"a.a.a.a.a.a.a.a.a.a.a.a.a.a.a.a.a.a.a.a.a.a.a.a.a.a.a.a.a.a.a.a.a.a.a.a.a.a.a.a."};
