/* XPM */
static char * digit_5_xpm[] = {
"40 40 199 2",
"  	c None",
". 	c #214A08",
"+ 	c #295210",
"@ 	c #294A10",
"# 	c #948439",
"$ 	c #946B39",
"% 	c #A57B52",
"& 	c #AD7352",
"* 	c #AD844A",
"= 	c #94844A",
"- 	c #847B10",
"; 	c #946B4A",
"> 	c #AD7363",
", 	c #9C8452",
"' 	c #AD8C5A",
") 	c #9C7B5A",
"! 	c #A58C52",
"~ 	c #BD8C73",
"{ 	c #946B52",
"] 	c #846B52",
"^ 	c #AD8473",
"/ 	c #215208",
"( 	c #BD846B",
"_ 	c #AD7B63",
": 	c #CE9484",
"< 	c #C68C7B",
"[ 	c #A58463",
"} 	c #947B42",
"| 	c #947342",
"1 	c #846B4A",
"2 	c #9C7352",
"3 	c #A58473",
"4 	c #B58C84",
"5 	c #94735A",
"6 	c #946B63",
"7 	c #9C7B6B",
"8 	c #947373",
"9 	c #C69484",
"0 	c #B58463",
"a 	c #BD9484",
"b 	c #9C735A",
"c 	c #BD9C84",
"d 	c #A5846B",
"e 	c #B5847B",
"f 	c #9C846B",
"g 	c #BD947B",
"h 	c #A58C73",
"i 	c #947B63",
"j 	c #847352",
"k 	c #8C7B5A",
"l 	c #84735A",
"m 	c #7B6B5A",
"n 	c #7B7352",
"o 	c #B58C7B",
"p 	c #AD847B",
"q 	c #525A31",
"r 	c #5A6339",
"s 	c #526331",
"t 	c #315218",
"u 	c #395A21",
"v 	c #736B4A",
"w 	c #6B6B42",
"x 	c #B5947B",
"y 	c #AD8C6B",
"z 	c #CE9C84",
"A 	c #8C734A",
"B 	c #525A29",
"C 	c #315210",
"D 	c #B59484",
"E 	c #635A39",
"F 	c #BD8C6B",
"G 	c #847B5A",
"H 	c #D6AD8C",
"I 	c #6B6B4A",
"J 	c #8C735A",
"K 	c #9C8473",
"L 	c #4A5A29",
"M 	c #737352",
"N 	c #73734A",
"O 	c #6B734A",
"P 	c #B59473",
"Q 	c #AD735A",
"R 	c #AD8C84",
"S 	c #C69C84",
"T 	c #94846B",
"U 	c #D6AD94",
"V 	c #395218",
"W 	c #636B39",
"X 	c #425A29",
"Y 	c #CEA58C",
"Z 	c #C6A58C",
"` 	c #526329",
" .	c #8C7339",
"..	c #4A6331",
"+.	c #736B42",
"@.	c #8C7B52",
"#.	c #637342",
"$.	c #AD8463",
"%.	c #948463",
"&.	c #315A18",
"*.	c #D69C84",
"=.	c #5A6331",
"-.	c #395A18",
";.	c #7B6B4A",
">.	c #426329",
",.	c #396321",
"'.	c #84734A",
").	c #425A21",
"!.	c #4A6B31",
"~.	c #5A7339",
"{.	c #426B29",
"].	c #426B31",
"^.	c #D6A58C",
"/.	c #5A6B42",
"(.	c #AD8C7B",
"_.	c #527339",
":.	c #948C63",
"<.	c #9C8C6B",
"[.	c #8C8463",
"}.	c #527B39",
"|.	c #5A7B42",
"1.	c #8C8C63",
"2.	c #426321",
"3.	c #8C7B63",
"4.	c #4A7331",
"5.	c #6B8452",
"6.	c #5A8442",
"7.	c #A58C63",
"8.	c #AD9463",
"9.	c #84845A",
"0.	c #63844A",
"a.	c #6B8C52",
"b.	c #AD9473",
"c.	c #A59452",
"d.	c #4A6B29",
"e.	c #73845A",
"f.	c #6B9452",
"g.	c #73945A",
"h.	c #AD8C73",
"i.	c #738452",
"j.	c #849463",
"k.	c #7B8C5A",
"l.	c #B59C84",
"m.	c #AD947B",
"n.	c #84A56B",
"o.	c #7B9C63",
"p.	c #8C9C6B",
"q.	c #C69C7B",
"r.	c #DEA594",
"s.	c #BDA584",
"t.	c #849C63",
"u.	c #7BA563",
"v.	c #9C9C73",
"w.	c #5A844A",
"x.	c #D6B594",
"y.	c #C6A584",
"z.	c #DEB594",
"A.	c #9C9473",
"B.	c #A5A57B",
"C.	c #84AD6B",
"D.	c #638C4A",
"E.	c #9C845A",
"F.	c #94845A",
"G.	c #D6A584",
"H.	c #A59C7B",
"I.	c #8CA573",
"J.	c #8CAD73",
"K.	c #94AD7B",
"L.	c #638C52",
"M.	c #94B57B",
"N.	c #9CB57B",
"O.	c #A59473",
"P.	c #8C8452",
"Q.	c #C6947B",
"R.	c #94BD84",
"S.	c #9CBD84",
"T.	c #739C5A",
"U.	c #949463",
"V.	c #AD9C7B",
"W.	c #8CA56B",
"X.	c #BDB58C",
"Y.	c #B5AD8C",
"Z.	c #A5B584",
"`.	c #A5BD8C",
" +	c #9CC684",
".+	c #8CB573",
"++	c #94BD7B",
"@+	c #A5C68C",
"#+	c #ADCE94",
"$+	c #B5A584",
"%+	c #94A573",
"&+	c #94AD73",
"*+	c #B5D69C",
"=+	c #B59C7B",
"-+	c #C6AD8C",
";+	c #C6B594",
">+	c #B5B58C",
",+	c #B59C6B",
"'+	c #945A29",
". . . . . . . . . . . . . . . . . . . . . . . . . . . . . . . . . . . . . . . . ",
". + . + . + . + . + . + . + . + . + . + . + . + . + . + . + . + . + . + . + . @ ",
". . # $ % & * $ = - & * * ; % $ % & # > # , ' ) = ! ~ { ; % ' % ] ! ' { ^ # / . ",
"@ / ; ~ ( ~ _ : < _ [ ( ~ } ! ~ { | % ' % 1 ! ! 2 3 4 5 ^ _ 6 7 6 8 5 1 5 ; @ . ",
". / ~ & ( : < > ( 9 0 a < 4 a 4 b 3 _ 6 7 6 8 6 1 b 3 c 4 d e 3 8 f 3 e 3 { / . ",
". . * ~ ( & > ( : ( & ~ < g ( 3 h i j k l m n j 7 d ^ 3 o p e 3 b 7 8 8 a 1 . @ ",
"@ . % > a < : ( > < a : q + r p s . . . / . . @ + t t t u v w v l x 3 b 3 y / . ",
"/ . * _ ( > ( 9 z ~ A B / . C D E . @ / @ / @ / @ . @ . . . . . + u w i 3 ! @ . ",
". @ & F _ : z p o q . @ . t G 3 H G I v s t + . . + . + . + . + . . . J 6 | . . ",
". / * 9 : < < K q . + . L J b 5 4 9 4 4 a h t . s E M N v s L s q s O d 3 , . + ",
"@ . P < Q _ k + + . + r c f R R S 9 3 o 3 T / . v 3 U ^ R p e 3 5 e 3 6 b , . . ",
". / % < g w . @ . V T 3 b 3 a R c c f S 3 I @ + j b o 9 4 4 D D a c f R R } @ . ",
". + ] o W . . / X d 8 a 5 4 3 3 Y T g Y c M . C R R Z 9 d 4 3 a 3 5 3 a R | . + ",
". . = V . . + . L e 3 8 f ^ p 3 e p 4 p e ` . X a R D c f S 3 8 a b 4 d 3 ; / . ",
". @  ./ @ C @ . ..p 3 b 7 8 8 4 D e o 4 7 t @ ` 7 d S i x Y S D Y R d R ^ ! @ . ",
"+ . y +.@.; t @ ` ^ 4 3 c 3 b 7 +.#.s ` t / . @ t C t X #.i p 3 b o Z S D , / @ ",
". . ~ ( x < C . L < 9 : $.%.s C . . . @ . + + + &.t &.&.&.X N 4 3 7 3 6 R ! @ + ",
". / } *.( > s . =.~ { ` -.@ . + @ t t s r t -.n ;.k n #.>.,.,.N d D R e 1 , + &.",
"@ . | < z : '.+ ).*.+.@ . + t &.r %.D 8 !.&.>.3 7 3 g 4 f ~.{.].M 4 S R R ! &.&.",
". . % < : < I . + D T N M n i ^.3 R e p L ,./.d 3 6 D a p (.O _.~.:.R 3 g # u ,.",
". + | $.: _ O + -.d 5 e 3 ) b 4 9 o R <.{.{.[.a 3 ^ U d R p f }.|.1.a R T # ,.2.",
". . 2 z 9 < M &.u D 4 c f R R S 9 3 o 3.].4.G 3 b 5 4 9 o R a 5.6.1.c a a 7.>.{.",
"@ / 8.0 _ > N u >.x 3 b 3 D R c c 7 Z k 4._.c 7 R R S 9 ^ 4 3 9.0.a.3 b.R c.{.4.",
". . } x ~ ^.n ,.d.8 D b 4 ^ 3 Y 7 x Y 1.}.0.5 3 a R a c T c ^ e.f.g.D h.f ; 4._.",
". + ; 9 ( > f {.!.d 8 f 3 p 3 e p 4 p i.6.N i g 3 d Y 7 g Y c j.g.k.l.R 3 = _.}.",
". . c.9 9 ( f 4._.G 5 7 8 8 a D e o o 5.0.e.R 3 R 3 a 5 m.e b n.o.p.3 h P , }.|.",
"@ / @.< : q.K }.}.[.3 a 3 b d 3 7 4 m.a.f.9.4 S c a Z Z r.s.R t.u.v.b 1 3 # 6.w.",
". . y p < _ { |.6.k $.< [ x.S Z y.z.v.f.g.A.f 3 6 R 9 a o Z B.C.C.A.5 m.g , 0.D.",
". @ E.9 _ ( h.6.0.F.G.y 9 { g 9 D 4 v.g.o.H.D R e 1 m.T 4 b.I.J.K.l.h x h.7.D.a.",
". / [ > ~ z P L.a.:.G.o ( D 3 b.7 o p.u.n.y.o S R R S a y v.M.M.N.c O.3 7 P.a.f.",
"@ . P : 9 : Q.k.f.<.^.*.x p x c l.h.p.n.I.D O.R 3 x c a D N.R.S.l.f 7 3 P $ g.T.",
"/ . , > 3 _ a o.o.U.z V.t.W.W.W.I.W.J.J.J.K.K.N.H.v.X.Y.Z.`. +`.H.<.m.b 5 ' T.o.",
". @ P o b ( < t.u.n.$.I.n.J.J.J..+.+M.M.M.++S.R.S.S.@+@+@+@+#+#+#+#+#+$+T | o.n.",
". / 7.3 9 r._ W.n.%+_ x K.&+M.N.N.M.R.S.S.S. +@+@+@+@+#+#+#+#+#+*+*+*+H.a ' n.C.",
"@ . d p a ( < S $+=+G.4 Y 9 x.Y c Y.s.=+V.V.Y.$+V.A.-+;+Y.>+>+Y.Y.Z.H.h d | n.J.",
". / ; [ ) _ o 0 x z 4 U 9 Y Y Y Y P D D x b.7 a R 3 Y D b.(.x b.b h 7 T f ; J.M.",
". + P e x 9 9 g ( x ( q.x Y D Y D (.P m.P 5 x 3 h P 3 3 h.y 3 b m.P 7 d 7 = M.++",
". . 8.! ' ' :.,+E.d 8.P ' E.' ,+, 8.c., , 8.| $ E.7.! # 2 , | | | ; '+'+| '+R.S.",
"@ / . . . . . . . . . . . @ + &.&.,.{.{.].4.}.}.6.6.0.a.f.g.T.o.n.C.J.M.M.R.S.@+",
". @ / @ / @ / @ . + . + + + &.u ,.>.{.!.4._.|.|.w.D.a.f.g.T.o.n.n.J..+M.R.S.@+@+"};
