/* XPM */
static char * digit_9_xpm[] = {
"40 40 91 1",
" 	c None",
".	c #FFFFFF",
"+	c #DEA58C",
"@	c #D6AD94",
"#	c #D69C84",
"$	c #CEA58C",
"%	c #CEA584",
"&	c #CE9C94",
"*	c #CE9C84",
"=	c #C6B594",
"-	c #C6A58C",
";	c #C69C84",
">	c #C69484",
",	c #C68C7B",
"'	c #BD9C84",
")	c #BD8C6B",
"!	c #BD8484",
"~	c #BD846B",
"{	c #BD8442",
"]	c #B5BDD6",
"^	c #B5A5B5",
"/	c #B59C8C",
"(	c #B59C6B",
"_	c #B59484",
":	c #B58C84",
"<	c #B5847B",
"[	c #B57B73",
"}	c #B57B4A",
"|	c #B5736B",
"1	c #ADA5C6",
"2	c #AD9473",
"3	c #AD9452",
"4	c #AD8C63",
"5	c #AD848C",
"6	c #AD8484",
"7	c #AD8463",
"8	c #AD7B9C",
"9	c #AD7363",
"0	c #AD7352",
"a	c #A59CB5",
"b	c #A59494",
"c	c #A58C52",
"d	c #A58473",
"e	c #A57B73",
"f	c #A57B52",
"g	c #A56B73",
"h	c #A56B4A",
"i	c #A56363",
"j	c #9C846B",
"k	c #9C8452",
"l	c #9C735A",
"m	c #9C6339",
"n	c #94ADD6",
"o	c #949CBD",
"p	c #9494B5",
"q	c #948C9C",
"r	c #94849C",
"s	c #948484",
"t	c #94846B",
"u	c #948421",
"v	c #947B7B",
"w	c #94736B",
"x	c #947342",
"y	c #945A6B",
"z	c #945A52",
"A	c #945A29",
"B	c #8C8410",
"C	c #8C737B",
"D	c #8C736B",
"E	c #847B9C",
"F	c #846B4A",
"G	c #7B7394",
"H	c #7B5A73",
"I	c #73737B",
"J	c #735A84",
"K	c #734A5A",
"L	c #6B4252",
"M	c #635A6B",
"N	c #63526B",
"O	c #63426B",
"P	c #5A426B",
"Q	c #52314A",
"R	c #4A5252",
"S	c #4A3163",
"T	c #4A2142",
"U	c #422952",
"V	c #391842",
"W	c #31215A",
"X	c #310831",
"Y	c #290029",
"Z	c #210029",
"VVXXXXYYZYZZZYZYZYZYZYZYZYZYZYZYZYZYZYZY",
"VVXXXXXZYYYYYYYYYYYYYYYYYYYYYYYYYYYYYYYZ",
"TVuxf0}xxBf}}xfxf0u|ukc7x4)zxf4fFc4zduYY",
"VVx)~)9*>99))x4)zxf4fF4cFd_ld0wjwwwFlxYZ",
"TU)0~*,97>4>>_<_ld9wjLQlFld_:2<dgjd<dzYY",
"UT0))09~#~0[,>~d_!j<iZYL<d<<<<<2lwww:FZY",
"UUf9!,*~9,>*7'6<<_<<QYZLw:_<:!d<d_2l2jYZ",
"UU39~9~>*~~,*w;'<<:jXZXwl7dj<'w6d6dwd3ZY",
"QUh)9eKe<w_<:'dd@d:LYYV2jd:<DLD,gv[jwxYY",
"SQ3,KVXXYVLLywll:,:QYYKjKQTXZYZXQe'd2kZY",
"QS),LVVXXYZYZZZQ'>2VYXTXYYZYZYZZYZwlzkYZ",
"SS4,*eKKVXYZYYYYX;KYYYYYZXLKDiHTYYT6_xZY",
"PQF,+07wTXXKXXYYQjLZYZYXLd>%d<4:XYY26xYY",
"PP4~~+#<LVVDweww<eYYYTLj'5/'j'dwTZYL2xYZ",
"PS{~9|7:HTVzwww:'KYZT'2:dd$w,$'/QYZLd4ZY",
"OP2)*096yUWi'dl2dTZYH6g7<2<<:<<dTYYK_kZY",
"OP)~<,*)KUQe7_6<<VYXjljvw<_<<:d!XZYz6cYY",
"NOx*)9~>wPUg*w;_DYYL:j;dlddj:'wDYYX6FkZY",
"NOx>**>[DPSHyg<dLXXK:d6dw2<:,:<TYYK6_4YZ",
"JNf,:CJJOOPPSUR@LVVedlgj2w':<<KYZZyd,uZY",
"JNm~5GJJJMOPPQL:gLD'_!_'dg@j6<VZYX_6txYY",
"JJk*>6566JHCj65;;d:e'j<dll!*<KZYXw''_4ZY",
"JJ4999d<dJNDe'6''j;2g_;j66;>wZZYLdd26cYZ",
"JJx')$j;dGJD:jd$j<$''$ld'__'TYYZe''<jxZY",
"JJx>~9:d<GGI2<2<<'<<dlw:jd$QZYYD$j_6dkZY",
"GJc;'~<<<EGvgD:'<<:d:26462yZYYL'F2e22kYZ",
"GGz,*;::d5E5dljew:'w<d<>/vTXXT_<:<lFduYY",
"GG4<,990;brEj&5/;@;_,:jjiUVVQ';_;dl<:kYZ",
"GGk>9~,*#5prrEGs_''-_;_vOUUTL2<<-_2224ZY",
"EG49~&=^aaporrEsj<<<2-<PSQUUUVe-_;ddwkYZ",
"EE2*1]]]n1aabb6;'27_-6MOPPHSUTVQewjd(mXZ",
"EEk91]]]]^^/7@-;__;<vJJMPD@DQUUVTK2ll4XY",
"rr2:l/&>|#},~$$@$'2dEJJJs'@$/vUUTVQDwxXX",
"rrjd*+9<4*|>>$@@$$-EGGGj2:$;'/gQUTVV_4XX",
"pp7<>7,#>>#:$*@$''/rEs6>2w$$2;_2NUUVlxXV",
"prxjl9<~,*:@>$$$$2>b82j_6d$'2<2<lDQLDxVX",
"pp2<_>;<)<);<$_$'<222l<2d2de22dl_2vdjkVV",
"pp4c344(kj4(4k4(k4kck4xmc4fukkxmxxAAxAVV",
"appqprrrEEEGGGGJJJJJNNONPPPPSQPUSUUUTTVV",
"1aoorppErEEEGGGGJJJJJJJNNOPPPPSPQSQUUUUT"};
