/* XPM */
static char * digit_0_xpm[] = {
"40 40 216 2",
"  	c None",
". 	c #7B0063",
"+ 	c #948439",
"@ 	c #946B39",
"# 	c #A57B52",
"$ 	c #AD844A",
"% 	c #947B42",
"& 	c #847B10",
"* 	c #947342",
"= 	c #AD7352",
"- 	c #9C8452",
"; 	c #A58C52",
"> 	c #9C845A",
", 	c #BD8C6B",
"' 	c #946B52",
") 	c #846B4A",
"! 	c #AD7B6B",
"~ 	c #BD846B",
"{ 	c #AD7B63",
"] 	c #D69C84",
"^ 	c #BD847B",
"/ 	c #AD7363",
"( 	c #A58452",
"_ 	c #AD736B",
": 	c #945252",
"< 	c #8C5A4A",
"[ 	c #9C6352",
"} 	c #A56B5A",
"| 	c #845252",
"1 	c #9C6B52",
"2 	c #9C735A",
"3 	c #9C636B",
"4 	c #A56B7B",
"5 	c #945A5A",
"6 	c #A55A63",
"7 	c #945263",
"8 	c #946363",
"9 	c #947373",
"0 	c #94735A",
"a 	c #CE9484",
"b 	c #AD6B7B",
"c 	c #943963",
"d 	c #841863",
"e 	c #A58473",
"f 	c #B5847B",
"g 	c #842963",
"h 	c #BD8C84",
"i 	c #C68C7B",
"j 	c #BD737B",
"k 	c #9C4A63",
"l 	c #9C5273",
"m 	c #9C4A73",
"n 	c #9C5A6B",
"o 	c #9C426B",
"p 	c #8C2963",
"q 	c #A56B6B",
"r 	c #946B5A",
"s 	c #9C7B5A",
"t 	c #94736B",
"u 	c #B58C7B",
"v 	c #A5736B",
"w 	c #A58463",
"x 	c #BD9484",
"y 	c #B58463",
"z 	c #C69C84",
"A 	c #B59484",
"B 	c #8C3163",
"C 	c #B58C84",
"D 	c #BD948C",
"E 	c #AD8473",
"F 	c #9C4273",
"G 	c #AD8C84",
"H 	c #9C7B6B",
"I 	c #840863",
"J 	c #CE9C84",
"K 	c #AD847B",
"L 	c #A56373",
"M 	c #D6AD94",
"N 	c #841063",
"O 	c #A57B73",
"P 	c #94426B",
"Q 	c #8C4A63",
"R 	c #944A6B",
"S 	c #A55273",
"T 	c #946B63",
"U 	c #84086B",
"V 	c #C68C84",
"W 	c #C6847B",
"X 	c #AD5A73",
"Y 	c #AD737B",
"Z 	c #A56B73",
"` 	c #94635A",
" .	c #8C2163",
"..	c #94316B",
"+.	c #8C296B",
"@.	c #A57373",
"#.	c #84106B",
"$.	c #AD5273",
"%.	c #945A6B",
"&.	c #B57B7B",
"*.	c #7B0863",
"=.	c #AD5A7B",
"-.	c #CEA58C",
";.	c #9C6B6B",
">.	c #841073",
",.	c #841873",
"'.	c #B5736B",
").	c #AD6B73",
"!.	c #AD7B7B",
"~.	c #A5637B",
"{.	c #94526B",
"].	c #8C5263",
"^.	c #B5947B",
"/.	c #A55A7B",
"(.	c #84186B",
"_.	c #AD8484",
":.	c #8C217B",
"<.	c #CE9C8C",
"[.	c #8C295A",
"}.	c #94525A",
"|.	c #8C3963",
"1.	c #94397B",
"2.	c #BD9C84",
"3.	c #C69484",
"4.	c #944273",
"5.	c #A55A73",
"6.	c #8C396B",
"7.	c #8C216B",
"8.	c #8C1873",
"9.	c #9C6373",
"0.	c #94296B",
"a.	c #8C2984",
"b.	c #842163",
"c.	c #BD8484",
"d.	c #944A7B",
"e.	c #8C297B",
"f.	c #946B6B",
"g.	c #945273",
"h.	c #A56B84",
"i.	c #A58C73",
"j.	c #BD947B",
"k.	c #943184",
"l.	c #A5737B",
"m.	c #943173",
"n.	c #8C2173",
"o.	c #944284",
"p.	c #AD7B84",
"q.	c #8C3184",
"r.	c #BD7B7B",
"s.	c #9C4A84",
"t.	c #94398C",
"u.	c #A58C63",
"v.	c #AD9463",
"w.	c #946373",
"x.	c #B58484",
"y.	c #A57384",
"z.	c #AD6B84",
"A.	c #944294",
"B.	c #9C528C",
"C.	c #A59452",
"D.	c #DEA594",
"E.	c #B59473",
"F.	c #A55A84",
"G.	c #943994",
"H.	c #9C4294",
"I.	c #A56384",
"J.	c #9C5A73",
"K.	c #AD738C",
"L.	c #B5848C",
"M.	c #BD8C8C",
"N.	c #CE9C94",
"O.	c #BD9C8C",
"P.	c #AD8C73",
"Q.	c #9C4A94",
"R.	c #B56B73",
"S.	c #C69C7B",
"T.	c #AD7384",
"U.	c #94318C",
"V.	c #9C4A9C",
"W.	c #AD7394",
"X.	c #AD8C7B",
"Y.	c #A55A6B",
"Z.	c #942984",
"`.	c #9C529C",
" +	c #9C52A5",
".+	c #A55A9C",
"++	c #C68484",
"@+	c #C6A58C",
"#+	c #A55AA5",
"$+	c #A563AD",
"%+	c #AD7B8C",
"&+	c #A563A5",
"*+	c #A56BAD",
"=+	c #DEB594",
"-+	c #A5638C",
";+	c #A56BA5",
">+	c #B59C6B",
",+	c #AD6B9C",
"'+	c #B58C8C",
")+	c #AD6BAD",
"!+	c #AD6BB5",
"~+	c #A58484",
"{+	c #A55AAD",
"]+	c #AD7B9C",
"^+	c #A56BB5",
"/+	c #AD8494",
"(+	c #AD8C5A",
"_+	c #D6A584",
":+	c #AD73B5",
"<+	c #B5849C",
"[+	c #9C6B8C",
"}+	c #AD7BBD",
"|+	c #A58C7B",
"1+	c #AD7B94",
"2+	c #945A29",
"3+	c #AD73BD",
". . . . . . . . . . . . . . . . . . . . . . . . . . . . . . . . . . . . . . . . ",
". . . . . . . . . . . . . . . . . . . . . . . . . . . . . . . . . . . . . . . . ",
". . + @ # $ $ @ % & $ $ $ * # @ # $ + = + - ; > % ; , ' * $ ; # ) ; ; ' ! + . . ",
". . * ~ ~ ~ { ] ^ / / ! ~ * ( _ : < [ } [ | 1 2 : 3 4 5 3 6 7 8 7 9 2 ) 0 * . . ",
". . , = ~ a b c . . . . . . . . . . . . . . . . . . . . . . . . . d e f e 1 . . ",
". . $ ~ , } . . . . . . . . . . . . . . . . . . . . . . . . . . . g 9 9 h ) . . ",
". . # / i i j . . . . c k l m n o . . p q r s 9 t f u f u ^ v f w x e 2 e w . . ",
". . $ { ~ / , i a ~ y i ] 9 z A f . . B C e D e 2 E e t F 4 9 G e G e H e ; . I ",
". . $ ~ { J a K u 9 l L A x e e M N . . E O 5 P Q R l . . . S x 9 9 E w T * . U ",
". . $ V W o X G f Y . . Z e 0 ` Y  .. . . . . . . . . . . . . . ..f A e E - I U ",
". . , i c . . f G u . . +.7 . . . . . . . . . . . . I . . . . . . . @.2 0 - #.#.",
". . ; ^ $.. . 3 Y c . . . . . . . . . . p %.Y v 0 5 . . o K &.Z . . *.G G % #.#.",
". . ) V =.. . . . . . . . . . p b N . . X A -.H G +.. . ;.C e A p I U A G * >.,.",
". . ; ~ '.. . . . . . . . c ).e f n . . l e 0 e !.. . ..H z e 9 ~.U #.O e * ,.,.",
". . ( ~ = . . . p n v . . *.9 u A o . . {.^ e h 3 . . ].^.-.z x /.#.(._.e ; ,.:.",
". . , , <.[.. . u E u  .. . }.E e Q . . |.G e e o . . !.h K K e (.,.1.2.x - :.:.",
". . , ~ ^.S . . } V 3.$.. . 4.K f 5.. . *.2 H 9 6.*.7.f u C E Y ,.8.9.T G ; :.:.",
". . % J ~ 6 . . X ~ ~ &.. . 0.A K L . . . p A v T {.3 t h A 9 1.:.:._.f ) - :.a.",
". . * i ] i I . o J i ] ^ n K ;.b.. . . . . *.#.{.3 C u u u C c.d.!.z G G ; e.a.",
". . # i a i Y 5.f.x K A A q  .. . . . . *.I U #.#.>.,.8.1.1.g.h.K i.G e j.+ a.k.",
". . @ y a { G f K e 2 l.P . . . . ..l.f l /.6.m.,.,.n.:.:.e.a.a.k.o.h.p.t + k.q.",
". . - a z i C G x A l . . . .  .r.e u e x e f e s 2 p./.s.a.k.q.k.t.t.t.A u.q.t.",
". . v.{ { { ! C ;.P . . . I l 2.2.H 2.@.w.p.x.f.y.y.z 3.e u 9.z.o.s.A.B.p.C.t.t.",
". . % j., D.t m . . . . L O n z.#.#.>.,.,.8.:.:.e.a.o.2.H 2.E 9 A 2.A E.t * t.t.",
". . * 3.E } 7.. . . b.T n #.U #.>.,.8.n.:.e.e.a.a.k.F.H ^.-.2.2.-.t 2.G e - G.H.",
". . C.i S . . . . 3 2 H (.#.,.,.n.e.4 9.I.@.G w G e x 0 ^.f 0 A ) ^.e i.E.- A.H.",
". . - W . . I +.q C e A e 7 J.Z t Y x.w.h.9.I.K.K.h.L.M.N.O.x j.C P.2 ) e + A.Q.",
". . w K R.I 6 = S.y y i w N.T.1.e.e.a.a.q.k.t.U.t.H.A.H.A.V.W.A 2.P.T X.j.- Q.V.",
". . > 3.{ , i J -.~ c.Y.1.:.:.e.a.Z.q.k.t.t.t.A.H.A.Q.V.`.`. +.+D A i.E.P.u.V.`.",
". . u./ ~ J a i ++m.,.:.:.e.a.a.k.F.4 !.X.@+C 2.G _.2.A E y.#+ +$+z i.e H - `. +",
". . E.a 3.a a c.,.:.:.e.e.s.Y x A P.w 2.z x i.G E E.O.x x 2.%+&+*+t H e X.@ `.#+",
". . - / w { 3.W :.e.e.z.! =+z L.t.-+K.h.e A P.x G t =+-.A ^.;+$+*+H E.0 2 ;  +#+",
". . >+C 2 , i i { a y i , @+-.t.A.A.H.Q.V.V.`.,+%+'+M @+N.*+)+!+~+E.t ^.t % {+&+",
". . u.e 3.M / ^.y a { x z M M Q.H.Q.V.V.`.`.#+ +#+$+$+]+*+^+!+/+X.P.z 0 2.(+&+$+",
". . w f h ~ i a z 3._+C -.3.=+-.'+L.%+.+#+ +#+&+$+$+*+^+!+:+<+E.X.E.T e w * $+$+",
". . * w s { ^.~ ^.J C M 3.-.-.-.-.P.x A X.%+[+$+$+*+!+:+:+}+}+X.s i.t H H * $+!+",
". . E.K j.3.V ^.~ j.~ S.^.-.A -.A ^.P.X.E.0 ^.e |+G p.1+/+/+_.0 X.E.H u.t - ^+^+",
". . v.; (+(+u.>+> w v.E.(+s (+>+- v.C.C.- v.* @ C.u.; + - - * * * % 2+2+* 2+!+:+",
". . . . . . . . . . *.U #.#.,.8.,.:.:.a.a.q.U.t.t.A.A.H.V.V.`.#+ +{+^+*+^+:+:+3+",
". . . . . . . . . *.U #.#.,.,.:.:.e.a.q.k.U.t.t.A.A.Q.V.V.`.#+ +$+$+$+*+!+:+3+}+"};
