/* XPM */
static char * digit_4_xpm[] = {
"40 40 237 2",
"  	c None",
". 	c #00A5DE",
"+ 	c #009CD6",
"@ 	c #0094CE",
"# 	c #008CC6",
"$ 	c #008CBD",
"% 	c #0084BD",
"& 	c #0084B5",
"* 	c #007BAD",
"= 	c #0073AD",
"- 	c #0073A5",
"; 	c #006B9C",
"> 	c #006B94",
", 	c #006394",
"' 	c #00638C",
") 	c #005A8C",
"! 	c #005284",
"~ 	c #0094D6",
"{ 	c #086384",
"] 	c #00527B",
"^ 	c #948439",
"/ 	c #946B39",
"( 	c #A57B52",
"_ 	c #AD7352",
": 	c #AD844A",
"< 	c #947B42",
"[ 	c #847B10",
"} 	c #947342",
"| 	c #AD7363",
"1 	c #9C8452",
"2 	c #A58C52",
"3 	c #9C845A",
"4 	c #BD8C6B",
"5 	c #946B52",
"6 	c #846B4A",
"7 	c #AD8C73",
"8 	c #004A73",
"9 	c #BD846B",
"0 	c #AD846B",
"a 	c #C69484",
"b 	c #BD8C84",
"c 	c #A57B63",
"d 	c #B58473",
"e 	c #AD8C5A",
"f 	c #6B7B84",
"g 	c #5A8494",
"h 	c #8C7363",
"i 	c #A58473",
"j 	c #AD7B63",
"k 	c #9C7363",
"l 	c #9C7B6B",
"m 	c #946B63",
"n 	c #9C8473",
"o 	c #94735A",
"p 	c #B5948C",
"q 	c #109CCE",
"r 	c #109CD6",
"s 	c #219CCE",
"t 	c #6B94A5",
"u 	c #638CA5",
"v 	c #9C847B",
"w 	c #947373",
"x 	c #08739C",
"y 	c #006BA5",
"z 	c #427B94",
"A 	c #AD8C84",
"B 	c #AD847B",
"C 	c #B5847B",
"D 	c #004A6B",
"E 	c #738484",
"F 	c #108CBD",
"G 	c #1084B5",
"H 	c #1884AD",
"I 	c #738494",
"J 	c #8C7B7B",
"K 	c #73848C",
"L 	c #106B94",
"M 	c #396B8C",
"N 	c #637B84",
"O 	c #847373",
"P 	c #00426B",
"Q 	c #C68C7B",
"R 	c #6B9CAD",
"S 	c #0894CE",
"T 	c #087BAD",
"U 	c #5A737B",
"V 	c #317B94",
"W 	c #6B737B",
"X 	c #BD9484",
"Y 	c #9C735A",
"Z 	c #004263",
"` 	c #5A849C",
" .	c #C6A58C",
"..	c #948C84",
"+.	c #738C9C",
"@.	c #528494",
"#.	c #5294A5",
"$.	c #398CAD",
"%.	c #3184A5",
"&.	c #3984A5",
"*.	c #427B9C",
"=.	c #106B8C",
"-.	c #316B8C",
";.	c #39738C",
">.	c #106384",
",.	c #08527B",
"'.	c #737B84",
").	c #003963",
"!.	c #B58C84",
"~.	c #AD8473",
"{.	c #D6AD94",
"].	c #63737B",
"^.	c #848484",
"/.	c #A58C63",
"(.	c #00395A",
"_.	c #CE9484",
":.	c #A58484",
"<.	c #6B8494",
"[.	c #638494",
"}.	c #8C8484",
"|.	c #10638C",
"1.	c #7B8484",
"2.	c #00315A",
"3.	c #003152",
"4.	c #638C94",
"5.	c #1094C6",
"6.	c #9C8C8C",
"7.	c #A5948C",
"8.	c #AD9484",
"9.	c #C6A584",
"0.	c #B59484",
"a.	c #105A7B",
"b.	c #526B73",
"c.	c #4294B5",
"d.	c #088CC6",
"e.	c #2984AD",
"f.	c #297B9C",
"g.	c #39849C",
"h.	c #947B6B",
"i.	c #BD9C8C",
"j.	c #8C7373",
"k.	c #186384",
"l.	c #396373",
"m.	c #52636B",
"n.	c #00314A",
"o.	c #CEAD94",
"p.	c #CEA58C",
"q.	c #186B94",
"r.	c #085A84",
"s.	c #185A7B",
"t.	c #4A6373",
"u.	c #185273",
"v.	c #315A6B",
"w.	c #00294A",
"x.	c #1894C6",
"y.	c #108CB5",
"z.	c #107BAD",
"A.	c #107BA5",
"B.	c #397394",
"C.	c #086B94",
"D.	c #63636B",
"E.	c #4A7384",
"F.	c #085273",
"G.	c #5A636B",
"H.	c #B59C84",
"I.	c #7B737B",
"J.	c #214A63",
"K.	c #188CBD",
"L.	c #7B8C94",
"M.	c #527B8C",
"N.	c #5A5A63",
"O.	c #CE9C84",
"P.	c #104A6B",
"Q.	c #184A63",
"R.	c #636B73",
"S.	c #B5947B",
"T.	c #6B6B73",
"U.	c #6B7384",
"V.	c #8C8C8C",
"W.	c #7B7B7B",
"X.	c #315A73",
"Y.	c #5A6B73",
"Z.	c #425A73",
"`.	c #295263",
" +	c #29425A",
".+	c #A58463",
"++	c #C69C84",
"@+	c #104263",
"#+	c #AD9463",
"$+	c #B58463",
"%+	c #9C7B5A",
"&+	c #A59484",
"*+	c #B59473",
"=+	c #A59452",
"-+	c #396B84",
";+	c #736B63",
">+	c #7B736B",
",+	c #425A6B",
"'+	c #847B6B",
")+	c #21637B",
"!+	c #73737B",
"~+	c #08314A",
"{+	c #183952",
"]+	c #8C7B6B",
"^+	c #397B94",
"/+	c #216B8C",
"(+	c #847363",
"_+	c #73635A",
":+	c #083952",
"<+	c #6B6B6B",
"[+	c #636B6B",
"}+	c #635A63",
"|+	c #737B7B",
"1+	c #4A5252",
"2+	c #103952",
"3+	c #296B8C",
"4+	c #5A6B6B",
"5+	c #D6A594",
"6+	c #D6A584",
"7+	c #D69C84",
"8+	c #C69C7B",
"9+	c #4A6363",
"0+	c #294252",
"a+	c #083152",
"b+	c #84736B",
"c+	c #7B7B84",
"d+	c #084263",
"e+	c #736B6B",
"f+	c #525A63",
"g+	c #426B84",
"h+	c #526B7B",
"i+	c #8C846B",
"j+	c #9C8C73",
"k+	c #52525A",
"l+	c #425A63",
"m+	c #B59C6B",
"n+	c #945A29",
". . + + + @ @ @ @ # # # $ % % % & & & * * = - - - - ; ; ; > , , , ' ' ) ! ! ! ! ",
"~ ~ ~ @ @ @ # # # $ % % % & & & = * = = - - - ; ; ; > > , , , ' ) ) ! { ! ! ] ] ",
"+ @ ^ / ( _ : / < [ _ : : } ( / ( : ^ | ^ 1 2 3 < 2 4 5 < _ 2 ( 6 2 2 5 7 ^ ] 8 ",
"@ @ } 9 9 9 0 a b c 0 0 d < 2 4 5 } _ 2 ( 6 2 e 5 f g h i j k l m n m 6 o } 8 8 ",
"# # 4 _ d p q q q r q s t t u t h v c k l m w o 6 x y z A i B i w l i C i 5 8 D ",
"# $ : d 4 E . . . . ~ @ @ @ # # F G H I i w l J K x ; ; L M N O o l w w b 6 D P ",
"% % _ | Q R . . q q S @ @ # # $ % % & T n U V x y ; ; , , ' ) ' W X i Y i 0 Z Z ",
"% & : j 9 ` . q  .0 ..u +.@.#.$.%.&.%.@.*.- - - ; ; , =.-.;.>.! ,.'.i l i 2 Z ).",
"& * ( 9 j R . q !.w X C X X ~.0 {.~.A K - - ; ;.].=., =.!.Q ^.>.] ,.w /.m } (.(.",
"* = : Q _.t ~ S B C i o B i o o !.Q C :.<.[.}.~.i =.' |.B !.w }.] 8 1.~.i 1 2.3.",
"= - 4 Q | 4.~ 5.6.7.8.!.9.l A A 9.a 7 C i X i 0.i |.) >.:.C B 0 a.8 b.Y o 1 3.3.",
"- - e Q _.c.@ @ d.F F e.f.g.&.%.&.4.h.i.~.j.8.i h >.) k.v :.X 0.l.8 m.A A < n.n.",
"; ; 6 Q o.d.@ # # $ % & & & * = - - ..p.z L q.|.|.{ ! r.s.a.t.].u.D v.W A } 3.w.",
"; > 2 d d x.# y.g ` @.H z.A.A.x A.B.A B C., ' ' ) ! ! ] ] ] 8 8 D P P Z D.} 3.w.",
", , : 9 | F # $.C C ~.m h.w w !.0.C C !.E.=.|.>.>.{ ] ] a.F.8 D P Z Z ).G.2 w.n.",
"' ' 4 d  .y.$ &.!.i C i H.i Y i i l !.X w A i i v a.] a.B J I.O J.Z t.v 0.1 3.w.",
") ) 4 9 C K.% &.c b 0.L.N [.[.B.C.M.B B i Y h.w w s.8 u.!.C ~.C v.).N.m A 2 w.n.",
"! ! < O.d G & & z.T A.- - ; ; ; , L A i Q i X i o a.8 P.A X w :.Q.(.R.C 6 1 w.3.",
"! ] } Q O.G & & * * - - - ; L L =.}.0.j.N b.'.i l F.8 u.S.C 0.T.(.(.J A A e n.w.",
"] ] ( Q _.&.& T U.V.^.V.V.W.j.o.i A C ].! ] ] F.X.F.D P.Y.Z.J.(.(.`.v i C ^ 3.n.",
"8 8 / j O.N * A.C i Y B i Y k C a C A }.E.a.] 8 8 P P Z ).).(.(. +n X A .+^ w.w.",
"8 8 1 O.a [.= - 0.0.!.++h.A 8.++a i C ~.0.i I.Y.v.D Z Z @+Q.R.J C H.X H.0./.w.3.",
"D D #+$+j N - A.n X i %+i X :.0.&+T.&+i w X 9.k !.R.Z Q.n C i X i ~.i *+A =+n.w.",
"P Z < S.9 +.- x n j.V.b.N -+>.>.r.] a.&+X p.o i H.R.).@+l 9.i w X 0.0.S.l } 3.n.",
"Z ).} 7.M.x ; x L L ' , ' ) ! ! ] ] a.J i ;+;+J >+,+(.@+'+v J O 8.h.X A i 1 w.3.",
"(.(.3 [.- - ; ; , , ' ) ! { k.)+U W B ~.!+P Z ).).(.(.3.3.3.n.n.~+{+]+i *+1 w.w.",
"(.(.1 ..z ^+x > , /+U f U (+j.w l !.X w !+D Z Z (.(.(.3.3.n.w.3.n.n._+6 i ^ n.n.",
"2.3..+C Q k |., |.]+$+a /.7.a.s...{.9.X S.B N.N.N.`.3.:+D.<+T.[+<+}+o S.S.1 3.w.",
"3.n..+X j |+, ' V.9 O.$+a }+] 8 F.v  . .0.9.X 8.C 1+3.2+b 7 C *+ .0.i 7 *+.+w.n.",
"w.w./.| ~.q.' 3+O.9 p.S.9 H.Z.8 D Z.7 B *+ .!.X A D.w.{+0 0 8.H.<+<+4+l h.1 w.3.",
"3.n.*+_.K ' ) f 5+Q 6+7+S.B 8+Z.D P 9+0.9.T.4+[+N.0+3.~+`.0+a+a+w.n.w.b+S./ n.w.",
"n.w.1 | U ) ) c+++9 O.++j {...l.Z Z d+i e+3.3.3.w.3.w.3.n.w.n.n.a+2+f+o o 2 3.n.",
"w.n.*+C Y.' ! g+c a '+h+X.u.D Z Z ).(.<+O 2+2+2+{+:+n.2+<+T.>+'+i+7 l *+l } w.3.",
"n.3./.i X k.! ] a.u.F.D D P P d+t.`.(.@+7 j+i i 7 G.w.2+ .++S.S.7 S.9.m H.e w.w.",
"w.w..+B a h.s.] ] 8 8 8 P.b.}.8. .T.3.3.}+*+0.0.S.k+3.n.>+X 0.7 S.7 o i 0 } n.n.",
"n.3.} 0 %+j S.<+R.|+R.1.X p.p.p.p.7 l+@+'+S.l X A }+w.2+i 7 7 S.o i l l h.} 3.w.",
"w.w.*+B S.a X S.4 S.d 8+S.p.0.p.0.S.7 7 7 o 7 i i 7 e+>+7 7 i Y S.7 l /.l 1 w.3.",
"n.3.#+2 e e /.m+3 0 #+*+e %+e m+1 #+=+3 1 m+} / =+/.2 ^ 1 1 } } } < n+n+} n+3.w.",
"n.w.n.w.n.w.w.3.w.w.n.w.3.w.n.w.w.3.n.n.n.w.n.3.w.3.w.w.w.w.w.w.3.3.3.3.w.3.w.n.",
"w.3.w.3.w.3.n.w.w.n.3.n.w.n.w.3.n.n.w.3.w.3.n.w.n.w.n.3.n.3.n.3.w.w.w.w.n.w.n.w."};
