/* XPM */
static char * digit_6_xpm[] = {
"58 59 237 2",
"  	c None",
". 	c #000000",
"+ 	c #181008",
"@ 	c #4A3918",
"# 	c #6B5221",
"$ 	c #735A18",
"% 	c #7B6B18",
"& 	c #847310",
"* 	c #7B7308",
"= 	c #7B7300",
"- 	c #847318",
"; 	c #736321",
"> 	c #635A21",
", 	c #100800",
"' 	c #524A21",
") 	c #7B6B10",
"! 	c #847321",
"~ 	c #7B6B00",
"{ 	c #4A4218",
"] 	c #5A4A21",
"^ 	c #7B6B21",
"/ 	c #8C7329",
"( 	c #8C7B18",
"_ 	c #8C7318",
": 	c #7B7318",
"< 	c #5A5221",
"[ 	c #AD844A",
"} 	c #B58C63",
"| 	c #AD8473",
"1 	c #BD9484",
"2 	c #947373",
"3 	c #AD8C7B",
"4 	c #B59484",
"5 	c #B5947B",
"6 	c #9C7B52",
"7 	c #947B42",
"8 	c #A58C42",
"9 	c #8C7321",
"0 	c #7B7321",
"a 	c #292110",
"b 	c #736329",
"c 	c #847329",
"d 	c #948439",
"e 	c #A58473",
"f 	c #D69C84",
"g 	c #BD8C7B",
"h 	c #AD8C84",
"i 	c #B5847B",
"j 	c #947363",
"k 	c #9C7B5A",
"l 	c #946B5A",
"m 	c #B58C84",
"n 	c #C69484",
"o 	c #A57B5A",
"p 	c #947B39",
"q 	c #635218",
"r 	c #212110",
"s 	c #393118",
"t 	c #8C7342",
"u 	c #B59473",
"v 	c #9C735A",
"w 	c #AD7363",
"x 	c #C6A58C",
"y 	c #9C7B6B",
"z 	c #C69C84",
"A 	c #A58463",
"B 	c #9C8C4A",
"C 	c #393110",
"D 	c #CEA58C",
"E 	c #AD7352",
"F 	c #BD9C84",
"G 	c #9C846B",
"H 	c #8C7339",
"I 	c #DEA594",
"J 	c #B58463",
"K 	c #9C845A",
"L 	c #8C7B31",
"M 	c #BD846B",
"N 	c #A5846B",
"O 	c #736B10",
"P 	c #8C7331",
"Q 	c #B5846B",
"R 	c #8C7B29",
"S 	c #211808",
"T 	c #6B5A21",
"U 	c #A58C4A",
"V 	c #947B4A",
"W 	c #AD846B",
"X 	c #A5734A",
"Y 	c #947B29",
"Z 	c #101008",
"` 	c #D6AD94",
" .	c #946B63",
"..	c #9C7B39",
"+.	c #947B5A",
"@.	c #9C8442",
"#.	c #100808",
"$.	c #CE9C7B",
"%.	c #524218",
"&.	c #946B52",
"*.	c #736B29",
"=.	c #AD9463",
"-.	c #948429",
";.	c #B57B63",
">.	c #8C734A",
",.	c #BD9C7B",
"'.	c #B5946B",
").	c #948431",
"!.	c #847B00",
"~.	c #8C7B08",
"{.	c #847B10",
"].	c #846B4A",
"^.	c #DEB594",
"/.	c #CEA57B",
"(.	c #AD9452",
"_.	c #BD946B",
":.	c #8C8418",
"<.	c #8C8410",
"[.	c #8C8408",
"}.	c #948410",
"|.	c #A57B39",
"1.	c #A57B42",
"2.	c #A58439",
"3.	c #9C8431",
"4.	c #9C8C21",
"5.	c #D6AD8C",
"6.	c #AD8C6B",
"7.	c #9C9421",
"8.	c #9C8C18",
"9.	c #A59421",
"0.	c #A58C73",
"a.	c #AD946B",
"b.	c #A59429",
"c.	c #B59442",
"d.	c #A59C21",
"e.	c #B59463",
"f.	c #AD9C31",
"g.	c #AD9C29",
"h.	c #AD9C39",
"i.	c #ADA521",
"j.	c #B59C6B",
"k.	c #B5A531",
"l.	c #B5A529",
"m.	c #B5A539",
"n.	c #B5A542",
"o.	c #B5AD29",
"p.	c #C69C52",
"q.	c #B59C52",
"r.	c #BD945A",
"s.	c #B5A55A",
"t.	c #B58C6B",
"u.	c #BDAD39",
"v.	c #BDAD31",
"w.	c #B59C4A",
"x.	c #C6A552",
"y.	c #C6B542",
"z.	c #C6BD39",
"A.	c #C6A55A",
"B.	c #BDA55A",
"C.	c #BDA542",
"D.	c #CEB542",
"E.	c #CEAD52",
"F.	c #C6AD4A",
"G.	c #BDA563",
"H.	c #D6BD4A",
"I.	c #CEBD42",
"J.	c #C6AD5A",
"K.	c #CEBD4A",
"L.	c #C6A56B",
"M.	c #CEB55A",
"N.	c #D6C65A",
"O.	c #DECE4A",
"P.	c #CEB563",
"Q.	c #CEA56B",
"R.	c #D6B56B",
"S.	c #E7D652",
"T.	c #DECE5A",
"U.	c #C6A563",
"V.	c #D6BD63",
"W.	c #E7CE52",
"X.	c #DECE52",
"Y.	c #CEA573",
"Z.	c #CEAD6B",
"`.	c #EFD65A",
" +	c #E7D65A",
".+	c #EFDE5A",
"++	c #635221",
"@+	c #423910",
"#+	c #E7BD7B",
"$+	c #F7E763",
"%+	c #EFDE63",
"&+	c #E7CE6B",
"*+	c #EFD663",
"=+	c #211810",
"-+	c #FFEF63",
";+	c #DEBD73",
">+	c #E7CE73",
",+	c #DEB56B",
"'+	c #F7E76B",
")+	c #D6BD73",
"!+	c #181808",
"~+	c #CEAD7B",
"{+	c #FFEF6B",
"]+	c #EFCE6B",
"^+	c #FFE76B",
"/+	c #F7DE63",
"(+	c #E7BD6B",
"_+	c #D6B563",
":+	c #EFCE73",
"<+	c #E7BD73",
"[+	c #DECE6B",
"}+	c #EFD673",
"|+	c #FFE763",
"1+	c #F7D673",
"2+	c #7B6B08",
"3+	c #D6BD7B",
"4+	c #DEAD7B",
"5+	c #D6A573",
"6+	c #4A4221",
"7+	c #A59439",
"8+	c #5A5229",
"9+	c #635229",
"0+	c #6B5A31",
"a+	c #CEBD5A",
"b+	c #C6B552",
"c+	c #6B6339",
"d+	c #DEC66B",
"e+	c #D6C663",
"f+	c #DEC663",
"g+	c #D6BD6B",
"h+	c #D6B55A",
"i+	c #5A5231",
"j+	c #7B6B42",
"k+	c #EFDE6B",
"l+	c #E7CE63",
"m+	c #8C8442",
"n+	c #7B6B39",
". . . . . . . . . . . . . . . . . . . . . . . . . . . . . . . . . . . . . . . . . . . . . . . . . . . . . . . . . . ",
". . . . . . . . . . . . . . . . . . . . . . . . . . . . . . . . . . . . . . . . . . . . . . . . . . . . . . . . . . ",
". . . . . . . . . . . . . . . . . . . . . . . . . . . . . . . . . . . . . . . . . . . . . . . . . . . . . . . . . . ",
". . . . . . . . . . . . . . . . . . . . . + @ # $ % & * = = = * - - ; > @ + . . . . . . . . . . . . . . . . . . . . ",
". . . . . . . . . . . . . . . . . . , ' ; ) = = = = % % - ! - % - ~ = = = - ; { , . . . . . . . . . . . . . . . . . ",
". . . . . . . . . . . . . . . . + ] ^ = = % % % ) ) / ( - & _ _ % : % % ^ % = = ^ < + . . . . . . . . . . . . . . . ",
". . . . . . . . . . . . . . . ' ^ = = % % ^ - / [ } | 1 2 1 3 4 5 6 7 8 9 0 % % = = ^ { . . . . . . . . . . . . . . ",
". . . . . . . . . . . . . a b = = % % c d 6 e f g g h 3 i e j i e k l m n o p c % % = = q r . . . . . . . . . . . . ",
". . . . . . . . . . . . s 0 ~ % ^ c t u e v j w w n g h 4 1 i x y h h z z e m A B ! % % = / C . . . . . . . . . . . ",
". . . . . . . . . . . @ : = % 0 8 u 4 D y h h z g E e m e F e l e 1 h 4 F G z e 2 u H % % = ! { . . . . . . . . . . ",
". . . . . . . . . . @ - ~ % c 6 3 i e l e 4 i I w J y z e 2 F k i e e D y 5 D z 4 D G K c : ~ - { . . . . . . . . . ",
". . . . . . . . . @ % = % L A m 1 e i e g e e M I z i e i e 2 y e i e i 3 m i 3 e l e 4 N L 0 = ! @ . . . . . . . . ",
". . . . . . . . C ! = O P N y i 1 2 m e e i e w E Q 1 3 3 e v G 2 2 g 4 i i m e 1 e 1 N | z c % = ! @ . . . . . . . ",
". . . . . . . a ! = ^ L | 3 m i 3 e v G 2 2 g D E w i m | i e 4 N ! R N y m 1 2 3 e e i e i | L % = ; S . . . . . . ",
". . . . . . . T ~ - ^ u 4 i i m | i e 1 e v e g g f J E g n n Q U ~ = V i 3 i e v y 2 2 m 4 i W c % = T . . . . . . ",
". . . . . . ] = ! ! 6 i e G m F 2 h e h e G e M X 9 * & * = Y [ ! = = / B 6 N i N 5 e v N e y m U ; : = ' . . . . . ",
". . . . . Z ! ~ % 7 e e ` N h 3 i e v 2 e N  .f ..= = ~ = ~ = ~ = ~ = ~ ~ = ) * ) * / +.| m i m m @.% = ^ + . . . . ",
". . . . . ] = % c o k l 1 n i h 4 1 m F 1 e e n J ) * ) & = = = ~ = = = = = = = = = = 7  .1 m i i j c % = < . . . . ",
". . . . #.0 ~ % B G h h z n | m e 1 e 3 e v v $.w 3 i | N H 7 t P * ~ * / R R R R R R A e ` N h 3 i 7 O ~ ! #.. . . ",
". . . . %.= 0 ! &.e 4 h 1 F G F | 2 4 z y h h n g m h 4 1 m F G h * = Y e i e 1 e i e l v i n i h 4 u ! 0 = %.. . . ",
". . . . *.= $ d k m | e D y 5 D =.d -.- ! B h w ;.N 1 N 4 N v e 4 R ~ R G x e 2 1 F A 3 h x n e 1 N 4 L % ~ ; . . . ",
". . . + ) : ! >.y e i e 3 3 W / = ~ ~ = ~ ~ R Q I y F e 2 1 j g e 7 = - u z ,.B U P ) * L 5 z y F e 2 =.! 0 - Z . . ",
". . . @ = % ! j G 2 2 i m p * = = * c 7 - = = _ P @.7 @.p c ! ! 9 & = = * * * ~ = = = = = '.G 5 D z 4 D - : = @ . . ",
". . . > = % ).e 1 e k | K !.* ( t 3 | m F d ~.= ~.* ~.* * ~.= ~.* ~.* ~.* ~.* ~.* {.{.( 7 4 l u i j 1 ].L % ~ > . . ",
". . . $ = % ..Q g A ^.F /.(._.F F 5 i G e l :.<.<.~.<.( :.[.<.{.:.:.@.H U <.[.:.6 u F F 1 z x ` F 4 g m B O = ; . . ",
". . . ! = - [ z J n &.5 1 4 5 z x 1 F 1 h i :.}.|.1...,.2.}.<.3.` F x x ` 4.:.U m y e  .h z F m x z 4 z 6 ) = 0 . . ",
". . . - - Y ;.5.5 M 1 e u G m | 3 u x m F 6.7.8.(.g f 5.4.8.9.u &.5 n F 6.7.8.(.F 4 h i ].3 k m u 3 u x 3 - % & . . ",
". . . * ! ( g f f 5 3 g F 4 | A 1 x 4 0.a.9.9.b.$.f g c.d.b.e.M 1 e u y (.9.d.=.x m z h h x 4 | A 4 x 4 z - % * . . ",
". . . = - & M n A n g m m g +.| w  .y 6 f.g.b.6 e 4 } g.g.h.M n g [ M 1 [ i.g.'.m g l N w  .y  .2 v ].v e - 0 = . . ",
". . . ~ % - n M E M g n M e j.'.N i (.k.l.m.a.| 3 i n.o.k.A g E c.l.p.M [ k.o.q.r.(.s.m.k.u e 2 G e i e i - % = . . ",
". . . ~ - & ;.g n n J 1 h t.u.v.e.3 u.v.u.w.y m 4 t.u.v.s.g g g u.u.u.g n x.u.v.v.v.v.v.v.t.e v y 2 2 m F - ^ = . . ",
". . . * % _ D M M g f 2 F ,.y.z.A.e B.y.z.z.w.=.e C.z.z.y h M o D.z.y.M M u E.y.y.y.F.x.G.| i e F e v e e ) - * . . ",
". . . - - ! | 2 1 i 4 4 | e H.I.J.i 3 | (.K.I.I.g J.K.L.i z w f M.I.K.2 1 i 1 4 | 6.` e h 3 i e l e G e u ! 0 - . . ",
". . . ! ~ ) o i e l i e l k N.O.M.h 1 4 m e.N.O.P.m i m 2 F n g Q.O.H.,.N k 3 | l l m n m h 4 F m W e  .=.) ~ ! . . ",
". . . $ = : V 4 1 4 F G h h R.S.N.i e 1 e 4 M.S.T.W h i L.U.A.A.V.S.S.W.X.T.X.X.T.Y.z n | i e 1 e 4 | e (.) = ; . . ",
". . . T = % p | 4 e v e 1 h Z.`. +z e 2 1 e B.`. +n R. +.+.+.+`..+.+.+ +.+`.`..+.+ +4 F G z e 2 1 e l v p ^ = ++. . ",
". . . @+~ % 9 0.2 F l m N e #+$+%+D z 4 D G &+$+%+n Z.$+$+$+.+$+`.%+$+`.*+%+ +%+*+Z.D G 5 D F F D y h h 9 ! = @ . . ",
". . . =+- : 0 o e 2 G e i e Y.-+-+;+g _.G.&+-+-+>+F G ;+Z.L.,+#+f '+-+)+| y G | 3 e i 3 m i 3 e l e F K ! ! ) !+. . ",
". . . . ; ~ % ).e v y 2 2 m ~+{+{+-+$+{+-+-+{+]+5.y 5 D F 4 w w J '+^+&+e j y 2 2 m 4 i i m e 1 0.i e L - = ; . . . ",
". . . . @ = % ! W e F e v N u /+-+-+{+-+'+(+Y.6.3 3 m 3 i | z E w '+-+&+i e F e v W e G m 1 2 3 e e W ! ^ ~ ' . . . ",
". . . . Z - ~ % U n J 4 h i 3 '+^+'+Z.U.G 2 2 m 1 i i 1 e m g g f /+^+]+n n J 4 h 3 i i i 3 e v y 2 H % = ^ #.. . . ",
". . . . . ++= % _ Q n y F 4 i ^+-+'+m N 1 e k e e G g F y 4 R._+R.:+-+'+R.<+:+[+}+>+&+>+>+t.m e 1 K % % = %.. . . . ",
". . . . . + ^ ~ % [ g h i e G (+{+/+/.e h e y N ;+^+'+'+'+|+{+|+{+-+{+|+|+|+-+-+-+-+{+-+{+'.m e h H % = ^ !+. . . . ",
". . . . . . { * % ! 6 W e ` e )+-+{+Z.v 2 W e  .}+-+-+|+-+^+-+{+-+^+-+-+'+'+'+'+'+1+R.)+Y.i e v >.% % 2+' . . . . . ",
". . . . . . . b <.R -.6 l m n /.'+-+3+m 1 4 e | 4+Z.3+5+)+Z.<+P.)+5+)+Z.k i | v v m 1 m h F 4 6.).R <.*.. . . . . . ",
". . . . . . . a d 9.L 8 3 z n e $._.F e 3 | l j 1 1 i h 4 4 n n m h 4 4 m z G h h z n N m e g 8 ).d.L a . . . . . . ",
". . . . . . . . 6+7+v.h.q.5 F G F e 2 1 F G h h z n e m e F w E e g e 1 e l e 1 h 1 F y z N (.h.v.7+' . . . . . . . ",
". . . . . . . . . 8+F.I.w.P.A 5 D z 4 D v e 1 h F F G z e 2 M I y z e 2 1 k m e e D G 5 ~+J.w.I.w.9+. . . . . . . . ",
". . . . . . . . . . 0+a+S.b+M.Y.3 3 e v j m N e D y 5 D z 4 g E m e i e 2 G e i e i 3 Y.J.J..+K.0+. . . . . . . . . ",
". . . . . . . . . . . c+d+-+V.e+;+'.m e h W h e 1 l 5 3 l F 1 M m 3 i e v y 2 2 m /.)+V.f+-+f+c+. . . . . . . . . . ",
". . . . . . . . . . . . 8+P.-+d+f+V.)+u i x F 1 x x ` x 4 g n z g m e i e 4 | o Z.g+h+f+{+U.i+. . . . . . . . . . . ",
". . . . . . . . . . . . . s s.^+{+f+f+(+g+L. .h z 1 m F x F g w w E ,.J J 5+V.}+f+f+{+{+s.s . . . . . . . . . . . . ",
". . . . . . . . . . . . . . . j+V.-+{+f+e+g+]+M.Y.G.g u 3 | w M $.4+#+(+}+f+f+h+-+{+V.j+. . . . . . . . . . . . . . ",
". . . . . . . . . . . . . . . . r >.e+{+-+f+e+e+f+k+&+%+'+'+'+'+]+*+l+e+l+f+{+-+V.m+=+. . . . . . . . . . . . . . . ",
". . . . . . . . . . . . . . . . . . + n+s.]+{+-+{+-+f+d+f+V.f+f+(+-+{+-+-+]+B.n++ . . . . . . . . . . . . . . . . . ",
". . . . . . . . . . . . . . . . . . . . . r c+V P.d+k+'+^+-+{+|+k+d+J.U c+r . . . . . . . . . . . . . . . . . . . . ",
". . . . . . . . . . . . . . . . . . . . . . . . . . . . . . . . . . . . . . . . . . . . . . . . . . . . . . . . . . ",
". . . . . . . . . . . . . . . . . . . . . . . . . . . . . . . . . . . . . . . . . . . . . . . . . . . . . . . . . . ",
". . . . . . . . . . . . . . . . . . . . . . . . . . . . . . . . . . . . . . . . . . . . . . . . . . . . . . . . . . "};
