/* XPM */
static char * digit_2_xpm[] = {
"58 59 222 2",
"  	c None",
". 	c #000000",
"+ 	c #181010",
"@ 	c #5A3131",
"# 	c #844239",
"$ 	c #944A42",
"% 	c #AD524A",
"& 	c #B55252",
"* 	c #BD5252",
"= 	c #B54A4A",
"- 	c #BD4A4A",
"; 	c #B55A52",
"> 	c #94524A",
", 	c #844A42",
"' 	c #211010",
") 	c #100808",
"! 	c #634239",
"~ 	c #944A4A",
"{ 	c #A5524A",
"] 	c #AD5252",
"^ 	c #AD5A52",
"/ 	c #633931",
"( 	c #734239",
"_ 	c #A55252",
": 	c #B55A5A",
"< 	c #BD5A5A",
"[ 	c #BD5A52",
"} 	c #734242",
"| 	c #6B3939",
"1 	c #B56352",
"2 	c #C67B6B",
"3 	c #CE8473",
"4 	c #B58473",
"5 	c #B58C84",
"6 	c #947373",
"7 	c #BD9484",
"8 	c #AD847B",
"9 	c #AD736B",
"0 	c #AD6B63",
"a 	c #C6736B",
"b 	c #633131",
"c 	c #311818",
"d 	c #B5524A",
"e 	c #BD6B6B",
"f 	c #AD7363",
"g 	c #A58473",
"h 	c #CE9484",
"i 	c #C68C84",
"j 	c #C68C7B",
"k 	c #AD8C84",
"l 	c #B5847B",
"m 	c #9C735A",
"n 	c #C69484",
"o 	c #B57B73",
"p 	c #B56B63",
"q 	c #B5635A",
"r 	c #844242",
"s 	c #4A2929",
"t 	c #A55A52",
"u 	c #A56363",
"v 	c #B58C7B",
"w 	c #AD7B63",
"x 	c #C69C84",
"y 	c #9C7B6B",
"z 	c #A57B6B",
"A 	c #B5736B",
"B 	c #AD635A",
"C 	c #5A3129",
"D 	c #BD947B",
"E 	c #CEA58C",
"F 	c #94736B",
"G 	c #AD7352",
"H 	c #9C7373",
"I 	c #B56B5A",
"J 	c #9C524A",
"K 	c #A54A4A",
"L 	c #AD5A5A",
"M 	c #BD736B",
"N 	c #DEA58C",
"O 	c #B58463",
"P 	c #AD8C73",
"Q 	c #AD846B",
"R 	c #523129",
"S 	c #AD7B73",
"T 	c #AD8473",
"U 	c #BD846B",
"V 	c #DEA594",
"W 	c #CE9C84",
"X 	c #A5846B",
"Y 	c #AD6B5A",
"Z 	c #BD8C84",
"` 	c #A56B5A",
" .	c #B57B7B",
"..	c #BD8C7B",
"+.	c #B56363",
"@.	c #291818",
"#.	c #8C4A42",
"$.	c #B56B6B",
"%.	c #A56352",
"&.	c #BD8473",
"*.	c #9C6B6B",
"=.	c #B57B6B",
"-.	c #D6AD94",
";.	c #C67363",
">.	c #BD7363",
",.	c #AD7B6B",
"'.	c #BD6B63",
").	c #BD6363",
"!.	c #BD524A",
"~.	c #9C6363",
"{.	c #9C736B",
"].	c #BD7B6B",
"^.	c #A57373",
"/.	c #BD7B73",
"(.	c #9C5A52",
"_.	c #AD8C7B",
":.	c #9C7B63",
"<.	c #A56B6B",
"[.	c #C6635A",
"}.	c #BD635A",
"|.	c #C67B73",
"1.	c #C69C8C",
"2.	c #846B4A",
"3.	c #7B4A42",
"4.	c #C6947B",
"5.	c #A58463",
"6.	c #DEB594",
"7.	c #C6A58C",
"8.	c #946B63",
"9.	c #D69484",
"0.	c #C69C7B",
"a.	c #B57363",
"b.	c #946B52",
"c.	c #D6A584",
"d.	c #AD5A4A",
"e.	c #B59473",
"f.	c #D69C8C",
"g.	c #B58C73",
"h.	c #BD6B5A",
"i.	c #D69C84",
"j.	c #9C6B5A",
"k.	c #9C6B63",
"l.	c #C66B63",
"m.	c #CE847B",
"n.	c #C66363",
"o.	c #BD847B",
"p.	c #C65A5A",
"q.	c #C66B6B",
"r.	c #C6847B",
"s.	c #CE736B",
"t.	c #CE6B6B",
"u.	c #CE7373",
"v.	c #CE7B73",
"w.	c #BD7373",
"x.	c #211810",
"y.	c #9C5A4A",
"z.	c #C67B7B",
"A.	c #CE7B7B",
"B.	c #D67373",
"C.	c #B57373",
"D.	c #D68484",
"E.	c #D6847B",
"F.	c #D67B7B",
"G.	c #C68484",
"H.	c #6B4242",
"I.	c #CE8484",
"J.	c #DE8484",
"K.	c #DE8C8C",
"L.	c #D68C84",
"M.	c #DE8C84",
"N.	c #84524A",
"O.	c #CE8C84",
"P.	c #DE948C",
"Q.	c #DE9494",
"R.	c #E7948C",
"S.	c #CE8C8C",
"T.	c #734A42",
"U.	c #D6948C",
"V.	c #E79C9C",
"W.	c #CE948C",
"X.	c #E79C94",
"Y.	c #E79494",
"Z.	c #C6948C",
"`.	c #634242",
" +	c #C68C8C",
".+	c #EFA5A5",
"++	c #CE9C94",
"@+	c #E7A59C",
"#+	c #94635A",
"$+	c #A57363",
"%+	c #E7A5A5",
"&+	c #EFADA5",
"*+	c #DEA59C",
"=+	c #DE9C9C",
"-+	c #EFADAD",
";+	c #312121",
">+	c #EFB5AD",
",+	c #D69C94",
"'+	c #F7B5B5",
")+	c #312118",
"!+	c #523931",
"~+	c #BD7B7B",
"{+	c #CEA594",
"]+	c #523939",
"^+	c #634A42",
"/+	c #6B4A42",
"(+	c #EF9C9C",
"_+	c #A57B63",
":+	c #392921",
"<+	c #D69494",
"[+	c #312921",
"}+	c #7B5A52",
"|+	c #CE9494",
"1+	c #E7ADA5",
"2+	c #735252",
"3+	c #211818",
"4+	c #8C6363",
"5+	c #F7ADAD",
"6+	c #F7B5AD",
"7+	c #D69C9C",
"8+	c #D6A59C",
"9+	c #E7ADAD",
". . . . . . . . . . . . . . . . . . . . . . . . . . . . . . . . . . . . . . . . . . . . . . . . . . . . . . . . . . ",
". . . . . . . . . . . . . . . . . . . . . . . . . . . . . . . . . . . . . . . . . . . . . . . . . . . . . . . . . . ",
". . . . . . . . . . . . . . . . . . . . . . . . . . . . . . . . . . . . . . . . . . . . . . . . . . . . . . . . . . ",
". . . . . . . . . . . . . . . . . . . . . + @ # $ % & * = - = * ; % > , @ ' . . . . . . . . . . . . . . . . . . . . ",
". . . . . . . . . . . . . . . . . . ) ! ~ % - = - = % { ] ^ & { ] = - = - & ~ / ) . . . . . . . . . . . . . . . . . ",
". . . . . . . . . . . . . . . . + ( _ - = _ { ] { & : < [ & < [ ] ; ] _ _ ^ = - _ } + . . . . . . . . . . . . . . . ",
". . . . . . . . . . . . . . . | _ - = ^ { _ ] 1 2 3 4 5 6 7 8 7 5 9 0 a ; ^ _ _ = - { b . . . . . . . . . . . . . . ",
". . . . . . . . . . . . . c > d = _ ] ^ e f g h i j k 8 l g m 8 g m m 5 n o p q ] ^ = d r c . . . . . . . . . . . . ",
". . . . . . . . . . . . s t - _ ] ^ u v g m m w w 7 5 5 5 5 5 x y k k x n g 5 z A ^ _ ] = B s . . . . . . . . . . . ",
". . . . . . . . . . . C ^ = { t 2 D 7 E F k k h j G g v g 7 g m g 5 k 5 7 y x g H v I J K - ^ @ . . . . . . . . . . ",
". . . . . . . . . . @ ] = _ L M 8 8 g m g 7 k N f O y 7 P 6 5 m 5 Q g E y v E x 5 E F o L ^ - ] @ . . . . . . . . . ",
". . . . . . . . . R ] = ] p S 5 5 T 5 g v g g U V W v g l g 6 y g 8 T 8 v 5 8 8 g m P 5 8 p t - : C . . . . . . . . ",
". . . . . . . . s ^ - { B z y v 7 6 k X T 8 T f Y O 5 l 8 g m F 6 H 5 7 8 v Z g 5 g 5 X T W ` { - L R . . . . . . . ",
". . . . . . . c ^ = _ 0  .8 5 l 8 g m y 6 6 v W Y w v 5 g ..g 7 g m z Y u v 7 6 l Y 9 l g 8  .+._ = J @.. . . . . . ",
". . . . . . . #.- ^ _ D 5 l v 5 T v g 7 g m g v j h U f j n W O 5 k $.= * 8 l g %.- & F 5 7 8 4 L _ - #.. . . . . . ",
". . . . . . | * ^ ] A l g y o &.*.o 9 o z y T U f U j W U =.j W H 7 [ = * v X 5 0 = = ` T g F Z 4 _ ] & | . . . . . ",
". . . . . + t = ] A g g -.1 = - = = = = & d = [ * * & * ;.M 2 >.p A & = * 5 H k ,.- = B g v Z v 5 '._ - _ + . . . . ",
". . . . . ( - { L ,.m m v ).!.= - - - - - = = = = = = = = - = = = - * = d & & q %.& - & ~.5 v l v {.: _ - } . . . . ",
". . . . ) ^ = ] ].F k k x x ^.A 0 =.0 $.; & & [ & & !.- = - = - - = - = - - - = = - d = 0 -.g k l 8 0 { = ^ ) . . . ",
". . . . ! = ] ^ m g 7 k 7 7 y x g 6 7 7 y k k n j v A A =.A /.` +.q < - & q : & * & & & ` v n 5 k 5 ..L ^ - ! . . . ",
". . . . J - (.$.m 5 X g E F D E 7 7 E m X 7 _.w f g 5 g 7 g m g 7 k =.= & ..g H 5 7 :.k k x n X Z X 5 I { = > . . . ",
". . . ' ] ] _ <.F T 8 g l _.v p & d d & & & ; < [.^ }.; L /.m 5 g g |.- = 2 7 7 E m g 7 k 7 1.F x g 6 4 L ^ & + . . ",
". . . @ - _ ; m y 6 H 5 5 l 5 * = - = - = - = = - = - = = d y g l g p = - $._.g m m v g g E :.D E 7 7 E ^ t - C . . ",
". . . , = { p g 5 g m X g y 5 v u $.0 $.].].A M p [ & & & ^ y 6 6 5 A - = A T 5 g k g k g 5 m _.8 :.5 2.p _ - 3.. . ",
". . . $ - ^ I O 4.5.6.7.x 7.6.7 7 v v y g 8.k 9.0.5 v T l T 5 X m g p = - A 6 k X 5 x x 7 7.7.-.x 5 D 5 a.K = > . . ",
". . . ^ = & >.W Q n b.v x 5 v &.].].'.q : < { }.; ; d }.& d [ ; h x 0.& = ].7 D 5 :.g 8.k x 5 5 x 7.5 x ,.% - ^ . . ",
". . . * ^ }.U c.v U 7 g P y e = - = = - - = - = = - = - - = - = d.v n ; - >.7.7 7 7 k 8 2.e.:.5 P v P 7.v ^ _ & . . ",
". . . & ; < j f.c.v 8 D 7 7 w & * ; * & ; 0 a.'.2 a M 2 '.2 a.>...g g.& = q 8 P 7.5 x k k 7.5 P 5.5 7.5 1.; ] d . . ",
". . . - ] & U 7 w n j 5 5 v m X w 8.y 8.H m 2.8.g 5 5 X 8 g U h j f U & - ).j 5 ..5 m g w 8.y 8.H m 2.m g ; ] = . . ",
". . . = % ; h U G &.j x U g 7 5 g $.Y L ^ : q 1 : q < : p f &.G f U h h.= [ j n U g 5 v T 8 g H F g v g l ; ^ - . . ",
". . . = ] * w j n W w 5 k 8 l l q = - - = = = - = - = = - = }.].h U f M - & w 5 k 8 v 5 8 l g m y 6 6 5 5 : ] = . . ",
". . . d ] [ W U =.j W H 7 7 8 ).= - : & < 0 ` 0 0 ` A '.& * = - q n W >.= & 3 6 x 7 8 v Z g v g 5 g m Q g ; ] & . . ",
". . . * ^ : l 6 7 8 7 5 g g i.d - & p f j.,.:.g Z 5 5 v v &.& = - +.v *.- - A 7 g g -.g k l l g m g y g v & ] & . . ",
". . . ^ - ] o 8 g m _.g m m A = = - = - = - = d +...l 5 H 5 W }.= & l 8 & = ; g m m 5 4.v k 5 7 5 X g k.4 & = ^ . . ",
". . . ~ = ] A 7 5 5 x y k k l.* < ).q < < < * * * 9 k 8 l g f a.< * A 7 '.* < :.k k x n g 5 g 7 g 7 g g m.{ = J . . ",
". . . , * _ p g 7 g m g 7 k n.}.f 7 g 6 5 g ` 0 o.n v k 5 7 h j }.p.).g /.p.p.,.7 k 7 7 y x g 6 7 g m m '.^ * 3.. . ",
". . . C < t l.g 6 5 m 5 X X q.n.|.W j &.m.f o o r.r.g ..g 5 N f >.n.q.g <.l.n./.g g E F D E 7 7 E F k k '.: < @ . . ",
". . . ' ).: B o g H F P 8 T s.t.t.t.t.t.s.t.u.t.t.t.z 7 g H U N v.t.q.l g w.t.a l g l _.5 _.l g m g 7 o +.q : x.. . ",
". . . . y.n.L M g m y 6 6 5 j u.u.u.|.z.|.z.|.|.m.=.D E x 5 w f v.u.v.8 g f A.B.C.5 7 8 ..5 g 5 g v g A +.n.(.. . . ",
". . . . ! n.p p ..g 5 g m g T A.D.E.z.5 g g 8 g l 8 5 8 _.g W >.E.F.G.T 5 T F.F.F.Q g y 5 7 6 _.T g l p +.n.H.. . . ",
". . . . ) +.t.p |.W O 7 k l 8 Z I.J.K.D.m.r. .i i G.i i o.i L.L.K.D.a.j n h &.M.M.I.8 v l 8 g m F H 9 p t.0 ) . . . ",
". . . . . N.t.e >.r.W 6 7 7 8 v Z O.K.P.Q.R.R.Q.R.K.R.K.R.K.R.Q.K.n W U =.j h S.K.Q.S.5 v T 5 g 7 T p p t.T.. . . . ",
". . . . . + p u.e m.j 8 v g y 5 7 U.V.Q.W.Q.Q.Q.V.X.V.V.Y.V.Q.U.9.U &.W j W j Z X.Y.X.U.Z.6 k X k /.$.u.A ' . . . . ",
". . . . . . `.F.w./.i g g -.g _. +.+.+..6 g g k.++W.S.W.V..+@+j 8 5 6 5 v 5 7 g v .+.+.+@+l g m S A M A.T.. . . . . ",
". . . . . . . #+F.w./.$+m 5 4.Z %+&+*+5 7 7 g g -.g k 8 =+-+&+O.k l l g m 8 g m m Z..+-+%+7 5 Z z./.F.#+. . . . . . ",
". . . . . . . ;+o D.A r.k x n g -+>+1.g 8 g m m v n v k ,+'+'+*+v k 5 5 5 x F k k x x Z.Z g 7 &./.J.9 )+. . . . . . ",
". . . . . . . . !+/.K.~+i 7 7 y 7.v 6 7 x y k k x n T 5 g {+h =.g 5 g 7 g m g 7 k 7 7 y 7 T ~+~+K./.]+. . . . . . . ",
". . . . . . . . . ! I.K.~+U.g v E x 5 E m g 7 k 7 7 F 7 T 6 U N y x P 6 5 m 5 g g E y v f.W.r.K.r.`.. . . . . . . . ",
". . . . . . . . . . ^+O.Y.r.i i 8 8 g m :.5 X g E y D E 7 5 &.w 5 X 8 g H F g l g 8 8 n i r.Q.r.`.. . . . . . . . . ",
". . . . . . . . . . . `.S.X.G.i U.4 5 g k X k g 7 m _.v m 5 x U 5 l 8 T m y 6 6 Z 7 W.G.O.V.O./+. . . . . . . . . . ",
". . . . . . . . . . . . ]+l (+S.S. +Z.4 v 1.x 5 7.7.-.7.5 D h 0.v 5 g v g 7 g _+i W.i S.V. .`.. . . . . . . . . . . ",
". . . . . . . . . . . . . :+S %+.+W.W.<+Z...8.k x 7 5 7 7.5 j f f G 0.O w h h *+W.W.(+.+S [+. . . . . . . . . . . . ",
". . . . . . . . . . . . . . . }+Z..+&+,+|+|+=+n x _.7 e._.e.w U n f.V U.1+U.++O.&+-+Z.2+. . . . . . . . . . . . . . ",
". . . . . . . . . . . . . . . . 3+4+W.-+5+,+++|+=+*+*+@+1+1+%+&+@+@+=+|+,+,+5+-+W.#+3+. . . . . . . . . . . . . . . ",
". . . . . . . . . . . . . . . . . . + 2+8 %+6+'+'+'+7+8+7+,+,+*+=+'+'+6+'+1+5 2++ . . . . . . . . . . . . . . . . . ",
". . . . . . . . . . . . . . . . . . . . . 3+2+F Z.*+1+'+'+'+'+6+9+8+Z.{.2+@.. . . . . . . . . . . . . . . . . . . . ",
". . . . . . . . . . . . . . . . . . . . . . . . . . . . . . . . . . . . . . . . . . . . . . . . . . . . . . . . . . ",
". . . . . . . . . . . . . . . . . . . . . . . . . . . . . . . . . . . . . . . . . . . . . . . . . . . . . . . . . . ",
". . . . . . . . . . . . . . . . . . . . . . . . . . . . . . . . . . . . . . . . . . . . . . . . . . . . . . . . . . "};
