/* XPM */
static char * digit_5_xpm[] = {
"58 59 245 2",
"  	c None",
". 	c #000000",
"+ 	c #101008",
"@ 	c #393918",
"# 	c #524A21",
"$ 	c #524A18",
"% 	c #5A5A18",
"& 	c #5A5A10",
"* 	c #4A5A08",
"= 	c #425A00",
"- 	c #5A6318",
"; 	c #525A21",
"> 	c #080800",
", 	c #424221",
"' 	c #525221",
") 	c #525A10",
"! 	c #5A5A21",
"~ 	c #636318",
"{ 	c #4A4221",
"] 	c #525A18",
"^ 	c #6B6B29",
"/ 	c #5A6321",
"( 	c #736B29",
"_ 	c #9C734A",
": 	c #AD8463",
"< 	c #A58473",
"[ 	c #B58C84",
"} 	c #947373",
"| 	c #BD9C84",
"1 	c #AD847B",
"2 	c #BD9484",
"3 	c #AD947B",
"4 	c #8C7B52",
"5 	c #7B7342",
"6 	c #847B42",
"7 	c #636321",
"8 	c #211810",
"9 	c #5A5A29",
"0 	c #4A5A00",
"a 	c #636B29",
"b 	c #7B7339",
"c 	c #8C7352",
"d 	c #CE9484",
"e 	c #C68C7B",
"f 	c #AD8C84",
"g 	c #B5847B",
"h 	c #9C7B63",
"i 	c #9C735A",
"j 	c #9C7B5A",
"k 	c #737339",
"l 	c #313118",
"m 	c #737342",
"n 	c #AD8473",
"o 	c #AD7363",
"p 	c #B58C7B",
"q 	c #C6A58C",
"r 	c #C69C84",
"s 	c #C69484",
"t 	c #847B4A",
"u 	c #312910",
"v 	c #393118",
"w 	c #8C7B42",
"x 	c #CEA58C",
"y 	c #9C846B",
"z 	c #AD7352",
"A 	c #947B5A",
"B 	c #A58C73",
"C 	c #736B39",
"D 	c #947B52",
"E 	c #B59C84",
"F 	c #DEA594",
"G 	c #B58463",
"H 	c #9C7B6B",
"I 	c #B5947B",
"J 	c #8C7B5A",
"K 	c #6B6331",
"L 	c #BD8C7B",
"M 	c #BD846B",
"N 	c #736B31",
"O 	c #A5846B",
"P 	c #AD735A",
"Q 	c #D69C84",
"R 	c #181808",
"S 	c #AD9473",
"T 	c #AD7B5A",
"U 	c #946B42",
"V 	c #A57B5A",
"W 	c #A58463",
"X 	c #947B4A",
"Y 	c #9C8C63",
"Z 	c #A57B6B",
"` 	c #6B6329",
" .	c #6B6321",
"..	c #4A6308",
"+.	c #526310",
"@.	c #948452",
"#.	c #8C734A",
"$.	c #846B52",
"%.	c #8C7363",
"&.	c #080808",
"*.	c #8C7B4A",
"=.	c #84734A",
"-.	c #D6AD8C",
";.	c #423918",
">.	c #847352",
",.	c #94844A",
"'.	c #946B63",
").	c #94736B",
"!.	c #AD946B",
"~.	c #7B7B39",
"{.	c #947B63",
"].	c #CEA584",
"^.	c #BD947B",
"/.	c #BDAD8C",
"(.	c #9C8463",
"_.	c #B58C73",
":.	c #526318",
"<.	c #5A5218",
"[.	c #846B39",
"}.	c #DEB594",
"|.	c #8C844A",
"1.	c #9C8452",
"2.	c #BD9C7B",
"3.	c #636331",
"4.	c #946B52",
"5.	c #846B4A",
"6.	c #C6A584",
"7.	c #D6A584",
"8.	c #6B7329",
"9.	c #A58C6B",
"0.	c #737329",
"a.	c #5A6B18",
"b.	c #526B18",
"c.	c #636B18",
"d.	c #7B6B31",
"e.	c #6B7B31",
"f.	c #637B29",
"g.	c #637B31",
"h.	c #9C9463",
"i.	c #5A7321",
"j.	c #7B6B39",
"k.	c #7B8C4A",
"l.	c #6B8C39",
"m.	c #7B8C42",
"n.	c #6B7331",
"o.	c #7B944A",
"p.	c #849C52",
"q.	c #A59473",
"r.	c #9C845A",
"s.	c #8C945A",
"t.	c #84A55A",
"u.	c #A59C73",
"v.	c #6B7339",
"w.	c #B5846B",
"x.	c #8C845A",
"y.	c #5A6B21",
"z.	c #9CA573",
"A.	c #94AD6B",
"B.	c #9CAD73",
"C.	c #D6AD94",
"D.	c #9CBD7B",
"E.	c #737B39",
"F.	c #737B42",
"G.	c #7B8442",
"H.	c #A5C684",
"I.	c #ADC68C",
"J.	c #6B8431",
"K.	c #ADBD8C",
"L.	c #ADCE94",
"M.	c #BDBD94",
"N.	c #6B8439",
"O.	c #6B6B42",
"P.	c #73944A",
"Q.	c #B5CE9C",
"R.	c #B5D69C",
"S.	c #BDB594",
"T.	c #8C8C5A",
"U.	c #636B42",
"V.	c #393110",
"W.	c #948C5A",
"X.	c #ADAD84",
"Y.	c #9C9C73",
"Z.	c #8C9452",
"`.	c #7B844A",
" +	c #738C42",
".+	c #181810",
"++	c #948463",
"@+	c #8CA563",
"#+	c #B5CE94",
"$+	c #7B8452",
"%+	c #7B8C52",
"&+	c #8C8452",
"*+	c #A5AD8C",
"=+	c #848C52",
"-+	c #737B4A",
";+	c #8C8463",
">+	c #94B573",
",+	c #A5BD84",
"'+	c #525239",
")+	c #7B7B42",
"!+	c #849452",
"~+	c #84945A",
"{+	c #94A56B",
"]+	c #9CB573",
"^+	c #AD9C7B",
"/+	c #C6B58C",
"(+	c #B5A58C",
"_+	c #8CAD63",
":+	c #5A5A42",
"<+	c #94AD73",
"[+	c #A5A584",
"}+	c #848C5A",
"|+	c #393921",
"1+	c #636B31",
"2+	c #8C9463",
"3+	c #9C8C7B",
"4+	c #B5AD8C",
"5+	c #C6BD94",
"6+	c #8C9C5A",
"7+	c #8C9C63",
"8+	c #737352",
"9+	c #5A6B29",
"0+	c #8C8C63",
"a+	c #212118",
"b+	c #8C946B",
"c+	c #424231",
"d+	c #8CAD6B",
"e+	c #4A4A31",
"f+	c #9C946B",
"g+	c #949C6B",
"h+	c #B59473",
"i+	c #A5AD73",
"j+	c #848463",
"k+	c #292921",
"l+	c #525231",
"m+	c #848452",
"n+	c #BDA57B",
"o+	c #A59C6B",
"p+	c #5A5A39",
"q+	c #9CAD6B",
"r+	c #9CA56B",
"s+	c #9C9C6B",
"t+	c #A5AD7B",
"u+	c #5A5239",
"v+	c #181818",
". . . . . . . . . . . . . . . . . . . . . . . . . . . . . . . . . . . . . . . . . . . . . . . . . . . . . . . . . . ",
". . . . . . . . . . . . . . . . . . . . . . . . . . . . . . . . . . . . . . . . . . . . . . . . . . . . . . . . . . ",
". . . . . . . . . . . . . . . . . . . . . . . . . . . . . . . . . . . . . . . . . . . . . . . . . . . . . . . . . . ",
". . . . . . . . . . . . . . . . . . . . . + @ # $ % & * = = = * - % ; # @ + . . . . . . . . . . . . . . . . . . . . ",
". . . . . . . . . . . . . . . . . . > , ' ) = = = = % % - ! ~ % - = = = = % ! @ > . . . . . . . . . . . . . . . . . ",
". . . . . . . . . . . . . . . . + { ! = = ] % % ) ) ^ ~ - & - ~ ] - % % / % = = ! { + . . . . . . . . . . . . . . . ",
". . . . . . . . . . . . . . . , / = = % ] / % ( _ : < [ } | 1 2 3 4 5 6 7 / ] % = = ! @ . . . . . . . . . . . . . . ",
". . . . . . . . . . . . . 8 9 0 = ] % a b c < d e e f g g < h 1 < h i [ 2 j k a - % = 0 $ 8 . . . . . . . . . . . . ",
". . . . . . . . . . . . l / = ] / a m n < i h o o 2 p f [ | p q h f f r s < [ h t / - ] = a u . . . . . . . . . . . ",
". . . . . . . . . . . v % = ] / w n [ x y f f d e z < 2 < [ < A < [ f 2 | y r < } B C ] ] = 7 @ . . . . . . . . . . ",
". . . . . . . . . . v - = % a D 1 p < A < E 1 F o G H | n } 2 i p n < x H I x | 2 x H J a - = % @ . . . . . . . . . ",
". . . . . . . . . l ] = ] K h [ [ < p < L < < M F d p < g < } H < 1 < 1 g [ 1 g < i < 2 H N / = / v . . . . . . . . ",
". . . . . . . . u / = ) K O y p 2 } [ < < g < o P G [ g 1 < i y } } 2 [ g p 2 < [ < [ O < r ^ ] = 7 l . . . . . . . ",
". . . . . . . 8 7 = ! K n 1 [ g 1 < i H } } p Q P o p [ < L < [ n i < < y [ [ } 1 n < g < g < N ] = ! R . . . . . . ",
". . . . . . . ! = - / S [ g p [ n p < 2 < i < S e d T U V W : X Y J Z n p n n n A y } } [ [ g O ` ] = ' . . . . . . ",
". . . . . . { 0 / 7 c 1 < y [ 2 } f < f < y ^ *  .M ^ = = = = = = = ..) * ) +.5 5 6 4 i O < y [ @.; % 0 , . . . . . ",
". . . . . + / = % 5 n < F O f 1 g < i } #.7 = = ..d ( = = = = = = = = = = = = = = = 0 ) 5 p p [ [ b / = ! + . . . . ",
". . . . . { = ] a A i A [ s p f [ | p N = = = * V g [ $.t 6 K ..0 = = = = = = = = = = = = y 2 g p %.7 % = { . . . . ",
". . . . &./ = % t H f f r s < 2 < B a = = = - G o f 1 g < A g h * = ^ *.=.=.t ^  .^ ^ 7 N -.O f g 1 5 ) = / &.. . . ",
". . . . ;.= / 7 c < 2 f 2 | H | =.* = = 0 K f r e p f [ 2 [ q >.= = ,.s n p < 2 < g < '.i [ s [ f E n 7 / = ;.. . . ",
". . . . 9 = ] b h p < < x ).!.~.0 = = * A | f o o < 2 O E O i =.= * B | y | n } 2 | y f f r s O [ O | K ] = ! . . . ",
". . . + +.% ! $.).n 1 < g n ^ = = = & A [ < O M F {.r < } 2 A =.= * ].).^.x | E x i < 2 f [ /.H r < } Y / - - + . . ",
". . . @ = ] 7 A (.} } [ B ) = = = = 7 f O f < M o [ < g < } H 7 = - 1 g [ g 1 n '.i [ O < x h I x | 2 x - ! = v . . ",
". . . # 0 ] k < 2 < i O 4 = 0 * 0 = 7 [ q r 2 s _.L 1 g < i {.* = ^ I < p p < p < f O [ < 2 A 3 g i E $.N :.* ' . . ",
". . . <.= - [.G e O }.| | |.1.S +.= ^ H O '.f d 2._.=.b ^ / +.= = 0 * * * - 3.{.n p q | 2 q q F | [ ^.[ t ] ..9 . . ",
". . . / = - _ x : s 4.^.s E [ | ..= ^ 2 f g 5.V 7 * = = = = = = = = = = = = = +.4 ).O '.f s E [ 6.q [ 6.4 - +.a . . ",
". . . - % ^ G 7.I M 2 < 3 h 2 S ` = 8.[ 9.a +.0 = = = * * 0. .= * *.W (.D ~.a.+.b.t f g 5.S h [ S g S q 3 a a 7 . . ",
". . . * 7 c.e -.Q I 1 I r [ !.O *.= - B 5 = = = * +.d.G M 7.- = * < I y [ I h e.f.g.h.f f q | n W [ q [ r a a i.. . ",
". . . = % & M 2 : s e [ [ p h < d.= * '.>.N a j.h I 2 < 1 O * 0 ( o M 2 G 2 e 1 k.l.m.y o '.).'.H h 5.j < 8.n.i.. . ",
". . . 0 ] - d M z M e s M < [ [ j.= * ).H < g < g 1 p g 1 A 0 = [.M d M z M e r : o.p.q.< g < } H < g < g n.n.i.. . ",
". . . = ~ & o e s d : [ f g 1 2 5 = * A H } } [ [ g [ [ < h ..+.r.M o e s d : 2 f s.t.u.g 1 n A y } } [ [ e.v.f.. . ",
". . . * % - ].M w.e Q } 6.[ g g 6 = * O 2 < i O < y p 2 } x.+.y.w.s d M w.e d } | z.A.B.[ < p < 2 < j < n v.v.e.. . ",
". . . - ~ - 1 } 2 1 [ | < < C.< c = * O A < H < 2 p [ p [ @.i.e.d 1 p } 2 1 2 | < z.D.D.f g g < A < H < n E.F.E.. . ",
". . . / = ] A g < i 1 < i A 2 s h = * I [ n < '.[ 2 g [ ).G.e.k.e f g 1 < A 1 < i z.H.I.[ f [ | [ O < '.q.E.J.F.. . ",
". . . <.= ] t [ | [ r H f f r s 4 = = *.< [ O n C.O f g 1 E.l.t s p f | [ 2 | H f K.L.M.< p < 2 < 2 O < !.F.N.m . . ",
". . . # = ] N < 2 < A < 2 f [ | =.= = O.2 < h A p s [ f 3 m.P.h.z < [ < 2 < i < E Q.R.S.y r < } 2 < h i T.F.N.U.. . ",
". . . V.= ] ^ < } 2 i [ < O x y r.= = *.x H f f q s O [ W.o.p.Y G H r < } [ A [ X.R.R.Y.I x r E x H f f Z.`. +{ . . ",
". . . .+- - % A < } H O g < g 1 h 0 ..=.A < 2 f [ r H | ++t.@+6.d p < g < H H n #+R.Q.[ [ 1 1 n A < [ y $+k.%+.+. . ",
". . . . ! = ] C < i y } } [ [ g (.+.b.&+< L < O x y I x z.A.A.o G [ 1 g < '.y *+Q.R.Q.1 p 2 < [ n p n T.=+o.-+. . . ",
". . . . v = ! 7 O < 2 < i O < y n a f.;+n < 1 O 1 1 p 1 z.>+,+T o L [ < p n [ L.R.Q.q.H [ 2 } 1 < < < =+$+o.'+. . . ",
". . . . + % = % *.d : 2 f g 1 [ 1 J.J.)+H %.!+~+@+{+A.]+D.,+I.L.#+#+^+/././+K.R.Q.#+(+[ 1 g < i y } ;+%+%+=++ . . . ",
". . . . . # = % 7 w.d } 6.[ g p p F.l.o.I ~+t._+A.>+D.,+I.L.Q.R.R.R.R.R.R.R.R.R.R.R.R.R.Q.^+[ < [ 9.=+%+p.:+. . . . ",
". . . . . + 7 ../ w e 1 g B ).2 [ k.o.~+f 9.{+<+D.,+,+L.L.R.R.R.Q.R.R.R.Q.R.Q.R.Q.R.R.R.R.[+1 < f ++%+~+}+.+. . . . ",
". . . . . . |++.7 1+W.< < C.O f 1 n 2+++} < < '.[ p [ E 3+(+6.| f E 3+(+f 4+4+X.X.5+X.*+(+p < A y }+~+6+:+. . . . . ",
". . . . . . . 9 +.a K c i [ s p [ [ | 2 2 [ O n C.< f 1 g < Q o f g 1 < j 1 < A i [ s [ f [ | 1 7+~+@+8+. . . . . . ",
". . . . . . . 8 1+b.9+)+3+d r < p < [ O 1 n A i [ e [ f 2 [ r e [ f 2 [ [ r H f f r s O L < E 2+0+@+%+a+. . . . . . ",
". . . . . . . . |+a i.n.t 3 | H | n } 2 | H f f r r n p < E o o < p < | < A < 2 f 2 | H | O b+2+_+2+c+. . . . . . . ",
". . . . . . . . . @ v.f.1+&+A I x r E x i < 2 f | | ).| n } M F y r < } 2 i [ < < x y I 6.z.2+d+7+'+. . . . . . . . ",
". . . . . . . . . . , k g.v.-+Y g 1 < i '.[ O < x H ^.x | | M o p < g < } y < g < 1 1 S b+2+A.7+e+. . . . . . . . . ",
". . . . . . . . . . . |+F.J.F.F.W.y [ < f O f < 2 A 3 g A [ s M [ 1 g < i ).} } 2 I Y.b+b+A.Y.'+. . . . . . . . . . ",
". . . . . . . . . . . . |+m N.`.F.-+++O p q r 2 q q }.| 2 I d 2.L [ < p < | n A f+b+7+g+>+b+c+. . . . . . . . . . . ",
". . . . . . . . . . . . . a+m  + +`.k.=+}+(.'.f s 2 [ | q 2 e o o z 2.G G h+g+i+g+{+>+]+j+k+. . . . . . . . . . . . ",
". . . . . . . . . . . . . . . l+m+P.o.=+$+}+s.m+f+++1 h+1 S o M ^.2.n+o+i+b+g+2+>+D.Y.:+. . . . . . . . . . . . . . ",
". . . . . . . . . . . . . . . . .+p+%+%+p.~+}+}+~+7+7+@+{+{+{+q+r+{+g+7+{+{+]+D.b+O..+. . . . . . . . . . . . . . . ",
". . . . . . . . . . . . . . . . . . + '+-+2+t.t.@+@+2+7+7+2+g+g+s+>+>+]+D.t+j+:++ . . . . . . . . . . . . . . . . . ",
". . . . . . . . . . . . . . . . . . . . . .+e+U.0+g+{+A.A.A.A.<+B.s+b+8+u+v+. . . . . . . . . . . . . . . . . . . . ",
". . . . . . . . . . . . . . . . . . . . . . . . . . . . . . . . . . . . . . . . . . . . . . . . . . . . . . . . . . ",
". . . . . . . . . . . . . . . . . . . . . . . . . . . . . . . . . . . . . . . . . . . . . . . . . . . . . . . . . . ",
". . . . . . . . . . . . . . . . . . . . . . . . . . . . . . . . . . . . . . . . . . . . . . . . . . . . . . . . . . "};
