/* XPM */
static char * digit_3_xpm[] = {
"58 59 228 2",
"  	c None",
". 	c #000000",
"+ 	c #181008",
"@ 	c #523118",
"# 	c #7B4A21",
"$ 	c #8C5218",
"% 	c #9C5218",
"& 	c #AD6318",
"* 	c #AD5A08",
"= 	c #AD5A00",
"- 	c #B55A00",
"; 	c #B56300",
"> 	c #BD6B08",
", 	c #B56B18",
"' 	c #9C6321",
") 	c #845A21",
"! 	c #5A3918",
"~ 	c #211008",
"{ 	c #100800",
"] 	c #5A3921",
"^ 	c #844A21",
"/ 	c #9C4A10",
"( 	c #9C4A00",
"_ 	c #A55200",
": 	c #9C5A10",
"< 	c #A56318",
"[ 	c #A55A21",
"} 	c #AD6B21",
"| 	c #BD6B00",
"1 	c #C67300",
"2 	c #BD6B18",
"3 	c #634218",
"4 	c #180808",
"5 	c #633921",
"6 	c #8C5221",
"7 	c #944200",
"8 	c #945218",
"9 	c #945210",
"0 	c #A55210",
"a 	c #AD6329",
"b 	c #B57318",
"c 	c #B57321",
"d 	c #7B5221",
"e 	c #943900",
"f 	c #8C4A18",
"g 	c #945221",
"h 	c #A56329",
"i 	c #BD7B4A",
"j 	c #C68463",
"k 	c #AD8473",
"l 	c #B58C84",
"m 	c #947373",
"n 	c #BD9484",
"o 	c #AD8C7B",
"p 	c #B5947B",
"q 	c #AD7B52",
"r 	c #AD7342",
"s 	c #C68442",
"t 	c #CE7B00",
"u 	c #AD7321",
"v 	c #291810",
"w 	c #944208",
"x 	c #945229",
"y 	c #A56B42",
"z 	c #A57352",
"A 	c #A58473",
"B 	c #CE9484",
"C 	c #C69484",
"D 	c #C68C7B",
"E 	c #AD8C84",
"F 	c #B5847B",
"G 	c #9C7363",
"H 	c #9C735A",
"I 	c #B58463",
"J 	c #B57B39",
"K 	c #BD7B29",
"L 	c #312110",
"M 	c #422918",
"N 	c #844A18",
"O 	c #945A42",
"P 	c #AD8C73",
"Q 	c #AD7363",
"R 	c #AD7B5A",
"S 	c #BD9C84",
"T 	c #C6A58C",
"U 	c #9C7B6B",
"V 	c #C69C84",
"W 	c #AD7B63",
"X 	c #BD844A",
"Y 	c #523910",
"Z 	c #4A2918",
"` 	c #A56B4A",
" .	c #BD8C73",
"..	c #CEA58C",
"+.	c #AD7352",
"@.	c #BD946B",
"#.	c #BD7B21",
"$.	c #944A21",
"%.	c #A5846B",
"&.	c #DEA594",
"*.	c #94736B",
"=.	c #B57B52",
"-.	c #B57329",
";.	c #BD7B18",
">.	c #9C5A31",
",.	c #BD846B",
"'.	c #D69C84",
").	c #B58C6B",
"!.	c #BD7B31",
"~.	c #C67B21",
"{.	c #422910",
"].	c #844218",
"^.	c #945A31",
"/.	c #A57B6B",
"(.	c #CEA584",
"_.	c #B57B31",
":.	c #523918",
"<.	c #BD8C5A",
"[.	c #C68439",
"}.	c #C68C63",
"|.	c #AD7B73",
"1.	c #292108",
"2.	c #8C4A21",
"3.	c #BD9473",
"4.	c #C67B29",
"5.	c #CE7300",
"6.	c #DE8400",
"7.	c #D68C29",
"8.	c #BD8C6B",
"9.	c #D67B00",
"0.	c #946321",
"a.	c #A56B52",
"b.	c #9C7B63",
"c.	c #BD6300",
"d.	c #D68408",
"e.	c #B57B6B",
"f.	c #BD947B",
"g.	c #734A21",
"h.	c #9C6342",
"i.	c #944A10",
"j.	c #BD7B42",
"k.	c #C68C39",
"l.	c #EF9C00",
"m.	c #E79410",
"n.	c #CE945A",
"o.	c #211808",
"p.	c #A57B63",
"q.	c #A56331",
"r.	c #AD6331",
"s.	c #DEA56B",
"t.	c #E79C08",
"u.	c #E79400",
"v.	c #946363",
"w.	c #100808",
"x.	c #B5734A",
"y.	c #8C4A10",
"z.	c #946B4A",
"A.	c #CE9463",
"B.	c #EF9400",
"C.	c #D6AD94",
"D.	c #B58439",
"E.	c #947352",
"F.	c #946342",
"G.	c #D69421",
"H.	c #BD7B52",
"I.	c #C6947B",
"J.	c #6B4A18",
"K.	c #7B4A29",
"L.	c #A56342",
"M.	c #8C4208",
"N.	c #D68400",
"O.	c #CE9C6B",
"P.	c #946B52",
"Q.	c #9C6339",
"R.	c #AD6339",
"S.	c #946339",
"T.	c #A55A08",
"U.	c #D69431",
"V.	c #BD8C63",
"W.	c #AD7339",
"X.	c #D68C18",
"Y.	c #C68431",
"Z.	c #6B3921",
"`.	c #A56339",
" +	c #9C5221",
".+	c #8C4210",
"++	c #846B4A",
"@+	c #DEB594",
"#+	c #946B63",
"$+	c #A57363",
"%+	c #B57B4A",
"&+	c #B57310",
"*+	c #944A18",
"=+	c #C68C52",
"-+	c #9C5A29",
";+	c #B57B63",
">+	c #D6A58C",
",+	c #944A08",
"'+	c #A57331",
")+	c #C67B18",
"!+	c #BD7310",
"~+	c #CE947B",
"{+	c #B5845A",
"]+	c #9C4A18",
"^+	c #BD8473",
"/+	c #A5735A",
"(+	c #BD7B63",
"_+	c #B56318",
":+	c #AD6B42",
"<+	c #A55A29",
"[+	c #B57B5A",
"}+	c #AD6321",
"|+	c #945A39",
"1+	c #BD7B6B",
"2+	c #B56B4A",
"3+	c #A55A18",
"4+	c #7B4218",
"5+	c #945A29",
"6+	c #945A21",
"7+	c #734221",
"8+	c #9C5A39",
"9+	c #522910",
"0+	c #A55A31",
"a+	c #94634A",
"b+	c #7B4A18",
"c+	c #945231",
"d+	c #C69473",
"e+	c #844210",
". . . . . . . . . . . . . . . . . . . . . . . . . . . . . . . . . . . . . . . . . . . . . . . . . . . . . . . . . . ",
". . . . . . . . . . . . . . . . . . . . . . . . . . . . . . . . . . . . . . . . . . . . . . . . . . . . . . . . . . ",
". . . . . . . . . . . . . . . . . . . . . . . . . . . . . . . . . . . . . . . . . . . . . . . . . . . . . . . . . . ",
". . . . . . . . . . . . . . . . . . . . . + @ # $ % & * = - ; > , & ' ) ! ~ . . . . . . . . . . . . . . . . . . . . ",
". . . . . . . . . . . . . . . . . . { ] ^ / ( _ _ _ % : < [ & < } | | | 1 2 ' 3 { . . . . . . . . . . . . . . . . . ",
". . . . . . . . . . . . . . . . 4 5 6 7 7 $ 8 8 9 0 a , & & , , & & & & } b 1 1 c d ~ . . . . . . . . . . . . . . . ",
". . . . . . . . . . . . . . . ] 6 7 e $ f g % h i j k l m n o n p q r s c } & & 1 t u 3 . . . . . . . . . . . . . . ",
". . . . . . . . . . . . . v # w e f f x y z A B C D E F F A G o A H H l C I J K b b 1 t 8 L . . . . . . . . . . . . ",
". . . . . . . . . . . . M 6 7 N $ x O P A H H Q R n l E l S F T U E E V C A l W X c c b t K Y . . . . . . . . . . . ",
". . . . . . . . . . . Z f e N g `  .S ..U E E B D +.A F A l A H A l E S S U V A m @.J & b t #.3 . . . . . . . . . . ",
". . . . . . . . . . Z $.7 f x +.F o A H %.l E &.W W U V k m S H F k A ..U p ..S n ..*.=.-.c t ;.3 . . . . . . . . . ",
". . . . . . . . . Z f 7 f >.W l l A l A l k %.,.&.'.p A o k m *.A o A o F l o F A H A S ).!.b t ~.3 . . . . . . . . ",
". . . . . . . . {.g 7 ].^./.*.F S m l %.A F A Q R W l F o A H U m m n l F F l A l A l A A (._.b t #.:.. . . . . . . ",
". . . . . . . v g e f ^.k F l F o A H U m m F '.R Q <.s [.}.A S A H A A U l n m F A %.F A o |.!., t u 1.. . . . . . ",
". . . . . . . # e 6 2.3.l F F l k F A S A H A ).i 4.5.t 6.7.B W n E o F F o F A H U m m l n o 8.-.b 9.0.. . . . . . ",
". . . . . . 5 w g $.a.o A U l S m E A E A b.h = - c.| 1 d.X D '.m S n e.f.n %.l A S A H %.A U l <.} b t g.. . . . . ",
". . . . . 4 6 e f y A A &.%.E o F A H m h.i.( _ * -.J j.B D B D o F k.l.m.n.m E %.E A U A n F F n J 2 t u o.. . . . ",
". . . . . 5 7 N x p.H H l C F E l S k q.e 7 7 r.,.F l m S o S l A A s.t.u.t.<.k H m k %.v.n l F F p.-.b t d . . . . ",
". . . . w.6 e f x.*.E E V V A n A l ^.e 7 y.z.B W E o F A G o A H H l A.m.B.t.@.l S l k A C.A E o o D.& 5.c w.. . . ",
". . . . ] e 6 g E.A S E n S *.V %.F.7 7 F.E E C D F E n l l V U E E V A.G.l.B.t.H.o A H H l I.l E n P #.c t J.. . . ",
". . . . K.7 ].L.H l %.A ..U f...S i.e M.A n E W Q A f.A n %.H r D.~.t N.6.u.l.B.t.O.U E E V C A f.A n _.& 1 ' . . . ",
". . . + i.2.6 P.*.k o A F o l o |.i.7 w ` Q.Q.R.H.S.x.Q.8 T.T.- ; | 1 t d.U.U.l.l.!.A S E n S U S A m V.c b ;.~ . . ",
". . . @ 7 f g H U m m l l F F n A W g 7 e 7 7 7 e 7 e 7 7 ( ( T.& W.=.e.F E o X.l.Y.l %.A ..U p ..V n ..b c 1 ! . . ",
". . . Z.e ].`.A S A H %.A U l n m E A `  +i.i..+7 7 M.w x ^.h.*.U l S F l f.A V.k.P %.E A l H P o b.l ++!.< 1 ) . . ",
". . . ].7 $ `.e.D p.@+S ..V @+S n f.F U A #+$+% e 7 z A l A S A H A A *.F n m E A n V T n V T @+S n p l %+&+| ' . . ",
". . . g e *+x.(.W C P.f.V S l S T S T l E k y.e 7 g +.I.I W  .` =.%+%+X =+X X j.s J D.x.E V l l T V S S q & | c . . ",
". . . *+*+-+;+>+p 8.l A P *.F P W h.%+` q.*+7 7 e w w ,+w ,+M.7 e 7 ( _ = = ; | 1 t N.6.'+o b.l P o P T p b & &+. . ",
". . . ,+g  +D '.'.p F p T p -+,+w 7 7 e 7 e 7 e 7 7 7 e 7 e w ,+i.,+i.,+( = = ; )+!+t Y.o S S P p.n T S V , < > . . ",
". . . 7 *+i.,.n W C D l F x.7 e 7 M.y.7 7 7 M.^.z.W W E.Q E.;+~+f.Q ,.f.[ ( _ & {+l H A W #+U #+m H ++H A , } | . . ",
". . . e f ]+B 8.+.^+D C P /.` ` h.o a.M.e M./+A F o n F o k ,.R R ;+(+;+R h ( _ * R l n A F A m U A o A o _+< ; . . ",
". . . 7 $.i.Q D n B I l l o F l F o y.7 7 O m l n o F l A F ` :+]+w e <+n '.-+( _ T.[+F F o A H U m m l n & }+; . . ",
". . . w f ]+(.,.,.D B m S n o F F x e e >.%.H %.A b.W +.|+i.e e e 7 ,+-+1+D B ^.,+_ * I l A F A S A H %.A & [ ; . . ",
". . . ]+8 g k m n o n S A A C.A z 7 7 y.E.A b.h.-+w 7 e 7 7 7 M.9 ` k m S o n n z ,+( T.P F F A H A U A k & < & . . ",
". . . $.e y.R o A H o A H H l [+w e ,+W n z.i.7 e 7 e M.f >.2+[+D E F o A P.o A H S.,+0 e.E l S l %.A G I 3+= [ . . ",
". . . 4+7 f a.n n l S U E E I.i.7 7 Q.l /.,+e e i.5+` k F A Q W C l E l n l V U E E V I.A F A l A n A A =+% = 6+. . ",
". . . 7+7 ].`.A l A H A l E y e e y %.m S /+^.S.k C l E l n ~+^+L.P.+.Q.y h.H A n E l T *.V P m S A H H R.% _ # . . ",
". . . {.e N -+A m S H l A z 7 7 8 ..S n ..*.E E V C %.k y y % w 7 7 e 7 7 w H l %.A ..b.p ..S S ..*.E E }  +_ :.. . ",
". . . ~ % 2.f R A m U %.F z.w *+/.F F A H A S k ` y i.,+e 7 7 e 7 7 M.*+g O *.P o A F o l F o A H A S /+ +' : ~ . . ",
". . . . # 7 f 8+A H U m m n l o f.l A l A F A Q.7 7 e 7 7 i.w g Q.W F o A H U m m l l F F l k l A F A >. +( x . . . ",
". . . . 9+e 2.g e.A S A H A %.U l n m E k A F /+h.h.` /+$+%.B +.Q l F A l A S A H %.A U l n m o A k %. +8 ( ! . . . ",
". . . . w.$ 7 f ` '.W S E o F l F o A H *.U m l n F l F A l p D B (+W D C B W p o F F F F o A H U m 8+8 7 g w.. . . ",
". . . . . Z.7 f *+,.B m V l F F l %.n %.S A H A A U F p U o ,.` `.x.x.0+%  +/ M.w z o l l %.l A S p.f f 7 3 . . . . ",
". . . . . + 2.7 f :+D o F A *.l n m E /.z.h.S.Q.y `  +w i.i.i.w 7 e 7 e 7 7 7 e 7 Q.U F n m E A E Q.N 7 x + . . . . ",
". . . . . . @ w 2.6 q A A C.).E o F %.w 7 e 7 7 e 7 7 7 e e e e M.i.M.g h.` ` z E.C.A E o F A H a+f f M.] . . . . . ",
". . . . . . . 7+7 f x z.H l n F E l l >.,+i.i.w i.i..+i.8+h.x.>.p.o |.A H o A H G F C F l l S /.-+2.7 7+. . . . . . ",
". . . . . . . v 2.e N >.o V C A f.A S A o /.H H F f.F o S l V D l l l S l V *.E E V V A l A p x f e b+~ . . . . . . ",
". . . . . . . . M N 7 f 8+p V *.V A m n V *.E E T C A l A S W Q A F P l A H A n E S S U V /.c+2.7 f M . . . . . . . ",
". . . . . . . . . {.2.e N q.H p ..V l ..H A S E n S U V A m ^+>+U V A m S H l %.A ..U p d+>.f 7 f Z . . . . . . . . ",
". . . . . . . . . . @ 2.7 N x +.o o A H #+l %.A ..*.f...S n 8.Q l A o k m *.A F A o o +.x f 7 f {.. . . . . . . . . ",
". . . . . . . . . . . Z $.7 f 2.L./+l A E %.E A S H P o G l C ,.F F o A H U m m n e.Q.2.f 7 2.Z . . . . . . . . . . ",
". . . . . . . . . . . . M ^ 7 2.f 2.y p.F T V l T T @+S S p B I.n l A F A S k P.Q.6 f 2.e ^ M . . . . . . . . . . . ",
". . . . . . . . . . . . . v K.w e 6 f g ^.z #+E V l l V T l D W Q +.I.I W [+-+-+f g e ,+K.v . . . . . . . . . . . . ",
". . . . . . . . . . . . . . . ] 6 7 e g f 6  +6 y z.P 3.o P W ,.^+(+=.<+<+$ f e+7 7 6 ] . . . . . . . . . . . . . . ",
". . . . . . . . . . . . . . . . + 5 6 7 e g f 2.f *+*+i.8 % ]+% % i.8 f g f 7 7 ^ 5 w.. . . . . . . . . . . . . . . ",
". . . . . . . . . . . . . . . . . . w.] # f e 7 7 7 2.g f f 2.g $.7 e 7 e % K.@ { . . . . . . . . . . . . . . . . . ",
". . . . . . . . . . . . . . . . . . . . . + Z 5 x g 8 w 7 7 7 w *+g K.Z.@ + . . . . . . . . . . . . . . . . . . . . ",
". . . . . . . . . . . . . . . . . . . . . . . . . . . . . . . . . . . . . . . . . . . . . . . . . . . . . . . . . . ",
". . . . . . . . . . . . . . . . . . . . . . . . . . . . . . . . . . . . . . . . . . . . . . . . . . . . . . . . . . ",
". . . . . . . . . . . . . . . . . . . . . . . . . . . . . . . . . . . . . . . . . . . . . . . . . . . . . . . . . . "};
