/* XPM */
static char * digit_4_xpm[] = {
"58 59 246 2",
"  	c None",
". 	c #000000",
"+ 	c #101821",
"@ 	c #39525A",
"# 	c #526B7B",
"$ 	c #5A7B8C",
"% 	c #4A8CA5",
"& 	c #5294B5",
"* 	c #4294BD",
"= 	c #3194BD",
"- 	c #318CBD",
"; 	c #298CB5",
"> 	c #3184AD",
", 	c #42849C",
"' 	c #4A7B8C",
") 	c #396B7B",
"! 	c #395A63",
"~ 	c #29394A",
"{ 	c #101010",
"] 	c #081010",
"^ 	c #42636B",
"/ 	c #5A849C",
"( 	c #529CBD",
"_ 	c #42ADDE",
": 	c #39A5D6",
"< 	c #39A5CE",
"[ 	c #399CCE",
"} 	c #52849C",
"| 	c #4A849C",
"1 	c #527B8C",
"2 	c #427B8C",
"3 	c #18739C",
"4 	c #186B94",
"5 	c #106B8C",
"6 	c #316B84",
"7 	c #395A6B",
"8 	c #293942",
"9 	c #080808",
"0 	c #101818",
"a 	c #5A94B5",
"b 	c #4AB5E7",
"c 	c #528CAD",
"d 	c #4A94AD",
"e 	c #5A8CA5",
"f 	c #4284A5",
"g 	c #317394",
"h 	c #426B84",
"i 	c #105A7B",
"j 	c #085A7B",
"k 	c #315A6B",
"l 	c #31424A",
"m 	c #4A636B",
"n 	c #5A9CB5",
"o 	c #6394AD",
"p 	c #73849C",
"q 	c #8C949C",
"r 	c #A59494",
"s 	c #A58484",
"t 	c #BD8C84",
"u 	c #947373",
"v 	c #BD9484",
"w 	c #B5847B",
"x 	c #AD9484",
"y 	c #847B7B",
"z 	c #6B737B",
"A 	c #6B848C",
"B 	c #316373",
"C 	c #00526B",
"D 	c #004A6B",
"E 	c #315263",
"F 	c #213139",
"G 	c #212931",
"H 	c #5A8494",
"I 	c #52B5DE",
"J 	c #4AB5EF",
"K 	c #7B9CAD",
"L 	c #8C8C8C",
"M 	c #A58473",
"N 	c #CE9C84",
"O 	c #BD8C7B",
"P 	c #B58C84",
"Q 	c #A5847B",
"R 	c #9C735A",
"S 	c #AD8473",
"T 	c #94735A",
"U 	c #C69484",
"V 	c #8C7B7B",
"W 	c #295263",
"X 	c #004A63",
"Y 	c #084A63",
"Z 	c #314252",
"` 	c #639CB5",
" .	c #5A9CBD",
"..	c #7394A5",
"+.	c #AD948C",
"@.	c #AD7363",
"#.	c #B58463",
"$.	c #B59484",
"%.	c #C69C84",
"&.	c #9C7B6B",
"*.	c #AD8C84",
"=.	c #947B6B",
"-.	c #5A737B",
";.	c #315A63",
">.	c #215263",
",.	c #212929",
"'.	c #529CB5",
").	c #84A5B5",
"!.	c #AD9C94",
"~.	c #CEA58C",
"{.	c #AD7352",
"].	c #BD9C84",
"^.	c #9C7B73",
"/.	c #A58C84",
"(.	c #29525A",
"_.	c #214A5A",
":.	c #293139",
"<.	c #639CBD",
"[.	c #6B9CB5",
"}.	c #AD8C73",
"|.	c #DEA594",
"1.	c #A58463",
"2.	c #B5947B",
"3.	c #73737B",
"4.	c #529CC6",
"5.	c #9C8C8C",
"6.	c #BD846B",
"7.	c #8C847B",
"8.	c #4A6B73",
"9.	c #215A6B",
"0.	c #213131",
"a.	c #947B7B",
"b.	c #8C9494",
"c.	c #6B8494",
"d.	c #C6A58C",
"e.	c #4A6363",
"f.	c #A58C8C",
"g.	c #5AADD6",
"h.	c #52ADDE",
"i.	c #52ADD6",
"j.	c #849CAD",
"k.	c #8CADB5",
"l.	c #848C94",
"m.	c #3184A5",
"n.	c #217BA5",
"o.	c #B5846B",
"p.	c #314A5A",
"q.	c #949CA5",
"r.	c #4A9CC6",
"s.	c #399CC6",
"t.	c #4A9CBD",
"u.	c #949494",
"v.	c #84848C",
"w.	c #297B9C",
"x.	c #297394",
"y.	c #427384",
"z.	c #5A636B",
"A.	c #6B7373",
"B.	c #9C847B",
"C.	c #314A52",
"D.	c #5AB5DE",
"E.	c #4AADDE",
"F.	c #398CB5",
"G.	c #297BA5",
"H.	c #106384",
"I.	c #18637B",
"J.	c #947363",
"K.	c #7B7B7B",
"L.	c #6394B5",
"M.	c #D6AD94",
"N.	c #948C8C",
"O.	c #7B9CA5",
"P.	c #94A5AD",
"Q.	c #638CA5",
"R.	c #2184AD",
"S.	c #085273",
"T.	c #73736B",
"U.	c #5A6B73",
"V.	c #4A6373",
"W.	c #94847B",
"X.	c #216B8C",
"Y.	c #296384",
"Z.	c #7B6B63",
"`.	c #08526B",
" +	c #084A6B",
".+	c #7B6B73",
"++	c #29424A",
"@+	c #D69C84",
"#+	c #637B84",
"$+	c #7B736B",
"%+	c #296B8C",
"&+	c #21637B",
"*+	c #5A94A5",
"=+	c #8C736B",
"-+	c #94846B",
";+	c #10526B",
">+	c #526363",
",+	c #7BADCE",
"'+	c #4AA5D6",
")+	c #085A73",
"!+	c #185A7B",
"~+	c #636B73",
"{+	c #7B8484",
"]+	c #7B737B",
"^+	c #4A7384",
"/+	c #BDA584",
"(+	c #84847B",
"_+	c #394A52",
":+	c #52A5CE",
"<+	c #7B8C94",
"[+	c #428CB5",
"}+	c #398CAD",
"|+	c #3984A5",
"1+	c #6B8C9C",
"2+	c #B59473",
"3+	c #846B4A",
"4+	c #52636B",
"5+	c #DEB594",
"6+	c #D6B59C",
"7+	c #946B63",
"8+	c #185263",
"9+	c #184A5A",
"0+	c #946B52",
"a+	c #7B848C",
"b+	c #318CAD",
"c+	c #10638C",
"d+	c #4A5A5A",
"e+	c #636B6B",
"f+	c #42738C",
"g+	c #7B7B6B",
"h+	c #63635A",
"i+	c #A57363",
"j+	c #29739C",
"k+	c #736B63",
"l+	c #426B73",
"m+	c #6B6B5A",
"n+	c #08527B",
"o+	c #736363",
"p+	c #526B73",
"q+	c #846B5A",
"r+	c #293131",
"s+	c #636B63",
"t+	c #6B7B7B",
"u+	c #637373",
"v+	c #294242",
"w+	c #9C8C7B",
". . . . . . . . . . . . . . . . . . . . . . . . . . . . . . . . . . . . . . . . . . . . . . . . . . . . . . . . . . ",
". . . . . . . . . . . . . . . . . . . . . . . . . . . . . . . . . . . . . . . . . . . . . . . . . . . . . . . . . . ",
". . . . . . . . . . . . . . . . . . . . . . . . . . . . . . . . . . . . . . . . . . . . . . . . . . . . . . . . . . ",
". . . . . . . . . . . . . . . . . . . . . + @ # $ % & * = - ; > , ' ) ! ~ { . . . . . . . . . . . . . . . . . . . . ",
". . . . . . . . . . . . . . . . . . ] ^ / ( _ : < [ } | } | 1 2 2 3 3 4 5 6 7 8 9 . . . . . . . . . . . . . . . . . ",
". . . . . . . . . . . . . . . . 0 # a b _ & c % } d e d % f f | g g h ) ) ) i j k l ] . . . . . . . . . . . . . . . ",
". . . . . . . . . . . . . . . m a b b n c % o p q r s t u v w v x y z A ) B B k C D E F . . . . . . . . . . . . . . ",
". . . . . . . . . . . . . G H I J a & o K L M N O O P Q w M R Q S T R P U V # B W W X Y Z 0 . . . . . . . . . . . . ",
". . . . . . . . . . . . Z ` J  . .o ..+.M R R @.#.U w P $.v P %.&.*.*.%.U M P =.-.;.W >.D 7 ,.. . . . . . . . . . . ",
". . . . . . . . . . . @  .b '.o ).!.$.~.&.*.*.N O {.M P M $.M T M ].*.v ].&.%.M ^./.m (._.D k :.. . . . . . . . . . ",
". . . . . . . . . . @ <.J a [.q Q w M T M $.}.|.@.#.&.].S u ].R P 1.M ~.&.2.~.%.$.~.&.3.7 W X >.:.. . . . . . . . . ",
". . . . . . . . . @ 4.J  .[.5.w t M w S P S M 6.|.N w S Q S u =.M w M w Q P w Q M R M ].7.8.W D 9.0.. . . . . . . . ",
". . . . . . . . l <.b '.o M &.P $.a.x M M *.M @.@.#.P Q w M R &.u u P b.c.*.w S P M P 1.M d.e.>.X k 0.. . . . . . . ",
". . . . . . . G [.b n [.*.w w f.g.I h.h.h.i.j.k.l.l.P P M P M ].M R M m.n.H x u *.o.M w M Q Q m W D p.0 . . . . . . ",
". . . . . . . $ b <.c !.$.w w q.b b b b b b b b _ _ r.s.t.u.N 1.v 5.v.w.w.4 x.y.z.A.u u t v Q B.7 >.D C.. . . . . . ",
". . . . . . m I <.o q w M &.$.).J b g.D.b b b E.: < [ s.s.F.t b.| G.w.3 4 4 5 H.H.I.A.J.1.M &.P K.W W Y 8 . . . . . ",
". . . . . 0 L._ & K 1.M M.1.*.j.b I =.u N.O.c.P.j.[.o e o p Q.R.G.w.3 x.4 5 ) h I.j S.T.M t w t w U.W D ;.{ . . . . ",
". . . . . V._ c Q.W.J.R P U P ).b D.P v $.S S N O w P ^.$.v.n.n.w.' u.X.5 Y.w M Z.S.`. +Z.v P Q t .+k W D ++. . . . ",
". . . . ] o _ c j.&.*.*.%.v o.j.b b M Q S T T @+@.P Q w M J.A #+$+T O %+H.&+x v P W.D X T.M.o.P Q w z._.X k 9 . . . ",
". . . . ! : c *+=+M v *.$.%.=.k.b h.+.].-+*.*.U O w P $.v P %.&.*.*.%.X.i &+M $.o.Q ;+X >+P v w *.]./.k W X 8 . . . ",
". . . . H [ % ..R $.1.M ~.&.2.,+b E.'+< r.a o % / } } A $.1.J.M $./.x &+)+!+^.u $.d.;.D ~+%.U M t 1.$.m >.D p.. . . ",
". . . 0 ( } } {+&.M w M w Q $.i._ : < [ s.= - ; ; R.n.w.]+v ^+X.X.&+&+j S.`.;+;+-.>+9.X B z ].&./+M ^.(+k W >.] . . ",
". . . _+s.% c T &.u u P $.w P :+: 4.<+O.c.[+}+f w.|+w.1 ^.u H.H.i j S.S.C D X X X X X D X X z.2.~.].v ~.9.W D 0.. . ",
". . . V.- , 1+S $.S J.1.S =.P :+[ o M w d.].$.v 6.P Q w }.T # &+!+9.!+`.X Y ;+ +D D D X X D >+2+w J.$.3+4+>.D l . . ",
". . . ^+= | {+1.O 1.5+d.d.%.6+r.s.o P &.M 7+*.N %.w P M P M ].^.T M ^.8+D ;+u y $+V 9.D 8././+5+].v O P A.9+X p.. . ",
". . . } ; , a.@+o.U 0+w %.$.P * = o $.$./.A U.a+A.^+X.#+1.#.O 1.6+].%.;+X ;+$.O P &.7 X U.U $.P %.d.$.%.$+8+D ;.. . ",
". . . f ' / }.@+2.6.].M }.&.$.[+- ; b+> m.n.3 4 4 c+H.Y.o.N o.U 0+O v ;+D ;+/+v /+$.;+D d+}.&.P 2.}.}.d.*.9.W 8+. . ",
". . . > ' , O ~.N O Q 2.%.$.}.F.; R.R.G.3 3 x.5 X.Y.&+/.o.N A.e+K.^.}.;+X ;+w }.d.~+X X y /+].}.1.v d.v /+>.W `.. . ",
". . . n.f+g 6.U #.U O t w $.J.} R.|+g+.+]+$+h+T.u $.P M w U.X D X 8+k  +X ;+A.B W D D k i+7+&.7+u J.3+T M 9.W X . . ",
". . . w.6 f+N 6.{.6.O %.6.M ].<+G.G.M ^.&.M w M w Q O Q w $+m Y D X X D X X X D D X k W.M w M u &.S Q S w 9.W D . . ",
". . . 3 y.6 @.O U N #.$.P Q w c.n.j+M T =.^.u P ].w P t M t O O B.e+! `.D D 8+;+U.y w P w Q M R &.u ^.P v 9.W X . . ",
". . . %+) 6 @+6.6.O N u ].v w A 3 x.P M v M J.1.^.=.B.(+$+*.6.@.6.U @+e+X ;+v u %.$.w w P M O M $.S J.1.S ;+W `.. . ",
". . . 6 ) 6 Q u v w v v M M M.#+x.X.Q M k+U.z.l+;+;+;+X ;+*.@.@+N Q t z.D ;+v v M M M.M P w Q S T M &.M s 9.W 9.. . ",
". . . ) H.B y w M T Q S T $+A x.5 5 Y.H.I.)+S.D X X D X  +W.N u u y .+V.X Y .+g+k+m+B.t w *.v $.t 1.M 7+7.>.D E . . ",
". . . ! n+9.z $.v P %.=.P A 4 5 c+H.j i S.C D ;+;+9.U.~+Q M o+D D X D X D X D X D X  +9.=.P M v M $.S S {+>.X p.. . ",
". . . _+S.W p+M v M T S $.7.' ^+H.i j 9.-.e+>+q+B.Q t *.v $.V `.X D X D X X D X D X D X T./+S u $.S T R V.W D C.. . ",
". . . r+S.>.B M u v T P M S ~.=+&+j !+W.~.&.*.y ;+;+$+P 1.v |.R s+4+t+k X ;+>+~+z.z.3.z.2.~.].].~.=.*.*.B W X :.. . ",
". . . 0 9.W W .+S u &.1.w M Q 3.S.S.A.S R M v 3.X D 8+x M u 6.|.@+w S A.D Y &.S w M w Q P w Q M R M v K.;.9.>.{ . . ",
". . . . C.X W p+M T &.u u P $.!+S.B 1.P M P M M p+X D 8.].].@.@.1.t Q ~+D 8+-+u u }.z ~+A.Q S P M O M m E D p.. . . ",
". . . . r+D W W Q M ].M J.o.u+C D U.u *.M 1.w M w 7 D X p+M N h+s+A.~+W X D 7 9.X  +D X D 7.^.*.M M B.W W D :.. . . ",
". . . . ] p.D W u+@+1.v *.Q ~+D X A.S R &.u u w 7.k X D Y Q g+D X D X D D X D X D X `.;+p+w M R &.u 4+>.X E 9 . . . ",
". . . . . l X W E Q @+u %.v A.X D 7 }.^.7.m W 9.D D X D X z $+;+;+;+;+;+X `.A.4+L 7.u w P 1.P M v =+W W X v+. . . . ",
". . . . . { E X W ~+O w Q M =.;+X D ;+;+`.D D X X  +l+9.D ;+N O N S 6.A.X ;+O w S M &.P v ^.*.1.x 4+_.D E ] . . . . ",
". . . . . . F  +W k K.S M |.M V ;+X D X X X ;+! 3.B.w A.X X A.O w O u z D  +y M M |.M *.w Q S J.~+W >.Y 8 . . . . . ",
". . . . . . . C.X W ;.Z.R P U w /.z u+A.-.3.^.S |.M *.Q l+;+Q #.*.Q w e+X ;+&.R R P U w *.v $.W.7 W X C.. . . . . . ",
". . . . . . . + E X _.l+s %.%.M O M v M w M R T $.U w *.v *.U O t *.v $.y W.-+*.*.%.%.M w M x ! W D (.0 . . . . . . ",
". . . . . . . . G _.D >.m x %.-+%.M u v /+&.*.*.%.U S w M ].@.@.M w M $.M R M v *.v /+&.%.^.^ W X >.G . . . . . . . ",
". . . . . . . . . 0.W X >.8.$+2.~.%.$.~.R M v *.v ].-+%.M u 6.|.&.%.M u v T P M M ~.-+O /.8.W D >.r+. . . . . . . . ",
". . . . . . . . . . F W D W 7 .+Q w M T J.P 1.M ~.&.2.~.%.$.O {.P M w M u &.M w M w Q g+7 >.X >.0.. . . . . . . . . ",
". . . . . . . . . . . F W X >.;.U.=+P S *.S *.M v T 2.Q R v v 6.P w Q S R -+^.u P w+U.k W D W r+. . . . . . . . . . ",
". . . . . . . . . . . . G p.D W >.W U.u w ].%.$.d.d.|.d.$.2.N %.w P S w M v M q+z.W _.W X (.G . . . . . . . . . . . ",
". . . . . . . . . . . . . + @ `.D W >.k ^ .+7+*.%.$.P ].d.v O {.@.{.%.1.#.V e.l+W k D `.@ + . . . . . . . . . . . . ",
". . . . . . . . . . . . . . . 8 ! X D W W 9.k @ A.k+Q 2+Q 2+@.O w W.K.>+B p.W 9+X X ;.8 . . . . . . . . . . . . . . ",
". . . . . . . . . . . . . . . . ] l ;.D X ;.W >.>.;+9.>.9.9.9.9.k >.W W ;.W D X W v+{ . . . . . . . . . . . . . . . ",
". . . . . . . . . . . . . . . . . . 9 :.p.9.D X D X E 9.W W W E W D D X D 9.p.8 9 . . . . . . . . . . . . . . . . . ",
". . . . . . . . . . . . . . . . . . . . . ] :.++! k 9.;+X D X ;+9.;.@ l :.{ . . . . . . . . . . . . . . . . . . . . ",
". . . . . . . . . . . . . . . . . . . . . . . . . . . . . . . . . . . . . . . . . . . . . . . . . . . . . . . . . . ",
". . . . . . . . . . . . . . . . . . . . . . . . . . . . . . . . . . . . . . . . . . . . . . . . . . . . . . . . . . ",
". . . . . . . . . . . . . . . . . . . . . . . . . . . . . . . . . . . . . . . . . . . . . . . . . . . . . . . . . . "};
