/* XPM */
static char * digit_8_xpm[] = {
"58 59 247 2",
"  	c None",
". 	c #000000",
"+ 	c #101010",
"@ 	c #394242",
"# 	c #52635A",
"$ 	c #636B63",
"% 	c #63847B",
"& 	c #6B948C",
"* 	c #6B9C9C",
"= 	c #639C9C",
"- 	c #6BA5A5",
"; 	c #7BADA5",
"> 	c #84ADA5",
", 	c #849C94",
"' 	c #738C84",
") 	c #737B73",
"! 	c #4A5252",
"~ 	c #181818",
"{ 	c #080808",
"] 	c #394A42",
"^ 	c #526363",
"/ 	c #527B73",
"( 	c #4A8484",
"_ 	c #4A8C8C",
": 	c #528C8C",
"< 	c #6B847B",
"[ 	c #73948C",
"} 	c #7B8C8C",
"| 	c #7B9C94",
"1 	c #73ADAD",
"2 	c #7BB5B5",
"3 	c #84BDB5",
"4 	c #8CADAD",
"5 	c #84948C",
"6 	c #525A5A",
"7 	c #424A4A",
"8 	c #4A6B6B",
"9 	c #397373",
"0 	c #427373",
"a 	c #5A8484",
"b 	c #739C94",
"c 	c #6B8C8C",
"d 	c #84A59C",
"e 	c #7BA59C",
"f 	c #7B9C9C",
"g 	c #94C6BD",
"h 	c #8CC6C6",
"i 	c #8C9C9C",
"j 	c #6B736B",
"k 	c #293939",
"l 	c #426B63",
"m 	c #296B6B",
"n 	c #4A736B",
"o 	c #5A6B6B",
"p 	c #9C9484",
"q 	c #AD9484",
"r 	c #A5847B",
"s 	c #BD8C7B",
"t 	c #947373",
"u 	c #BD9484",
"v 	c #AD847B",
"w 	c #B59484",
"x 	c #9CADA5",
"y 	c #8CA5A5",
"z 	c #94CEC6",
"A 	c #425A52",
"B 	c #296363",
"C 	c #216363",
"D 	c #52736B",
"E 	c #737B7B",
"F 	c #847B73",
"G 	c #AD8C73",
"H 	c #D69C84",
"I 	c #C68C7B",
"J 	c #AD8C84",
"K 	c #9C735A",
"L 	c #A58473",
"M 	c #94735A",
"N 	c #C69484",
"O 	c #A5948C",
"P 	c #94A59C",
"Q 	c #8CADA5",
"R 	c #292929",
"S 	c #212929",
"T 	c #42635A",
"U 	c #105A5A",
"V 	c #395A52",
"W 	c #316363",
"X 	c #4A6B63",
"Y 	c #636B6B",
"Z 	c #AD846B",
"` 	c #AD7363",
" .	c #AD7B63",
"..	c #B58C84",
"+.	c #C69C84",
"@.	c #9C7B6B",
"#.	c #C69C8C",
"$.	c #A58C7B",
"%.	c #A5A59C",
"&.	c #94ADA5",
"*.	c #424A42",
"=.	c #213129",
"-.	c #315252",
";.	c #084A52",
">.	c #AD947B",
",.	c #CEA58C",
"'.	c #94846B",
").	c #CE9484",
"!.	c #AD7352",
"~.	c #BD9C84",
"{.	c #B59C8C",
"].	c #9CA594",
"^.	c #94ADAD",
"/.	c #525A52",
"(.	c #295252",
"_.	c #00424A",
":.	c #7B7B73",
"<.	c #DEA594",
"[.	c #AD8463",
"}.	c #947B73",
"|.	c #A59C94",
"1.	c #94B5AD",
"2.	c #214A4A",
"3.	c #004242",
"4.	c #294A4A",
"5.	c #4A635A",
"6.	c #9C8473",
"7.	c #BD846B",
"8.	c #212921",
"9.	c #214A42",
"0.	c #4A4A4A",
"a.	c #101818",
"b.	c #395252",
"c.	c #A57B7B",
"d.	c #848C84",
"e.	c #7B847B",
"f.	c #314A4A",
"g.	c #9C8C7B",
"h.	c #BD947B",
"i.	c #427B73",
"j.	c #4A7B7B",
"k.	c #5A9494",
"l.	c #7B9494",
"m.	c #A59484",
"n.	c #7B8C84",
"o.	c #313931",
"p.	c #08424A",
"q.	c #31524A",
"r.	c #736B6B",
"s.	c #6B6B63",
"t.	c #397B7B",
"u.	c #52847B",
"v.	c #528C84",
"w.	c #94C6C6",
"x.	c #94948C",
"y.	c #ADA59C",
"z.	c #5A6363",
"A.	c #5A6B63",
"B.	c #946B63",
"C.	c #948C7B",
"D.	c #8C8C84",
"E.	c #6B8C84",
"F.	c #94A594",
"G.	c #8C7B6B",
"H.	c #526B63",
"I.	c #104A4A",
"J.	c #7B736B",
"K.	c #215A5A",
"L.	c #94847B",
"M.	c #63736B",
"N.	c #084A4A",
"O.	c #105252",
"P.	c #185A5A",
"Q.	c #947B7B",
"R.	c #A58C73",
"S.	c #529494",
"T.	c #D6AD94",
"U.	c #9C9C94",
"V.	c #293931",
"W.	c #29524A",
"X.	c #315A52",
"Y.	c #846B5A",
"Z.	c #8C8473",
"`.	c #295A52",
" +	c #639494",
".+	c #949C8C",
"++	c #5A635A",
"@+	c #39524A",
"#+	c #C6A58C",
"$+	c #9CA59C",
"%+	c #6B6B6B",
"&+	c #8C7373",
"*+	c #7B7363",
"=+	c #528484",
"-+	c #AD9C94",
";+	c #295A5A",
">+	c #8C7B73",
",+	c #427B7B",
"'+	c #7B8484",
")+	c #314242",
"!+	c #084242",
"~+	c #428484",
"{+	c #B59473",
"]+	c #846B4A",
"^+	c #636B5A",
"/+	c #B58463",
"(+	c #A58463",
"_+	c #DEB594",
":+	c #395A5A",
"<+	c #8C735A",
"[+	c #9C9C8C",
"}+	c #21524A",
"|+	c #8C7363",
"1+	c #637363",
"2+	c #7B7B6B",
"3+	c #184A4A",
"4+	c #A57352",
"5+	c #317373",
"6+	c #8C948C",
"7+	c #215252",
"8+	c #AD9C84",
"9+	c #849494",
"0+	c #7BADAD",
"a+	c #A57363",
"b+	c #18524A",
"c+	c #B5846B",
"d+	c #396B6B",
"e+	c #395A4A",
"f+	c #6BA59C",
"g+	c #6B9494",
"h+	c #84736B",
"i+	c #8C6363",
"j+	c #638C8C",
"k+	c #5A847B",
"l+	c #4A5A52",
"m+	c #004A4A",
"n+	c #5A7B7B",
"o+	c #8C8484",
"p+	c #7B6B5A",
"q+	c #635A52",
"r+	c #294A52",
"s+	c #081008",
"t+	c #085252",
"u+	c #213131",
"v+	c #293131",
"w+	c #4A6352",
"x+	c #294239",
". . . . . . . . . . . . . . . . . . . . . . . . . . . . . . . . . . . . . . . . . . . . . . . . . . . . . . . . . . ",
". . . . . . . . . . . . . . . . . . . . . . . . . . . . . . . . . . . . . . . . . . . . . . . . . . . . . . . . . . ",
". . . . . . . . . . . . . . . . . . . . . . . . . . . . . . . . . . . . . . . . . . . . . . . . . . . . . . . . . . ",
". . . . . . . . . . . . . . . . . . . . . + @ # $ % & * = - - ; > , ' ) ! ~ . . . . . . . . . . . . . . . . . . . . ",
". . . . . . . . . . . . . . . . . . { ] ^ / ( ( _ : < % [ [ } [ | 1 2 3 3 4 5 6 + . . . . . . . . . . . . . . . . . ",
". . . . . . . . . . . . . . . . + 7 8 9 9 0 / / / a [ b c b * d b e f | d > g h i j ~ . . . . . . . . . . . . . . . ",
". . . . . . . . . . . . . . . k l m m 8 n o / ) p q r s t u v w w p p x y d d i h z i # . . . . . . . . . . . . . . ",
". . . . . . . . . . . . . ~ A B C l l D E F G H I I J v v G K v L M M s N O P Q Q y z z E R . . . . . . . . . . . . ",
". . . . . . . . . . . . S T U V W X Y q Z M K `  .N ..J u w ..+.@.J J #.N L ..$.%.Q Q Q z &.*.. . . . . . . . . . . ",
". . . . . . . . . . . =.-.;.-.T ) >.w ,.'.J J ).I !.L s L u L M L u J w ~.@.+.L t {.].d i z ^./.. . . . . . . . . . ",
". . . . . . . . . . =.(._.(.T :.v v L K L u v <.` [.@.~.L }.w K s L L ,.@.>.,.+.w ,.'.|.&.&.z 1.6 . . . . . . . . . ",
". . . . . . . . . =.2.3.4.5.6.v u L s L ..L L 7.<.)...G v G }.@.L v G v v u v v L K L u O x ^.z 1./.. . . . . . . . ",
". . . . . . . . 8.(.3.9.T @.@.u u t J L Z v G ` !.Z s v v L K '.t t ..u v s ..L u L s L L ,.i Q z ^.0.. . . . . . . ",
". . . . . . . a.b.3.(.T c.v ..v v G M @.t t s ,.!.` J ..6.d.e.w G K L L @...u t v L L v L v v x Q z i 8.. . . . . . ",
". . . . . . . ] 3.f.-.g.u v s s L s L w G M L h.v / 0 i.j.( : k.l.m.v v s v v L '.g ^.6...~.v {.&.y z n.. . . . . . ",
". . . . . . o.p.q.-.r.v L @...w 6 F L J L @.L 7.s.m m 9 t.u.v.: k.* O v ....G ..|.w.z x.Z L @...y.d ^.w.z.. . . . . ",
". . . . . { -.3.(.A.G L <.Z J r.3.(.K t G Z B.>.W C m o C.s u D.E.k.b '.s w t J ].z w.F.L ..s s ..%.Q z i ~ . . . . ",
". . . . . k _.9.b.G.M K ..u s H.3.I.v u w L G J.U K.) }.u v u w L.: k.D.J v v G x.w.z |.B.u ..v ..L.^.Q z j . . . . ",
". . . . { -.3.4.M.@.J J +.N L Y 3.N.6.v L K M ^ O.P.Q.v L K v R.B.a S.5 ..J u u ].h w.].L T.L ..v v U.d z &.+ . . . ",
". . . . V._.W.X.Y.L u J ~.~.@.Z.3.p.q +.@.J J `.;.X J w u ..+.@.q a :  +L s L w x.3 h .+K s u s J u {.&.Q h ++. . . ",
". . . . @+3.2.H.K ..Z L ,.'.h.g.3.I.#+M L u r p.N.s...Z w L M L w n._ k.'.~.L t $+3 3 %.J #.N L s L w P d h 5 . . . ",
". . . + 2.4.q.%+@.L v L v v ..&+3.N.M K ..Z L I.3.*+~.L t u K ..Z :.( =+h.,.+.u %.2 3 %.J w ~.@.~.L t -+i Q 4 ~ . . ",
". . . R _.2.(.K @.t t ..u 6.$ 5.3.p.-.;+-.;+*+I.3.>+G v L }.@.L v ) ,+=+'+[ m.Z d.1 2 F.L ,.@.>.,.+.w ,.> d g ! . . ",
". . . )+3.2.# L ~.L K G *+p.3.3._.3.3.3.3.3.!+_.3.F v v G K '.6.t 0 t.~+( _ }...D.- 1 U.L u M {+v B.u ]+F.f 3 ) . . ",
". . . )+3.W.^+/+I (+_+~.j 3._.N.3.3.:+# ++/.%+N.3.$ ..G v L u L <+9 9 t.~+( F J D.= 1 |.w #+#+_+{.~.>.u [+| 2 ' . . ",
". . . q._.}+|+).Z N M h.u j $ 1+_.3.2+w J v ]+(.3.3+4+I /+/+I Z p m 5+i.,+~+[+h.6+= - d...N w s +.#+u ~.p e 2 i . . ",
". . . 7+W.A Z H >.7.w L G @...R.I.3.j ..+.J J /.3.3.X.2+Z +.^+X K.B / e.t.,+8+w .+k.= x.]+{+'...{+v G #+w e | > . . ",
". . . I.-.(.I ,.H h.v h.~.~.G (+I.3.M.R.J G >.7.5.3._.3.I.3+;.O.P.W 6.2+5+j.v G .+S.= 9+J {.u G (+u #+u ~.e | 0+. . ",
". . . 3.4.2.7.N /+u I ....s M L I.3.# B.t K ]+a+L T 3.3.3._.b+X >+a+7./ m 0 s ..D.: k.D./+B.@.B.t M ]+M L e b 1 . . ",
". . . 3.4.}+).7.!.7.I N 7.L w v I.3.^+t @.L v L v T _.p.z.*+c+!.` 7.N W m 0 s N F _ : D.L v L t @.G v G v * } ; . . ",
". . . 3.-.}+` s N ).[.w J v v s I.3.:+M ++6 r...w I.3.V G ..N I ).7.` W C d+[.~.'+( _ D.v v L K @.t t ..u b & - . . ",
". . . I.4.7+H 7.c+I H }.#.u v r 3+3.p.}+3._.e+Z G.p.3.r.t J 7.` 7.N +.;+C d+).t d.,+( D...G s L w L K Z L & [ f+. . ",
". . . }+q.(.r }.u v w u @.A.X I._.3._.3._.I.s.G $ 3._.Z.u N  .).).v v K.P.W w w ) t.~+e...v v G K L @.L J c c g+. . ",
". . . -.3.3+h+v L K v L ++3.3.3.3._.3.:+$ '.G i+3+3.2...t g.}.L I J v 7+U ;+v L s.9 t.D.s J u w ..Z L B.p j+k.' . . ",
". . . )+3.2.Y u u ..+.@.Y 3.3.N.I.3.I.w L u @.$ 3._.A.s.3+N.3.!+z.s J O.O.X ~.@.E 5+5+C.L ..L u L w G L O k+S.M.. . ",
". . . @ _.2.# L w L M L w F A.g.++3.I.t w L K l+3.3.N.3._.3.3._.3.# ..3+N.s.K R.:.m 5+d.'.+.L }.u L M K ' % : ^ . . ",
". . . S 3.2.;+G t u K ..L L ,.@.1+3.I.w ,.@.J X._.3.3.3.3+M.2+I.3.N.Z.I.m+j B...j C m 2+>.,.+.w ,.@.J J E.n+_ *.. . ",
". . . + (.W.4.h+L }.@.Z v G v v s._.I.Z M L w I.3.I.X.2+@.t 7.2+3.3.# z.2.r.@.Z j C m ) u v v G M L u o+/ % u.~ . . ",
". . . . )+3.4.5.G M @.t t ..u v $ 3.p.g.L s h+p._.p+>.,.{.~.` q+_.3.$ v L K @.t Y P.C :.v u L ..L s L ) / ,+o . . . ",
". . . . R 3.r+q.Q.L w L K Z L @.>+_.3.}.L L :+3.N.}.u v v L ).W.3._.&+G ..L w G ++P.C 1+..u t v G L g.D D t.*.. . . ",
". . . . s+q.3.4.s.H /+w J v v ..v V V a+'.t !+3.7+v ..s G s 2+3.3.A  .I N )./+w M.O.P.) v v G M @.t Y 8 5+/ { . . . ",
". . . . . k _.W.q.L ).6.~.u v s ..G ..Z w s.3.3.# @.s w t >+3+_.N.v H c+7.I ).t j t+O.) u @.u L u }.l X 5+*.. . . . ",
". . . . . + f.3.4.$ I v v L @...u t J L J *+N.N.>+s ....s T 3.3.$ 7.s ).I ).I v $ p.O.j u t J Z J M.:+m 8 + . . . . ",
". . . . . . u+N.4.-.2+L G T.Z J v v L K t G *+Y.u ..v s &+3+N.J.v s t ~.v w ~.L '.7+7+g.v v L M %+T W B @ . . . . . ",
". . . . . . . )+3.2.-.p+K ..N s J u w ..u w L L T.L J v v 6.}. .J v v L K v L K M v u s J u u g.X :+K.A . . . . . . ",
". . . . . . . a.-.3.9.T r +.u L s L u Z v L K K ..I ....w u N I ..J u w ..+.@.J J +.N L ..L >.T -.U b.~ . . . . . . ",
". . . . . . . . 8.2._.2.5.q +.@.~.L }.w +.@.J J +.N L s L w  .` L s L u G M L u J u ~.'.+.@.T -.;.X.=.. . . . . . . ",
". . . . . . . . . S W.3.2.# *+>.,.+.u ,.M L u J w +.'.+.L }.7.<.@.~.L }.w K ..L L ,.'.h.q 5.4._.W.v+. . . . . . . . ",
". . . . . . . . . . =.(.3.2.b.J.v v L M a+..Z L ,.@.>.,.+.u 7.` s L v G t @.L v G v v J.-.2._.2.=.. . . . . . . . . ",
". . . . . . . . . . . u+-.3.4.-.z.G...L J Z J L u M >.v M w N 7...v v L K '.t t ..g.^ q.4.3.q.R . . . . . . . . . . ",
". . . . . . . . . . . . S q.3.4.W.r+z.'.s {.+.w #+#+_+#.~.>.).+.s u L s L u G Y.++q.9.(._.4.S . . . . . . . . . . . ",
". . . . . . . . . . . . . ~ @+N._.W.}+-.A *+B.J N u ..~.#+u I !.` !.+.[./+G.w+:+W.(._.p.@+a.. . . . . . . . . . . . ",
". . . . . . . . . . . . . . . V.-.3._.W.(.(.-.@+1+p+r {+v G  .s v }.2+/.:+4.4.9.3.3.q.V.. . . . . . . . . . . . . . ",
". . . . . . . . . . . . . . . . s+k q.3.3.(.4.2.}+3+}+}+7+7+}+(.(.2.W.2.q.W.3._.W.k + . . . . . . . . . . . . . . . ",
". . . . . . . . . . . . . . . . . . { k )+}+3._.3.3.(.(.W.4.W.q.q.3._.3.3.(.q.v+{ . . . . . . . . . . . . . . . . . ",
". . . . . . . . . . . . . . . . . . . . . + v+x+A -.}+I.3.3.3.I.7+-.@+x+V.+ . . . . . . . . . . . . . . . . . . . . ",
". . . . . . . . . . . . . . . . . . . . . . . . . . . . . . . . . . . . . . . . . . . . . . . . . . . . . . . . . . ",
". . . . . . . . . . . . . . . . . . . . . . . . . . . . . . . . . . . . . . . . . . . . . . . . . . . . . . . . . . ",
". . . . . . . . . . . . . . . . . . . . . . . . . . . . . . . . . . . . . . . . . . . . . . . . . . . . . . . . . . "};
