/* XPM */
static char * digit_0_xpm[] = {
"58 59 236 2",
"  	c None",
". 	c #000000",
"+ 	c #100808",
"@ 	c #421829",
"# 	c #522931",
"$ 	c #631831",
"% 	c #6B1839",
"& 	c #630831",
"* 	c #5A0031",
"= 	c #6B1842",
"- 	c #632139",
"; 	c #5A2939",
"> 	c #080808",
", 	c #4A2129",
"' 	c #631839",
") 	c #630031",
"! 	c #6B2142",
"~ 	c #732139",
"{ 	c #732142",
"] 	c #6B2942",
"^ 	c #522131",
"/ 	c #7B314A",
"( 	c #9C5A63",
"_ 	c #B56B6B",
": 	c #A57373",
"< 	c #BD9484",
"[ 	c #947373",
"} 	c #BD9C84",
"| 	c #AD7B7B",
"1 	c #AD8C7B",
"2 	c #945A63",
"3 	c #8C525A",
"4 	c #944A5A",
"5 	c #211818",
"6 	c #632939",
"7 	c #733142",
"8 	c #8C425A",
"9 	c #94635A",
"0 	c #A58473",
"a 	c #CE9C84",
"b 	c #C68C7B",
"c 	c #AD8C84",
"d 	c #B5847B",
"e 	c #A57B6B",
"f 	c #9C7B6B",
"g 	c #9C735A",
"h 	c #94735A",
"i 	c #C69484",
"j 	c #9C636B",
"k 	c #844252",
"l 	c #73294A",
"m 	c #5A1831",
"n 	c #211010",
"o 	c #391821",
"p 	c #732942",
"q 	c #7B3952",
"r 	c #A58C73",
"s 	c #947363",
"t 	c #AD7363",
"u 	c #AD7B63",
"v 	c #B58C84",
"w 	c #C69C84",
"x 	c #C6A58C",
"y 	c #945263",
"z 	c #CEA58C",
"A 	c #CE9484",
"B 	c #AD7352",
"C 	c #AD7B73",
"D 	c #422129",
"E 	c #9C6363",
"F 	c #BD947B",
"G 	c #AD8C73",
"H 	c #BD846B",
"I 	c #DEB594",
"J 	c #311821",
"K 	c #AD6B52",
"L 	c #73394A",
"M 	c #A5635A",
"N 	c #945252",
"O 	c #AD6B73",
"P 	c #AD7373",
"Q 	c #A56B73",
"R 	c #181010",
"S 	c #8C104A",
"T 	c #84084A",
"U 	c #84104A",
"V 	c #840842",
"W 	c #840042",
"X 	c #8C2952",
"Y 	c #5A2139",
"Z 	c #94395A",
"` 	c #D6AD94",
" .	c #A5636B",
"..	c #8C3952",
"+.	c #AD5A6B",
"@.	c #AD4A63",
"#.	c #A55263",
"$.	c #94315A",
"%.	c #BD7B7B",
"&.	c #AD8484",
"*.	c #8C4252",
"=.	c #101010",
"-.	c #A5847B",
";.	c #9C4263",
">.	c #8C636B",
",.	c #945A5A",
"'.	c #9C4A63",
").	c #8C1852",
"!.	c #946B5A",
"~.	c #943952",
"{.	c #A54A63",
"].	c #9C4A6B",
"^.	c #8C6B5A",
"/.	c #BD7373",
"(.	c #A56B6B",
"_.	c #8C295A",
":.	c #180808",
"<.	c #8C5263",
"[.	c #A5736B",
"}.	c #B56373",
"|.	c #8C294A",
"1.	c #84184A",
"2.	c #A58463",
"3.	c #631039",
"4.	c #843952",
"5.	c #B57373",
"6.	c #BD8C7B",
"7.	c #846B4A",
"8.	c #6B1042",
"9.	c #5A3139",
"0.	c #A5526B",
"a.	c #6B314A",
"b.	c #B59473",
"c.	c #9C4252",
"d.	c #6B184A",
"e.	c #943152",
"f.	c #9C4A5A",
"g.	c #942952",
"h.	c #8C1052",
"i.	c #A56373",
"j.	c #84425A",
"k.	c #A56B63",
"l.	c #D69C84",
"m.	c #8C215A",
"n.	c #7B395A",
"o.	c #B58463",
"p.	c #84424A",
"q.	c #A5525A",
"r.	c #B57B7B",
"s.	c #844263",
"t.	c #843963",
"u.	c #84396B",
"v.	c #C68C84",
"w.	c #9C315A",
"x.	c #942152",
"y.	c #8C185A",
"z.	c #94215A",
"A.	c #9C396B",
"B.	c #A55A73",
"C.	c #8C4A6B",
"D.	c #942163",
"E.	c #942963",
"F.	c #943163",
"G.	c #944A73",
"H.	c #AD737B",
"I.	c #A54A73",
"J.	c #9C4273",
"K.	c #945273",
"L.	c #8C5273",
"M.	c #945A7B",
"N.	c #8C0852",
"O.	c #94527B",
"P.	c #BD848C",
"Q.	c #9C6384",
"R.	c #8C5A6B",
"S.	c #9C638C",
"T.	c #735263",
"U.	c #BD6B7B",
"V.	c #946373",
"W.	c #A5738C",
"X.	c #A56B8C",
"Y.	c #4A3942",
"Z.	c #180810",
"`.	c #94316B",
" +	c #AD7B84",
".+	c #9C7384",
"++	c #9C3973",
"@+	c #A57384",
"#+	c #AD739C",
"$+	c #9C4A7B",
"%+	c #AD73A5",
"&+	c #634A52",
"*+	c #AD6B84",
"=+	c #A54A7B",
"-+	c #9C738C",
";+	c #AD7BA5",
">+	c #A55A84",
",+	c #B584AD",
"'+	c #6B525A",
")+	c #94296B",
"!+	c #AD5A7B",
"~+	c #9C5A7B",
"{+	c #A55284",
"]+	c #AD738C",
"^+	c #B5849C",
"/+	c #AD7B94",
"(+	c #9C427B",
"_+	c #A54A84",
":+	c #BD8CA5",
"<+	c #8C6352",
"[+	c #AD6B7B",
"}+	c #AD8494",
"|+	c #BD8CB5",
"1+	c #94737B",
"2+	c #B57384",
"3+	c #AD637B",
"4+	c #AD638C",
"5+	c #292121",
"6+	c #B58484",
"7+	c #AD849C",
"8+	c #B58C9C",
"9+	c #5A424A",
"0+	c #B58C8C",
"a+	c #391829",
"b+	c #B58494",
"c+	c #BD94B5",
"d+	c #844A5A",
"e+	c #BD8C9C",
"f+	c #946B6B",
"g+	c #845A6B",
"h+	c #181018",
"i+	c #4A2939",
"j+	c #8C4273",
"k+	c #A56B84",
"l+	c #63424A",
"m+	c #AD7394",
". . . . . . . . . . . . . . . . . . . . . . . . . . . . . . . . . . . . . . . . . . . . . . . . . . . . . . . . . . ",
". . . . . . . . . . . . . . . . . . . . . . . . . . . . . . . . . . . . . . . . . . . . . . . . . . . . . . . . . . ",
". . . . . . . . . . . . . . . . . . . . . . . . . . . . . . . . . . . . . . . . . . . . . . . . . . . . . . . . . . ",
". . . . . . . . . . . . . . . . . . . . . + @ # $ % % & * * * & = % - ; @ + . . . . . . . . . . . . . . . . . . . . ",
". . . . . . . . . . . . . . . . . . > , - ' * ) * * % % ! ~ { % ! * * * * % ] @ > . . . . . . . . . . . . . . . . . ",
". . . . . . . . . . . . . . . . + ^ % * * ' % % $ % / { % % ~ { % % % - ! % * * % # + . . . . . . . . . . . . . . . ",
". . . . . . . . . . . . . . . ^ ] * * % ' ] % / ( _ : < [ } | } 1 2 3 4 { ! - % * * ! @ . . . . . . . . . . . . . . ",
". . . . . . . . . . . . . 5 6 * * - ! 7 8 9 0 a b b c | d e f | 0 g h d i j k l ! % * & m n . . . . . . . . . . . . ",
". . . . . . . . . . . . o ] * % % p q | r s g t u i v c } v d w f c c x i 0 v s 3 ] % - * l o . . . . . . . . . . . ",
". . . . . . . . . . . @ % * ' ] y d } z f c c A b B 0 d 0 } 0 h r < c v w f w C [ C q - $ * { D . . . . . . . . . . ",
". . . . . . . . . . o ! * - l E | | 0 h e v v z u u f w 0 [ } g d 0 0 z f F z } } z f 2 l % * % @ . . . . . . . . . ",
". . . . . . . . . o = * % / : d < r v C v G 0 H I a F 0 d 0 [ f 0 1 C | 1 v | d 0 h 0 } : q % * p o . . . . . . . . ",
". . . . . . . . J p * $ / e f v v [ 1 0 e d 0 t K _ v | | 0 g f [ f v } | F v 0 v C v e 0 w L % * p o . . . . . . . ",
". . . . . . . n p * % q | | v d d e g f [ [ d A M N O O E O E P E 4 E E 2 Q P 2 Q E 0 d 0 d | / - * ! R . . . . . . ",
". . . . . . . $ * ! ] | } d d Q 4 S T U U V U U V W W W W W W W W W W W W W W W W W X [ v } | C l ' * Y . . . . . . ",
". . . . . . # & { p y 1 0 f d S W W W W W W W W W W W W W W T T V U T V T T V T V T Z h e 0 f v j - ! & , . . . . . ",
". . . . . + ] * % 8 r 0 ` 0 c  .U U V T X 4 ..+.@.#.T W $._ a %.| | e f d } [ &.e c e f r v d F v *.% * ] =.. . . . ",
". . . . . ^ * ' l s g g v b v c v v d } } 0 0 A b d T W $.| } } 0 0 ` 0 -.;.j 0 g [ 0 0 E } v | v >.p % * ^ . . . . ",
". . . . + ] * % ,.f c c w w C d 0 } 0 '.E g g a u c ).W U !.| E *.~.'.{.U W W ].d < } e 0 ` 0 c d d k ' * ] + . . . ",
". . . . , * ! p ^.0 < c } d *.P C [ | W W : c < /.(.).W W S U W W W W W W W W W U Z E f g d i d c } | p ! * , . . . ",
". . . . ] * ' k s < e 0 z 8 W T } } i V W _.'.S V W W W W W W W T U U V W T U V W W U : c x i 0 d 0 } / - * 6 . . . ",
". . . :.% ! % <.f 0 d 0 d '.W W j E ..W W W W W W W W W W _.3 O [.e }.W W {.} | O W W ).c < } f w 0 [ f ! ! = + . . ",
". . . D * - p h f [ [ v v '.W W T T W W W W W V |.].1.W W 8 2.0 d r _.W W Q | C h |.W U e z f F z } < z ! ! 3.D . . ",
". . . ; * ' 4.0 } 0 g e 0 s T W W W W U W W Z 5.6.v '.W W *.f [ [ P W W $.d 0 F 0 ].W ).e } h G | f v 7.k ! 8.9.. . ",
". . . $ * % N u b 2.I x w w S W W $.'.s U W ).A w d '.W W 4 } 0 g ( W W 0.} [ c 0 '.T ).v x x I } } F v ,.! = a.. . ",
". . . p * % M a H < !.b.w v Z W 1.v x v _.W W t t u c.W W ~.b e ` 0.W U ` } } F d ).U X c i v v w x v w s d.d.q . . ",
". . . % % / _ a F H < 0 1 f ].W V G x F 0.W W e.H b +.W W ).u b h f.W g.v } x v C h.h.i.7.G 2.v G 1 G x d q q j.. . ",
". . . 3.{ { b ` a F | F w } k.W W +.v r -.U W ~.l.A +.T W W Z H v [.'.,.v b.d G 0.h.m.| c x } G 2.< x } w n.n.n.. . ",
". . . * % % H F o.< b v v d h 1.W ..f s [ !.p.h j $.W W W W W U S c.q.< u i 6.v r.].9 0 u 2 f s [ g 7.s 0 s.j.t.. . ",
". . . * % % A H B H b w H 0 < | ( P 0 [ f 0 O X V W W V T W W W T T T S ).$.;.+.#.G v F 0 1 0 [ f 0 d 0 d s.s.u.. . ",
". . . * { % t v.< a u v c | d v | d 0 g s 8 T W W W Z P E '.#.w.w.x.).U h.h.h.y.m.z.A.B.O d 0 g f [ [ d < C.C.C.. . ",
". . . & % = l.H H b a f } } | v 6.0 v 4 T W W W X 2 v } [ c H u H < l.(.#.;.z.m.D.m.E.E.F.: d 0 } 0 g 0 0 C.C.G.. . ",
". . . % { ! | [ v d v } 0 0 ` e c  .Z W W W 1.4 v v d d P 5.M /./.Q P [ < d v H.].y I.F.J.| d 0 h 0 f 0 d K.L.M.. . ",
". . . ! * % j d 0 h d 0 g h < i ;.W W W T y [.*.#.).S ).U N.h.h.h.).y.;.0 h d 0 g g v i F c v } v e 0 E &.K.O.M.. . ",
". . . $ * ' <.v } v } f c c 5.$.W W W $.E 0.U W T T T T h.h.h.m.m.m.z.].} v } f c c w i 0 d 0 < 0 < r e P.L.Q.R.. . ",
". . . 6 * ' 4.r v 0 g 0 } '.W W W T 2 [ } X V T S ).z.j i.i.%.b B C v r v 0 g 0 < c } } f w 0 [ < 0 g h H.M.S.T.. . ",
". . . o * - / 0 f < h v e 1.W V e.%.x v z f j ].r.< j P j i.U.f.#.2 O  .V.d h v 0 0 z f F z } } z f c c W.Q.X.Y.. . ",
". . . Z.~ ! % j 0 [ f 0 d ( ).i.v | | G h 0 | j F.x.y.y.y.m.m.D.E.E.E.E.`.`.A.B.| C | 1 v | d 0 h 0 <  +Q..+X.5 . . ",
". . . . - * ' 4.0 g f [ [ v } d v F 0 O '.Z h.h.).).y.m.z.E.E.F.F.`.`.A.A.`.++++J.| } | 6.v 0 < 0 d 0 @+.+#+V.. . . ",
". . . . o * % ! C 0 } 0 g 0 0 f d P _.U h.h.).y.m.E.].0.| : a B t v d 0 d : H.J.J.$+0 f v < [ c 0 r | @+Q.%+&+. . . ",
". . . . + ~ * % 4 a u } c d | F Q h.h.h.).m.s.O v | v v e v F b A o.t b i a o.*+$+=+| F | 1 0 g f [ @+-+;+W.=.. . . ",
". . . . . # * % ~ 5.a [ } } | v r.).m._.i.e g 0  .F.0.Q j | H t H i l.H H b A $+=+>+| v v e < e } -.Q.W.,+'+. . . . ",
". . . . . :.p * % 4 b | d 0 f d } [ c e c 0 f : E.E.F.)+`.A.++I.!+O 5.a 6.A ~+{+{+: f d } [ c 0 c ]+-+^+/+5 . . . . ",
". . . . . . @ & % ] E 0 0 ` r c | | 0 g [ C 0 s ].F.`.`.`.++++++J.J.(+=+~+>+_+>+H.` r c | d 0 g .+W./+:+'+. . . . . ",
". . . . . . . ; * - ] <+g v b v c } } v } } 0 C ` Q [+i.I.J.J.J.(+(+=+_+{+_+{+V.g v i d c } v v }+}+|+1+. . . . . . ",
". . . . . . . 5 ! * ' q | w w 0 6.0 v 0 | 0 h h v i v c v v 2+3+=+{+{+{+{+>+4+4+c w i 0 v 0 < /+/+|+.+5+. . . . . . ",
". . . . . . . . o % * - q v } f } C [ } } f c c w i 0 6.r v u u 0 6+: &.[+V.[+6+c } } f w 0 /+}+|+7+Y.. . . . . . . ",
". . . . . . . . . o ! * ' k ^.F z } } z g 0 < c } } f } 0 [ H z f w 0 f v g v 0 0 z f F x 8+7+|+7+9+. . . . . . . . ",
". . . . . . . . . . D % * % l 2 d | 0 h s v e 0 z f F z w } H t < e | 0 f f 0 d 0 | | 0+/+/+|+7+Y.. . . . . . . . . ",
". . . . . . . . . . . a+! * % ! k f v C c e v 0 < h 1 | h v i H v d d 0 s f [ [ < 0+b+}+7+|+7+9+. . . . . . . . . . ",
". . . . . . . . . . . . o - * ! ! ! 3 f d x w v x x ` x } F A w d v 0 d 0 } C s &.}+/+7+c+W.Y.. . . . . . . . . . . ",
". . . . . . . . . . . . . 5 ] & 3.] l q d+2 s c i } v } x v b B u B w H o.6+&.e+7+7+|+c+1+a+. . . . . . . . . . . . ",
". . . . . . . . . . . . . . . # l 8.d.q q n.<.j.j f+d b.| b.u 6.%.v.P. +^+W./+W.|+|+}+'+. . . . . . . . . . . . . . ",
". . . . . . . . . . . . . . . . =.9.q l n.s.n.s.g+C.K.K.Q.Q.>+W.]+W.W.W./+}+|+|+/+T.h+. . . . . . . . . . . . . . . ",
". . . . . . . . . . . . . . . . . . + i+q s.u.u.j+L.L.M.V.M.Q.k+W.#+;+^+,+:+.+&+=.. . . . . . . . . . . . . . . . . ",
". . . . . . . . . . . . . . . . . . . . . R i+l+R.V.~+Q.S.X.m+m+/+/+.+g+&+5 . . . . . . . . . . . . . . . . . . . . ",
". . . . . . . . . . . . . . . . . . . . . . . . . . . . . . . . . . . . . . . . . . . . . . . . . . . . . . . . . . ",
". . . . . . . . . . . . . . . . . . . . . . . . . . . . . . . . . . . . . . . . . . . . . . . . . . . . . . . . . . ",
". . . . . . . . . . . . . . . . . . . . . . . . . . . . . . . . . . . . . . . . . . . . . . . . . . . . . . . . . . "};
