/* XPM */
static char * digit_9_xpm[] = {
"58 59 238 2",
"  	c None",
". 	c #000000",
"+ 	c #100810",
"@ 	c #311821",
"# 	c #422131",
"$ 	c #4A2131",
"% 	c #421839",
"& 	c #421831",
"* 	c #310831",
"= 	c #290029",
"- 	c #4A2139",
"; 	c #422139",
"> 	c #422931",
", 	c #311829",
"' 	c #100808",
") 	c #080808",
"! 	c #392129",
"~ 	c #391831",
"{ 	c #210029",
"] 	c #4A2939",
"^ 	c #392131",
"/ 	c #391031",
"( 	c #5A3142",
"_ 	c #4A2142",
": 	c #4A1839",
"< 	c #391039",
"[ 	c #4A2942",
"} 	c #633142",
"| 	c #8C5A63",
"1 	c #A56B6B",
"2 	c #A57B73",
"3 	c #B58C84",
"4 	c #947373",
"5 	c #BD9C84",
"6 	c #B5847B",
"7 	c #B59484",
"8 	c #AD8C7B",
"9 	c #8C6363",
"0 	c #734A52",
"a 	c #734A5A",
"b 	c #181010",
"c 	c #522942",
"d 	c #6B4A52",
"e 	c #84635A",
"f 	c #A58473",
"g 	c #CE9484",
"h 	c #C68C7B",
"i 	c #AD8C84",
"j 	c #AD847B",
"k 	c #94735A",
"l 	c #9C735A",
"m 	c #C69484",
"n 	c #8C636B",
"o 	c #6B4252",
"p 	c #291821",
"q 	c #634252",
"r 	c #A5847B",
"s 	c #9C7363",
"t 	c #AD7363",
"u 	c #BD9484",
"v 	c #C69C84",
"w 	c #9C846B",
"x 	c #9C6B6B",
"y 	c #73525A",
"z 	c #523142",
"A 	c #7B525A",
"B 	c #CEA58C",
"C 	c #9C7B6B",
"D 	c #CE947B",
"E 	c #C6947B",
"F 	c #AD7352",
"G 	c #B58C7B",
"H 	c #9C7B73",
"I 	c #63424A",
"J 	c #312129",
"K 	c #A5846B",
"L 	c #DEA594",
"M 	c #AD8463",
"N 	c #AD8473",
"O 	c #845263",
"P 	c #52294A",
"Q 	c #5A394A",
"R 	c #9C7373",
"S 	c #BD846B",
"T 	c #63394A",
"U 	c #5A314A",
"V 	c #A57B6B",
"W 	c #94736B",
"X 	c #522939",
"Y 	c #CE9C8C",
"Z 	c #A57363",
"` 	c #846363",
" .	c #7B5A5A",
"..	c #AD7B73",
"+.	c #A57373",
"@.	c #D69C84",
"#.	c #B58473",
"$.	c #73424A",
"%.	c #7B636B",
"&.	c #290831",
"*.	c #946B63",
"=.	c #CE9C84",
"-.	c #AD7B7B",
";.	c #94636B",
">.	c #7B5A63",
",.	c #392931",
"'.	c #311031",
").	c #7B4A52",
"!.	c #8C6B5A",
"~.	c #735252",
"{.	c #734A4A",
"].	c #D6AD94",
"^.	c #8C6352",
"/.	c #633952",
"(.	c #734252",
"_.	c #8C5A5A",
":.	c #290031",
"<.	c #52314A",
"[.	c #C6A58C",
"}.	c #9C635A",
"|.	c #735263",
"1.	c #BD948C",
"2.	c #B59473",
"3.	c #846B4A",
"4.	c #B58463",
"5.	c #A58463",
"6.	c #DEB594",
"7.	c #9C6363",
"8.	c #C69C7B",
"9.	c #63314A",
"0.	c #94635A",
"a.	c #946B52",
"b.	c #BD947B",
"c.	c #8C6B6B",
"d.	c #A57B7B",
"e.	c #6B4A63",
"f.	c #52395A",
"g.	c #4A294A",
"h.	c #422142",
"i.	c #310839",
"j.	c #8C6B73",
"k.	c #634A6B",
"l.	c #5A4263",
"m.	c #5A395A",
"n.	c #523152",
"o.	c #42214A",
"p.	c #BD847B",
"q.	c #8C737B",
"r.	c #5A4252",
"s.	c #BD8C7B",
"t.	c #634263",
"u.	c #52315A",
"v.	c #6B5273",
"w.	c #5A3963",
"x.	c #421842",
"y.	c #7B637B",
"z.	c #6B4A73",
"A.	c #7B5A52",
"B.	c #8C7384",
"C.	c #735A84",
"D.	c #523942",
"E.	c #9C7B84",
"F.	c #84738C",
"G.	c #6B425A",
"H.	c #AD9494",
"I.	c #947B9C",
"J.	c #947B94",
"K.	c #8C7363",
"L.	c #6B4263",
"M.	c #63425A",
"N.	c #946B73",
"O.	c #AD8C9C",
"P.	c #9C8CAD",
"Q.	c #94849C",
"R.	c #947B8C",
"S.	c #846B8C",
"T.	c #101010",
"U.	c #BDA59C",
"V.	c #BDA5AD",
"W.	c #C6ADB5",
"X.	c #C6B5C6",
"Y.	c #B5ADC6",
"Z.	c #AD9CBD",
"`.	c #A594B5",
" +	c #9C84A5",
".+	c #8C7B9C",
"++	c #8C738C",
"@+	c #AD8C8C",
"#+	c #634A63",
"$+	c #BDADB5",
"%+	c #CEC6DE",
"&+	c #C6BDD6",
"*+	c #AD9CB5",
"=+	c #A5848C",
"-+	c #63426B",
";+	c #6B4A5A",
">+	c #C6ADBD",
",+	c #5A424A",
"'+	c #634A73",
")+	c #B57B7B",
"!+	c #B59494",
"~+	c #BD9C9C",
"{+	c #AD7373",
"]+	c #7B5A6B",
"^+	c #73526B",
"/+	c #7B638C",
"(+	c #735A7B",
"_+	c #846373",
":+	c #4A3942",
"<+	c #735A6B",
"[+	c #9C7B7B",
"}+	c #8C7394",
"|+	c #9C7B8C",
"1+	c #6B525A",
"2+	c #8C6B63",
"3+	c #292121",
"4+	c #7B5A73",
"5+	c #6B5A6B",
"6+	c #423139",
"7+	c #7B6384",
"8+	c #735A73",
"9+	c #846B7B",
"0+	c #846B84",
"a+	c #7B6B8C",
"b+	c #84637B",
"c+	c #633942",
"d+	c #181018",
"e+	c #5A4A52",
"f+	c #84737B",
"g+	c #735A63",
"h+	c #6B424A",
"i+	c #634A5A",
"j+	c #6B526B",
"k+	c #63395A",
"l+	c #52424A",
"m+	c #73636B",
"n+	c #4A2952",
"o+	c #523139",
". . . . . . . . . . . . . . . . . . . . . . . . . . . . . . . . . . . . . . . . . . . . . . . . . . . . . . . . . . ",
". . . . . . . . . . . . . . . . . . . . . . . . . . . . . . . . . . . . . . . . . . . . . . . . . . . . . . . . . . ",
". . . . . . . . . . . . . . . . . . . . . . . . . . . . . . . . . . . . . . . . . . . . . . . . . . . . . . . . . . ",
". . . . . . . . . . . . . . . . . . . . . + @ # $ % & * = = = * % - ; > , ' . . . . . . . . . . . . . . . . . . . . ",
". . . . . . . . . . . . . . . . . . ) ! ; ~ = = { = % & - ; - # ; = = = = % ] , ) . . . . . . . . . . . . . . . . . ",
". . . . . . . . . . . . . . . . ' ^ - { = ; % ; & / ( _ % % : _ % < ; % ; ; { = ; > ' . . . . . . . . . . . . . . . ",
". . . . . . . . . . . . . . . ! [ = { - < - ; } | 1 2 3 4 5 6 7 8 9 0 a _ _ % ; = = ; , . . . . . . . . . . . . . . ",
". . . . . . . . . . . . . b ] * { % ; c d e f g h h i j 6 f k 6 f k l 3 m n o [ ; ; { * ^ b . . . . . . . . . . . . ",
". . . . . . . . . . . . p [ = ~ ; c q r f l s t t m 3 i u 7 3 v w i i v v f 3 x y _ ; ; = z p . . . . . . . . . . . ",
". . . . . . . . . . . @ ; = < [ A r u B C i i D E F f G f u f k f u i 5 5 C v f H 2 I & ~ = _ J . . . . . . . . . . ",
". . . . . . . . . . @ ; = ; z | j 6 f k K u i L t M w v N 4 7 l 3 K f B w G B v 7 B w O P ; = ; , . . . . . . . . . ",
". . . . . . . . . p % { % Q R G 3 f G N 3 f f S L g G f j f 4 w f 6 f j 6 3 j j f l f 7 4 T ; = ] @ . . . . . . . . ",
". . . . . . . . p [ { ~ U V C 3 u 4 i f K 6 f t F S 3 6 j N l W 4 4 u 7 6 G u f 3 f 3 K N 5 Q % { [ p . . . . . . . ",
". . . . . . . b X = ; Q 2 j 3 6 j N l C 4 4 G Y F Z G 3 N G `  .V k f f C 3 7 R 8 f N j f 6 2 Q % = ; b . . . . . . ",
". . . . . . . $ { - [ r 7 6 G G f G f 5 f l N G h g S t h ..* { A i 6 6 G j 6 f l C 4 R 3 7 6 +.c ; = # . . . . . . ",
". . . . . . ! * _ ] O 6 f C 3 7 R i f i f w f S t S m @.#.$.= = q v 7 j 3 u K 3 f 7 f l K f w 3 %.; ; &.! . . . . . ",
". . . . . ' [ = ; 0 f f L K i 6 j f l 4 f K *.=.=.g S S E < = * -.j f w G u 4 i K 3 f w f u G G u o ; = [ + . . . . ",
". . . . . ^ = ~ c ;.l k 3 m R y 8 G 3 u u f N g h j 3 4 >.= = U f f L f r n o 9 k 4 f K *.u 3 6 G %.c % = ,.. . . . ",
". . . . ) [ = ;  .w i i v o = = '.* ; o  .).!.E t 3 j 6 T { = ~.k {.a ( * = = = '.q 2 N f ].f i 6 6 d ~ = [ ) . . . ",
". . . . ! = ; [ ^.f u i 7 /.= { = = = = { = * / (.8 i u ; = < z < = = { = = = { = = '._.l G m G i u r _ ; = ! . . . ",
". . . . [ = < d s 3 K f B s W O y * { = = = { = { % G 9 :.= { = = { < y ~.R ` a <.= = Q i [.m f 3 K u I % { ] . . . ",
". . . ' < ; ] >.s f 6 f 6 j G 6 6 '.= * a < / * * z [.I = = = { < 0 [.C G B v 5 [.* = * r u 5 C v f 4 ;.[ ; % ' . . ",
". . . J = % - k w 4 4 3 7 6 3 3 f o = * C 8 2 Z }.3 C < { = [ A j f 6 j u j j f l - = { 0 B w G B v 7 B - ; = p . . ",
". . . ; = # /.f u f l K f C G u 4 |.= { x 1.7 m S G A = = z C H 4 G u j G 3 N 3 f P { = d 7 k 2.8 *.5 3.I < = > . . ",
". . . $ { % ).4.h 5.6.1.v [.6.1.5 ~.= = ` 7.i g 8.3 9.{ &.9 5 f l f f C 3 u 4 8 f c = = >.B [.6.1.5 G 3  .~ = ; . . ",
". . . - = % 0.=.K m a.b.v 7 3 5 [.A { = c.8 3.h t t & = / 4.h K ].v [.v 6.5 u G u % { * r m 7 3 5 v 5 5 ` / = ] . . ",
". . . % - ( V @.b.S 5 f N 5.3 2.6 y = { 2 i i t S x :.= $.=.M m a.G v 7 3 5 [.u H :.= < 3.2.w G G j 2.[.8 ; ; < . . ",
". . . * - _ h @.=.G j b.5 7 N s 3 >.{ = /.d C S =.).= { }.B G S 5 f 2.C 3 2.G N Q = { o i 1.7 N 5.7 [.u 5 % ; * . . ",
". . . = - % S m M m h 3 3 d.e.f.g.h.i.:.{ = = % f o { / 2 f S =.h t S u 4.u h ` = { = ` t *.w *.H l 3.k f % ; = . . ",
". . . = & % g S F #.h m S j.k.l.m.n.o.< '.* * c j ;.<.n 6 f #.F t S g S F S p.c = = _ G f 6 f 4 w f 6 f 6 % ; = . . ",
". . . &.- & t h m =.4.7 i 6 d.q.-.-.r.o.d 4 4 3 7 6 u 3 K u h h g S t h m g 0 = { * ;.3 6 j N k C 4 4 3 7 % ; = . . ",
". . . < - _ =.S S h g 4 [.7 j s.3 f t.u.%.f l K f C G u 4 i S t S m =.S S ../ = { >.6 G 3 f G f 7 f l N f % ; * . . ",
". . . P P [ j 4 7 j u 5 f f L f i j v.w. .N W N 3 G 3 3 G m t =.g j 3 4 7 c = { / W ].f 3 6 6 f l f w f ..; ; % . . ",
". . . Q x.h.n 6 f k j f l k 3 m G i y.z.j.f K *.u 3 6 G 4 5 =.h h i 6 j T = = * A.l 3 E G i 7 u 3 K f *.;.< = - . . ",
". . . Q h.<.>.7 u 3 v C i i v m N 3 B.C.j.u N f ].K i j 6 f t t m G i ` :.{ = ~.i i v m f 3 f u f u K N c.% { ] . . ",
". . . D.o.<.a f 7 N k f u i 5 5 W 5 E.F.E.f k l G m G 3 7 7 g h F f 2 * = = ; f u i u 5 w v f 4 u f k s T ; = ; . . ",
". . . ,.u.r.G.f R 7 l 3 f K B C b.B H.I.J.C E.q.u m f 3 K u L t M K./ = = [ *.s.f f B W b.B 5 5 B W 3 i c - { J . . ",
". . . b L.M.r.N.f 4 w K 6 f j j 3 6 O.P.Q.R.S.C.q.5 C v f 4 S L #.c { = { U W f 6 f 6 8 3 j 6 f k f 7 n [ ; < T.. . ",
". . . . q w.M.>.f l W R 4 3 U.V.W.X.Y.Z.`. +.+++@+w G B v 7 t }.< = = = = = / ` 4 3 u j s.3 f u f s.f T ; = ] . . . ",
". . . . ] l.#+L.j f 5 f s $+%+%+%+%+&+X.*+=+@+f j 6 3 j j f 6 <.x.* < [ = { = * ] *.f C 3 u 4 8 f f R - ; = ! . . . ",
". . . . ' |.-+;+j.g 4.7 i >+%+%+&+&+$+H.w 4 4 3 u j G u f j t.n.o.h.0.h A < = { = '.n G 6 j f l C 4 q % = _ ) . . . ",
". . . . . ,+'+e.|.)+g 4 v 7 !+~+1.N 3 K 7 N k f f C 3 u j.y.'+l.t.R @.#.S {+A * = = = U ;.f u f u *.; ; { ! . . . . ",
". . . . . b ]+v.^+4 h j 6 f C G 7 4 i f i f w f s.3 G 3 R./+(+_+g #.S @.h @.h ;.< { = { < ;.8 f i I ~ = [ ' . . . . ",
". . . . . . :+(+^+<+[+f f ].K i 6 6 f l R K f 7.7 G 6 3 Q.}+|+p.j s.4 7 j 7 7 f V a :.= = ;.f l a ; % &.! . . . . . ",
". . . . . . . 1+(+<+]+2+l 3 m 3 i 7 u 3 7 u f f ].f i 6 @+|+=.t i j 6 f l j N k k 3 x % Q 7 7 R z ; = > . . . . . . ",
". . . . . . . 3+4+C.5+_+i v m K s.f 7 K 6 f l k u h 3 i u 5 m h 3 i 7 5 3 v w i i =.v f 3 K 8 ( % = # b . . . . . . ",
". . . . . . . . 6+4+7+8+9+7 1.w 5 N 4 5 5 C i i v m f G f 7 t t f s.f 7 f k f u i 7 5 C v C U ; = ; p . . . . . . . ",
". . . . . . . . . 6+9+7+4+q.W b.B 5 u B k f u i u 5 w v f 4 S L w v f 4 u l 3 f f B w G 8 /.; = ~ @ . . . . . . . . ",
". . . . . . . . . . :+0+7+4+_+[+j 6 f k s 3 K f B w G B 5 5 s.F 3 f 6 f 4 w f 6 f 6 j O c % { & p . . . . . . . . . ",
". . . . . . . . . . . :+0+a+4+y.q.H 3 N i K 3 f u k G j l 7 m #.G 6 j N k C 4 4 3 2 o ] ; = _ @ . . . . . . . . . . ",
". . . . . . . . . . . . 6+4+S.b+y.4+q.H G 1.v 7 [.[.].[.7 G g 8.3 3 f G f 5 f ^.o ] ~ ; = ; p . . . . . . . . . . . ",
". . . . . . . . . . . . . 3+%.F.S.y.4+_+_+4 *.i m 5 3 5 [.5 h t t F 8.4.4.*.c+<.; _ { * ] d+. . . . . . . . . . . . ",
". . . . . . . . . . . . . . . e+f+S.a+9+8+4+4+g+j.K.j 2.j 2.t S 6 {+;.h+U - % ~ = { [ ! . . . . . . . . . . . . . . ",
". . . . . . . . . . . . . . . . b i+9+a+7+y.4+<+<+j+^+e.j+#+M.M.k+<.<.P <.[ * = - ,.' . . . . . . . . . . . . . . . ",
". . . . . . . . . . . . . . . . . . ' l+m+0+C.C.v.v.<+^+e.i+e.;+M.n+o.h.x.<.z ^ ) . . . . . . . . . . . . . . . . . ",
". . . . . . . . . . . . . . . . . . . . . b :+e+_+b+8+v.k.-+l.w.t.;+q o+,.T.. . . . . . . . . . . . . . . . . . . . ",
". . . . . . . . . . . . . . . . . . . . . . . . . . . . . . . . . . . . . . . . . . . . . . . . . . . . . . . . . . ",
". . . . . . . . . . . . . . . . . . . . . . . . . . . . . . . . . . . . . . . . . . . . . . . . . . . . . . . . . . ",
". . . . . . . . . . . . . . . . . . . . . . . . . . . . . . . . . . . . . . . . . . . . . . . . . . . . . . . . . . "};
