/* XPM */
static char * digit_7_xpm[] = {
"58 59 240 2",
"  	c None",
". 	c #000000",
"+ 	c #211010",
"@ 	c #634231",
"# 	c #945A4A",
"$ 	c #A55A4A",
"% 	c #B56352",
"& 	c #C66B5A",
"* 	c #CE6B5A",
"= 	c #C66352",
"- 	c #C65A52",
"; 	c #BD524A",
"> 	c #B55A52",
", 	c #AD524A",
"' 	c #944A42",
") 	c #7B4242",
"! 	c #5A3129",
"~ 	c #181010",
"{ 	c #100808",
"] 	c #7B4A42",
"^ 	c #A56352",
"/ 	c #C67363",
"( 	c #D67B63",
"_ 	c #CE6352",
": 	c #AD5A52",
"< 	c #B54242",
"[ 	c #AD4242",
"} 	c #AD3939",
"| 	c #A54242",
"1 	c #8C4242",
"2 	c #5A2929",
"3 	c #84524A",
"4 	c #BD7B63",
"5 	c #B56B5A",
"6 	c #BD6352",
"7 	c #BD6B63",
"8 	c #C6635A",
"9 	c #BD5A52",
"0 	c #B55252",
"a 	c #A54A4A",
"b 	c #AD4A4A",
"c 	c #A54A42",
"d 	c #9C3942",
"e 	c #9C5242",
"f 	c #9C2931",
"g 	c #943939",
"h 	c #6B3131",
"i 	c #180808",
"j 	c #DE7B63",
"k 	c #BD735A",
"l 	c #BD6B5A",
"m 	c #CE8473",
"n 	c #B58473",
"o 	c #B58C84",
"p 	c #947373",
"q 	c #B59484",
"r 	c #AD847B",
"s 	c #BD9484",
"t 	c #B5947B",
"u 	c #A57363",
"v 	c #A55A5A",
"w 	c #B56B63",
"x 	c #A5424A",
"y 	c #941829",
"z 	c #8C3139",
"A 	c #522121",
"B 	c #312118",
"C 	c #A56B5A",
"D 	c #DE8463",
"E 	c #C67B6B",
"F 	c #B57B6B",
"G 	c #A58473",
"H 	c #CE9484",
"I 	c #C68C7B",
"J 	c #AD8C84",
"K 	c #9C735A",
"L 	c #947363",
"M 	c #C69484",
"N 	c #AD736B",
"O 	c #A55252",
"P 	c #8C1021",
"Q 	c #8C1029",
"R 	c #6B2129",
"S 	c #291010",
"T 	c #5A3931",
"U 	c #DE846B",
"V 	c #BD947B",
"W 	c #AD7363",
"X 	c #AD7B63",
"Y 	c #C69C84",
"Z 	c #9C846B",
"` 	c #CE9C84",
" .	c #A5736B",
"..	c #8C2931",
"+.	c #842931",
"@.	c #840018",
"#.	c #421818",
"$.	c #634239",
"%.	c #C67B63",
"&.	c #C69C7B",
"*.	c #CEA58C",
"=.	c #9C7B6B",
"-.	c #AD7352",
";.	c #AD8473",
">.	c #94424A",
",.	c #7B2129",
"'.	c #7B1829",
").	c #842131",
"!.	c #4A2121",
"~.	c #CE7B63",
"{.	c #C68C73",
"].	c #DEA594",
"^.	c #A57B73",
"/.	c #C6A584",
"(.	c #843139",
"_.	c #842129",
":.	c #4A1821",
"<.	c #C6846B",
"[.	c #BD846B",
"}.	c #D69C84",
"|.	c #BD8C84",
"1.	c #943942",
"2.	c #B56B52",
"3.	c #BD8C7B",
"4.	c #AD846B",
"5.	c #AD6B5A",
"6.	c #A5846B",
"7.	c #8C3939",
"8.	c #421821",
"9.	c #BD7B6B",
"0.	c #DE947B",
"a.	c #EF9C73",
"b.	c #E79C7B",
"c.	c #AD7B73",
"d.	c #943142",
"e.	c #7B2131",
"f.	c #210808",
"g.	c #9C634A",
"h.	c #C6947B",
"i.	c #CE8C7B",
"j.	c #EF9473",
"k.	c #DE9C7B",
"l.	c #D6947B",
"m.	c #BD8473",
"n.	c #F79C73",
"o.	c #DE9473",
"p.	c #E79473",
"q.	c #522129",
"r.	c #D6735A",
"s.	c #DEAD94",
"t.	c #D68C7B",
"u.	c #D68C73",
"v.	c #D69C7B",
"w.	c #E78C6B",
"x.	c #CE846B",
"y.	c #9C424A",
"z.	c #844A42",
"A.	c #AD6B52",
"B.	c #E7846B",
"C.	c #D6AD94",
"D.	c #946B63",
"E.	c #946363",
"F.	c #8C2939",
"G.	c #5A2129",
"H.	c #B5635A",
"I.	c #CE8C6B",
"J.	c #B57B73",
"K.	c #B5524A",
"L.	c #B54A4A",
"M.	c #6B4239",
"N.	c #C6A58C",
"O.	c #C68473",
"P.	c #D66B5A",
"Q.	c #9C4A4A",
"R.	c #8C2131",
"S.	c #BD736B",
"T.	c #AD635A",
"U.	c #9C5A52",
"V.	c #944242",
"W.	c #732931",
"X.	c #AD6352",
"Y.	c #B57363",
"Z.	c #841829",
"`.	c #B59473",
" +	c #846B4A",
".+	c #632929",
"++	c #B58463",
"@+	c #DEB594",
"#+	c #BD5252",
"$+	c #9C5252",
"%+	c #7B1821",
"&+	c #946B52",
"*+	c #A53939",
"=+	c #A53942",
"-+	c #A58463",
";+	c #9C635A",
">+	c #7B1021",
",+	c #D6A584",
"'+	c #AD8C73",
")+	c #A52931",
"!+	c #A58C73",
"~+	c #8C1829",
"{+	c #840821",
"]+	c #942131",
"^+	c #9C4A52",
"/+	c #943139",
"(+	c #A53139",
"_+	c #942939",
":+	c #A56363",
"<+	c #840818",
"[+	c #841021",
"}+	c #AD5A5A",
"|+	c #9C2129",
"1+	c #B5736B",
"2+	c #942931",
"3+	c #8C394A",
"4+	c #A57B6B",
"5+	c #AD7B7B",
"6+	c #841029",
"7+	c #BD847B",
"8+	c #945A52",
"9+	c #94524A",
"0+	c #944A4A",
"a+	c #733131",
"b+	c #A56B6B",
"c+	c #D69C8C",
"d+	c #7B2929",
"e+	c #A55A63",
"f+	c #7B2931",
"g+	c #521821",
"h+	c #9C525A",
"i+	c #8C3142",
"j+	c #A56B63",
"k+	c #9C5A5A",
"l+	c #946B6B",
"m+	c #8C4A52",
"n+	c #946352",
"o+	c #732129",
"p+	c #4A1818",
"q+	c #632129",
". . . . . . . . . . . . . . . . . . . . . . . . . . . . . . . . . . . . . . . . . . . . . . . . . . . . . . . . . . ",
". . . . . . . . . . . . . . . . . . . . . . . . . . . . . . . . . . . . . . . . . . . . . . . . . . . . . . . . . . ",
". . . . . . . . . . . . . . . . . . . . . . . . . . . . . . . . . . . . . . . . . . . . . . . . . . . . . . . . . . ",
". . . . . . . . . . . . . . . . . . . . . + @ # $ % & * = - ; ; > , ' ) ! ~ . . . . . . . . . . . . . . . . . . . . ",
". . . . . . . . . . . . . . . . . . { ] ^ / ( * * _ % > > : > , : < [ } } | 1 2 { . . . . . . . . . . . . . . . . . ",
". . . . . . . . . . . . . . . . + 3 4 ( ( 5 5 6 % 6 7 8 6 9 9 0 a b c d e d f f g h i . . . . . . . . . . . . . . . ",
". . . . . . . . . . . . . . . ] 4 j j k 5 5 l l m m n o p q r s t u v w x d g g y y z A . . . . . . . . . . . . . . ",
". . . . . . . . . . . . . B C D ( 7 k 7 E F G H I I J r r G K r G K L t M N O d z z P Q R S . . . . . . . . . . . . ",
". . . . . . . . . . . . T 4 U k 7 4 N V G K K W X s o o s s o Y Z J J ` M G o  .v ....+.@.z #.. . . . . . . . . . . ",
". . . . . . . . . . . $.%.D l 7 m &.q *.=.J J H I -.G t G q G K G s J q s Z s ;.p n >.,.'.@.).!.. . . . . . . . . . ",
". . . . . . . . . . $.~.D 7 7 {.r r G K G q r ].X X =.Y G ^.q K t G G *.Z t *./.q *.Z v (.).@._.:.. . . . . . . . . ",
". . . . . . . . . @ %.j 7 <.n o o ;.o G t ;.G [.].}.o G r G p =.G r ;.r r |.r r G K G q ^.1.).@...:.. . . . . . . . ",
". . . . . . . . T E j 2.4 N Z 3.q p J 4.G r G W 5.X t r r G K 6.n ^.o s r t o ;.o G o 6.;.M 7.,.@.+.8.. . . . . . . ",
". . . . . . . B / ( 7 9.r 3.0.a.0.{.=.=.p p 3.` X W o 3.G 3.G b.a.<.6.G =.o s p r G ;.r G r c.d.'.@.e.f.. . . . . . ",
". . . . . . . g.( 7 5 h.s i.a.a.a.a.j.k.{.X G t I H [.W I M l.j.a.0.r r t r r G K Z p p o s r c.z '.@.h . . . . . . ",
". . . . . . ] ( / l m.r G 4.a.b.j.n.a.a.a.a.o.<.W [.M ` [.[.b.j.p.Y s r o |.6.|.G q G K 4.G =.o v e.).@.q.. . . . . ",
". . . . . ~ 7 r.l <.G G s.G o t.0.u.p.b.n.b.n.b.v.H [.[.` I p.w.x.r G =.3.q p J 6.o G Z G o t |.o y._.@.+.i . . . . ",
". . . . . z.* A.w N K K o h.t J q s |.h.l.p.a.n.j.r o p s {.B.U F ;.C.6.J r r ;.K p 4.^.D.s o r t E.F.,.@.G.. . . . ",
". . . . { 7 * H.<.Z J J Y M ^.t G q G r n u.b.j.I.o r r G %.( ~.K K 3.I m.J.9.F 7 > K.L.W C.6.o r r >.'.@.+.{ . . . ",
". . . . M.* 5 5 K G q J q N.Z Y G ^.k.b.a.a.w.0.i.3.{.m O.~.P.* & & 8 - ; ; ; < < < } } Q.t M o J s n R.).@.q.. . . ",
". . . . ^ _ : S.K o G 4.*.L t }.b.a.j.j.u.I t X %.j ( r.* * _ = - 9 ; K.; < b [ T.w U.c.J N.M 6.o G q V.'.@.W.. . . ",
". . . + l X.:  .=.6.r G r r 0.a.j.o.x.C o ;.G [.u.* * 8 = - 9 9 ; K.9 v Y.9.Y q *.K G q J s s Z Y G p W ).).Z.i . . ",
". . . T - : % K Z p p o s i.j.w.U u.F J ;.r G m.W m.N J.6 ; K.N r G r r o r r 6.L K |.G G *.=.t *.Y q *.)._.@.:.. . ",
". . . z.9 a 7 G q G K 4.G Z U U j ( ( ~.* ~.<.E [.o r r % < L.p ^.o s r t 3.G |.G J 6.J G q K `.r L s  +V.'.@..+. . ",
". . . Q.; , 5 ++I 6.@+N.N./.s.m ~.r.* * = - #+; O.t |.G > [ [ 6.K G G =.|.q p J 6.|.s /.s N.N.C.N.q V o $+%+@.W.. . ",
". . . : ; K.Y.` X M &+t M q t N.Y m./ 6 - ; ; K.T.W -.&.b *+=+6.C.Y N./.C.Y s t o -+G E.J M q t Y N.q Y ;+>+@.).. . ",
". . . 0 , > [.,+t [.s G '+=.o '+r '+*.r 3.J.c.5.[.I H ,+a )+f m.&+t M s q s N.s s q J r  +`.=.o '+r '+N.t _._.Z.. . ",
". . . L., 0 I ,+}.t r t /.s '+-+s N.s !+J G t [.}.H I ` : y y | s G '+Z o '+t '+*.r v $+r N.q '+-+s N.q N.~+,.{+. . ",
". . . [ a [ [.s X M I o o t K G X D.=.D.p K  +K G q o G c.]+P ~+d d X.3.X I O ^+/+Q @.@.V.E.=.D.p K  +K G ~+).@.. . ",
". . . } g [ H [.-.m.I M [.G t w T.T.O U.*+(+/+_+:+r 3.N N U.P <+@.@.{+[+{+{+@.@.@.@.@.R.;+r G p Z G r G r ~+).@.. . ",
". . . } c | W I M ` X q J r }+} (+(+(+f f f |+y : r r R.@.v 1+_+@.@.@.@.@.@.@.@.@.F.:+t r r G K =.p p o s Z._.@.. . ",
". . . *+d =+` [.F I ` ^.s s N *+(+/+f f d g /+Q. .=.3.P @.z [.W a ^+d 2+.._+y.3+N q r o o ;.3.G q G K ;.G Z.).{+. . ",
". . . =+d d r ^.q r q q G G C.4+r r 5+4+L ;.Z G o t r 6+@._+X ` ` r o p s r s q !+;.C.4.J r r ;.K G Z G J.R._.Z.. . ",
". . . d |+/+W r G K r ;.K K o M o t s s t 4+4+E.t r J.[+@.R.i.7+I r c.r 4+8+:+;+9+9+c.M t J s q o 6.G D.N 6+@.).. . ",
". . . (.y F.v q s q s =.J J Y }+Q.$+0+O F.{+[+[+Q {+6+@.@.@.[+{+{+6+[+[+[+@.@.@.@.@.Q 3.c.o G s G s 6.G w '.@.e.. . ",
". . . a+y ..y.G q G K G q J N <+@.@.@.@.@.@.@.@.@.@.@.@.@.@.@.@.@.@.@.@.@.@.@.@.@.@.Q r Z Y G p s G L K 1.Z.@..+. . ",
". . . !.y +.g ;.p s K o G 4.I 6+<+@.@.@.@.@.>+6+~+6+@.@.@.@.{+[+[+{+[+6+3+$+1 $+0+0+Y Z 3.*.s s *.Z J J _+).@.:.. . ",
". . . + 2+..).:+G p Z 6.r G r r b+>.^+0+z.>.r r v ..@.@.@.@.Q.c+i.t ^.r G p Z G r G r r t r t G K G s E...).Z.~ . . ",
". . . . d+{+_.1.G K =.p p o s r |.o G o 6.|.;+[+@.@.@.6+>+@.[+W X |.r e+/+1 L p p o s r |.o ^.o G t G 1.).@.f+. . . ",
". . . . g+@._.).J.G q G K 4.G =.t s p o ;+..<+@.@.F.:+5+F.@.[+-.X o t z @.@.[+/+# 4.G =.t s p r ;.G N )._.@.A . . . ",
". . . . { _.@.Z.O H ++q J r r o r r 6.1 {+@.@.{+0+r o o ..@.[+7+H 4 W T.{+@.@.@.{+h+r o r r G K Z p 3+_.@.e.{ . . . ",
". . . . . .+@.Z.~+F ` p /.q r |.t ;+]+@.@.>+z D.;.=.t s i+@.@.d [.M ` m.5 ^+{+@.@.@.~+Q.r ;.o G q j+_.'.@.G.. . . . ",
". . . . . i f+@._.b I r r ;.=.o e+>+@.@.[+k+Z ;.o t o o $+@.@.: ` [.m.` I ` w ).@.@.@.@.O p t G J V.'.@.+.i . . . . ",
". . . . . . :.{+e.+.:+;.G C.6.J y.@.{+7.l+G G D.s |.r o E.>+@./+r o p s r s q G ;+d @.@.^+r G K m+).,.<+q.. . . . . ",
". . . . . . . R @.Z.+.n+K o M t k+6+N o s s G 4.C.6.J r r _+@.V.J r r G K r G K K o N ^+J s q c.F.).@.R . . . . . . ",
". . . . . . . S f+@.'.i+r Y M G |.6.s G r G K K o M t o s t 1+I o o s q o /.=.J J Y M G t G t F.,.@.o++ . . . . . . ",
". . . . . . . . #.,.@.Z.>.t s Z s G p s s =.J J Y M ^.t G q X W G t G s G K G q J s s =.Y  .i+).@.,.8.. . . . . . . ",
". . . . . . . . . p+).@.'.y.&+t *./.q *.K G q J s s =.Y G p [.].=.Y G p q K o ;.G *.Z t 3.1.,.@.'.:.. . . . . . . . ",
". . . . . . . . . . :._.@.'.F.e+r r G K L o 4.G *.Z t *.s s m.5.o G r ;.p Z G r G r r v F.'.@.'.p+. . . . . . . . . ",
". . . . . . . . . . . 8.).@.'.).y.j+o G J 6.J G q K t r K q M [.t r r G K =.p p |.c.y.)._.@.).!.. . . . . . . . . . ",
". . . . . . . . . . . . #.e.@.).,.).^+u t N.s s N.N.C.N.q t H &.|.o ;.t G q ;.n+' ).'.).@.W.8.. . . . . . . . . . . ",
". . . . . . . . . . . . . S a+{+@.).Z...i+U.D.J M s o s N.q I W W -.&.++++W g /+_.).@.{+W.S . . . . . . . . . . . . ",
". . . . . . . . . . . . . . . q.+.@.@.)._.).F.+.g.8+n `.r `.X [.m.7 T./+_+Z._.%+@.@.f+A . . . . . . . . . . . . . . ",
". . . . . . . . . . . . . . . . i G.f+@.@.)._.e.Z.Z.).Z.~+R.~+R.R.6+~+_.R._.@.@.e.2 i . . . . . . . . . . . . . . . ",
". . . . . . . . . . . . . . . . . . { q.W.Z.@.@.@.@.).)._._.).~+R.@.@.@.@.R.W.g+{ . . . . . . . . . . . . . . . . . ",
". . . . . . . . . . . . . . . . . . . . . ~ 8.G.(...Z.{+@.@.@.{+Z...f+q+!.i . . . . . . . . . . . . . . . . . . . . ",
". . . . . . . . . . . . . . . . . . . . . . . . . . . . . . . . . . . . . . . . . . . . . . . . . . . . . . . . . . ",
". . . . . . . . . . . . . . . . . . . . . . . . . . . . . . . . . . . . . . . . . . . . . . . . . . . . . . . . . . ",
". . . . . . . . . . . . . . . . . . . . . . . . . . . . . . . . . . . . . . . . . . . . . . . . . . . . . . . . . . "};
