/* XPM */
static char * digit_1_xpm[] = {
"58 59 248 2",
"  	c None",
". 	c #000000",
"+ 	c #211821",
"@ 	c #4A525A",
"# 	c #6B737B",
"$ 	c #7B8494",
"% 	c #8C9CAD",
"& 	c #7BA5C6",
"* 	c #84ADCE",
"= 	c #7BADCE",
"- 	c #73A5CE",
"; 	c #7394BD",
"> 	c #849CB5",
", 	c #737B9C",
"' 	c #737B84",
") 	c #635A73",
"! 	c #42424A",
"~ 	c #181818",
"{ 	c #100810",
"] 	c #5A636B",
"^ 	c #7B8C9C",
"/ 	c #84BDDE",
"( 	c #7BADD6",
"_ 	c #7B94AD",
": 	c #7B94A5",
"< 	c #7B8CA5",
"[ 	c #7384A5",
"} 	c #6384B5",
"| 	c #637BAD",
"1 	c #6B84A5",
"2 	c #63637B",
"3 	c #636B7B",
"4 	c #84C6E7",
"5 	c #849CBD",
"6 	c #6B7B9C",
"7 	c #6B7B94",
"8 	c #6B6B8C",
"9 	c #5A73A5",
"0 	c #52739C",
"a 	c #636B84",
"b 	c #84BDE7",
"c 	c #8C94A5",
"d 	c #AD9C9C",
"e 	c #B59C94",
"f 	c #B58C84",
"g 	c #B5847B",
"h 	c #947373",
"i 	c #BD9484",
"j 	c #B59484",
"k 	c #948484",
"l 	c #8C8C9C",
"m 	c #526394",
"n 	c #5A637B",
"o 	c #392942",
"p 	c #292931",
"q 	c #8CBDDE",
"r 	c #8CA5B5",
"s 	c #9C8C8C",
"t 	c #9C846B",
"u 	c #CE9484",
"v 	c #C68C7B",
"w 	c #AD847B",
"x 	c #A58473",
"y 	c #946B5A",
"z 	c #C69484",
"A 	c #847B8C",
"B 	c #5A5A84",
"C 	c #425A84",
"D 	c #4A4252",
"E 	c #B59C8C",
"F 	c #9C735A",
"G 	c #AD7363",
"H 	c #C69C84",
"I 	c #847384",
"J 	c #5A5A73",
"K 	c #42427B",
"L 	c #312931",
"M 	c #84A5BD",
"N 	c #ADADB5",
"O 	c #B5A594",
"P 	c #CEA58C",
"Q 	c #AD7352",
"R 	c #BD9C8C",
"S 	c #9C7B6B",
"T 	c #A58484",
"U 	c #735A73",
"V 	c #52526B",
"W 	c #4A4263",
"X 	c #394273",
"Y 	c #312939",
"Z 	c #8CA5BD",
"` 	c #949C9C",
" .	c #DEA594",
"..	c #B58463",
"+.	c #947B6B",
"@.	c #9C7B63",
"#.	c #31316B",
"$.	c #B5846B",
"%.	c #947B7B",
"&.	c #6B5A6B",
"*.	c #292963",
"=.	c #94847B",
"-.	c #C6A58C",
";.	c #634263",
">.	c #42395A",
",.	c #29295A",
"'.	c #4A395A",
").	c #292129",
"!.	c #292929",
"~.	c #A57B7B",
"{.	c #947363",
"].	c #9C7373",
"^.	c #CE9C8C",
"/.	c #94A5AD",
"(.	c #423152",
"_.	c #21184A",
":.	c #4A314A",
"<.	c #A5A5AD",
"[.	c #94C6E7",
"}.	c #94BDDE",
"|.	c #8CB5D6",
"1.	c #8CADCE",
"2.	c #9C9494",
"3.	c #A57B73",
"4.	c #39294A",
"5.	c #18104A",
"6.	c #7B9CCE",
"7.	c #8CC6EF",
"8.	c #739CC6",
"9.	c #7B9CC6",
"0.	c #6B84B5",
"a.	c #848494",
"b.	c #8C6B6B",
"c.	c #8C6B73",
"d.	c #180842",
"e.	c #312131",
"f.	c #101818",
"g.	c #6B94C6",
"h.	c #638CBD",
"i.	c #6384BD",
"j.	c #5A73AD",
"k.	c #526BA5",
"l.	c #5A6B9C",
"m.	c #634A5A",
"n.	c #39214A",
"o.	c #100839",
"p.	c #B59473",
"q.	c #948C9C",
"r.	c #8C8C94",
"s.	c #7B6B84",
"t.	c #946B63",
"u.	c #84636B",
"v.	c #312142",
"w.	c #6B9CC6",
"x.	c #100039",
"y.	c #080808",
"z.	c #A59CA5",
"A.	c #8C848C",
"B.	c #6373A5",
"C.	c #4A5A94",
"D.	c #524252",
"E.	c #423142",
"F.	c #8C7384",
"G.	c #4A639C",
"H.	c #4A5A9C",
"I.	c #424A8C",
"J.	c #AD9494",
"K.	c #7B94BD",
"L.	c #5A6B94",
"M.	c #846B84",
"N.	c #7B637B",
"O.	c #736363",
"P.	c #291829",
"Q.	c #BD846B",
"R.	c #AD7B7B",
"S.	c #846B4A",
"T.	c #8C7B7B",
"U.	c #DEB594",
"V.	c #9C7363",
"W.	c #73637B",
"X.	c #735263",
"Y.	c #291839",
"Z.	c #73738C",
"`.	c #636394",
" +	c #4A528C",
".+	c #394284",
"++	c #394A7B",
"@+	c #31317B",
"#+	c #313173",
"$+	c #312973",
"%+	c #31296B",
"&+	c #6B4A6B",
"*+	c #846B63",
"=+	c #7394AD",
"-+	c #5263A5",
";+	c #4A4A84",
">+	c #52527B",
",+	c #63527B",
"'+	c #393173",
")+	c #39296B",
"!+	c #211863",
"~+	c #211063",
"{+	c #523963",
"]+	c #392142",
"^+	c #D69C84",
"/+	c #8C7B8C",
"(+	c #B5948C",
"_+	c #42426B",
":+	c #18085A",
"<+	c #8C6B7B",
"[+	c #A58463",
"}+	c #4A5A8C",
"|+	c #21105A",
"1+	c #846363",
"2+	c #636B9C",
"3+	c #39316B",
"4+	c #392163",
"5+	c #312163",
"6+	c #31185A",
"7+	c #393984",
"8+	c #31397B",
"9+	c #4A315A",
"0+	c #5A426B",
"a+	c #8C6373",
"b+	c #29105A",
"c+	c #525273",
"d+	c #524A73",
"e+	c #9C6B73",
"f+	c #4A3163",
"g+	c #42295A",
"h+	c #73638C",
"i+	c #29185A",
"j+	c #736B73",
"k+	c #846B6B",
"l+	c #4A394A",
"m+	c #73526B",
"n+	c #7B5A6B",
"o+	c #6B4A5A",
"p+	c #523163",
"q+	c #5A425A",
"r+	c #8C6B5A",
"s+	c #63425A",
"t+	c #523952",
"u+	c #7B6363",
"v+	c #94636B",
"w+	c #6B525A",
"x+	c #735A5A",
"y+	c #4A2952",
". . . . . . . . . . . . . . . . . . . . . . . . . . . . . . . . . . . . . . . . . . . . . . . . . . . . . . . . . . ",
". . . . . . . . . . . . . . . . . . . . . . . . . . . . . . . . . . . . . . . . . . . . . . . . . . . . . . . . . . ",
". . . . . . . . . . . . . . . . . . . . . . . . . . . . . . . . . . . . . . . . . . . . . . . . . . . . . . . . . . ",
". . . . . . . . . . . . . . . . . . . . . + @ # $ % & * = - - ; > , ' ) ! ~ . . . . . . . . . . . . . . . . . . . . ",
". . . . . . . . . . . . . . . . . . { ] ^ * / / / ( _ : _ _ < ^ [ } } } | 1 2 ! { . . . . . . . . . . . . . . . . . ",
". . . . . . . . . . . . . . . . ~ 3 > 4 / > _ _ _ > % 5 > _ _ _ [ 1 6 7 7 8 9 0 a @ { . . . . . . . . . . . . . . . ",
". . . . . . . . . . . . . . . ] > 4 b > _ _ > c d e f g h i g j j k k l 7 8 a a m m n o . . . . . . . . . . . . . . ",
". . . . . . . . . . . . . p $ q 4 > > % r s t u v v f w g x y g x y y f z s A 8 B n C C @ + . . . . . . . . . . . . ",
". . . . . . . . . . . . D > 4 > > % ^ E x F F G G i f f j j i i t j j H z t f x I n n J K J L . . . . . . . . . . . ",
". . . . . . . . . . . @ M / > _ N O i P t f f u v Q x g x i x F x j f j R S i x h T U V W X V Y . . . . . . . . . . ",
". . . . . . . . . . @ Z / > % ` w w x y x j f  .G ..+.H x h i y g x x P @.i P i i P @.I J V #.W Y . . . . . . . . . ",
". . . . . . . . . @ M / > % s v i x f x v x t $. .u f x f x h t x g x g w g w g x F x i %.&.W *.W L . . . . . . . . ",
". . . . . . . . ! M ( : : x S f j h g x x w x G Q $.g f q q =.t h h f j g j f x f x f t x -.;.>.,.'.).. . . . . . . ",
". . . . . . . !._ ( _ % T g f g w ~.{.t %.].j ^.Q G j f q b /.j x F x x S g i h f t x g x w ~.V (._.:.{ . . . . . . ",
". . . . . . . ' = % < e i g g <.[.[.[.[.[.q [.[.}.N d ` |./ 1.2.E f w w j w g x F t ].h v j g 3.'.4.5.o . . . . . . ",
". . . . . . ] 6.% < 2.w x +.j }.7.7.7.7.7.7.7.4 4 b b / ( ( ( - 8.9.8.; ; 0.a.l a.l k b.x x +.g c.4.4.d.e.. . . . . ",
". . . . . f.: 8.: c x x  .t f g <./.` /./.}.|.q |.|.* ( - - - - g.g.h.h.i.} } j.j.j.k.l.x g i g j m.n.o.4.{ . . . . ",
". . . . . ] 8.6 < =.F F f z g j j i p.i i x x u v w f ^ 6.- 8.q.r.l % < < [ , , 8 8 7 s.t.i f g f u.:.v.o.Y . . . . ",
". . . . { < w.[ 2.t f f H H x g x i x w x @.y u G f g g _ g.; x F y g z g f i i f j i x x  .t f g w m.v.x.4.y.. . . ",
". . . . @ ; ^ $ +.x j f j H +.H x h j H +.f f H v f f i c h.0.+.f f -.i 3.f x j x g x y F g z f f j ~.4.n.o.e.. . . ",
". . . . 7 } 6 ^ F f x t P t p.P i d N r.q.z.c r.A.r.q.a._ } | A r.B.9 9 l.l.m C.8 s t f f -.z t f t i D.v.x.E.. . . ",
". . . ~ ^ 6 7 F.t t g x g w f g w % ( - - w.8.g.g.h.i.} } } j.j.k.k.G.H.C.C.C.I.I.U t i f j -.S H x ].c.4.n.v.{ . . ",
". . . ! j.7 , y S ].].f j g f f x J.K.8.; ; 0.0.0.[ | | B.B.9 l.l.L.L.m 8 M.s.N.O.y i x x P +.p.P H j P 4.v.o.P.. . ",
". . . ] j.8 a.x i x F t x t g i h f x f R R j z Q.f w g x y @.].].f i R.v f x f x f t f x i y p.w {.i S.D.v.x.Y . . ",
". . . ' 9 7 T...v t U.-.-.H U.R j p.f S t V.f u H g f x f x s I U N.N.W.s.s.) N.h f H i j -.-.U.R i p.f X.Y.o.E.. . ",
". . . Z.0 8 ].P ..z y p.z j % ; d j H j f s # A.Z.8 8 `.m m  +I.I..+.+++@+@+#+$+$+%+&+t.f z j f H -.i i *+Y.x.4.. . ",
". . . 7 a Z.$.P p.Q.i x w t h.h.=+s q.[ | 9 9 k.-+G.H.C.C.I.I.;+;+;+K K >+,+'+)+%+!+~+{+S.p.@.f p.w p.-.T n.]+v.. . ",
". . . L.a 8 z ^+^.p.w p.H j 0.i.j.} j.j.k.-+l.L.`./+F.T ].(+~.Q.j x x S i p.w w w _+:+:+<+R i x [+j -.j H v.v.d.. . ",
". . . }+n B ..z ..z z f f f 7 | j.9 7 8 8 W.O.{.3.i f x w x Q.u v G $.i G i v f g U |+:+1+t.t t.].F S.F x n.n.o.. . ",
". . . }+J n u Q.Q Q.v z Q.x r.j.2+w x <+L.B m  + +;+;+.+K K '+'+3+)+)+4+5+6+].H Q.&+:+:+u.g x h t x g x w n.v.x.. . ",
". . . C J >+G v i u [+j f g /+k.l.w x U C.C.I.I..+7+8+@+#+$+$+!+%+!+!+:+:+:+9+j f 0+:+|+c.w x F t h h f i _.n.o.. . ",
". . . ;+V J P Q.Q.v ^+].i j A H.H.I f x k W.&.N.N.U N.<+'+3+3+4+5+5+5+6+6+5+a+h j b+|+b+w x g x i x y $.x v.]+d.. . ",
". . . c+V d+w h j w j j x x J.C.C.s.g x F x S t v g j w <+].1+e+g ~.R.h i w i i x f+g+&+f w g x y x t x ~.n.]+n.. . ",
". . . 0+_+_+<+g x F w x F F f h+ +k j i f c.U '+'+3+%+5+~+~+:+|+b+!+i+{+&+y w x F @.f i g f j i j $.x t.c.Y.o.n.. . ",
". . . D #.W j+j i f H +.f f H H ].v x T J $+%+%+%+!+~+|+:+:+|+:+:+|+|+:+:+!+&+*+f f H z x f x j x j x x k+n.x.o . . ",
". . . l+*.>.&+x j x F x j f j i t i x d+%+%+%+f+U U m+) U U U n+o+&+p+i+|+|+:+i+=.f j H +.H x h i x F F q+v.o.Y . . ",
". . . L ,.(.W x ].i y j x t P t p.P i %+!+3+w f H z x i $.i  .G ..S i x n+0+|+:+n+x P +.i P i i P +.f f (.]+x.e.. . ",
". . . { '.>.(.b.x h t t g x g w f g w )+~+4+f f j H S i x h Q. .u p.x g x h |+:+&+x g w g w g x F x j u.4.4.Y.{ . . ",
". . . . ! 5.4.;.x F S ].].f j g f f x &+:+:+|+f+{+g+m+N.U U o+o+o+U 0+g+f+b+|+:+&+f i w i f x f x g x D.4.x.E.. . . ",
". . . . ).5.(.4.3.x j x F t x t g i h f {+|+:+:+:+:+:+:+|+:+:+:+:+:+:+:+:+:+|+p+r+t x t g i h g x x ].n.]+o.e.. . . ",
". . . . y.4.o.]+X.u ..i f g g f g w x y +.|+:+6+_+6+6+6+i+6+5+6+5+6+b+:+i+U V.i f g g f g w x F +.].q+v.x.4.y.. . . ",
". . . . . Y o.]+E.3.u h i j w f g x i x i 4+:+6+x S f i h f $.G Q.<+b+:+p+v u h i j w g f x i x i b.o v.o.e.. . . . ",
". . . . . { E.x.]+o+v w g x t g j 0+) o+) g+|+:+{+m+U U U U 0+p+{+4+:+|+4+{+f+f+f+f+f+f+c.h f t f D.v.x.4.{ . . . . ",
". . . . . . P.d.n.4.k+x x  .x f m+:+|+|+:+:+:+:+|+:+:+:+:+:+|+:+:+:+|+:+:+:+|+:+:+:+:+:+&+g x y X.]+]+o.e.. . . . . ",
". . . . . . . Y x.v.4.1+F p.z f c.5+b+!+6+5+i+6+5+i+5+6+6+i+5+6+5+b+f+o+s+&+o+;.q+m+U m+%.j j ].:.4.x.o . . . . . . ",
". . . . . . . ~ 4.o.Y.t+T -.z x f S j 3.w 3.y {.g i w T j f i g g T i E f -.+.f f H z x i x w D v.x.Y { . . . . . . ",
". . . . . . . . + ]+o.v.q+w i t H x h i i +.f f H z x g x i G G x g x i x y x j f j H +.H S D v.o.v.P.. . . . . . . ",
". . . . . . . . . + n.o.Y.q+*+p.P H i P F x j f j i t H x h Q. .t H x h i F g x x P t p.w q+v.x.v.).. . . . . . . . ",
". . . . . . . . . . ).n.o.v.(.n+g w x y {.i t x P t p.P H j Q.G g x g x h t x g x w w u.4.v.x.v.+ . . . . . . . . . ",
". . . . . . . . . . . P.n.x.v.4.s+b.i x f t f x j F w g {.i i Q.j g w x F +.h h i ].q+4.n.x.4.P.. . . . . . . . . . ",
". . . . . . . . . . . . + o x.n.v.n.m.+.g -.i i -.-.U.i i p.u H g i t i x j $.1+m.4.v.]+x.o + . . . . . . . . . . . ",
". . . . . . . . . . . . . ~ E.d.o.4.v.4.t+u+t.f z i j i -.j z Q G Q v ....v+D.:.v.4.x.d.E.~ . . . . . . . . . . . . ",
". . . . . . . . . . . . . . . L :.x.x.4.v.4.4.E.w+x+~.p.g p.G p.g ].u.t+y+o v.Y.o.x.:.e.. . . . . . . . . . . . . . ",
". . . . . . . . . . . . . . . . y.Y o x.o.n.v.n.v.v.n.v._.4.v.n.n.v.]+]+o ]+o.o.]+Y y.. . . . . . . . . . . . . . . ",
". . . . . . . . . . . . . . . . . . y.L o n.x.o.x.o.v.4.]+v.n.]+n.x.o.x.x.n.E.e.y.. . . . . . . . . . . . . . . . . ",
". . . . . . . . . . . . . . . . . . . . . { ).Y l+4.n.d.o.x.o.d.v.4.:.Y e.{ . . . . . . . . . . . . . . . . . . . . ",
". . . . . . . . . . . . . . . . . . . . . . . . . . . . . . . . . . . . . . . . . . . . . . . . . . . . . . . . . . ",
". . . . . . . . . . . . . . . . . . . . . . . . . . . . . . . . . . . . . . . . . . . . . . . . . . . . . . . . . . ",
". . . . . . . . . . . . . . . . . . . . . . . . . . . . . . . . . . . . . . . . . . . . . . . . . . . . . . . . . . "};
