/* XPM */
static char * digit_9_xpm[] = {
"20 27 46 1",
" 	c None",
".	c #000000",
"+	c #525252",
"@	c #080808",
"#	c #181818",
"$	c #212121",
"%	c #636363",
"&	c #848484",
"*	c #949494",
"=	c #292929",
"-	c #101010",
";	c #D6D6D6",
">	c #EFEFEF",
",	c #E7E7E7",
"'	c #737373",
")	c #A5A5A5",
"!	c #ADADAD",
"~	c #C6C6C6",
"{	c #9C9C9C",
"]	c #313131",
"^	c #424242",
"/	c #BDBDBD",
"(	c #393939",
"_	c #6B6B6B",
":	c #8C8C8C",
"<	c #DEDEDE",
"[	c #4A4A4A",
"}	c #B5B5B5",
"|	c #5A5A5A",
"1	c #7B7B7B",
"2	c #CECECE",
"3	c #ADA5A5",
"4	c #7B7373",
"5	c #101008",
"6	c #736B6B",
"7	c #212129",
"8	c #313139",
"9	c #393139",
"0	c #080810",
"a	c #C5C5C5",
"b	c #6D6D6D",
"c	c #161616",
"d	c #191919",
"e	c #081008",
"f	c #100810",
"g	c #292121",
"....................",
"+...................",
"+.@@@@@.....@@@@@@..",
"+.##-@#+'&1%=@--#-@.",
"+-##-|2>>>>>,&####@.",
"+-$$:>>>>>>>>>!$$$@.",
"+#=&>>>>/)}>>>>{=]-.",
"+#+>>>>{]==1>>>>%]-.",
"+$*>>>~^^^^()>>>)(-.",
"+=}>>>*[++++|,>>;|-.",
"+[~>>>*_''''',>>>1$.",
"+_;>>>;)!!!)~>>>>}=.",
"+[)>>>>)__'*>>>>>:#.",
"+(%~>>>>2/~>>>>>>1#.",
"+(+_<>>>>>>>>>>>>_-.",
"+=+^%2>>>>>>;,>>,+-.",
"+=^((^%{//{_[<>>~^-.",
"+$(%~)^=((]=1>>>)]-.",
"+#(;>>2^g]=^;>>>%]@.",
"+#]~>>>;_]%2>>>{==-.",
"+#$%>>>>>,>>>>;($=@.",
"+-$#%;>>>>>>>~^#$$@.",
"+-$#-=|),,,!|$-$$$@.",
"+@###---=]=-@#####@.",
"+.------@@--------..",
"|%''''_'''_'_''_''^.",
"...................."};
