/* XPM */
static char * digit_0_xpm[] = {
"20 27 31 1",
" 	c None",
".	c #000000",
"+	c #525252",
"@	c #080808",
"#	c #181818",
"$	c #212121",
"%	c #636363",
"&	c #848484",
"*	c #949494",
"=	c #292929",
"-	c #101010",
";	c #D6D6D6",
">	c #EFEFEF",
",	c #E7E7E7",
"'	c #737373",
")	c #A5A5A5",
"!	c #ADADAD",
"~	c #C6C6C6",
"{	c #9C9C9C",
"]	c #313131",
"^	c #424242",
"/	c #BDBDBD",
"(	c #393939",
"_	c #6B6B6B",
":	c #8C8C8C",
"<	c #DEDEDE",
"[	c #4A4A4A",
"}	c #B5B5B5",
"|	c #5A5A5A",
"1	c #7B7B7B",
"2	c #CECECE",
"....................",
"+...................",
"+.@@@@@.....@@@@@@..",
"+.###@$%&*&%=@#-#-@.",
"+-##-%;>>>>>,'####@.",
"+-=#&>>>>>>>>>)$$$@.",
"+#=%>>>>;!~>>>>{=]@.",
"+$^;>>>/(=]&>>>>_]-.",
"+$:>>><[(^^(!>>>}(-.",
"+]~>>>{[++++|<>>,%-.",
"+[,>>>&'''''_~>>>:#.",
"+1>>>,!!!!!!);>>>~=.",
"[|>>>;''''''_}>>>)#.",
"+[>>>;%%%%%%|!>>>{-.",
"+^>>><|+|+|+[!>>>*-.",
"+];>>>|^[[[[^/>>>'@.",
"+$/>>>*(^^^^^<>>>+-.",
"+#*>>>2((((]1>>>2(-.",
"+#[,>>>&==$+<>>>:=@.",
"+#$'>>>>!1*<>>>;(=-.",
"+#==/>>>>>>>>>,[$=@.",
"+-=$]!>>>>>>>;+#$$@.",
"+@$###[*<>,}_=-$$$@.",
"+@####--$]=#@#####@.",
"+.------@@@-------..",
"|%''_'_'''''_''_''^.",
"...................."};
